<?xml version="1.0" encoding="utf-8" standalone="no"?>
<!DOCTYPE svg PUBLIC "-//W3C//DTD SVG 1.1//EN"
  "http://www.w3.org/Graphics/SVG/1.1/DTD/svg11.dtd">
<svg xmlns:xlink="http://www.w3.org/1999/xlink" width="252pt" height="189pt" viewBox="0 0 252 189" xmlns="http://www.w3.org/2000/svg" version="1.1">
 <metadata>
  <rdf:RDF xmlns:dc="http://purl.org/dc/elements/1.1/" xmlns:cc="http://creativecommons.org/ns#" xmlns:rdf="http://www.w3.org/1999/02/22-rdf-syntax-ns#">
   <cc:Work>
    <dc:type rdf:resource="http://purl.org/dc/dcmitype/StillImage"/>
    <dc:date>2026-08-28T16:13:10.970074</dc:date>
    <dc:format>image/svg+xml</dc:format>
    <dc:creator>
     <cc:Agent>
      <dc:title>Matplotlib v3.11.1, https://matplotlib.org/</dc:title>
     </cc:Agent>
    </dc:creator>
   </cc:Work>
  </rdf:RDF>
 </metadata>
 <defs>
  <style type="text/css">*{stroke-linejoin: round; stroke-linecap: butt}</style>
 </defs>
 <g id="figure_1">
  <g id="patch_1">
   <path d="M 0 189 
L 252 189 
L 252 0 
L 0 0 
z
" style="fill: #ffffff"/>
  </g>
  <g id="axes_1">
   <g id="patch_2">
    <path d="M 43.80024 157.496557 
L 248.99976 157.496557 
L 248.99976 3.00024 
L 43.80024 3.00024 
z
" style="fill: #ffffff"/>
   </g>
   <g id="matplotlib.axis_1">
    <g id="xtick_1">
     <g id="line2d_1">
      <defs>
       <path id="m68e61ca764" d="M 0 0 
L 0 -3 
" style="stroke: #000000; stroke-width: 0.5"/>
      </defs>
      <g>
       <use xlink:href="#m68e61ca764" x="64.320192" y="157.496557" style="stroke: #000000; stroke-width: 0.5"/>
      </g>
     </g>
     <g id="line2d_2">
      <defs>
       <path id="m1ac7b65d87" d="M 0 0 
L 0 3 
" style="stroke: #000000; stroke-width: 0.5"/>
      </defs>
      <g>
       <use xlink:href="#m1ac7b65d87" x="64.320192" y="3.00024" style="stroke: #000000; stroke-width: 0.5"/>
      </g>
     </g>
     <g id="text_1">
      <!-- $80.0\mathrm{k }$ -->
      <g transform="translate(50.270192 168.596557) scale(0.1 -0.1)">
       <defs>
        <path id="DejaVuSans-1b" d="M 2034 2216 
Q 1584 2216 1326 1975 
Q 1069 1734 1069 1313 
Q 1069 891 1326 650 
Q 1584 409 2034 409 
Q 2484 409 2743 651 
Q 3003 894 3003 1313 
Q 3003 1734 2745 1975 
Q 2488 2216 2034 2216 
z
M 1403 2484 
Q 997 2584 770 2862 
Q 544 3141 544 3541 
Q 544 4100 942 4425 
Q 1341 4750 2034 4750 
Q 2731 4750 3128 4425 
Q 3525 4100 3525 3541 
Q 3525 3141 3298 2862 
Q 3072 2584 2669 2484 
Q 3125 2378 3379 2068 
Q 3634 1759 3634 1313 
Q 3634 634 3220 271 
Q 2806 -91 2034 -91 
Q 1263 -91 848 271 
Q 434 634 434 1313 
Q 434 1759 690 2068 
Q 947 2378 1403 2484 
z
M 1172 3481 
Q 1172 3119 1398 2916 
Q 1625 2713 2034 2713 
Q 2441 2713 2670 2916 
Q 2900 3119 2900 3481 
Q 2900 3844 2670 4047 
Q 2441 4250 2034 4250 
Q 1625 4250 1398 4047 
Q 1172 3844 1172 3481 
z
" transform="scale(0.015625)"/>
        <path id="DejaVuSans-13" d="M 2034 4250 
Q 1547 4250 1301 3770 
Q 1056 3291 1056 2328 
Q 1056 1369 1301 889 
Q 1547 409 2034 409 
Q 2525 409 2770 889 
Q 3016 1369 3016 2328 
Q 3016 3291 2770 3770 
Q 2525 4250 2034 4250 
z
M 2034 4750 
Q 2819 4750 3233 4129 
Q 3647 3509 3647 2328 
Q 3647 1150 3233 529 
Q 2819 -91 2034 -91 
Q 1250 -91 836 529 
Q 422 1150 422 2328 
Q 422 3509 836 4129 
Q 1250 4750 2034 4750 
z
" transform="scale(0.015625)"/>
        <path id="DejaVuSans-11" d="M 684 794 
L 1344 794 
L 1344 0 
L 684 0 
L 684 794 
z
" transform="scale(0.015625)"/>
        <path id="DejaVuSans-4e" d="M 581 4863 
L 1159 4863 
L 1159 1991 
L 2875 3500 
L 3609 3500 
L 1753 1863 
L 3688 0 
L 2938 0 
L 1159 1709 
L 1159 0 
L 581 0 
L 581 4863 
z
" transform="scale(0.015625)"/>
       </defs>
       <use xlink:href="#DejaVuSans-1b" transform="translate(0 0.015625)"/>
       <use xlink:href="#DejaVuSans-13" transform="translate(63.623047 0.015625)"/>
       <use xlink:href="#DejaVuSans-11" transform="translate(127.246094 0.015625)"/>
       <use xlink:href="#DejaVuSans-13" transform="translate(159.033203 0.015625)"/>
       <use xlink:href="#DejaVuSans-4e" transform="translate(222.65625 0.015625)"/>
      </g>
     </g>
    </g>
    <g id="xtick_2">
     <g id="line2d_3">
      <g>
       <use xlink:href="#m68e61ca764" x="105.360096" y="157.496557" style="stroke: #000000; stroke-width: 0.5"/>
      </g>
     </g>
     <g id="line2d_4">
      <g>
       <use xlink:href="#m1ac7b65d87" x="105.360096" y="3.00024" style="stroke: #000000; stroke-width: 0.5"/>
      </g>
     </g>
     <g id="text_2">
      <!-- $90.0\mathrm{k }$ -->
      <g transform="translate(91.310096 168.596557) scale(0.1 -0.1)">
       <defs>
        <path id="DejaVuSans-1c" d="M 703 97 
L 703 672 
Q 941 559 1184 500 
Q 1428 441 1663 441 
Q 2288 441 2617 861 
Q 2947 1281 2994 2138 
Q 2813 1869 2534 1725 
Q 2256 1581 1919 1581 
Q 1219 1581 811 2004 
Q 403 2428 403 3163 
Q 403 3881 828 4315 
Q 1253 4750 1959 4750 
Q 2769 4750 3195 4129 
Q 3622 3509 3622 2328 
Q 3622 1225 3098 567 
Q 2575 -91 1691 -91 
Q 1453 -91 1209 -44 
Q 966 3 703 97 
z
M 1959 2075 
Q 2384 2075 2632 2365 
Q 2881 2656 2881 3163 
Q 2881 3666 2632 3958 
Q 2384 4250 1959 4250 
Q 1534 4250 1286 3958 
Q 1038 3666 1038 3163 
Q 1038 2656 1286 2365 
Q 1534 2075 1959 2075 
z
" transform="scale(0.015625)"/>
       </defs>
       <use xlink:href="#DejaVuSans-1c" transform="translate(0 0.015625)"/>
       <use xlink:href="#DejaVuSans-13" transform="translate(63.623047 0.015625)"/>
       <use xlink:href="#DejaVuSans-11" transform="translate(127.246094 0.015625)"/>
       <use xlink:href="#DejaVuSans-13" transform="translate(159.033203 0.015625)"/>
       <use xlink:href="#DejaVuSans-4e" transform="translate(222.65625 0.015625)"/>
      </g>
     </g>
    </g>
    <g id="xtick_3">
     <g id="line2d_5">
      <g>
       <use xlink:href="#m68e61ca764" x="146.4" y="157.496557" style="stroke: #000000; stroke-width: 0.5"/>
      </g>
     </g>
     <g id="line2d_6">
      <g>
       <use xlink:href="#m1ac7b65d87" x="146.4" y="3.00024" style="stroke: #000000; stroke-width: 0.5"/>
      </g>
     </g>
     <g id="text_3">
      <!-- $0.1\mathrm{M }$ -->
      <g transform="translate(134.1 168.594213) scale(0.1 -0.1)">
       <defs>
        <path id="DejaVuSans-14" d="M 794 531 
L 1825 531 
L 1825 4091 
L 703 3866 
L 703 4441 
L 1819 4666 
L 2450 4666 
L 2450 531 
L 3481 531 
L 3481 0 
L 794 0 
L 794 531 
z
" transform="scale(0.015625)"/>
        <path id="DejaVuSans-30" d="M 628 4666 
L 1569 4666 
L 2759 1491 
L 3956 4666 
L 4897 4666 
L 4897 0 
L 4281 0 
L 4281 4097 
L 3078 897 
L 2444 897 
L 1241 4097 
L 1241 0 
L 628 0 
L 628 4666 
z
" transform="scale(0.015625)"/>
       </defs>
       <use xlink:href="#DejaVuSans-13" transform="translate(0 0.78125)"/>
       <use xlink:href="#DejaVuSans-11" transform="translate(63.623047 0.78125)"/>
       <use xlink:href="#DejaVuSans-14" transform="translate(95.410156 0.78125)"/>
       <use xlink:href="#DejaVuSans-30" transform="translate(159.033203 0.78125)"/>
      </g>
     </g>
    </g>
    <g id="xtick_4">
     <g id="line2d_7">
      <g>
       <use xlink:href="#m68e61ca764" x="187.439904" y="157.496557" style="stroke: #000000; stroke-width: 0.5"/>
      </g>
     </g>
     <g id="line2d_8">
      <g>
       <use xlink:href="#m1ac7b65d87" x="187.439904" y="3.00024" style="stroke: #000000; stroke-width: 0.5"/>
      </g>
     </g>
     <g id="text_4">
      <!-- $0.11\mathrm{M }$ -->
      <g transform="translate(171.989904 168.594213) scale(0.1 -0.1)">
       <use xlink:href="#DejaVuSans-13" transform="translate(0 0.78125)"/>
       <use xlink:href="#DejaVuSans-11" transform="translate(63.623047 0.78125)"/>
       <use xlink:href="#DejaVuSans-14" transform="translate(95.410156 0.78125)"/>
       <use xlink:href="#DejaVuSans-14" transform="translate(159.033203 0.78125)"/>
       <use xlink:href="#DejaVuSans-30" transform="translate(222.65625 0.78125)"/>
      </g>
     </g>
    </g>
    <g id="xtick_5">
     <g id="line2d_9">
      <g>
       <use xlink:href="#m68e61ca764" x="228.479808" y="157.496557" style="stroke: #000000; stroke-width: 0.5"/>
      </g>
     </g>
     <g id="line2d_10">
      <g>
       <use xlink:href="#m1ac7b65d87" x="228.479808" y="3.00024" style="stroke: #000000; stroke-width: 0.5"/>
      </g>
     </g>
     <g id="text_5">
      <!-- $0.12\mathrm{M }$ -->
      <g transform="translate(213.029808 168.594213) scale(0.1 -0.1)">
       <defs>
        <path id="DejaVuSans-15" d="M 1228 531 
L 3431 531 
L 3431 0 
L 469 0 
L 469 531 
Q 828 903 1448 1529 
Q 2069 2156 2228 2338 
Q 2531 2678 2651 2914 
Q 2772 3150 2772 3378 
Q 2772 3750 2511 3984 
Q 2250 4219 1831 4219 
Q 1534 4219 1204 4116 
Q 875 4013 500 3803 
L 500 4441 
Q 881 4594 1212 4672 
Q 1544 4750 1819 4750 
Q 2544 4750 2975 4387 
Q 3406 4025 3406 3419 
Q 3406 3131 3298 2873 
Q 3191 2616 2906 2266 
Q 2828 2175 2409 1742 
Q 1991 1309 1228 531 
z
" transform="scale(0.015625)"/>
       </defs>
       <use xlink:href="#DejaVuSans-13" transform="translate(0 0.78125)"/>
       <use xlink:href="#DejaVuSans-11" transform="translate(63.623047 0.78125)"/>
       <use xlink:href="#DejaVuSans-14" transform="translate(95.410156 0.78125)"/>
       <use xlink:href="#DejaVuSans-15" transform="translate(159.033203 0.78125)"/>
       <use xlink:href="#DejaVuSans-30" transform="translate(222.65625 0.78125)"/>
      </g>
     </g>
    </g>
    <g id="xtick_6">
     <g id="line2d_11">
      <defs>
       <path id="mbc00851485" d="M 0 0 
L 0 -1.5 
" style="stroke: #000000; stroke-width: 0.5"/>
      </defs>
      <g>
       <use xlink:href="#mbc00851485" x="47.90423" y="157.496557" style="stroke: #000000; stroke-width: 0.5"/>
      </g>
     </g>
     <g id="line2d_12">
      <defs>
       <path id="m102e2a185d" d="M 0 0 
L 0 1.5 
" style="stroke: #000000; stroke-width: 0.5"/>
      </defs>
      <g>
       <use xlink:href="#m102e2a185d" x="47.90423" y="3.00024" style="stroke: #000000; stroke-width: 0.5"/>
      </g>
     </g>
    </g>
    <g id="xtick_7">
     <g id="line2d_13">
      <g>
       <use xlink:href="#mbc00851485" x="56.112211" y="157.496557" style="stroke: #000000; stroke-width: 0.5"/>
      </g>
     </g>
     <g id="line2d_14">
      <g>
       <use xlink:href="#m102e2a185d" x="56.112211" y="3.00024" style="stroke: #000000; stroke-width: 0.5"/>
      </g>
     </g>
    </g>
    <g id="xtick_8">
     <g id="line2d_15">
      <g>
       <use xlink:href="#mbc00851485" x="72.528173" y="157.496557" style="stroke: #000000; stroke-width: 0.5"/>
      </g>
     </g>
     <g id="line2d_16">
      <g>
       <use xlink:href="#m102e2a185d" x="72.528173" y="3.00024" style="stroke: #000000; stroke-width: 0.5"/>
      </g>
     </g>
    </g>
    <g id="xtick_9">
     <g id="line2d_17">
      <g>
       <use xlink:href="#mbc00851485" x="80.736154" y="157.496557" style="stroke: #000000; stroke-width: 0.5"/>
      </g>
     </g>
     <g id="line2d_18">
      <g>
       <use xlink:href="#m102e2a185d" x="80.736154" y="3.00024" style="stroke: #000000; stroke-width: 0.5"/>
      </g>
     </g>
    </g>
    <g id="xtick_10">
     <g id="line2d_19">
      <g>
       <use xlink:href="#mbc00851485" x="88.944134" y="157.496557" style="stroke: #000000; stroke-width: 0.5"/>
      </g>
     </g>
     <g id="line2d_20">
      <g>
       <use xlink:href="#m102e2a185d" x="88.944134" y="3.00024" style="stroke: #000000; stroke-width: 0.5"/>
      </g>
     </g>
    </g>
    <g id="xtick_11">
     <g id="line2d_21">
      <g>
       <use xlink:href="#mbc00851485" x="97.152115" y="157.496557" style="stroke: #000000; stroke-width: 0.5"/>
      </g>
     </g>
     <g id="line2d_22">
      <g>
       <use xlink:href="#m102e2a185d" x="97.152115" y="3.00024" style="stroke: #000000; stroke-width: 0.5"/>
      </g>
     </g>
    </g>
    <g id="xtick_12">
     <g id="line2d_23">
      <g>
       <use xlink:href="#mbc00851485" x="113.568077" y="157.496557" style="stroke: #000000; stroke-width: 0.5"/>
      </g>
     </g>
     <g id="line2d_24">
      <g>
       <use xlink:href="#m102e2a185d" x="113.568077" y="3.00024" style="stroke: #000000; stroke-width: 0.5"/>
      </g>
     </g>
    </g>
    <g id="xtick_13">
     <g id="line2d_25">
      <g>
       <use xlink:href="#mbc00851485" x="121.776058" y="157.496557" style="stroke: #000000; stroke-width: 0.5"/>
      </g>
     </g>
     <g id="line2d_26">
      <g>
       <use xlink:href="#m102e2a185d" x="121.776058" y="3.00024" style="stroke: #000000; stroke-width: 0.5"/>
      </g>
     </g>
    </g>
    <g id="xtick_14">
     <g id="line2d_27">
      <g>
       <use xlink:href="#mbc00851485" x="129.984038" y="157.496557" style="stroke: #000000; stroke-width: 0.5"/>
      </g>
     </g>
     <g id="line2d_28">
      <g>
       <use xlink:href="#m102e2a185d" x="129.984038" y="3.00024" style="stroke: #000000; stroke-width: 0.5"/>
      </g>
     </g>
    </g>
    <g id="xtick_15">
     <g id="line2d_29">
      <g>
       <use xlink:href="#mbc00851485" x="138.192019" y="157.496557" style="stroke: #000000; stroke-width: 0.5"/>
      </g>
     </g>
     <g id="line2d_30">
      <g>
       <use xlink:href="#m102e2a185d" x="138.192019" y="3.00024" style="stroke: #000000; stroke-width: 0.5"/>
      </g>
     </g>
    </g>
    <g id="xtick_16">
     <g id="line2d_31">
      <g>
       <use xlink:href="#mbc00851485" x="154.607981" y="157.496557" style="stroke: #000000; stroke-width: 0.5"/>
      </g>
     </g>
     <g id="line2d_32">
      <g>
       <use xlink:href="#m102e2a185d" x="154.607981" y="3.00024" style="stroke: #000000; stroke-width: 0.5"/>
      </g>
     </g>
    </g>
    <g id="xtick_17">
     <g id="line2d_33">
      <g>
       <use xlink:href="#mbc00851485" x="162.815962" y="157.496557" style="stroke: #000000; stroke-width: 0.5"/>
      </g>
     </g>
     <g id="line2d_34">
      <g>
       <use xlink:href="#m102e2a185d" x="162.815962" y="3.00024" style="stroke: #000000; stroke-width: 0.5"/>
      </g>
     </g>
    </g>
    <g id="xtick_18">
     <g id="line2d_35">
      <g>
       <use xlink:href="#mbc00851485" x="171.023942" y="157.496557" style="stroke: #000000; stroke-width: 0.5"/>
      </g>
     </g>
     <g id="line2d_36">
      <g>
       <use xlink:href="#m102e2a185d" x="171.023942" y="3.00024" style="stroke: #000000; stroke-width: 0.5"/>
      </g>
     </g>
    </g>
    <g id="xtick_19">
     <g id="line2d_37">
      <g>
       <use xlink:href="#mbc00851485" x="179.231923" y="157.496557" style="stroke: #000000; stroke-width: 0.5"/>
      </g>
     </g>
     <g id="line2d_38">
      <g>
       <use xlink:href="#m102e2a185d" x="179.231923" y="3.00024" style="stroke: #000000; stroke-width: 0.5"/>
      </g>
     </g>
    </g>
    <g id="xtick_20">
     <g id="line2d_39">
      <g>
       <use xlink:href="#mbc00851485" x="195.647885" y="157.496557" style="stroke: #000000; stroke-width: 0.5"/>
      </g>
     </g>
     <g id="line2d_40">
      <g>
       <use xlink:href="#m102e2a185d" x="195.647885" y="3.00024" style="stroke: #000000; stroke-width: 0.5"/>
      </g>
     </g>
    </g>
    <g id="xtick_21">
     <g id="line2d_41">
      <g>
       <use xlink:href="#mbc00851485" x="203.855866" y="157.496557" style="stroke: #000000; stroke-width: 0.5"/>
      </g>
     </g>
     <g id="line2d_42">
      <g>
       <use xlink:href="#m102e2a185d" x="203.855866" y="3.00024" style="stroke: #000000; stroke-width: 0.5"/>
      </g>
     </g>
    </g>
    <g id="xtick_22">
     <g id="line2d_43">
      <g>
       <use xlink:href="#mbc00851485" x="212.063846" y="157.496557" style="stroke: #000000; stroke-width: 0.5"/>
      </g>
     </g>
     <g id="line2d_44">
      <g>
       <use xlink:href="#m102e2a185d" x="212.063846" y="3.00024" style="stroke: #000000; stroke-width: 0.5"/>
      </g>
     </g>
    </g>
    <g id="xtick_23">
     <g id="line2d_45">
      <g>
       <use xlink:href="#mbc00851485" x="220.271827" y="157.496557" style="stroke: #000000; stroke-width: 0.5"/>
      </g>
     </g>
     <g id="line2d_46">
      <g>
       <use xlink:href="#m102e2a185d" x="220.271827" y="3.00024" style="stroke: #000000; stroke-width: 0.5"/>
      </g>
     </g>
    </g>
    <g id="xtick_24">
     <g id="line2d_47">
      <g>
       <use xlink:href="#mbc00851485" x="236.687789" y="157.496557" style="stroke: #000000; stroke-width: 0.5"/>
      </g>
     </g>
     <g id="line2d_48">
      <g>
       <use xlink:href="#m102e2a185d" x="236.687789" y="3.00024" style="stroke: #000000; stroke-width: 0.5"/>
      </g>
     </g>
    </g>
    <g id="xtick_25">
     <g id="line2d_49">
      <g>
       <use xlink:href="#mbc00851485" x="244.89577" y="157.496557" style="stroke: #000000; stroke-width: 0.5"/>
      </g>
     </g>
     <g id="line2d_50">
      <g>
       <use xlink:href="#m102e2a185d" x="244.89577" y="3.00024" style="stroke: #000000; stroke-width: 0.5"/>
      </g>
     </g>
    </g>
    <g id="text_6">
     <!-- Voltage (V) -->
     <g transform="translate(115.966953 183.357182) scale(0.11 -0.11)">
      <defs>
       <path id="DejaVuSans-39" d="M 1831 0 
L 50 4666 
L 709 4666 
L 2188 738 
L 3669 4666 
L 4325 4666 
L 2547 0 
L 1831 0 
z
" transform="scale(0.015625)"/>
       <path id="DejaVuSans-52" d="M 1959 3097 
Q 1497 3097 1228 2736 
Q 959 2375 959 1747 
Q 959 1119 1226 758 
Q 1494 397 1959 397 
Q 2419 397 2687 759 
Q 2956 1122 2956 1747 
Q 2956 2369 2687 2733 
Q 2419 3097 1959 3097 
z
M 1959 3584 
Q 2709 3584 3137 3096 
Q 3566 2609 3566 1747 
Q 3566 888 3137 398 
Q 2709 -91 1959 -91 
Q 1206 -91 779 398 
Q 353 888 353 1747 
Q 353 2609 779 3096 
Q 1206 3584 1959 3584 
z
" transform="scale(0.015625)"/>
       <path id="DejaVuSans-4f" d="M 603 4863 
L 1178 4863 
L 1178 0 
L 603 0 
L 603 4863 
z
" transform="scale(0.015625)"/>
       <path id="DejaVuSans-57" d="M 1172 4494 
L 1172 3500 
L 2356 3500 
L 2356 3053 
L 1172 3053 
L 1172 1153 
Q 1172 725 1289 603 
Q 1406 481 1766 481 
L 2356 481 
L 2356 0 
L 1766 0 
Q 1100 0 847 248 
Q 594 497 594 1153 
L 594 3053 
L 172 3053 
L 172 3500 
L 594 3500 
L 594 4494 
L 1172 4494 
z
" transform="scale(0.015625)"/>
       <path id="DejaVuSans-44" d="M 2194 1759 
Q 1497 1759 1228 1600 
Q 959 1441 959 1056 
Q 959 750 1161 570 
Q 1363 391 1709 391 
Q 2188 391 2477 730 
Q 2766 1069 2766 1631 
L 2766 1759 
L 2194 1759 
z
M 3341 1997 
L 3341 0 
L 2766 0 
L 2766 531 
Q 2569 213 2275 61 
Q 1981 -91 1556 -91 
Q 1019 -91 701 211 
Q 384 513 384 1019 
Q 384 1609 779 1909 
Q 1175 2209 1959 2209 
L 2766 2209 
L 2766 2266 
Q 2766 2663 2505 2880 
Q 2244 3097 1772 3097 
Q 1472 3097 1187 3025 
Q 903 2953 641 2809 
L 641 3341 
Q 956 3463 1253 3523 
Q 1550 3584 1831 3584 
Q 2591 3584 2966 3190 
Q 3341 2797 3341 1997 
z
" transform="scale(0.015625)"/>
       <path id="DejaVuSans-4a" d="M 2906 1791 
Q 2906 2416 2648 2759 
Q 2391 3103 1925 3103 
Q 1463 3103 1205 2759 
Q 947 2416 947 1791 
Q 947 1169 1205 825 
Q 1463 481 1925 481 
Q 2391 481 2648 825 
Q 2906 1169 2906 1791 
z
M 3481 434 
Q 3481 -459 3084 -895 
Q 2688 -1331 1869 -1331 
Q 1566 -1331 1297 -1286 
Q 1028 -1241 775 -1147 
L 775 -588 
Q 1028 -725 1275 -790 
Q 1522 -856 1778 -856 
Q 2344 -856 2625 -561 
Q 2906 -266 2906 331 
L 2906 616 
Q 2728 306 2450 153 
Q 2172 0 1784 0 
Q 1141 0 747 490 
Q 353 981 353 1791 
Q 353 2603 747 3093 
Q 1141 3584 1784 3584 
Q 2172 3584 2450 3431 
Q 2728 3278 2906 2969 
L 2906 3500 
L 3481 3500 
L 3481 434 
z
" transform="scale(0.015625)"/>
       <path id="DejaVuSans-48" d="M 3597 1894 
L 3597 1613 
L 953 1613 
Q 991 1019 1311 708 
Q 1631 397 2203 397 
Q 2534 397 2845 478 
Q 3156 559 3463 722 
L 3463 178 
Q 3153 47 2828 -22 
Q 2503 -91 2169 -91 
Q 1331 -91 842 396 
Q 353 884 353 1716 
Q 353 2575 817 3079 
Q 1281 3584 2069 3584 
Q 2775 3584 3186 3129 
Q 3597 2675 3597 1894 
z
M 3022 2063 
Q 3016 2534 2758 2815 
Q 2500 3097 2075 3097 
Q 1594 3097 1305 2825 
Q 1016 2553 972 2059 
L 3022 2063 
z
" transform="scale(0.015625)"/>
       <path id="DejaVuSans-3" transform="scale(0.015625)"/>
       <path id="DejaVuSans-b" d="M 1984 4856 
Q 1566 4138 1362 3434 
Q 1159 2731 1159 2009 
Q 1159 1288 1364 580 
Q 1569 -128 1984 -844 
L 1484 -844 
Q 1016 -109 783 600 
Q 550 1309 550 2009 
Q 550 2706 781 3412 
Q 1013 4119 1484 4856 
L 1984 4856 
z
" transform="scale(0.015625)"/>
       <path id="DejaVuSans-c" d="M 513 4856 
L 1013 4856 
Q 1481 4119 1714 3412 
Q 1947 2706 1947 2009 
Q 1947 1309 1714 600 
Q 1481 -109 1013 -844 
L 513 -844 
Q 928 -128 1133 580 
Q 1338 1288 1338 2009 
Q 1338 2731 1133 3434 
Q 928 4138 513 4856 
z
" transform="scale(0.015625)"/>
      </defs>
      <use xlink:href="#DejaVuSans-39"/>
      <use xlink:href="#DejaVuSans-52" transform="translate(60.640625 0)"/>
      <use xlink:href="#DejaVuSans-4f" transform="translate(121.828125 0)"/>
      <use xlink:href="#DejaVuSans-57" transform="translate(149.609375 0)"/>
      <use xlink:href="#DejaVuSans-44" transform="translate(188.8125 0)"/>
      <use xlink:href="#DejaVuSans-4a" transform="translate(250.09375 0)"/>
      <use xlink:href="#DejaVuSans-48" transform="translate(313.578125 0)"/>
      <use xlink:href="#DejaVuSans-3" transform="translate(375.109375 0)"/>
      <use xlink:href="#DejaVuSans-b" transform="translate(406.890625 0)"/>
      <use xlink:href="#DejaVuSans-39" transform="translate(445.90625 0)"/>
      <use xlink:href="#DejaVuSans-c" transform="translate(514.3125 0)"/>
     </g>
    </g>
   </g>
   <g id="matplotlib.axis_2">
    <g id="ytick_1">
     <g id="line2d_51">
      <defs>
       <path id="md95481b7bb" d="M 0 0 
L 3 0 
" style="stroke: #000000; stroke-width: 0.5"/>
      </defs>
      <g>
       <use xlink:href="#md95481b7bb" x="43.80024" y="157.496557" style="stroke: #000000; stroke-width: 0.5"/>
      </g>
     </g>
     <g id="line2d_52">
      <defs>
       <path id="m42cc2328d4" d="M 0 0 
L -3 0 
" style="stroke: #000000; stroke-width: 0.5"/>
      </defs>
      <g>
       <use xlink:href="#m42cc2328d4" x="248.99976" y="157.496557" style="stroke: #000000; stroke-width: 0.5"/>
      </g>
     </g>
     <g id="text_7">
      <!-- $0.0$ -->
      <g transform="translate(24.30024 161.295385) scale(0.1 -0.1)">
       <use xlink:href="#DejaVuSans-13" transform="translate(0 0.78125)"/>
       <use xlink:href="#DejaVuSans-11" transform="translate(63.623047 0.78125)"/>
       <use xlink:href="#DejaVuSans-13" transform="translate(95.410156 0.78125)"/>
      </g>
     </g>
    </g>
    <g id="ytick_2">
     <g id="line2d_53">
      <g>
       <use xlink:href="#md95481b7bb" x="43.80024" y="132.777146" style="stroke: #000000; stroke-width: 0.5"/>
      </g>
     </g>
     <g id="line2d_54">
      <g>
       <use xlink:href="#m42cc2328d4" x="248.99976" y="132.777146" style="stroke: #000000; stroke-width: 0.5"/>
      </g>
     </g>
     <g id="text_8">
      <!-- $0.2\mathrm{\mu }$ -->
      <g transform="translate(18.00024 136.575974) scale(0.1 -0.1)">
       <defs>
        <path id="DejaVuSans-350" d="M 544 -1331 
L 544 3500 
L 1119 3500 
L 1119 1325 
Q 1119 872 1334 640 
Q 1550 409 1972 409 
Q 2434 409 2667 671 
Q 2900 934 2900 1459 
L 2900 3500 
L 3475 3500 
L 3475 806 
Q 3475 619 3529 530 
Q 3584 441 3700 441 
Q 3728 441 3778 458 
Q 3828 475 3916 513 
L 3916 50 
Q 3788 -22 3673 -56 
Q 3559 -91 3450 -91 
Q 3234 -91 3106 31 
Q 2978 153 2931 403 
Q 2775 156 2548 32 
Q 2322 -91 2016 -91 
Q 1697 -91 1473 31 
Q 1250 153 1119 397 
L 1119 -1331 
L 544 -1331 
z
" transform="scale(0.015625)"/>
       </defs>
       <use xlink:href="#DejaVuSans-13" transform="translate(0 0.78125)"/>
       <use xlink:href="#DejaVuSans-11" transform="translate(63.623047 0.78125)"/>
       <use xlink:href="#DejaVuSans-15" transform="translate(95.410156 0.78125)"/>
       <use xlink:href="#DejaVuSans-350" transform="translate(159.033203 0.78125)"/>
      </g>
     </g>
    </g>
    <g id="ytick_3">
     <g id="line2d_55">
      <g>
       <use xlink:href="#md95481b7bb" x="43.80024" y="108.057735" style="stroke: #000000; stroke-width: 0.5"/>
      </g>
     </g>
     <g id="line2d_56">
      <g>
       <use xlink:href="#m42cc2328d4" x="248.99976" y="108.057735" style="stroke: #000000; stroke-width: 0.5"/>
      </g>
     </g>
     <g id="text_9">
      <!-- $0.4\mathrm{\mu }$ -->
      <g transform="translate(18.00024 111.856564) scale(0.1 -0.1)">
       <defs>
        <path id="DejaVuSans-17" d="M 2419 4116 
L 825 1625 
L 2419 1625 
L 2419 4116 
z
M 2253 4666 
L 3047 4666 
L 3047 1625 
L 3713 1625 
L 3713 1100 
L 3047 1100 
L 3047 0 
L 2419 0 
L 2419 1100 
L 313 1100 
L 313 1709 
L 2253 4666 
z
" transform="scale(0.015625)"/>
       </defs>
       <use xlink:href="#DejaVuSans-13" transform="translate(0 0.78125)"/>
       <use xlink:href="#DejaVuSans-11" transform="translate(63.623047 0.78125)"/>
       <use xlink:href="#DejaVuSans-17" transform="translate(95.410156 0.78125)"/>
       <use xlink:href="#DejaVuSans-350" transform="translate(159.033203 0.78125)"/>
      </g>
     </g>
    </g>
    <g id="ytick_4">
     <g id="line2d_57">
      <g>
       <use xlink:href="#md95481b7bb" x="43.80024" y="83.338325" style="stroke: #000000; stroke-width: 0.5"/>
      </g>
     </g>
     <g id="line2d_58">
      <g>
       <use xlink:href="#m42cc2328d4" x="248.99976" y="83.338325" style="stroke: #000000; stroke-width: 0.5"/>
      </g>
     </g>
     <g id="text_10">
      <!-- $0.6\mathrm{\mu }$ -->
      <g transform="translate(18.00024 87.137153) scale(0.1 -0.1)">
       <defs>
        <path id="DejaVuSans-19" d="M 2113 2584 
Q 1688 2584 1439 2293 
Q 1191 2003 1191 1497 
Q 1191 994 1439 701 
Q 1688 409 2113 409 
Q 2538 409 2786 701 
Q 3034 994 3034 1497 
Q 3034 2003 2786 2293 
Q 2538 2584 2113 2584 
z
M 3366 4563 
L 3366 3988 
Q 3128 4100 2886 4159 
Q 2644 4219 2406 4219 
Q 1781 4219 1451 3797 
Q 1122 3375 1075 2522 
Q 1259 2794 1537 2939 
Q 1816 3084 2150 3084 
Q 2853 3084 3261 2657 
Q 3669 2231 3669 1497 
Q 3669 778 3244 343 
Q 2819 -91 2113 -91 
Q 1303 -91 875 529 
Q 447 1150 447 2328 
Q 447 3434 972 4092 
Q 1497 4750 2381 4750 
Q 2619 4750 2861 4703 
Q 3103 4656 3366 4563 
z
" transform="scale(0.015625)"/>
       </defs>
       <use xlink:href="#DejaVuSans-13" transform="translate(0 0.78125)"/>
       <use xlink:href="#DejaVuSans-11" transform="translate(63.623047 0.78125)"/>
       <use xlink:href="#DejaVuSans-19" transform="translate(95.410156 0.78125)"/>
       <use xlink:href="#DejaVuSans-350" transform="translate(159.033203 0.78125)"/>
      </g>
     </g>
    </g>
    <g id="ytick_5">
     <g id="line2d_59">
      <g>
       <use xlink:href="#md95481b7bb" x="43.80024" y="58.618914" style="stroke: #000000; stroke-width: 0.5"/>
      </g>
     </g>
     <g id="line2d_60">
      <g>
       <use xlink:href="#m42cc2328d4" x="248.99976" y="58.618914" style="stroke: #000000; stroke-width: 0.5"/>
      </g>
     </g>
     <g id="text_11">
      <!-- $0.8\mathrm{\mu }$ -->
      <g transform="translate(18.00024 62.417742) scale(0.1 -0.1)">
       <use xlink:href="#DejaVuSans-13" transform="translate(0 0.78125)"/>
       <use xlink:href="#DejaVuSans-11" transform="translate(63.623047 0.78125)"/>
       <use xlink:href="#DejaVuSans-1b" transform="translate(95.410156 0.78125)"/>
       <use xlink:href="#DejaVuSans-350" transform="translate(159.033203 0.78125)"/>
      </g>
     </g>
    </g>
    <g id="ytick_6">
     <g id="line2d_61">
      <g>
       <use xlink:href="#md95481b7bb" x="43.80024" y="33.899503" style="stroke: #000000; stroke-width: 0.5"/>
      </g>
     </g>
     <g id="line2d_62">
      <g>
       <use xlink:href="#m42cc2328d4" x="248.99976" y="33.899503" style="stroke: #000000; stroke-width: 0.5"/>
      </g>
     </g>
     <g id="text_12">
      <!-- $1.0\mathrm{\mu }$ -->
      <g transform="translate(18.00024 37.698331) scale(0.1 -0.1)">
       <use xlink:href="#DejaVuSans-14" transform="translate(0 0.78125)"/>
       <use xlink:href="#DejaVuSans-11" transform="translate(63.623047 0.78125)"/>
       <use xlink:href="#DejaVuSans-13" transform="translate(95.410156 0.78125)"/>
       <use xlink:href="#DejaVuSans-350" transform="translate(159.033203 0.78125)"/>
      </g>
     </g>
    </g>
    <g id="ytick_7">
     <g id="line2d_63">
      <g>
       <use xlink:href="#md95481b7bb" x="43.80024" y="9.180093" style="stroke: #000000; stroke-width: 0.5"/>
      </g>
     </g>
     <g id="line2d_64">
      <g>
       <use xlink:href="#m42cc2328d4" x="248.99976" y="9.180093" style="stroke: #000000; stroke-width: 0.5"/>
      </g>
     </g>
     <g id="text_13">
      <!-- $1.2\mathrm{\mu }$ -->
      <g transform="translate(18.00024 12.978921) scale(0.1 -0.1)">
       <use xlink:href="#DejaVuSans-14" transform="translate(0 0.78125)"/>
       <use xlink:href="#DejaVuSans-11" transform="translate(63.623047 0.78125)"/>
       <use xlink:href="#DejaVuSans-15" transform="translate(95.410156 0.78125)"/>
       <use xlink:href="#DejaVuSans-350" transform="translate(159.033203 0.78125)"/>
      </g>
     </g>
    </g>
    <g id="ytick_8">
     <g id="line2d_65">
      <defs>
       <path id="m67c7d814c1" d="M 0 0 
L 1.5 0 
" style="stroke: #000000; stroke-width: 0.5"/>
      </defs>
      <g>
       <use xlink:href="#m67c7d814c1" x="43.80024" y="151.316704" style="stroke: #000000; stroke-width: 0.5"/>
      </g>
     </g>
     <g id="line2d_66">
      <defs>
       <path id="m531de3d1cc" d="M 0 0 
L -1.5 0 
" style="stroke: #000000; stroke-width: 0.5"/>
      </defs>
      <g>
       <use xlink:href="#m531de3d1cc" x="248.99976" y="151.316704" style="stroke: #000000; stroke-width: 0.5"/>
      </g>
     </g>
    </g>
    <g id="ytick_9">
     <g id="line2d_67">
      <g>
       <use xlink:href="#m67c7d814c1" x="43.80024" y="145.136852" style="stroke: #000000; stroke-width: 0.5"/>
      </g>
     </g>
     <g id="line2d_68">
      <g>
       <use xlink:href="#m531de3d1cc" x="248.99976" y="145.136852" style="stroke: #000000; stroke-width: 0.5"/>
      </g>
     </g>
    </g>
    <g id="ytick_10">
     <g id="line2d_69">
      <g>
       <use xlink:href="#m67c7d814c1" x="43.80024" y="138.956999" style="stroke: #000000; stroke-width: 0.5"/>
      </g>
     </g>
     <g id="line2d_70">
      <g>
       <use xlink:href="#m531de3d1cc" x="248.99976" y="138.956999" style="stroke: #000000; stroke-width: 0.5"/>
      </g>
     </g>
    </g>
    <g id="ytick_11">
     <g id="line2d_71">
      <g>
       <use xlink:href="#m67c7d814c1" x="43.80024" y="126.597294" style="stroke: #000000; stroke-width: 0.5"/>
      </g>
     </g>
     <g id="line2d_72">
      <g>
       <use xlink:href="#m531de3d1cc" x="248.99976" y="126.597294" style="stroke: #000000; stroke-width: 0.5"/>
      </g>
     </g>
    </g>
    <g id="ytick_12">
     <g id="line2d_73">
      <g>
       <use xlink:href="#m67c7d814c1" x="43.80024" y="120.417441" style="stroke: #000000; stroke-width: 0.5"/>
      </g>
     </g>
     <g id="line2d_74">
      <g>
       <use xlink:href="#m531de3d1cc" x="248.99976" y="120.417441" style="stroke: #000000; stroke-width: 0.5"/>
      </g>
     </g>
    </g>
    <g id="ytick_13">
     <g id="line2d_75">
      <g>
       <use xlink:href="#m67c7d814c1" x="43.80024" y="114.237588" style="stroke: #000000; stroke-width: 0.5"/>
      </g>
     </g>
     <g id="line2d_76">
      <g>
       <use xlink:href="#m531de3d1cc" x="248.99976" y="114.237588" style="stroke: #000000; stroke-width: 0.5"/>
      </g>
     </g>
    </g>
    <g id="ytick_14">
     <g id="line2d_77">
      <g>
       <use xlink:href="#m67c7d814c1" x="43.80024" y="101.877883" style="stroke: #000000; stroke-width: 0.5"/>
      </g>
     </g>
     <g id="line2d_78">
      <g>
       <use xlink:href="#m531de3d1cc" x="248.99976" y="101.877883" style="stroke: #000000; stroke-width: 0.5"/>
      </g>
     </g>
    </g>
    <g id="ytick_15">
     <g id="line2d_79">
      <g>
       <use xlink:href="#m67c7d814c1" x="43.80024" y="95.69803" style="stroke: #000000; stroke-width: 0.5"/>
      </g>
     </g>
     <g id="line2d_80">
      <g>
       <use xlink:href="#m531de3d1cc" x="248.99976" y="95.69803" style="stroke: #000000; stroke-width: 0.5"/>
      </g>
     </g>
    </g>
    <g id="ytick_16">
     <g id="line2d_81">
      <g>
       <use xlink:href="#m67c7d814c1" x="43.80024" y="89.518177" style="stroke: #000000; stroke-width: 0.5"/>
      </g>
     </g>
     <g id="line2d_82">
      <g>
       <use xlink:href="#m531de3d1cc" x="248.99976" y="89.518177" style="stroke: #000000; stroke-width: 0.5"/>
      </g>
     </g>
    </g>
    <g id="ytick_17">
     <g id="line2d_83">
      <g>
       <use xlink:href="#m67c7d814c1" x="43.80024" y="77.158472" style="stroke: #000000; stroke-width: 0.5"/>
      </g>
     </g>
     <g id="line2d_84">
      <g>
       <use xlink:href="#m531de3d1cc" x="248.99976" y="77.158472" style="stroke: #000000; stroke-width: 0.5"/>
      </g>
     </g>
    </g>
    <g id="ytick_18">
     <g id="line2d_85">
      <g>
       <use xlink:href="#m67c7d814c1" x="43.80024" y="70.978619" style="stroke: #000000; stroke-width: 0.5"/>
      </g>
     </g>
     <g id="line2d_86">
      <g>
       <use xlink:href="#m531de3d1cc" x="248.99976" y="70.978619" style="stroke: #000000; stroke-width: 0.5"/>
      </g>
     </g>
    </g>
    <g id="ytick_19">
     <g id="line2d_87">
      <g>
       <use xlink:href="#m67c7d814c1" x="43.80024" y="64.798767" style="stroke: #000000; stroke-width: 0.5"/>
      </g>
     </g>
     <g id="line2d_88">
      <g>
       <use xlink:href="#m531de3d1cc" x="248.99976" y="64.798767" style="stroke: #000000; stroke-width: 0.5"/>
      </g>
     </g>
    </g>
    <g id="ytick_20">
     <g id="line2d_89">
      <g>
       <use xlink:href="#m67c7d814c1" x="43.80024" y="52.439061" style="stroke: #000000; stroke-width: 0.5"/>
      </g>
     </g>
     <g id="line2d_90">
      <g>
       <use xlink:href="#m531de3d1cc" x="248.99976" y="52.439061" style="stroke: #000000; stroke-width: 0.5"/>
      </g>
     </g>
    </g>
    <g id="ytick_21">
     <g id="line2d_91">
      <g>
       <use xlink:href="#m67c7d814c1" x="43.80024" y="46.259209" style="stroke: #000000; stroke-width: 0.5"/>
      </g>
     </g>
     <g id="line2d_92">
      <g>
       <use xlink:href="#m531de3d1cc" x="248.99976" y="46.259209" style="stroke: #000000; stroke-width: 0.5"/>
      </g>
     </g>
    </g>
    <g id="ytick_22">
     <g id="line2d_93">
      <g>
       <use xlink:href="#m67c7d814c1" x="43.80024" y="40.079356" style="stroke: #000000; stroke-width: 0.5"/>
      </g>
     </g>
     <g id="line2d_94">
      <g>
       <use xlink:href="#m531de3d1cc" x="248.99976" y="40.079356" style="stroke: #000000; stroke-width: 0.5"/>
      </g>
     </g>
    </g>
    <g id="ytick_23">
     <g id="line2d_95">
      <g>
       <use xlink:href="#m67c7d814c1" x="43.80024" y="27.719651" style="stroke: #000000; stroke-width: 0.5"/>
      </g>
     </g>
     <g id="line2d_96">
      <g>
       <use xlink:href="#m531de3d1cc" x="248.99976" y="27.719651" style="stroke: #000000; stroke-width: 0.5"/>
      </g>
     </g>
    </g>
    <g id="ytick_24">
     <g id="line2d_97">
      <g>
       <use xlink:href="#m67c7d814c1" x="43.80024" y="21.539798" style="stroke: #000000; stroke-width: 0.5"/>
      </g>
     </g>
     <g id="line2d_98">
      <g>
       <use xlink:href="#m531de3d1cc" x="248.99976" y="21.539798" style="stroke: #000000; stroke-width: 0.5"/>
      </g>
     </g>
    </g>
    <g id="ytick_25">
     <g id="line2d_99">
      <g>
       <use xlink:href="#m67c7d814c1" x="43.80024" y="15.359945" style="stroke: #000000; stroke-width: 0.5"/>
      </g>
     </g>
     <g id="line2d_100">
      <g>
       <use xlink:href="#m531de3d1cc" x="248.99976" y="15.359945" style="stroke: #000000; stroke-width: 0.5"/>
      </g>
     </g>
    </g>
    <g id="ytick_26">
     <g id="line2d_101">
      <g>
       <use xlink:href="#m67c7d814c1" x="43.80024" y="3.00024" style="stroke: #000000; stroke-width: 0.5"/>
      </g>
     </g>
     <g id="line2d_102">
      <g>
       <use xlink:href="#m531de3d1cc" x="248.99976" y="3.00024" style="stroke: #000000; stroke-width: 0.5"/>
      </g>
     </g>
    </g>
    <g id="text_14">
     <!-- Current (A) -->
     <g transform="translate(11.357662 110.707227) rotate(-90) scale(0.11 -0.11)">
      <defs>
       <path id="DejaVuSans-26" d="M 4122 4306 
L 4122 3641 
Q 3803 3938 3442 4084 
Q 3081 4231 2675 4231 
Q 1875 4231 1450 3742 
Q 1025 3253 1025 2328 
Q 1025 1406 1450 917 
Q 1875 428 2675 428 
Q 3081 428 3442 575 
Q 3803 722 4122 1019 
L 4122 359 
Q 3791 134 3420 21 
Q 3050 -91 2638 -91 
Q 1578 -91 968 557 
Q 359 1206 359 2328 
Q 359 3453 968 4101 
Q 1578 4750 2638 4750 
Q 3056 4750 3426 4639 
Q 3797 4528 4122 4306 
z
" transform="scale(0.015625)"/>
       <path id="DejaVuSans-58" d="M 544 1381 
L 544 3500 
L 1119 3500 
L 1119 1403 
Q 1119 906 1312 657 
Q 1506 409 1894 409 
Q 2359 409 2629 706 
Q 2900 1003 2900 1516 
L 2900 3500 
L 3475 3500 
L 3475 0 
L 2900 0 
L 2900 538 
Q 2691 219 2414 64 
Q 2138 -91 1772 -91 
Q 1169 -91 856 284 
Q 544 659 544 1381 
z
M 1991 3584 
L 1991 3584 
z
" transform="scale(0.015625)"/>
       <path id="DejaVuSans-55" d="M 2631 2963 
Q 2534 3019 2420 3045 
Q 2306 3072 2169 3072 
Q 1681 3072 1420 2755 
Q 1159 2438 1159 1844 
L 1159 0 
L 581 0 
L 581 3500 
L 1159 3500 
L 1159 2956 
Q 1341 3275 1631 3429 
Q 1922 3584 2338 3584 
Q 2397 3584 2469 3576 
Q 2541 3569 2628 3553 
L 2631 2963 
z
" transform="scale(0.015625)"/>
       <path id="DejaVuSans-51" d="M 3513 2113 
L 3513 0 
L 2938 0 
L 2938 2094 
Q 2938 2591 2744 2837 
Q 2550 3084 2163 3084 
Q 1697 3084 1428 2787 
Q 1159 2491 1159 1978 
L 1159 0 
L 581 0 
L 581 3500 
L 1159 3500 
L 1159 2956 
Q 1366 3272 1645 3428 
Q 1925 3584 2291 3584 
Q 2894 3584 3203 3211 
Q 3513 2838 3513 2113 
z
" transform="scale(0.015625)"/>
       <path id="DejaVuSans-24" d="M 2188 4044 
L 1331 1722 
L 3047 1722 
L 2188 4044 
z
M 1831 4666 
L 2547 4666 
L 4325 0 
L 3669 0 
L 3244 1197 
L 1141 1197 
L 716 0 
L 50 0 
L 1831 4666 
z
" transform="scale(0.015625)"/>
      </defs>
      <use xlink:href="#DejaVuSans-26"/>
      <use xlink:href="#DejaVuSans-58" transform="translate(69.828125 0)"/>
      <use xlink:href="#DejaVuSans-55" transform="translate(133.203125 0)"/>
      <use xlink:href="#DejaVuSans-55" transform="translate(172.5625 0)"/>
      <use xlink:href="#DejaVuSans-48" transform="translate(211.46875 0)"/>
      <use xlink:href="#DejaVuSans-51" transform="translate(273 0)"/>
      <use xlink:href="#DejaVuSans-57" transform="translate(336.375 0)"/>
      <use xlink:href="#DejaVuSans-3" transform="translate(375.578125 0)"/>
      <use xlink:href="#DejaVuSans-b" transform="translate(407.359375 0)"/>
      <use xlink:href="#DejaVuSans-24" transform="translate(446.375 0)"/>
      <use xlink:href="#DejaVuSans-c" transform="translate(514.78125 0)"/>
     </g>
    </g>
   </g>
   <g id="line2d_103">
    <path d="M 43.80024 157.203522 
L 55.086214 156.874406 
L 63.294194 156.440531 
L 70.476178 155.840337 
L 76.632163 155.084895 
L 81.762151 154.222385 
L 85.866142 153.336531 
L 89.970132 152.236698 
L 94.074122 150.8807 
L 97.152115 149.667641 
L 100.230108 148.263266 
L 103.308101 146.645922 
L 106.386094 144.793937 
L 109.464086 142.686431 
L 112.542079 140.304302 
L 115.620072 137.631387 
L 118.698065 134.655728 
L 121.776058 131.370879 
L 124.85405 127.777149 
L 127.932043 123.88263 
L 132.036034 118.251927 
L 136.140024 112.180079 
L 141.270012 104.106613 
L 148.451995 92.293965 
L 156.659976 78.822232 
L 161.789964 70.788458 
L 165.893954 64.70752 
L 169.997945 58.992112 
L 174.101935 53.671986 
L 178.205926 48.757326 
L 182.309916 44.242467 
L 186.413906 40.109936 
L 190.517897 36.334275 
L 194.621887 32.885331 
L 198.725878 29.730873 
L 202.829868 26.838538 
L 206.933858 24.177172 
L 212.063846 21.131172 
L 217.193834 18.349556 
L 223.34982 15.298275 
L 229.505806 12.49903 
L 236.687789 9.482157 
L 244.89577 6.28339 
L 248.99976 4.761159 
L 248.99976 4.761159 
" clip-path="url(#p3b612b7ead)" style="fill: none; stroke: #000000; stroke-linecap: square"/>
   </g>
   <g id="line2d_104">
    <path d="M 43.80024 157.480006 
L 67.398185 157.333358 
L 77.658161 157.077621 
L 84.840144 156.700959 
L 89.970132 156.250794 
L 95.10012 155.562712 
L 99.20411 154.765882 
L 102.282103 153.974703 
L 105.360096 152.972842 
L 108.438089 151.712152 
L 111.516082 150.137213 
L 113.568077 148.882315 
L 115.620072 147.440739 
L 117.672067 145.792377 
L 119.724062 143.917181 
L 121.776058 141.795903 
L 123.828053 139.411013 
L 125.880048 136.747768 
L 127.932043 133.795401 
L 129.984038 130.548352 
L 133.062031 125.129082 
L 136.140024 119.085224 
L 139.218017 112.493202 
L 143.322007 103.058425 
L 155.633978 73.967376 
L 158.711971 67.336388 
L 161.789964 61.183184 
L 164.867957 55.555815 
L 167.94595 50.469192 
L 171.023942 45.911729 
L 174.101935 41.852868 
L 177.179928 38.25017 
L 180.257921 35.05523 
L 183.335914 32.218145 
L 186.413906 29.690582 
L 189.491899 27.427678 
L 192.569892 25.389034 
L 196.673882 22.958904 
L 200.777873 20.793527 
L 205.907861 18.372555 
L 211.037849 16.189011 
L 217.193834 13.792633 
L 225.401815 10.852682 
L 235.661791 7.426617 
L 248.99976 3.191261 
L 248.99976 3.191261 
" clip-path="url(#p3b612b7ead)" style="fill: none; stroke: #dc241f; stroke-linecap: square"/>
   </g>
   <g id="line2d_105">
    <path d="M 43.80024 157.495625 
L 81.762151 157.38693 
L 90.99613 157.174185 
L 97.152115 156.846139 
L 102.282103 156.342104 
L 106.386094 155.684258 
L 109.464086 154.968242 
L 112.542079 153.987378 
L 114.594074 153.144179 
L 116.64607 152.113949 
L 118.698065 150.861276 
L 120.75006 149.346578 
L 122.802055 147.52674 
L 124.85405 145.35636 
L 126.906046 142.789752 
L 128.958041 139.783843 
L 131.010036 136.301993 
L 133.062031 132.318575 
L 135.114026 127.823962 
L 137.166022 122.829259 
L 139.218017 117.369918 
L 142.29601 108.450725 
L 146.4 95.69803 
L 151.529988 79.691919 
L 154.607981 70.725391 
L 157.685974 62.571295 
L 159.737969 57.659779 
L 161.789964 53.186793 
L 163.841959 49.147908 
L 165.893954 45.524959 
L 167.94595 42.290282 
L 169.997945 39.410474 
L 172.04994 36.849476 
L 174.101935 34.570902 
L 176.15393 32.539672 
L 179.231923 29.885782 
L 182.309916 27.617579 
L 185.387909 25.653157 
L 188.465902 23.925858 
L 192.569892 21.901364 
L 197.69988 19.689158 
L 203.855866 17.337953 
L 211.037849 14.843588 
L 221.297825 11.521785 
L 238.739784 6.135307 
L 248.99976 3.020773 
L 248.99976 3.020773 
" clip-path="url(#p3b612b7ead)" style="fill: none; stroke: #0019a8; stroke-linecap: square"/>
   </g>
   <g id="line2d_106">
    <path d="M 43.80024 157.496554 
L 101.256106 157.395539 
L 108.438089 157.165905 
L 112.542079 156.853118 
L 115.620072 156.44306 
L 118.698065 155.782287 
L 120.75006 155.134388 
L 122.802055 154.253832 
L 124.85405 153.064698 
L 126.906046 151.471559 
L 128.958041 149.358291 
L 129.984038 148.065016 
L 131.010036 146.58991 
L 132.036034 144.914313 
L 133.062031 143.019686 
L 135.114026 138.504088 
L 137.166022 132.927276 
L 139.218017 126.234076 
L 141.270012 118.46525 
L 143.322007 109.783098 
L 147.425998 90.911516 
L 150.50399 76.982477 
L 152.555986 68.479762 
L 154.607981 60.875843 
L 156.659976 54.271042 
L 158.711971 48.664067 
L 160.763966 43.982442 
L 162.815962 40.114049 
L 164.867957 36.932526 
L 166.919952 34.314278 
L 168.971947 32.147952 
L 171.023942 30.338396 
L 173.075938 28.807177 
L 175.127933 27.491253 
L 178.205926 25.815203 
L 181.283918 24.39011 
L 185.387909 22.73949 
L 191.543894 20.565118 
L 200.777873 17.60297 
L 220.271827 11.659129 
L 248.99976 3.000477 
L 248.99976 3.000477 
" clip-path="url(#p3b612b7ead)" style="fill: none; stroke: #007d32; stroke-linecap: square"/>
   </g>
   <g id="line2d_107">
    <path d="M 43.80024 157.496557 
L 118.698065 157.390353 
L 122.802055 157.185197 
L 125.880048 156.805476 
L 127.932043 156.326993 
L 129.984038 155.528049 
L 131.010036 154.949244 
L 132.036034 154.207125 
L 133.062031 153.259268 
L 134.088029 152.05432 
L 135.114026 150.531354 
L 136.140024 148.619997 
L 137.166022 146.241849 
L 138.192019 143.313896 
L 139.218017 139.754591 
L 140.244014 135.493103 
L 141.270012 130.481625 
L 142.29601 124.709549 
L 144.348005 111.103198 
L 150.50399 66.35835 
L 151.529988 60.391888 
L 152.555986 55.140164 
L 153.581983 50.596342 
L 154.607981 46.718576 
L 155.633978 43.443264 
L 156.659976 40.696403 
L 157.685974 38.402067 
L 158.711971 36.48801 
L 159.737969 34.88884 
L 160.763966 33.547429 
L 161.789964 32.415134 
L 163.841959 30.622535 
L 165.893954 29.266264 
L 167.94595 28.185876 
L 171.023942 26.86867 
L 175.127933 25.399944 
L 182.309916 23.115339 
L 205.907861 15.978117 
L 248.99976 3.00024 
L 248.99976 3.00024 
" clip-path="url(#p3b612b7ead)" style="fill: none; stroke: #9b0058; stroke-linecap: square"/>
   </g>
   <g id="line2d_108">
    <path d="M 43.80024 157.496557 
L 132.036034 157.400694 
L 134.088029 157.22607 
L 135.114026 157.043472 
L 136.140024 156.739378 
L 137.166022 156.234964 
L 138.192019 155.403036 
L 139.218017 154.04257 
L 140.244014 151.846507 
L 141.270012 148.371827 
L 142.29601 143.039597 
L 143.322007 135.22165 
L 144.348005 124.483006 
L 145.374002 110.968437 
L 148.451995 66.748975 
L 149.477993 55.793022 
L 150.50399 47.674687 
L 151.529988 41.984428 
L 152.555986 38.122709 
L 153.581983 35.53274 
L 154.607981 33.784657 
L 155.633978 32.57727 
L 156.659976 31.710854 
L 157.685974 31.05715 
L 159.737969 30.095003 
L 162.815962 29.005995 
L 171.023942 26.484818 
L 248.99976 3.00024 
L 248.99976 3.00024 
" clip-path="url(#p3b612b7ead)" style="fill: none; stroke: #b26300; stroke-linecap: square"/>
   </g>
   <g id="patch_3">
    <path d="M 43.80024 157.496557 
L 43.80024 3.00024 
" style="fill: none; stroke: #000000; stroke-width: 0.5; stroke-linejoin: miter; stroke-linecap: square"/>
   </g>
   <g id="patch_4">
    <path d="M 248.99976 157.496557 
L 248.99976 3.00024 
" style="fill: none; stroke: #000000; stroke-width: 0.5; stroke-linejoin: miter; stroke-linecap: square"/>
   </g>
   <g id="patch_5">
    <path d="M 43.80024 157.496557 
L 248.99976 157.496557 
" style="fill: none; stroke: #000000; stroke-width: 0.5; stroke-linejoin: miter; stroke-linecap: square"/>
   </g>
   <g id="patch_6">
    <path d="M 43.80024 3.00024 
L 248.99976 3.00024 
" style="fill: none; stroke: #000000; stroke-width: 0.5; stroke-linejoin: miter; stroke-linecap: square"/>
   </g>
   <g id="legend_1">
    <g id="text_15">
     <!-- Order -->
     <g transform="translate(60.712818 20.358521) scale(0.11 -0.11)">
      <defs>
       <path id="DejaVuSans-32" d="M 2522 4238 
Q 1834 4238 1429 3725 
Q 1025 3213 1025 2328 
Q 1025 1447 1429 934 
Q 1834 422 2522 422 
Q 3209 422 3611 934 
Q 4013 1447 4013 2328 
Q 4013 3213 3611 3725 
Q 3209 4238 2522 4238 
z
M 2522 4750 
Q 3503 4750 4090 4092 
Q 4678 3434 4678 2328 
Q 4678 1225 4090 567 
Q 3503 -91 2522 -91 
Q 1538 -91 948 565 
Q 359 1222 359 2328 
Q 359 3434 948 4092 
Q 1538 4750 2522 4750 
z
" transform="scale(0.015625)"/>
       <path id="DejaVuSans-47" d="M 2906 2969 
L 2906 4863 
L 3481 4863 
L 3481 0 
L 2906 0 
L 2906 525 
Q 2725 213 2448 61 
Q 2172 -91 1784 -91 
Q 1150 -91 751 415 
Q 353 922 353 1747 
Q 353 2572 751 3078 
Q 1150 3584 1784 3584 
Q 2172 3584 2448 3432 
Q 2725 3281 2906 2969 
z
M 947 1747 
Q 947 1113 1208 752 
Q 1469 391 1925 391 
Q 2381 391 2643 752 
Q 2906 1113 2906 1747 
Q 2906 2381 2643 2742 
Q 2381 3103 1925 3103 
Q 1469 3103 1208 2742 
Q 947 2381 947 1747 
z
" transform="scale(0.015625)"/>
      </defs>
      <use xlink:href="#DejaVuSans-32"/>
      <use xlink:href="#DejaVuSans-55" transform="translate(78.71875 0)"/>
      <use xlink:href="#DejaVuSans-47" transform="translate(118.078125 0)"/>
      <use xlink:href="#DejaVuSans-48" transform="translate(181.5625 0)"/>
      <use xlink:href="#DejaVuSans-55" transform="translate(243.09375 0)"/>
     </g>
    </g>
    <g id="line2d_109">
     <path d="M 52.80024 32.099537 
L 62.80024 32.099537 
L 72.80024 32.099537 
" style="fill: none; stroke: #000000; stroke-linecap: square"/>
    </g>
    <g id="text_16">
     <!-- 10 -->
     <g transform="translate(80.80024 35.599537) scale(0.1 -0.1)">
      <use xlink:href="#DejaVuSans-14"/>
      <use xlink:href="#DejaVuSans-13" transform="translate(63.625 0)"/>
     </g>
    </g>
    <g id="line2d_110">
     <path d="M 52.80024 47.100318 
L 62.80024 47.100318 
L 72.80024 47.100318 
" style="fill: none; stroke: #dc241f; stroke-linecap: square"/>
    </g>
    <g id="text_17">
     <!-- 15 -->
     <g transform="translate(80.80024 50.600318) scale(0.1 -0.1)">
      <defs>
       <path id="DejaVuSans-18" d="M 691 4666 
L 3169 4666 
L 3169 4134 
L 1269 4134 
L 1269 2991 
Q 1406 3038 1543 3061 
Q 1681 3084 1819 3084 
Q 2600 3084 3056 2656 
Q 3513 2228 3513 1497 
Q 3513 744 3044 326 
Q 2575 -91 1722 -91 
Q 1428 -91 1123 -41 
Q 819 9 494 109 
L 494 744 
Q 775 591 1075 516 
Q 1375 441 1709 441 
Q 2250 441 2565 725 
Q 2881 1009 2881 1497 
Q 2881 1984 2565 2268 
Q 2250 2553 1709 2553 
Q 1456 2553 1204 2497 
Q 953 2441 691 2322 
L 691 4666 
z
" transform="scale(0.015625)"/>
      </defs>
      <use xlink:href="#DejaVuSans-14"/>
      <use xlink:href="#DejaVuSans-18" transform="translate(63.625 0)"/>
     </g>
    </g>
    <g id="line2d_111">
     <path d="M 52.80024 62.101099 
L 62.80024 62.101099 
L 72.80024 62.101099 
" style="fill: none; stroke: #0019a8; stroke-linecap: square"/>
    </g>
    <g id="text_18">
     <!-- 20 -->
     <g transform="translate(80.80024 65.601099) scale(0.1 -0.1)">
      <use xlink:href="#DejaVuSans-15"/>
      <use xlink:href="#DejaVuSans-13" transform="translate(63.625 0)"/>
     </g>
    </g>
    <g id="line2d_112">
     <path d="M 52.80024 77.101881 
L 62.80024 77.101881 
L 72.80024 77.101881 
" style="fill: none; stroke: #007d32; stroke-linecap: square"/>
    </g>
    <g id="text_19">
     <!-- 30 -->
     <g transform="translate(80.80024 80.601881) scale(0.1 -0.1)">
      <defs>
       <path id="DejaVuSans-16" d="M 2597 2516 
Q 3050 2419 3304 2112 
Q 3559 1806 3559 1356 
Q 3559 666 3084 287 
Q 2609 -91 1734 -91 
Q 1441 -91 1130 -33 
Q 819 25 488 141 
L 488 750 
Q 750 597 1062 519 
Q 1375 441 1716 441 
Q 2309 441 2620 675 
Q 2931 909 2931 1356 
Q 2931 1769 2642 2001 
Q 2353 2234 1838 2234 
L 1294 2234 
L 1294 2753 
L 1863 2753 
Q 2328 2753 2575 2939 
Q 2822 3125 2822 3475 
Q 2822 3834 2567 4026 
Q 2313 4219 1838 4219 
Q 1578 4219 1281 4162 
Q 984 4106 628 3988 
L 628 4550 
Q 988 4650 1302 4700 
Q 1616 4750 1894 4750 
Q 2613 4750 3031 4423 
Q 3450 4097 3450 3541 
Q 3450 3153 3228 2886 
Q 3006 2619 2597 2516 
z
" transform="scale(0.015625)"/>
      </defs>
      <use xlink:href="#DejaVuSans-16"/>
      <use xlink:href="#DejaVuSans-13" transform="translate(63.625 0)"/>
     </g>
    </g>
    <g id="line2d_113">
     <path d="M 52.80024 92.102662 
L 62.80024 92.102662 
L 72.80024 92.102662 
" style="fill: none; stroke: #9b0058; stroke-linecap: square"/>
    </g>
    <g id="text_20">
     <!-- 50 -->
     <g transform="translate(80.80024 95.602662) scale(0.1 -0.1)">
      <use xlink:href="#DejaVuSans-18"/>
      <use xlink:href="#DejaVuSans-13" transform="translate(63.625 0)"/>
     </g>
    </g>
    <g id="line2d_114">
     <path d="M 52.80024 107.103443 
L 62.80024 107.103443 
L 72.80024 107.103443 
" style="fill: none; stroke: #b26300; stroke-linecap: square"/>
    </g>
    <g id="text_21">
     <!-- 100 -->
     <g transform="translate(80.80024 110.603443) scale(0.1 -0.1)">
      <use xlink:href="#DejaVuSans-14"/>
      <use xlink:href="#DejaVuSans-13" transform="translate(63.625 0)"/>
      <use xlink:href="#DejaVuSans-13" transform="translate(127.25 0)"/>
     </g>
    </g>
   </g>
  </g>
 </g>
 <defs>
  <clipPath id="p3b612b7ead">
   <rect x="43.80024" y="3.00024" width="205.19952" height="154.496317"/>
  </clipPath>
 </defs>
</svg>
