<?xml version="1.0" encoding="utf-8" standalone="no"?>
<!DOCTYPE svg PUBLIC "-//W3C//DTD SVG 1.1//EN"
  "http://www.w3.org/Graphics/SVG/1.1/DTD/svg11.dtd">
<svg xmlns:xlink="http://www.w3.org/1999/xlink" width="252pt" height="188.64pt" viewBox="0 0 252 188.64" xmlns="http://www.w3.org/2000/svg" version="1.1">
 <metadata>
  <rdf:RDF xmlns:dc="http://purl.org/dc/elements/1.1/" xmlns:cc="http://creativecommons.org/ns#" xmlns:rdf="http://www.w3.org/1999/02/22-rdf-syntax-ns#">
   <cc:Work>
    <dc:type rdf:resource="http://purl.org/dc/dcmitype/StillImage"/>
    <dc:date>2025-12-23T13:12:02.837136</dc:date>
    <dc:format>image/svg+xml</dc:format>
    <dc:creator>
     <cc:Agent>
      <dc:title>Matplotlib v3.10.6, https://matplotlib.org/</dc:title>
     </cc:Agent>
    </dc:creator>
   </cc:Work>
  </rdf:RDF>
 </metadata>
 <defs>
  <style type="text/css">*{stroke-linejoin: round; stroke-linecap: butt}</style>
 </defs>
 <g id="figure_1">
  <g id="patch_1">
   <path d="M 0 188.64 
L 252 188.64 
L 252 0 
L 0 0 
z
" style="fill: #ffffff"/>
  </g>
  <g id="axes_1">
   <g id="patch_2">
    <path d="M 34.189223 158.325179 
L 248.99976 158.325179 
L 248.99976 3.00024 
L 34.189223 3.00024 
z
" style="fill: #ffffff"/>
   </g>
   <g id="matplotlib.axis_1">
    <g id="xtick_1">
     <g id="line2d_1">
      <defs>
       <path id="m374868f7bc" d="M 0 0 
L 0 -3 
" style="stroke: #000000; stroke-width: 0.5"/>
      </defs>
      <g>
       <use xlink:href="#m374868f7bc" x="55.670277" y="158.325179" style="stroke: #000000; stroke-width: 0.5"/>
      </g>
     </g>
     <g id="line2d_2">
      <defs>
       <path id="m8c1b0cfadf" d="M 0 0 
L 0 3 
" style="stroke: #000000; stroke-width: 0.5"/>
      </defs>
      <g>
       <use xlink:href="#m8c1b0cfadf" x="55.670277" y="3.00024" style="stroke: #000000; stroke-width: 0.5"/>
      </g>
     </g>
     <g id="text_1">
      <!-- $\mathdefault{0.8}$ -->
      <g transform="translate(49.305237 168.743678) scale(0.1 -0.1)">
       <defs>
        <path id="CMR17-30" d="M 2688 2038 
C 2688 2430 2682 3099 2413 3613 
C 2176 4063 1798 4224 1466 4224 
C 1158 4224 768 4082 525 3620 
C 269 3137 243 2539 243 2038 
C 243 1671 250 1112 448 623 
C 723 -39 1216 -128 1466 -128 
C 1760 -128 2208 -7 2470 604 
C 2662 1048 2688 1568 2688 2038 
z
M 1466 -26 
C 1056 -26 813 328 723 816 
C 653 1196 653 1749 653 2109 
C 653 2604 653 3015 736 3407 
C 858 3954 1216 4121 1466 4121 
C 1728 4121 2067 3947 2189 3420 
C 2272 3054 2278 2623 2278 2109 
C 2278 1691 2278 1176 2202 797 
C 2067 96 1690 -26 1466 -26 
z
" transform="scale(0.015625)"/>
        <path id="CMMI12-3a" d="M 1178 307 
C 1178 492 1024 620 870 620 
C 685 620 557 467 557 313 
C 557 128 710 0 864 0 
C 1050 0 1178 153 1178 307 
z
" transform="scale(0.015625)"/>
        <path id="CMR17-38" d="M 1741 2289 
C 2144 2494 2554 2803 2554 3298 
C 2554 3884 1990 4224 1472 4224 
C 890 4224 378 3800 378 3215 
C 378 3054 416 2777 666 2533 
C 730 2469 998 2276 1171 2154 
C 883 2006 211 1652 211 945 
C 211 282 838 -128 1459 -128 
C 2144 -128 2720 366 2720 1022 
C 2720 1607 2330 1877 2074 2051 
L 1741 2289 
z
M 902 2855 
C 851 2887 595 3086 595 3388 
C 595 3781 998 4076 1459 4076 
C 1965 4076 2336 3716 2336 3298 
C 2336 2700 1670 2359 1638 2359 
C 1632 2359 1626 2359 1574 2398 
L 902 2855 
z
M 2080 1536 
C 2176 1466 2483 1253 2483 861 
C 2483 385 2010 25 1472 25 
C 890 25 448 443 448 951 
C 448 1459 838 1884 1280 2083 
L 2080 1536 
z
" transform="scale(0.015625)"/>
       </defs>
       <use xlink:href="#CMR17-30" transform="scale(0.996264)"/>
       <use xlink:href="#CMMI12-3a" transform="translate(45.690477 0) scale(0.996264)"/>
       <use xlink:href="#CMR17-38" transform="translate(72.787654 0) scale(0.996264)"/>
      </g>
     </g>
    </g>
    <g id="xtick_2">
     <g id="line2d_3">
      <g>
       <use xlink:href="#m374868f7bc" x="98.632384" y="158.325179" style="stroke: #000000; stroke-width: 0.5"/>
      </g>
     </g>
     <g id="line2d_4">
      <g>
       <use xlink:href="#m8c1b0cfadf" x="98.632384" y="3.00024" style="stroke: #000000; stroke-width: 0.5"/>
      </g>
     </g>
     <g id="text_2">
      <!-- $\mathdefault{0.9}$ -->
      <g transform="translate(92.267345 168.743678) scale(0.1 -0.1)">
       <defs>
        <path id="CMR17-39" d="M 2253 1871 
C 2253 448 1670 25 1190 25 
C 1043 25 685 43 538 281 
C 704 256 826 345 826 505 
C 826 678 685 736 595 736 
C 538 736 365 710 365 492 
C 365 68 742 -128 1203 -128 
C 1939 -128 2688 665 2688 2090 
C 2688 3857 1971 4224 1485 4224 
C 851 4224 243 3664 243 2800 
C 243 2000 762 1408 1414 1408 
C 1952 1408 2189 1910 2253 2122 
L 2253 1871 
z
M 1427 1510 
C 1254 1510 1011 1542 813 1929 
C 678 2181 678 2477 678 2793 
C 678 3174 678 3438 858 3722 
C 947 3857 1114 4076 1485 4076 
C 2240 4076 2240 2909 2240 2651 
C 2240 2193 2035 1510 1427 1510 
z
" transform="scale(0.015625)"/>
       </defs>
       <use xlink:href="#CMR17-30" transform="scale(0.996264)"/>
       <use xlink:href="#CMMI12-3a" transform="translate(45.690477 0) scale(0.996264)"/>
       <use xlink:href="#CMR17-39" transform="translate(72.787654 0) scale(0.996264)"/>
      </g>
     </g>
    </g>
    <g id="xtick_3">
     <g id="line2d_5">
      <g>
       <use xlink:href="#m374868f7bc" x="141.594492" y="158.325179" style="stroke: #000000; stroke-width: 0.5"/>
      </g>
     </g>
     <g id="line2d_6">
      <g>
       <use xlink:href="#m8c1b0cfadf" x="141.594492" y="3.00024" style="stroke: #000000; stroke-width: 0.5"/>
      </g>
     </g>
     <g id="text_3">
      <!-- $\mathdefault{1.0}$ -->
      <g transform="translate(135.229452 168.743678) scale(0.1 -0.1)">
       <defs>
        <path id="CMR17-31" d="M 1702 4083 
C 1702 4217 1696 4224 1606 4224 
C 1357 3927 979 3833 621 3820 
C 602 3820 570 3820 563 3808 
C 557 3795 557 3782 557 3648 
C 755 3648 1088 3686 1344 3839 
L 1344 467 
C 1344 243 1331 166 781 166 
L 589 166 
L 589 0 
C 896 6 1216 12 1523 12 
C 1830 12 2150 6 2458 0 
L 2458 166 
L 2266 166 
C 1715 166 1702 236 1702 467 
L 1702 4083 
z
" transform="scale(0.015625)"/>
       </defs>
       <use xlink:href="#CMR17-31" transform="scale(0.996264)"/>
       <use xlink:href="#CMMI12-3a" transform="translate(45.690477 0) scale(0.996264)"/>
       <use xlink:href="#CMR17-30" transform="translate(72.787654 0) scale(0.996264)"/>
      </g>
     </g>
    </g>
    <g id="xtick_4">
     <g id="line2d_7">
      <g>
       <use xlink:href="#m374868f7bc" x="184.556599" y="158.325179" style="stroke: #000000; stroke-width: 0.5"/>
      </g>
     </g>
     <g id="line2d_8">
      <g>
       <use xlink:href="#m8c1b0cfadf" x="184.556599" y="3.00024" style="stroke: #000000; stroke-width: 0.5"/>
      </g>
     </g>
     <g id="text_4">
      <!-- $\mathdefault{1.1}$ -->
      <g transform="translate(178.191559 168.743678) scale(0.1 -0.1)">
       <use xlink:href="#CMR17-31" transform="scale(0.996264)"/>
       <use xlink:href="#CMMI12-3a" transform="translate(45.690477 0) scale(0.996264)"/>
       <use xlink:href="#CMR17-31" transform="translate(72.787654 0) scale(0.996264)"/>
      </g>
     </g>
    </g>
    <g id="xtick_5">
     <g id="line2d_9">
      <g>
       <use xlink:href="#m374868f7bc" x="227.518706" y="158.325179" style="stroke: #000000; stroke-width: 0.5"/>
      </g>
     </g>
     <g id="line2d_10">
      <g>
       <use xlink:href="#m8c1b0cfadf" x="227.518706" y="3.00024" style="stroke: #000000; stroke-width: 0.5"/>
      </g>
     </g>
     <g id="text_5">
      <!-- $\mathdefault{1.2}$ -->
      <g transform="translate(221.153667 168.743678) scale(0.1 -0.1)">
       <defs>
        <path id="CMR17-32" d="M 2669 990 
L 2554 990 
C 2490 537 2438 460 2413 422 
C 2381 371 1920 371 1830 371 
L 602 371 
C 832 620 1280 1073 1824 1596 
C 2214 1966 2669 2400 2669 3033 
C 2669 3788 2067 4224 1395 4224 
C 691 4224 262 3603 262 3027 
C 262 2777 448 2745 525 2745 
C 589 2745 781 2783 781 3007 
C 781 3206 614 3264 525 3264 
C 486 3264 448 3257 422 3244 
C 544 3788 915 4057 1306 4057 
C 1862 4057 2227 3616 2227 3033 
C 2227 2477 1901 1998 1536 1583 
L 262 147 
L 262 0 
L 2515 0 
L 2669 990 
z
" transform="scale(0.015625)"/>
       </defs>
       <use xlink:href="#CMR17-31" transform="scale(0.996264)"/>
       <use xlink:href="#CMMI12-3a" transform="translate(45.690477 0) scale(0.996264)"/>
       <use xlink:href="#CMR17-32" transform="translate(72.787654 0) scale(0.996264)"/>
      </g>
     </g>
    </g>
    <g id="xtick_6">
     <g id="line2d_11">
      <defs>
       <path id="m9d9fd8b0a5" d="M 0 0 
L 0 -1.5 
" style="stroke: #000000; stroke-width: 0.5"/>
      </defs>
      <g>
       <use xlink:href="#m9d9fd8b0a5" x="38.485434" y="158.325179" style="stroke: #000000; stroke-width: 0.5"/>
      </g>
     </g>
     <g id="line2d_12">
      <defs>
       <path id="mc188faec70" d="M 0 0 
L 0 1.5 
" style="stroke: #000000; stroke-width: 0.5"/>
      </defs>
      <g>
       <use xlink:href="#mc188faec70" x="38.485434" y="3.00024" style="stroke: #000000; stroke-width: 0.5"/>
      </g>
     </g>
    </g>
    <g id="xtick_7">
     <g id="line2d_13">
      <g>
       <use xlink:href="#m9d9fd8b0a5" x="47.077855" y="158.325179" style="stroke: #000000; stroke-width: 0.5"/>
      </g>
     </g>
     <g id="line2d_14">
      <g>
       <use xlink:href="#mc188faec70" x="47.077855" y="3.00024" style="stroke: #000000; stroke-width: 0.5"/>
      </g>
     </g>
    </g>
    <g id="xtick_8">
     <g id="line2d_15">
      <g>
       <use xlink:href="#m9d9fd8b0a5" x="64.262698" y="158.325179" style="stroke: #000000; stroke-width: 0.5"/>
      </g>
     </g>
     <g id="line2d_16">
      <g>
       <use xlink:href="#mc188faec70" x="64.262698" y="3.00024" style="stroke: #000000; stroke-width: 0.5"/>
      </g>
     </g>
    </g>
    <g id="xtick_9">
     <g id="line2d_17">
      <g>
       <use xlink:href="#m9d9fd8b0a5" x="72.85512" y="158.325179" style="stroke: #000000; stroke-width: 0.5"/>
      </g>
     </g>
     <g id="line2d_18">
      <g>
       <use xlink:href="#mc188faec70" x="72.85512" y="3.00024" style="stroke: #000000; stroke-width: 0.5"/>
      </g>
     </g>
    </g>
    <g id="xtick_10">
     <g id="line2d_19">
      <g>
       <use xlink:href="#m9d9fd8b0a5" x="81.447541" y="158.325179" style="stroke: #000000; stroke-width: 0.5"/>
      </g>
     </g>
     <g id="line2d_20">
      <g>
       <use xlink:href="#mc188faec70" x="81.447541" y="3.00024" style="stroke: #000000; stroke-width: 0.5"/>
      </g>
     </g>
    </g>
    <g id="xtick_11">
     <g id="line2d_21">
      <g>
       <use xlink:href="#m9d9fd8b0a5" x="90.039963" y="158.325179" style="stroke: #000000; stroke-width: 0.5"/>
      </g>
     </g>
     <g id="line2d_22">
      <g>
       <use xlink:href="#mc188faec70" x="90.039963" y="3.00024" style="stroke: #000000; stroke-width: 0.5"/>
      </g>
     </g>
    </g>
    <g id="xtick_12">
     <g id="line2d_23">
      <g>
       <use xlink:href="#m9d9fd8b0a5" x="107.224806" y="158.325179" style="stroke: #000000; stroke-width: 0.5"/>
      </g>
     </g>
     <g id="line2d_24">
      <g>
       <use xlink:href="#mc188faec70" x="107.224806" y="3.00024" style="stroke: #000000; stroke-width: 0.5"/>
      </g>
     </g>
    </g>
    <g id="xtick_13">
     <g id="line2d_25">
      <g>
       <use xlink:href="#m9d9fd8b0a5" x="115.817227" y="158.325179" style="stroke: #000000; stroke-width: 0.5"/>
      </g>
     </g>
     <g id="line2d_26">
      <g>
       <use xlink:href="#mc188faec70" x="115.817227" y="3.00024" style="stroke: #000000; stroke-width: 0.5"/>
      </g>
     </g>
    </g>
    <g id="xtick_14">
     <g id="line2d_27">
      <g>
       <use xlink:href="#m9d9fd8b0a5" x="124.409649" y="158.325179" style="stroke: #000000; stroke-width: 0.5"/>
      </g>
     </g>
     <g id="line2d_28">
      <g>
       <use xlink:href="#mc188faec70" x="124.409649" y="3.00024" style="stroke: #000000; stroke-width: 0.5"/>
      </g>
     </g>
    </g>
    <g id="xtick_15">
     <g id="line2d_29">
      <g>
       <use xlink:href="#m9d9fd8b0a5" x="133.00207" y="158.325179" style="stroke: #000000; stroke-width: 0.5"/>
      </g>
     </g>
     <g id="line2d_30">
      <g>
       <use xlink:href="#mc188faec70" x="133.00207" y="3.00024" style="stroke: #000000; stroke-width: 0.5"/>
      </g>
     </g>
    </g>
    <g id="xtick_16">
     <g id="line2d_31">
      <g>
       <use xlink:href="#m9d9fd8b0a5" x="150.186913" y="158.325179" style="stroke: #000000; stroke-width: 0.5"/>
      </g>
     </g>
     <g id="line2d_32">
      <g>
       <use xlink:href="#mc188faec70" x="150.186913" y="3.00024" style="stroke: #000000; stroke-width: 0.5"/>
      </g>
     </g>
    </g>
    <g id="xtick_17">
     <g id="line2d_33">
      <g>
       <use xlink:href="#m9d9fd8b0a5" x="158.779334" y="158.325179" style="stroke: #000000; stroke-width: 0.5"/>
      </g>
     </g>
     <g id="line2d_34">
      <g>
       <use xlink:href="#mc188faec70" x="158.779334" y="3.00024" style="stroke: #000000; stroke-width: 0.5"/>
      </g>
     </g>
    </g>
    <g id="xtick_18">
     <g id="line2d_35">
      <g>
       <use xlink:href="#m9d9fd8b0a5" x="167.371756" y="158.325179" style="stroke: #000000; stroke-width: 0.5"/>
      </g>
     </g>
     <g id="line2d_36">
      <g>
       <use xlink:href="#mc188faec70" x="167.371756" y="3.00024" style="stroke: #000000; stroke-width: 0.5"/>
      </g>
     </g>
    </g>
    <g id="xtick_19">
     <g id="line2d_37">
      <g>
       <use xlink:href="#m9d9fd8b0a5" x="175.964177" y="158.325179" style="stroke: #000000; stroke-width: 0.5"/>
      </g>
     </g>
     <g id="line2d_38">
      <g>
       <use xlink:href="#mc188faec70" x="175.964177" y="3.00024" style="stroke: #000000; stroke-width: 0.5"/>
      </g>
     </g>
    </g>
    <g id="xtick_20">
     <g id="line2d_39">
      <g>
       <use xlink:href="#m9d9fd8b0a5" x="193.14902" y="158.325179" style="stroke: #000000; stroke-width: 0.5"/>
      </g>
     </g>
     <g id="line2d_40">
      <g>
       <use xlink:href="#mc188faec70" x="193.14902" y="3.00024" style="stroke: #000000; stroke-width: 0.5"/>
      </g>
     </g>
    </g>
    <g id="xtick_21">
     <g id="line2d_41">
      <g>
       <use xlink:href="#m9d9fd8b0a5" x="201.741442" y="158.325179" style="stroke: #000000; stroke-width: 0.5"/>
      </g>
     </g>
     <g id="line2d_42">
      <g>
       <use xlink:href="#mc188faec70" x="201.741442" y="3.00024" style="stroke: #000000; stroke-width: 0.5"/>
      </g>
     </g>
    </g>
    <g id="xtick_22">
     <g id="line2d_43">
      <g>
       <use xlink:href="#m9d9fd8b0a5" x="210.333863" y="158.325179" style="stroke: #000000; stroke-width: 0.5"/>
      </g>
     </g>
     <g id="line2d_44">
      <g>
       <use xlink:href="#mc188faec70" x="210.333863" y="3.00024" style="stroke: #000000; stroke-width: 0.5"/>
      </g>
     </g>
    </g>
    <g id="xtick_23">
     <g id="line2d_45">
      <g>
       <use xlink:href="#m9d9fd8b0a5" x="218.926285" y="158.325179" style="stroke: #000000; stroke-width: 0.5"/>
      </g>
     </g>
     <g id="line2d_46">
      <g>
       <use xlink:href="#mc188faec70" x="218.926285" y="3.00024" style="stroke: #000000; stroke-width: 0.5"/>
      </g>
     </g>
    </g>
    <g id="xtick_24">
     <g id="line2d_47">
      <g>
       <use xlink:href="#m9d9fd8b0a5" x="236.111128" y="158.325179" style="stroke: #000000; stroke-width: 0.5"/>
      </g>
     </g>
     <g id="line2d_48">
      <g>
       <use xlink:href="#mc188faec70" x="236.111128" y="3.00024" style="stroke: #000000; stroke-width: 0.5"/>
      </g>
     </g>
    </g>
    <g id="xtick_25">
     <g id="line2d_49">
      <g>
       <use xlink:href="#m9d9fd8b0a5" x="244.703549" y="158.325179" style="stroke: #000000; stroke-width: 0.5"/>
      </g>
     </g>
     <g id="line2d_50">
      <g>
       <use xlink:href="#mc188faec70" x="244.703549" y="3.00024" style="stroke: #000000; stroke-width: 0.5"/>
      </g>
     </g>
    </g>
    <g id="text_6">
     <!-- Voltage (V) -->
     <g transform="translate(114.516818 182.900034) scale(0.11 -0.11)">
      <defs>
       <path id="CMSS17-56" d="M 3910 4416 
L 3411 4416 
L 2304 1361 
C 2272 1272 2074 687 2035 484 
L 2029 484 
C 1978 725 1773 1291 1664 1603 
L 922 3670 
L 646 4416 
L 83 4416 
L 1715 0 
L 2278 0 
L 3910 4416 
z
" transform="scale(0.015625)"/>
       <path id="CMSS17-6f" d="M 2829 1356 
C 2829 2175 2221 2816 1504 2816 
C 768 2816 173 2156 173 1356 
C 173 544 787 -64 1498 -64 
C 2227 -64 2829 563 2829 1356 
z
M 1504 339 
C 1050 339 659 710 659 1407 
C 659 2150 1114 2425 1498 2425 
C 1914 2425 2342 2124 2342 1407 
C 2342 684 1926 339 1504 339 
z
" transform="scale(0.015625)"/>
       <path id="CMSS17-6c" d="M 947 4416 
L 474 4416 
L 474 0 
L 947 0 
L 947 4416 
z
" transform="scale(0.015625)"/>
       <path id="CMSS17-74" d="M 1069 2380 
L 1901 2380 
L 1901 2752 
L 1069 2752 
L 1069 3520 
L 614 3520 
L 614 2752 
L 109 2752 
L 109 2380 
L 602 2380 
L 602 751 
C 602 384 685 -64 1107 -64 
C 1427 -64 1722 25 2003 172 
L 1901 551 
C 1747 416 1562 339 1363 339 
C 1082 339 1069 699 1069 860 
L 1069 2380 
z
" transform="scale(0.015625)"/>
       <path id="CMSS17-61" d="M 2406 1789 
C 2406 2399 1978 2816 1402 2816 
C 1120 2816 813 2764 461 2559 
L 499 2133 
C 659 2250 934 2438 1395 2438 
C 1722 2438 1920 2185 1920 1782 
L 1920 1536 
C 896 1504 256 1209 256 711 
C 256 452 416 -64 947 -64 
C 1043 -64 1562 -52 1933 224 
L 1933 -13 
L 2406 -13 
L 2406 1789 
z
M 1920 824 
C 1920 711 1920 559 1728 446 
C 1562 339 1350 326 1261 326 
C 941 326 723 503 723 723 
C 723 1165 1722 1209 1920 1216 
L 1920 824 
z
" transform="scale(0.015625)"/>
       <path id="CMSS17-67" d="M 2848 2816 
C 2483 2809 2170 2739 1914 2617 
C 1702 2783 1485 2816 1338 2816 
C 781 2816 358 2356 358 1824 
C 358 1481 550 1222 563 1209 
C 448 1049 384 876 384 684 
C 384 460 474 300 544 211 
C 211 6 166 -308 166 -429 
C 166 -896 749 -1280 1498 -1280 
C 2253 -1280 2835 -896 2835 -423 
C 2835 460 1856 467 1587 467 
L 1069 467 
C 973 467 717 467 717 793 
C 717 921 774 1004 781 1011 
C 877 940 1075 832 1338 832 
C 1869 832 2310 1279 2310 1824 
C 2310 2128 2170 2349 2112 2425 
L 2131 2425 
C 2150 2425 2419 2444 2515 2444 
C 2720 2444 2739 2438 2918 2419 
L 2848 2816 
z
M 1338 1184 
C 1120 1184 813 1317 813 1824 
C 813 2375 1165 2463 1331 2463 
C 1549 2463 1856 2330 1856 1824 
C 1856 1272 1504 1184 1338 1184 
z
M 1581 0 
C 1734 0 2381 0 2381 -436 
C 2381 -711 1984 -928 1504 -928 
C 1018 -928 621 -717 621 -429 
C 621 -397 621 0 1062 0 
L 1581 0 
z
" transform="scale(0.015625)"/>
       <path id="CMSS17-65" d="M 2502 1375 
C 2502 1587 2490 2001 2285 2347 
C 2061 2713 1696 2816 1421 2816 
C 755 2816 192 2184 192 1363 
C 192 579 774 -64 1510 -64 
C 1798 -64 2150 19 2470 249 
C 2470 275 2458 414 2451 421 
C 2451 433 2432 629 2432 655 
C 2125 408 1773 326 1517 326 
C 1107 326 666 667 646 1375 
L 2502 1375 
z
M 698 1728 
C 781 2086 1062 2425 1421 2425 
C 1517 2425 1965 2412 2080 1728 
L 698 1728 
z
" transform="scale(0.015625)"/>
       <path id="CMSS17-28" d="M 1613 4800 
C 1267 4447 474 3627 474 1603 
C 474 -428 1267 -1242 1613 -1600 
L 2003 -1600 
C 1216 -781 960 366 960 1596 
C 960 2820 1203 3973 2003 4800 
L 1613 4800 
z
" transform="scale(0.015625)"/>
       <path id="CMSS17-29" d="M 723 -1600 
C 1069 -1248 1862 -428 1862 1596 
C 1862 3627 1069 4440 723 4800 
L 333 4800 
C 1120 3979 1376 2833 1376 1603 
C 1376 379 1133 -774 333 -1600 
L 723 -1600 
z
" transform="scale(0.015625)"/>
      </defs>
      <use xlink:href="#CMSS17-56" transform="scale(0.996264)"/>
      <use xlink:href="#CMSS17-6f" transform="translate(59.615401 0) scale(0.996264)"/>
      <use xlink:href="#CMSS17-6c" transform="translate(106.459025 0) scale(0.996264)"/>
      <use xlink:href="#CMSS17-74" transform="translate(128.639748 0) scale(0.996264)"/>
      <use xlink:href="#CMSS17-61" transform="translate(162.471314 0) scale(0.996264)"/>
      <use xlink:href="#CMSS17-67" transform="translate(207.393235 0) scale(0.996264)"/>
      <use xlink:href="#CMSS17-65" transform="translate(254.236858 0) scale(0.996264)"/>
      <use xlink:href="#CMSS17-28" transform="translate(327.104793 0) scale(0.996264)"/>
      <use xlink:href="#CMSS17-56" transform="translate(363.538707 0) scale(0.996264)"/>
      <use xlink:href="#CMSS17-29" transform="translate(425.756562 0) scale(0.996264)"/>
     </g>
    </g>
   </g>
   <g id="matplotlib.axis_2">
    <g id="ytick_1">
     <g id="line2d_51">
      <defs>
       <path id="m0abdd4be46" d="M 0 0 
L 3 0 
" style="stroke: #000000; stroke-width: 0.5"/>
      </defs>
      <g>
       <use xlink:href="#m0abdd4be46" x="34.189223" y="158.325179" style="stroke: #000000; stroke-width: 0.5"/>
      </g>
     </g>
     <g id="line2d_52">
      <defs>
       <path id="mc78752f714" d="M 0 0 
L -3 0 
" style="stroke: #000000; stroke-width: 0.5"/>
      </defs>
      <g>
       <use xlink:href="#mc78752f714" x="248.99976" y="158.325179" style="stroke: #000000; stroke-width: 0.5"/>
      </g>
     </g>
     <g id="text_7">
      <!-- $\mathdefault{0.0}$ -->
      <g transform="translate(17.959144 161.784428) scale(0.1 -0.1)">
       <use xlink:href="#CMR17-30" transform="scale(0.996264)"/>
       <use xlink:href="#CMMI12-3a" transform="translate(45.690477 0) scale(0.996264)"/>
       <use xlink:href="#CMR17-30" transform="translate(72.787654 0) scale(0.996264)"/>
      </g>
     </g>
    </g>
    <g id="ytick_2">
     <g id="line2d_53">
      <g>
       <use xlink:href="#m0abdd4be46" x="34.189223" y="133.473189" style="stroke: #000000; stroke-width: 0.5"/>
      </g>
     </g>
     <g id="line2d_54">
      <g>
       <use xlink:href="#mc78752f714" x="248.99976" y="133.473189" style="stroke: #000000; stroke-width: 0.5"/>
      </g>
     </g>
     <g id="text_8">
      <!-- $\mathdefault{0.2}$ -->
      <g transform="translate(17.959144 136.932438) scale(0.1 -0.1)">
       <use xlink:href="#CMR17-30" transform="scale(0.996264)"/>
       <use xlink:href="#CMMI12-3a" transform="translate(45.690477 0) scale(0.996264)"/>
       <use xlink:href="#CMR17-32" transform="translate(72.787654 0) scale(0.996264)"/>
      </g>
     </g>
    </g>
    <g id="ytick_3">
     <g id="line2d_55">
      <g>
       <use xlink:href="#m0abdd4be46" x="34.189223" y="108.621199" style="stroke: #000000; stroke-width: 0.5"/>
      </g>
     </g>
     <g id="line2d_56">
      <g>
       <use xlink:href="#mc78752f714" x="248.99976" y="108.621199" style="stroke: #000000; stroke-width: 0.5"/>
      </g>
     </g>
     <g id="text_9">
      <!-- $\mathdefault{0.4}$ -->
      <g transform="translate(17.959144 112.080448) scale(0.1 -0.1)">
       <defs>
        <path id="CMR17-34" d="M 2150 4147 
C 2150 4281 2144 4288 2029 4288 
L 128 1254 
L 128 1088 
L 1779 1088 
L 1779 460 
C 1779 230 1766 166 1318 166 
L 1197 166 
L 1197 0 
C 1402 12 1747 12 1965 12 
C 2182 12 2528 12 2733 0 
L 2733 166 
L 2611 166 
C 2163 166 2150 230 2150 460 
L 2150 1088 
L 2803 1088 
L 2803 1254 
L 2150 1254 
L 2150 4147 
z
M 1798 3723 
L 1798 1254 
L 256 1254 
L 1798 3723 
z
" transform="scale(0.015625)"/>
       </defs>
       <use xlink:href="#CMR17-30" transform="scale(0.996264)"/>
       <use xlink:href="#CMMI12-3a" transform="translate(45.690477 0) scale(0.996264)"/>
       <use xlink:href="#CMR17-34" transform="translate(72.787654 0) scale(0.996264)"/>
      </g>
     </g>
    </g>
    <g id="ytick_4">
     <g id="line2d_57">
      <g>
       <use xlink:href="#m0abdd4be46" x="34.189223" y="83.769208" style="stroke: #000000; stroke-width: 0.5"/>
      </g>
     </g>
     <g id="line2d_58">
      <g>
       <use xlink:href="#mc78752f714" x="248.99976" y="83.769208" style="stroke: #000000; stroke-width: 0.5"/>
      </g>
     </g>
     <g id="text_10">
      <!-- $\mathdefault{0.6}$ -->
      <g transform="translate(17.959144 87.228458) scale(0.1 -0.1)">
       <defs>
        <path id="CMR17-36" d="M 678 2198 
C 678 3712 1395 4076 1811 4076 
C 1946 4076 2272 4049 2400 3782 
C 2298 3782 2106 3782 2106 3558 
C 2106 3385 2246 3328 2336 3328 
C 2394 3328 2566 3353 2566 3571 
C 2566 3987 2246 4224 1805 4224 
C 1043 4224 243 3411 243 2011 
C 243 257 966 -128 1478 -128 
C 2099 -128 2688 431 2688 1295 
C 2688 2101 2170 2688 1517 2688 
C 1126 2688 838 2430 678 1979 
L 678 2198 
z
M 1478 25 
C 691 25 691 1212 691 1450 
C 691 1914 909 2585 1504 2585 
C 1613 2585 1926 2585 2138 2140 
C 2253 1889 2253 1624 2253 1302 
C 2253 954 2253 696 2118 438 
C 1978 173 1773 25 1478 25 
z
" transform="scale(0.015625)"/>
       </defs>
       <use xlink:href="#CMR17-30" transform="scale(0.996264)"/>
       <use xlink:href="#CMMI12-3a" transform="translate(45.690477 0) scale(0.996264)"/>
       <use xlink:href="#CMR17-36" transform="translate(72.787654 0) scale(0.996264)"/>
      </g>
     </g>
    </g>
    <g id="ytick_5">
     <g id="line2d_59">
      <g>
       <use xlink:href="#m0abdd4be46" x="34.189223" y="58.917218" style="stroke: #000000; stroke-width: 0.5"/>
      </g>
     </g>
     <g id="line2d_60">
      <g>
       <use xlink:href="#mc78752f714" x="248.99976" y="58.917218" style="stroke: #000000; stroke-width: 0.5"/>
      </g>
     </g>
     <g id="text_11">
      <!-- $\mathdefault{0.8}$ -->
      <g transform="translate(17.959144 62.376467) scale(0.1 -0.1)">
       <use xlink:href="#CMR17-30" transform="scale(0.996264)"/>
       <use xlink:href="#CMMI12-3a" transform="translate(45.690477 0) scale(0.996264)"/>
       <use xlink:href="#CMR17-38" transform="translate(72.787654 0) scale(0.996264)"/>
      </g>
     </g>
    </g>
    <g id="ytick_6">
     <g id="line2d_61">
      <g>
       <use xlink:href="#m0abdd4be46" x="34.189223" y="34.065228" style="stroke: #000000; stroke-width: 0.5"/>
      </g>
     </g>
     <g id="line2d_62">
      <g>
       <use xlink:href="#mc78752f714" x="248.99976" y="34.065228" style="stroke: #000000; stroke-width: 0.5"/>
      </g>
     </g>
     <g id="text_12">
      <!-- $\mathdefault{1.0}$ -->
      <g transform="translate(17.959144 37.524477) scale(0.1 -0.1)">
       <use xlink:href="#CMR17-31" transform="scale(0.996264)"/>
       <use xlink:href="#CMMI12-3a" transform="translate(45.690477 0) scale(0.996264)"/>
       <use xlink:href="#CMR17-30" transform="translate(72.787654 0) scale(0.996264)"/>
      </g>
     </g>
    </g>
    <g id="ytick_7">
     <g id="line2d_63">
      <g>
       <use xlink:href="#m0abdd4be46" x="34.189223" y="9.213238" style="stroke: #000000; stroke-width: 0.5"/>
      </g>
     </g>
     <g id="line2d_64">
      <g>
       <use xlink:href="#mc78752f714" x="248.99976" y="9.213238" style="stroke: #000000; stroke-width: 0.5"/>
      </g>
     </g>
     <g id="text_13">
      <!-- $\mathdefault{1.2}$ -->
      <g transform="translate(17.959144 12.672487) scale(0.1 -0.1)">
       <use xlink:href="#CMR17-31" transform="scale(0.996264)"/>
       <use xlink:href="#CMMI12-3a" transform="translate(45.690477 0) scale(0.996264)"/>
       <use xlink:href="#CMR17-32" transform="translate(72.787654 0) scale(0.996264)"/>
      </g>
     </g>
    </g>
    <g id="ytick_8">
     <g id="line2d_65">
      <defs>
       <path id="mc0af626ca8" d="M 0 0 
L 1.5 0 
" style="stroke: #000000; stroke-width: 0.5"/>
      </defs>
      <g>
       <use xlink:href="#mc0af626ca8" x="34.189223" y="152.112182" style="stroke: #000000; stroke-width: 0.5"/>
      </g>
     </g>
     <g id="line2d_66">
      <defs>
       <path id="meb61dc1309" d="M 0 0 
L -1.5 0 
" style="stroke: #000000; stroke-width: 0.5"/>
      </defs>
      <g>
       <use xlink:href="#meb61dc1309" x="248.99976" y="152.112182" style="stroke: #000000; stroke-width: 0.5"/>
      </g>
     </g>
    </g>
    <g id="ytick_9">
     <g id="line2d_67">
      <g>
       <use xlink:href="#mc0af626ca8" x="34.189223" y="145.899184" style="stroke: #000000; stroke-width: 0.5"/>
      </g>
     </g>
     <g id="line2d_68">
      <g>
       <use xlink:href="#meb61dc1309" x="248.99976" y="145.899184" style="stroke: #000000; stroke-width: 0.5"/>
      </g>
     </g>
    </g>
    <g id="ytick_10">
     <g id="line2d_69">
      <g>
       <use xlink:href="#mc0af626ca8" x="34.189223" y="139.686186" style="stroke: #000000; stroke-width: 0.5"/>
      </g>
     </g>
     <g id="line2d_70">
      <g>
       <use xlink:href="#meb61dc1309" x="248.99976" y="139.686186" style="stroke: #000000; stroke-width: 0.5"/>
      </g>
     </g>
    </g>
    <g id="ytick_11">
     <g id="line2d_71">
      <g>
       <use xlink:href="#mc0af626ca8" x="34.189223" y="127.260191" style="stroke: #000000; stroke-width: 0.5"/>
      </g>
     </g>
     <g id="line2d_72">
      <g>
       <use xlink:href="#meb61dc1309" x="248.99976" y="127.260191" style="stroke: #000000; stroke-width: 0.5"/>
      </g>
     </g>
    </g>
    <g id="ytick_12">
     <g id="line2d_73">
      <g>
       <use xlink:href="#mc0af626ca8" x="34.189223" y="121.047194" style="stroke: #000000; stroke-width: 0.5"/>
      </g>
     </g>
     <g id="line2d_74">
      <g>
       <use xlink:href="#meb61dc1309" x="248.99976" y="121.047194" style="stroke: #000000; stroke-width: 0.5"/>
      </g>
     </g>
    </g>
    <g id="ytick_13">
     <g id="line2d_75">
      <g>
       <use xlink:href="#mc0af626ca8" x="34.189223" y="114.834196" style="stroke: #000000; stroke-width: 0.5"/>
      </g>
     </g>
     <g id="line2d_76">
      <g>
       <use xlink:href="#meb61dc1309" x="248.99976" y="114.834196" style="stroke: #000000; stroke-width: 0.5"/>
      </g>
     </g>
    </g>
    <g id="ytick_14">
     <g id="line2d_77">
      <g>
       <use xlink:href="#mc0af626ca8" x="34.189223" y="102.408201" style="stroke: #000000; stroke-width: 0.5"/>
      </g>
     </g>
     <g id="line2d_78">
      <g>
       <use xlink:href="#meb61dc1309" x="248.99976" y="102.408201" style="stroke: #000000; stroke-width: 0.5"/>
      </g>
     </g>
    </g>
    <g id="ytick_15">
     <g id="line2d_79">
      <g>
       <use xlink:href="#mc0af626ca8" x="34.189223" y="96.195204" style="stroke: #000000; stroke-width: 0.5"/>
      </g>
     </g>
     <g id="line2d_80">
      <g>
       <use xlink:href="#meb61dc1309" x="248.99976" y="96.195204" style="stroke: #000000; stroke-width: 0.5"/>
      </g>
     </g>
    </g>
    <g id="ytick_16">
     <g id="line2d_81">
      <g>
       <use xlink:href="#mc0af626ca8" x="34.189223" y="89.982206" style="stroke: #000000; stroke-width: 0.5"/>
      </g>
     </g>
     <g id="line2d_82">
      <g>
       <use xlink:href="#meb61dc1309" x="248.99976" y="89.982206" style="stroke: #000000; stroke-width: 0.5"/>
      </g>
     </g>
    </g>
    <g id="ytick_17">
     <g id="line2d_83">
      <g>
       <use xlink:href="#mc0af626ca8" x="34.189223" y="77.556211" style="stroke: #000000; stroke-width: 0.5"/>
      </g>
     </g>
     <g id="line2d_84">
      <g>
       <use xlink:href="#meb61dc1309" x="248.99976" y="77.556211" style="stroke: #000000; stroke-width: 0.5"/>
      </g>
     </g>
    </g>
    <g id="ytick_18">
     <g id="line2d_85">
      <g>
       <use xlink:href="#mc0af626ca8" x="34.189223" y="71.343213" style="stroke: #000000; stroke-width: 0.5"/>
      </g>
     </g>
     <g id="line2d_86">
      <g>
       <use xlink:href="#meb61dc1309" x="248.99976" y="71.343213" style="stroke: #000000; stroke-width: 0.5"/>
      </g>
     </g>
    </g>
    <g id="ytick_19">
     <g id="line2d_87">
      <g>
       <use xlink:href="#mc0af626ca8" x="34.189223" y="65.130216" style="stroke: #000000; stroke-width: 0.5"/>
      </g>
     </g>
     <g id="line2d_88">
      <g>
       <use xlink:href="#meb61dc1309" x="248.99976" y="65.130216" style="stroke: #000000; stroke-width: 0.5"/>
      </g>
     </g>
    </g>
    <g id="ytick_20">
     <g id="line2d_89">
      <g>
       <use xlink:href="#mc0af626ca8" x="34.189223" y="52.704221" style="stroke: #000000; stroke-width: 0.5"/>
      </g>
     </g>
     <g id="line2d_90">
      <g>
       <use xlink:href="#meb61dc1309" x="248.99976" y="52.704221" style="stroke: #000000; stroke-width: 0.5"/>
      </g>
     </g>
    </g>
    <g id="ytick_21">
     <g id="line2d_91">
      <g>
       <use xlink:href="#mc0af626ca8" x="34.189223" y="46.491223" style="stroke: #000000; stroke-width: 0.5"/>
      </g>
     </g>
     <g id="line2d_92">
      <g>
       <use xlink:href="#meb61dc1309" x="248.99976" y="46.491223" style="stroke: #000000; stroke-width: 0.5"/>
      </g>
     </g>
    </g>
    <g id="ytick_22">
     <g id="line2d_93">
      <g>
       <use xlink:href="#mc0af626ca8" x="34.189223" y="40.278225" style="stroke: #000000; stroke-width: 0.5"/>
      </g>
     </g>
     <g id="line2d_94">
      <g>
       <use xlink:href="#meb61dc1309" x="248.99976" y="40.278225" style="stroke: #000000; stroke-width: 0.5"/>
      </g>
     </g>
    </g>
    <g id="ytick_23">
     <g id="line2d_95">
      <g>
       <use xlink:href="#mc0af626ca8" x="34.189223" y="27.85223" style="stroke: #000000; stroke-width: 0.5"/>
      </g>
     </g>
     <g id="line2d_96">
      <g>
       <use xlink:href="#meb61dc1309" x="248.99976" y="27.85223" style="stroke: #000000; stroke-width: 0.5"/>
      </g>
     </g>
    </g>
    <g id="ytick_24">
     <g id="line2d_97">
      <g>
       <use xlink:href="#mc0af626ca8" x="34.189223" y="21.639233" style="stroke: #000000; stroke-width: 0.5"/>
      </g>
     </g>
     <g id="line2d_98">
      <g>
       <use xlink:href="#meb61dc1309" x="248.99976" y="21.639233" style="stroke: #000000; stroke-width: 0.5"/>
      </g>
     </g>
    </g>
    <g id="ytick_25">
     <g id="line2d_99">
      <g>
       <use xlink:href="#mc0af626ca8" x="34.189223" y="15.426235" style="stroke: #000000; stroke-width: 0.5"/>
      </g>
     </g>
     <g id="line2d_100">
      <g>
       <use xlink:href="#meb61dc1309" x="248.99976" y="15.426235" style="stroke: #000000; stroke-width: 0.5"/>
      </g>
     </g>
    </g>
    <g id="ytick_26">
     <g id="line2d_101">
      <g>
       <use xlink:href="#mc0af626ca8" x="34.189223" y="3.00024" style="stroke: #000000; stroke-width: 0.5"/>
      </g>
     </g>
     <g id="line2d_102">
      <g>
       <use xlink:href="#meb61dc1309" x="248.99976" y="3.00024" style="stroke: #000000; stroke-width: 0.5"/>
      </g>
     </g>
    </g>
    <g id="text_14">
     <!-- Current (A) -->
     <g transform="translate(11.219418 107.725181) rotate(-90) scale(0.11 -0.11)">
      <defs>
       <path id="CMSS17-43" d="M 3501 705 
C 3072 416 2874 332 2355 332 
C 1459 332 934 1304 934 2191 
C 934 3137 1472 4070 2381 4070 
C 2790 4070 3059 3954 3386 3748 
L 3475 4255 
C 3168 4409 2778 4480 2387 4480 
C 1158 4480 397 3343 397 2191 
C 397 924 1299 -77 2323 -77 
C 2874 -77 3066 -32 3539 268 
L 3501 705 
z
" transform="scale(0.015625)"/>
       <path id="CMSS17-75" d="M 2618 2752 
L 2131 2752 
L 2131 976 
C 2131 500 1786 307 1421 307 
C 998 307 960 448 960 712 
L 960 2752 
L 474 2752 
L 474 680 
C 474 179 646 -64 1088 -64 
C 1306 -64 1798 -13 2144 307 
L 2144 -13 
L 2618 -13 
L 2618 2752 
z
" transform="scale(0.015625)"/>
       <path id="CMSS17-72" d="M 954 1369 
C 954 1974 1395 2379 1958 2392 
L 1958 2816 
C 1549 2809 1165 2604 934 2270 
L 934 2783 
L 480 2783 
L 480 0 
L 954 0 
L 954 1369 
z
" transform="scale(0.015625)"/>
       <path id="CMSS17-6e" d="M 2618 1878 
C 2618 2283 2522 2816 1798 2816 
C 1389 2816 1120 2604 941 2386 
L 941 2783 
L 474 2783 
L 474 0 
L 960 0 
L 960 1556 
C 960 1962 1114 2425 1549 2425 
C 2112 2425 2131 2045 2131 1826 
L 2131 0 
L 2618 0 
L 2618 1878 
z
" transform="scale(0.015625)"/>
       <path id="CMSS17-41" d="M 2272 4416 
L 1722 4416 
L 166 0 
L 653 0 
L 1101 1280 
L 2816 1280 
L 3270 0 
L 3827 0 
L 2272 4416 
z
M 2694 1638 
L 1222 1638 
C 1530 2530 1914 3638 1958 3924 
L 1965 3924 
C 2010 3663 2138 3281 2246 2956 
L 2694 1638 
z
" transform="scale(0.015625)"/>
      </defs>
      <use xlink:href="#CMSS17-43" transform="scale(0.996264)"/>
      <use xlink:href="#CMSS17-75" transform="translate(59.855772 0) scale(0.996264)"/>
      <use xlink:href="#CMSS17-72" transform="translate(108.060715 0) scale(0.996264)"/>
      <use xlink:href="#CMSS17-72" transform="translate(139.970487 0) scale(0.996264)"/>
      <use xlink:href="#CMSS17-65" transform="translate(171.88026 0) scale(0.996264)"/>
      <use xlink:href="#CMSS17-6e" transform="translate(213.519082 0) scale(0.996264)"/>
      <use xlink:href="#CMSS17-74" transform="translate(261.724025 0) scale(0.996264)"/>
      <use xlink:href="#CMSS17-28" transform="translate(326.784704 0) scale(0.996264)"/>
      <use xlink:href="#CMSS17-41" transform="translate(363.218619 0) scale(0.996264)"/>
      <use xlink:href="#CMSS17-29" transform="translate(425.436474 0) scale(0.996264)"/>
     </g>
    </g>
   </g>
   <g id="line2d_103">
    <path d="M 34.189223 158.030572 
L 46.003803 157.699692 
L 54.596224 157.263489 
L 62.114593 156.660077 
L 68.558909 155.900583 
L 73.929172 155.033447 
L 78.225383 154.142842 
L 82.521594 153.037109 
L 86.817805 151.673839 
L 90.039963 150.454274 
L 93.262121 149.042367 
L 96.484279 147.416348 
L 99.706437 145.55443 
L 102.928595 143.435621 
L 106.150753 141.040716 
L 109.372911 138.353465 
L 112.595069 135.361846 
L 115.817227 132.059379 
L 119.039385 128.446375 
L 122.261543 124.530968 
L 125.483701 120.329811 
L 129.779912 114.328869 
L 134.076123 107.948934 
L 140.520439 97.901511 
L 153.409071 77.580797 
L 158.779334 69.591653 
L 163.075545 63.565977 
L 167.371756 57.917286 
L 171.667967 52.670268 
L 175.964177 47.830802 
L 180.260388 43.389846 
L 184.556599 39.327482 
L 188.85281 35.616651 
L 193.14902 32.226297 
L 197.445231 29.123824 
L 201.741442 26.276895 
L 207.111705 23.030772 
L 212.481969 20.080566 
L 217.852232 17.377424 
L 224.296548 14.400843 
L 230.740864 11.658731 
L 238.259233 8.69084 
L 246.851655 5.530171 
L 248.99976 4.770604 
L 248.99976 4.770604 
" clip-path="url(#pa6465f3d17)" style="fill: none; stroke: #000000; stroke-linecap: square"/>
   </g>
   <g id="line2d_104">
    <path d="M 34.189223 158.308539 
L 58.892435 158.161106 
L 69.632962 157.903996 
L 77.15133 157.525315 
L 82.521594 157.072735 
L 87.891857 156.380962 
L 92.188068 155.579858 
L 95.410226 154.784437 
L 98.632384 153.777202 
L 101.854542 152.50975 
L 105.0767 150.926364 
L 107.224806 149.664736 
L 109.372911 148.215428 
L 111.521016 146.558225 
L 113.669122 144.672972 
L 115.817227 142.540317 
L 117.965332 140.142636 
L 120.113438 137.465107 
L 122.261543 134.496905 
L 124.409649 131.232441 
L 126.557754 127.672555 
L 129.779912 121.799161 
L 133.00207 115.344337 
L 136.224228 108.412639 
L 141.594492 96.195204 
L 149.11286 79.018491 
L 153.409071 69.853702 
L 156.631229 63.500217 
L 159.853387 57.663257 
L 163.075545 52.36827 
L 166.297703 47.611657 
L 169.519861 43.368221 
L 172.742019 39.598548 
L 175.964177 36.255401 
L 179.186336 33.288701 
L 182.408494 30.649067 
L 185.630652 28.29008 
L 188.85281 26.169563 
L 193.14902 23.649237 
L 197.445231 21.411636 
L 202.815495 18.92026 
L 208.185758 16.683096 
L 214.630074 14.23836 
L 223.222496 11.252224 
L 233.963022 7.786217 
L 248.99976 3.192285 
L 248.99976 3.192285 
" clip-path="url(#pa6465f3d17)" style="fill: none; stroke: #dc241f; stroke-linecap: square"/>
   </g>
   <g id="line2d_105">
    <path d="M 34.189223 158.324242 
L 73.929172 158.214964 
L 83.595647 158.001078 
L 90.039963 157.671272 
L 95.410226 157.164534 
L 99.706437 156.50316 
L 102.928595 155.783304 
L 106.150753 154.797179 
L 108.298858 153.949458 
L 110.446964 152.913703 
L 112.595069 151.654311 
L 114.743174 150.131488 
L 116.89128 148.301891 
L 119.039385 146.11987 
L 121.187491 143.539496 
L 123.335596 140.517466 
L 125.483701 137.016941 
L 127.631807 133.012158 
L 129.779912 128.493439 
L 131.928017 123.471948 
L 134.076123 117.983326 
L 137.298281 109.016296 
L 141.594492 96.195204 
L 146.964755 80.103246 
L 150.186913 71.088627 
L 153.409071 62.890797 
L 155.557176 57.952938 
L 157.705282 53.455963 
L 159.853387 49.395415 
L 162.001493 45.753035 
L 164.149598 42.501009 
L 166.297703 39.605756 
L 168.445809 37.031022 
L 170.593914 34.740228 
L 172.742019 32.698103 
L 175.964177 30.02998 
L 179.186336 27.749611 
L 182.408494 25.774653 
L 185.630652 24.03809 
L 189.926862 22.002738 
L 194.223073 20.20112 
L 199.593337 18.174761 
L 207.111705 15.60407 
L 216.778179 12.54997 
L 232.88897 7.727682 
L 248.99976 3.020883 
L 248.99976 3.020883 
" clip-path="url(#pa6465f3d17)" style="fill: none; stroke: #0019a8; stroke-linecap: square"/>
   </g>
   <g id="line2d_106">
    <path d="M 34.189223 158.325176 
L 94.336173 158.223619 
L 101.854542 157.992754 
L 106.150753 157.678289 
L 109.372911 157.266032 
L 112.595069 156.601715 
L 114.743174 155.950341 
L 116.89128 155.065062 
L 119.039385 153.869551 
L 121.187491 152.267867 
L 123.335596 150.143265 
L 124.409649 148.843054 
L 125.483701 147.360036 
L 126.557754 145.675452 
L 127.631807 143.770664 
L 128.705859 141.627847 
L 130.853965 136.566173 
L 133.00207 130.399957 
L 135.150175 123.117788 
L 137.298281 114.819719 
L 140.520439 100.995719 
L 145.890702 77.379272 
L 148.038808 68.830954 
L 150.186913 61.186251 
L 152.335018 54.546027 
L 154.483124 48.908979 
L 156.631229 44.202245 
L 158.779334 40.313105 
L 160.92744 37.114518 
L 163.075545 34.482228 
L 165.223651 32.304282 
L 167.371756 30.48502 
L 169.519861 28.94559 
L 171.667967 27.622607 
L 174.890125 25.937568 
L 178.112283 24.504832 
L 182.408494 22.84536 
L 188.85281 20.659326 
L 198.519284 17.68129 
L 218.926285 11.70557 
L 248.99976 3.000478 
L 248.99976 3.000478 
" clip-path="url(#pa6465f3d17)" style="fill: none; stroke: #007d32; stroke-linecap: square"/>
   </g>
   <g id="line2d_107">
    <path d="M 34.189223 158.325179 
L 112.595069 158.218406 
L 116.89128 158.012149 
L 120.113438 157.630392 
L 122.261543 157.149343 
L 124.409649 156.346114 
L 125.483701 155.764205 
L 126.557754 155.018105 
L 127.631807 154.065164 
L 128.705859 152.853753 
L 129.779912 151.32262 
L 130.853965 149.401011 
L 131.928017 147.010108 
L 133.00207 144.066452 
L 134.076123 140.488056 
L 135.150175 136.203712 
L 136.224228 131.165356 
L 137.298281 125.362322 
L 139.446386 111.682995 
L 145.890702 66.698163 
L 146.964755 60.699701 
L 148.038808 55.41981 
L 149.11286 50.851618 
L 150.186913 46.953054 
L 151.260966 43.660175 
L 152.335018 40.898582 
L 153.409071 38.591941 
L 154.483124 36.667618 
L 155.557176 35.059871 
L 156.631229 33.711265 
L 157.705282 32.572897 
L 159.853387 30.770684 
L 162.001493 29.407138 
L 164.149598 28.320956 
L 167.371756 26.996686 
L 171.667967 25.520083 
L 179.186336 23.223224 
L 203.889547 16.047722 
L 248.99976 3.00024 
L 248.99976 3.00024 
" clip-path="url(#pa6465f3d17)" style="fill: none; stroke: #9b0058; stroke-linecap: square"/>
   </g>
   <g id="line2d_108">
    <path d="M 34.189223 158.325179 
L 126.557754 158.228802 
L 128.705859 158.053242 
L 129.779912 157.869664 
L 130.853965 157.563939 
L 131.928017 157.05682 
L 133.00207 156.22043 
L 134.076123 154.852668 
L 135.150175 152.644826 
L 136.224228 149.15151 
L 137.298281 143.790682 
L 138.372333 135.930803 
L 139.446386 125.134565 
L 140.520439 111.547511 
L 142.668544 80.803314 
L 143.742597 67.090883 
L 144.81665 56.07617 
L 145.890702 47.914293 
L 146.964755 42.193515 
L 148.038808 38.311084 
L 149.11286 35.707225 
L 150.186913 33.949766 
L 151.260966 32.735903 
L 152.335018 31.86484 
L 153.409071 31.20763 
L 155.557176 30.240323 
L 158.779334 29.145474 
L 167.371756 26.610775 
L 248.99976 3.00024 
L 248.99976 3.00024 
" clip-path="url(#pa6465f3d17)" style="fill: none; stroke: #b26300; stroke-linecap: square"/>
   </g>
   <g id="patch_3">
    <path d="M 34.189223 158.325179 
L 34.189223 3.00024 
" style="fill: none; stroke: #000000; stroke-width: 0.5; stroke-linejoin: miter; stroke-linecap: square"/>
   </g>
   <g id="patch_4">
    <path d="M 248.99976 158.325179 
L 248.99976 3.00024 
" style="fill: none; stroke: #000000; stroke-width: 0.5; stroke-linejoin: miter; stroke-linecap: square"/>
   </g>
   <g id="patch_5">
    <path d="M 34.189223 158.325179 
L 248.99976 158.325179 
" style="fill: none; stroke: #000000; stroke-width: 0.5; stroke-linejoin: miter; stroke-linecap: square"/>
   </g>
   <g id="patch_6">
    <path d="M 34.189223 3.00024 
L 248.99976 3.00024 
" style="fill: none; stroke: #000000; stroke-width: 0.5; stroke-linejoin: miter; stroke-linecap: square"/>
   </g>
   <g id="legend_1">
    <g id="text_15">
     <!-- Order -->
     <g transform="translate(51.617055 19.610587) scale(0.11 -0.11)">
      <defs>
       <path id="CMSS17-4f" d="M 4096 2201 
C 4096 3541 3219 4544 2214 4544 
C 1210 4544 333 3535 333 2201 
C 333 855 1222 -128 2214 -128 
C 3206 -128 4096 855 4096 2201 
z
M 2214 275 
C 1510 275 870 1067 870 2285 
C 870 3470 1549 4140 2214 4140 
C 2880 4140 3558 3470 3558 2285 
C 3558 1061 2912 275 2214 275 
z
" transform="scale(0.015625)"/>
       <path id="CMSS17-64" d="M 2611 4416 
L 2138 4416 
L 2138 2495 
C 1939 2662 1613 2816 1254 2816 
C 672 2816 211 2179 211 1375 
C 211 572 666 -64 1235 -64 
C 1677 -64 1971 172 2125 307 
L 2125 -13 
L 2611 -13 
L 2611 4416 
z
M 2125 851 
C 2125 760 2125 663 1926 488 
C 1798 378 1645 326 1498 326 
C 1152 326 698 585 698 1369 
C 698 2185 1210 2425 1562 2425 
C 1798 2425 1990 2308 2125 2114 
L 2125 851 
z
" transform="scale(0.015625)"/>
      </defs>
      <use xlink:href="#CMSS17-4f" transform="scale(0.996264)"/>
      <use xlink:href="#CMSS17-72" transform="translate(69.024255 0) scale(0.996264)"/>
      <use xlink:href="#CMSS17-64" transform="translate(100.934028 0) scale(0.996264)"/>
      <use xlink:href="#CMSS17-65" transform="translate(149.138971 0) scale(0.996264)"/>
      <use xlink:href="#CMSS17-72" transform="translate(190.777793 0) scale(0.996264)"/>
     </g>
    </g>
    <g id="line2d_109">
     <path d="M 43.189223 30.241481 
L 53.189223 30.241481 
L 63.189223 30.241481 
" style="fill: none; stroke: #000000; stroke-linecap: square"/>
    </g>
    <g id="text_16">
     <!-- 10 -->
     <g transform="translate(71.189223 33.741481) scale(0.1 -0.1)">
      <defs>
       <path id="CMSS17-31" d="M 1818 4288 
L 1696 4288 
C 1350 3949 947 3902 538 3891 
L 538 3520 
C 723 3526 1024 3539 1325 3673 
L 1325 371 
L 570 371 
L 570 0 
L 2573 0 
L 2573 371 
L 1818 371 
L 1818 4288 
z
" transform="scale(0.015625)"/>
       <path id="CMSS17-30" d="M 2758 2073 
C 2758 2439 2752 3120 2490 3647 
C 2227 4153 1805 4288 1504 4288 
C 1069 4288 698 4031 506 3621 
C 301 3191 243 2748 243 2073 
C 243 1611 262 1046 493 551 
C 755 6 1197 -128 1498 -128 
C 1894 -128 2278 83 2496 525 
C 2720 988 2758 1495 2758 2073 
z
M 1498 262 
C 1011 262 864 821 819 1007 
C 742 1328 730 1636 730 2144 
C 730 2542 730 2992 851 3345 
C 998 3756 1254 3897 1498 3897 
C 1971 3897 2125 3422 2176 3255 
C 2272 2915 2272 2516 2272 2144 
C 2272 1546 2272 262 1498 262 
z
" transform="scale(0.015625)"/>
      </defs>
      <use xlink:href="#CMSS17-31" transform="scale(0.996264)"/>
      <use xlink:href="#CMSS17-30" transform="translate(46.843624 0) scale(0.996264)"/>
     </g>
    </g>
    <g id="line2d_110">
     <path d="M 43.189223 44.17866 
L 53.189223 44.17866 
L 63.189223 44.17866 
" style="fill: none; stroke: #dc241f; stroke-linecap: square"/>
    </g>
    <g id="text_17">
     <!-- 15 -->
     <g transform="translate(71.189223 47.67866) scale(0.1 -0.1)">
      <defs>
       <path id="CMSS17-35" d="M 934 3814 
L 2502 3814 
L 2502 4224 
L 467 4224 
L 467 1830 
L 896 1830 
C 1011 2103 1248 2304 1555 2304 
C 1843 2304 2163 2044 2163 1299 
C 2163 502 1709 268 1376 268 
C 966 268 589 521 422 871 
L 218 508 
C 512 51 992 -128 1376 -128 
C 2118 -128 2701 508 2701 1286 
C 2701 2083 2182 2694 1562 2694 
C 1338 2694 1120 2617 934 2464 
L 934 3814 
z
" transform="scale(0.015625)"/>
      </defs>
      <use xlink:href="#CMSS17-31" transform="scale(0.996264)"/>
      <use xlink:href="#CMSS17-35" transform="translate(46.843624 0) scale(0.996264)"/>
     </g>
    </g>
    <g id="line2d_111">
     <path d="M 43.189223 58.115838 
L 53.189223 58.115838 
L 63.189223 58.115838 
" style="fill: none; stroke: #0019a8; stroke-linecap: square"/>
    </g>
    <g id="text_18">
     <!-- 20 -->
     <g transform="translate(71.189223 61.615838) scale(0.1 -0.1)">
      <defs>
       <path id="CMSS17-32" d="M 1651 1353 
C 1830 1538 2099 1761 2285 1984 
C 2464 2201 2701 2507 2701 2953 
C 2701 3655 2227 4288 1421 4288 
C 787 4288 422 3891 250 3272 
L 499 2928 
C 640 3508 838 3878 1338 3878 
C 1888 3878 2195 3431 2195 2940 
C 2195 2354 1747 1901 1408 1563 
C 1030 1187 659 805 301 409 
L 301 0 
L 2701 0 
L 2701 435 
L 1613 435 
C 1536 435 1459 428 1382 428 
L 742 428 
L 742 435 
L 1651 1353 
z
" transform="scale(0.015625)"/>
      </defs>
      <use xlink:href="#CMSS17-32" transform="scale(0.996264)"/>
      <use xlink:href="#CMSS17-30" transform="translate(46.843624 0) scale(0.996264)"/>
     </g>
    </g>
    <g id="line2d_112">
     <path d="M 43.189223 72.053016 
L 53.189223 72.053016 
L 63.189223 72.053016 
" style="fill: none; stroke: #007d32; stroke-linecap: square"/>
    </g>
    <g id="text_19">
     <!-- 30 -->
     <g transform="translate(71.189223 75.553016) scale(0.1 -0.1)">
      <defs>
       <path id="CMSS17-33" d="M 1005 2060 
L 1440 2060 
C 2042 2060 2214 1532 2214 1164 
C 2214 662 1933 268 1472 268 
C 1114 268 608 449 320 926 
C 275 700 275 687 250 533 
C 550 89 1037 -128 1485 -128 
C 2214 -128 2752 481 2752 1158 
C 2752 1667 2400 2092 1920 2252 
C 2304 2463 2586 2860 2586 3321 
C 2586 3859 2093 4288 1491 4288 
C 941 4288 512 3948 333 3583 
C 378 3519 493 3334 550 3238 
C 691 3615 1056 3897 1485 3897 
C 1843 3897 2080 3660 2080 3321 
C 2080 2969 1856 2585 1478 2496 
C 1453 2496 1056 2457 1005 2451 
L 1005 2060 
z
" transform="scale(0.015625)"/>
      </defs>
      <use xlink:href="#CMSS17-33" transform="scale(0.996264)"/>
      <use xlink:href="#CMSS17-30" transform="translate(46.843624 0) scale(0.996264)"/>
     </g>
    </g>
    <g id="line2d_113">
     <path d="M 43.189223 85.990195 
L 53.189223 85.990195 
L 63.189223 85.990195 
" style="fill: none; stroke: #9b0058; stroke-linecap: square"/>
    </g>
    <g id="text_20">
     <!-- 50 -->
     <g transform="translate(71.189223 89.490195) scale(0.1 -0.1)">
      <use xlink:href="#CMSS17-35" transform="scale(0.996264)"/>
      <use xlink:href="#CMSS17-30" transform="translate(46.843624 0) scale(0.996264)"/>
     </g>
    </g>
    <g id="line2d_114">
     <path d="M 43.189223 99.927373 
L 53.189223 99.927373 
L 63.189223 99.927373 
" style="fill: none; stroke: #b26300; stroke-linecap: square"/>
    </g>
    <g id="text_21">
     <!-- 100 -->
     <g transform="translate(71.189223 103.427373) scale(0.1 -0.1)">
      <use xlink:href="#CMSS17-31" transform="scale(0.996264)"/>
      <use xlink:href="#CMSS17-30" transform="translate(46.843624 0) scale(0.996264)"/>
      <use xlink:href="#CMSS17-30" transform="translate(93.687247 0) scale(0.996264)"/>
     </g>
    </g>
   </g>
  </g>
 </g>
 <defs>
  <clipPath id="pa6465f3d17">
   <rect x="34.189223" y="3.00024" width="214.810537" height="155.324939"/>
  </clipPath>
 </defs>
</svg>
