<?xml version="1.0" encoding="utf-8" standalone="no"?>
<!DOCTYPE svg PUBLIC "-//W3C//DTD SVG 1.1//EN"
  "http://www.w3.org/Graphics/SVG/1.1/DTD/svg11.dtd">
<svg xmlns:xlink="http://www.w3.org/1999/xlink" width="342.72pt" height="262.8pt" viewBox="0 0 342.72 262.8" xmlns="http://www.w3.org/2000/svg" version="1.1">
 <metadata>
  <rdf:RDF xmlns:dc="http://purl.org/dc/elements/1.1/" xmlns:cc="http://creativecommons.org/ns#" xmlns:rdf="http://www.w3.org/1999/02/22-rdf-syntax-ns#">
   <cc:Work>
    <dc:type rdf:resource="http://purl.org/dc/dcmitype/StillImage"/>
    <dc:date>2026-01-19T17:33:40.832283</dc:date>
    <dc:format>image/svg+xml</dc:format>
    <dc:creator>
     <cc:Agent>
      <dc:title>Matplotlib v3.10.8, https://matplotlib.org/</dc:title>
     </cc:Agent>
    </dc:creator>
   </cc:Work>
  </rdf:RDF>
 </metadata>
 <defs>
  <style type="text/css">*{stroke-linejoin: round; stroke-linecap: butt}</style>
 </defs>
 <g id="figure_1">
  <g id="patch_1">
   <path d="M 0 262.8 
L 342.72 262.8 
L 342.72 0 
L 0 0 
z
" style="fill: #ffffff"/>
  </g>
  <g id="axes_1">
   <g id="patch_2">
    <path d="M 30.34274 236.81476 
L 339.71976 236.81476 
L 339.71976 3.00024 
L 30.34274 3.00024 
z
" style="fill: #ffffff"/>
   </g>
   <g id="matplotlib.axis_1">
    <g id="xtick_1">
     <g id="line2d_1">
      <defs>
       <path id="mf874db1072" d="M 0 0 
L 0 -2 
" style="stroke: #000000; stroke-width: 0.4"/>
      </defs>
      <g>
       <use xlink:href="#mf874db1072" x="61.280442" y="236.81476" style="stroke: #000000; stroke-width: 0.4"/>
      </g>
     </g>
     <g id="line2d_2">
      <defs>
       <path id="ma5ed235844" d="M 0 0 
L 0 2 
" style="stroke: #000000; stroke-width: 0.4"/>
      </defs>
      <g>
       <use xlink:href="#ma5ed235844" x="61.280442" y="3.00024" style="stroke: #000000; stroke-width: 0.4"/>
      </g>
     </g>
     <g id="text_1">
      <!-- 0.8 -->
      <g transform="translate(55.714348 245.633666) scale(0.07 -0.07)">
       <defs>
        <path id="DejaVuSans-30" d="M 2034 4250 
Q 1547 4250 1301 3770 
Q 1056 3291 1056 2328 
Q 1056 1369 1301 889 
Q 1547 409 2034 409 
Q 2525 409 2770 889 
Q 3016 1369 3016 2328 
Q 3016 3291 2770 3770 
Q 2525 4250 2034 4250 
z
M 2034 4750 
Q 2819 4750 3233 4129 
Q 3647 3509 3647 2328 
Q 3647 1150 3233 529 
Q 2819 -91 2034 -91 
Q 1250 -91 836 529 
Q 422 1150 422 2328 
Q 422 3509 836 4129 
Q 1250 4750 2034 4750 
z
" transform="scale(0.015625)"/>
        <path id="DejaVuSans-2e" d="M 684 794 
L 1344 794 
L 1344 0 
L 684 0 
L 684 794 
z
" transform="scale(0.015625)"/>
        <path id="DejaVuSans-38" d="M 2034 2216 
Q 1584 2216 1326 1975 
Q 1069 1734 1069 1313 
Q 1069 891 1326 650 
Q 1584 409 2034 409 
Q 2484 409 2743 651 
Q 3003 894 3003 1313 
Q 3003 1734 2745 1975 
Q 2488 2216 2034 2216 
z
M 1403 2484 
Q 997 2584 770 2862 
Q 544 3141 544 3541 
Q 544 4100 942 4425 
Q 1341 4750 2034 4750 
Q 2731 4750 3128 4425 
Q 3525 4100 3525 3541 
Q 3525 3141 3298 2862 
Q 3072 2584 2669 2484 
Q 3125 2378 3379 2068 
Q 3634 1759 3634 1313 
Q 3634 634 3220 271 
Q 2806 -91 2034 -91 
Q 1263 -91 848 271 
Q 434 634 434 1313 
Q 434 1759 690 2068 
Q 947 2378 1403 2484 
z
M 1172 3481 
Q 1172 3119 1398 2916 
Q 1625 2713 2034 2713 
Q 2441 2713 2670 2916 
Q 2900 3119 2900 3481 
Q 2900 3844 2670 4047 
Q 2441 4250 2034 4250 
Q 1625 4250 1398 4047 
Q 1172 3844 1172 3481 
z
" transform="scale(0.015625)"/>
       </defs>
       <use xlink:href="#DejaVuSans-30"/>
       <use xlink:href="#DejaVuSans-2e" transform="translate(63.623047 0)"/>
       <use xlink:href="#DejaVuSans-38" transform="translate(95.410156 0)"/>
      </g>
     </g>
    </g>
    <g id="xtick_2">
     <g id="line2d_3">
      <g>
       <use xlink:href="#mf874db1072" x="123.155846" y="236.81476" style="stroke: #000000; stroke-width: 0.4"/>
      </g>
     </g>
     <g id="line2d_4">
      <g>
       <use xlink:href="#ma5ed235844" x="123.155846" y="3.00024" style="stroke: #000000; stroke-width: 0.4"/>
      </g>
     </g>
     <g id="text_2">
      <!-- 0.9 -->
      <g transform="translate(117.589752 245.633666) scale(0.07 -0.07)">
       <defs>
        <path id="DejaVuSans-39" d="M 703 97 
L 703 672 
Q 941 559 1184 500 
Q 1428 441 1663 441 
Q 2288 441 2617 861 
Q 2947 1281 2994 2138 
Q 2813 1869 2534 1725 
Q 2256 1581 1919 1581 
Q 1219 1581 811 2004 
Q 403 2428 403 3163 
Q 403 3881 828 4315 
Q 1253 4750 1959 4750 
Q 2769 4750 3195 4129 
Q 3622 3509 3622 2328 
Q 3622 1225 3098 567 
Q 2575 -91 1691 -91 
Q 1453 -91 1209 -44 
Q 966 3 703 97 
z
M 1959 2075 
Q 2384 2075 2632 2365 
Q 2881 2656 2881 3163 
Q 2881 3666 2632 3958 
Q 2384 4250 1959 4250 
Q 1534 4250 1286 3958 
Q 1038 3666 1038 3163 
Q 1038 2656 1286 2365 
Q 1534 2075 1959 2075 
z
" transform="scale(0.015625)"/>
       </defs>
       <use xlink:href="#DejaVuSans-30"/>
       <use xlink:href="#DejaVuSans-2e" transform="translate(63.623047 0)"/>
       <use xlink:href="#DejaVuSans-39" transform="translate(95.410156 0)"/>
      </g>
     </g>
    </g>
    <g id="xtick_3">
     <g id="line2d_5">
      <g>
       <use xlink:href="#mf874db1072" x="185.03125" y="236.81476" style="stroke: #000000; stroke-width: 0.4"/>
      </g>
     </g>
     <g id="line2d_6">
      <g>
       <use xlink:href="#ma5ed235844" x="185.03125" y="3.00024" style="stroke: #000000; stroke-width: 0.4"/>
      </g>
     </g>
     <g id="text_3">
      <!-- 1.0 -->
      <g transform="translate(179.465156 245.633666) scale(0.07 -0.07)">
       <defs>
        <path id="DejaVuSans-31" d="M 794 531 
L 1825 531 
L 1825 4091 
L 703 3866 
L 703 4441 
L 1819 4666 
L 2450 4666 
L 2450 531 
L 3481 531 
L 3481 0 
L 794 0 
L 794 531 
z
" transform="scale(0.015625)"/>
       </defs>
       <use xlink:href="#DejaVuSans-31"/>
       <use xlink:href="#DejaVuSans-2e" transform="translate(63.623047 0)"/>
       <use xlink:href="#DejaVuSans-30" transform="translate(95.410156 0)"/>
      </g>
     </g>
    </g>
    <g id="xtick_4">
     <g id="line2d_7">
      <g>
       <use xlink:href="#mf874db1072" x="246.906654" y="236.81476" style="stroke: #000000; stroke-width: 0.4"/>
      </g>
     </g>
     <g id="line2d_8">
      <g>
       <use xlink:href="#ma5ed235844" x="246.906654" y="3.00024" style="stroke: #000000; stroke-width: 0.4"/>
      </g>
     </g>
     <g id="text_4">
      <!-- 1.1 -->
      <g transform="translate(241.34056 245.633666) scale(0.07 -0.07)">
       <use xlink:href="#DejaVuSans-31"/>
       <use xlink:href="#DejaVuSans-2e" transform="translate(63.623047 0)"/>
       <use xlink:href="#DejaVuSans-31" transform="translate(95.410156 0)"/>
      </g>
     </g>
    </g>
    <g id="xtick_5">
     <g id="line2d_9">
      <g>
       <use xlink:href="#mf874db1072" x="308.782058" y="236.81476" style="stroke: #000000; stroke-width: 0.4"/>
      </g>
     </g>
     <g id="line2d_10">
      <g>
       <use xlink:href="#ma5ed235844" x="308.782058" y="3.00024" style="stroke: #000000; stroke-width: 0.4"/>
      </g>
     </g>
     <g id="text_5">
      <!-- 1.2 -->
      <g transform="translate(303.215964 245.633666) scale(0.07 -0.07)">
       <defs>
        <path id="DejaVuSans-32" d="M 1228 531 
L 3431 531 
L 3431 0 
L 469 0 
L 469 531 
Q 828 903 1448 1529 
Q 2069 2156 2228 2338 
Q 2531 2678 2651 2914 
Q 2772 3150 2772 3378 
Q 2772 3750 2511 3984 
Q 2250 4219 1831 4219 
Q 1534 4219 1204 4116 
Q 875 4013 500 3803 
L 500 4441 
Q 881 4594 1212 4672 
Q 1544 4750 1819 4750 
Q 2544 4750 2975 4387 
Q 3406 4025 3406 3419 
Q 3406 3131 3298 2873 
Q 3191 2616 2906 2266 
Q 2828 2175 2409 1742 
Q 1991 1309 1228 531 
z
" transform="scale(0.015625)"/>
       </defs>
       <use xlink:href="#DejaVuSans-31"/>
       <use xlink:href="#DejaVuSans-2e" transform="translate(63.623047 0)"/>
       <use xlink:href="#DejaVuSans-32" transform="translate(95.410156 0)"/>
      </g>
     </g>
    </g>
    <g id="xtick_6">
     <g id="line2d_11">
      <defs>
       <path id="m2e9b7f96f8" d="M 0 0 
L 0 -1.25 
" style="stroke: #000000; stroke-width: 0.4"/>
      </defs>
      <g>
       <use xlink:href="#m2e9b7f96f8" x="36.53028" y="236.81476" style="stroke: #000000; stroke-width: 0.4"/>
      </g>
     </g>
     <g id="line2d_12">
      <defs>
       <path id="ma53e0f0179" d="M 0 0 
L 0 1.25 
" style="stroke: #000000; stroke-width: 0.4"/>
      </defs>
      <g>
       <use xlink:href="#ma53e0f0179" x="36.53028" y="3.00024" style="stroke: #000000; stroke-width: 0.4"/>
      </g>
     </g>
    </g>
    <g id="xtick_7">
     <g id="line2d_13">
      <g>
       <use xlink:href="#m2e9b7f96f8" x="48.905361" y="236.81476" style="stroke: #000000; stroke-width: 0.4"/>
      </g>
     </g>
     <g id="line2d_14">
      <g>
       <use xlink:href="#ma53e0f0179" x="48.905361" y="3.00024" style="stroke: #000000; stroke-width: 0.4"/>
      </g>
     </g>
    </g>
    <g id="xtick_8">
     <g id="line2d_15">
      <g>
       <use xlink:href="#m2e9b7f96f8" x="73.655523" y="236.81476" style="stroke: #000000; stroke-width: 0.4"/>
      </g>
     </g>
     <g id="line2d_16">
      <g>
       <use xlink:href="#ma53e0f0179" x="73.655523" y="3.00024" style="stroke: #000000; stroke-width: 0.4"/>
      </g>
     </g>
    </g>
    <g id="xtick_9">
     <g id="line2d_17">
      <g>
       <use xlink:href="#m2e9b7f96f8" x="86.030604" y="236.81476" style="stroke: #000000; stroke-width: 0.4"/>
      </g>
     </g>
     <g id="line2d_18">
      <g>
       <use xlink:href="#ma53e0f0179" x="86.030604" y="3.00024" style="stroke: #000000; stroke-width: 0.4"/>
      </g>
     </g>
    </g>
    <g id="xtick_10">
     <g id="line2d_19">
      <g>
       <use xlink:href="#m2e9b7f96f8" x="98.405684" y="236.81476" style="stroke: #000000; stroke-width: 0.4"/>
      </g>
     </g>
     <g id="line2d_20">
      <g>
       <use xlink:href="#ma53e0f0179" x="98.405684" y="3.00024" style="stroke: #000000; stroke-width: 0.4"/>
      </g>
     </g>
    </g>
    <g id="xtick_11">
     <g id="line2d_21">
      <g>
       <use xlink:href="#m2e9b7f96f8" x="110.780765" y="236.81476" style="stroke: #000000; stroke-width: 0.4"/>
      </g>
     </g>
     <g id="line2d_22">
      <g>
       <use xlink:href="#ma53e0f0179" x="110.780765" y="3.00024" style="stroke: #000000; stroke-width: 0.4"/>
      </g>
     </g>
    </g>
    <g id="xtick_12">
     <g id="line2d_23">
      <g>
       <use xlink:href="#m2e9b7f96f8" x="135.530927" y="236.81476" style="stroke: #000000; stroke-width: 0.4"/>
      </g>
     </g>
     <g id="line2d_24">
      <g>
       <use xlink:href="#ma53e0f0179" x="135.530927" y="3.00024" style="stroke: #000000; stroke-width: 0.4"/>
      </g>
     </g>
    </g>
    <g id="xtick_13">
     <g id="line2d_25">
      <g>
       <use xlink:href="#m2e9b7f96f8" x="147.906008" y="236.81476" style="stroke: #000000; stroke-width: 0.4"/>
      </g>
     </g>
     <g id="line2d_26">
      <g>
       <use xlink:href="#ma53e0f0179" x="147.906008" y="3.00024" style="stroke: #000000; stroke-width: 0.4"/>
      </g>
     </g>
    </g>
    <g id="xtick_14">
     <g id="line2d_27">
      <g>
       <use xlink:href="#m2e9b7f96f8" x="160.281088" y="236.81476" style="stroke: #000000; stroke-width: 0.4"/>
      </g>
     </g>
     <g id="line2d_28">
      <g>
       <use xlink:href="#ma53e0f0179" x="160.281088" y="3.00024" style="stroke: #000000; stroke-width: 0.4"/>
      </g>
     </g>
    </g>
    <g id="xtick_15">
     <g id="line2d_29">
      <g>
       <use xlink:href="#m2e9b7f96f8" x="172.656169" y="236.81476" style="stroke: #000000; stroke-width: 0.4"/>
      </g>
     </g>
     <g id="line2d_30">
      <g>
       <use xlink:href="#ma53e0f0179" x="172.656169" y="3.00024" style="stroke: #000000; stroke-width: 0.4"/>
      </g>
     </g>
    </g>
    <g id="xtick_16">
     <g id="line2d_31">
      <g>
       <use xlink:href="#m2e9b7f96f8" x="197.406331" y="236.81476" style="stroke: #000000; stroke-width: 0.4"/>
      </g>
     </g>
     <g id="line2d_32">
      <g>
       <use xlink:href="#ma53e0f0179" x="197.406331" y="3.00024" style="stroke: #000000; stroke-width: 0.4"/>
      </g>
     </g>
    </g>
    <g id="xtick_17">
     <g id="line2d_33">
      <g>
       <use xlink:href="#m2e9b7f96f8" x="209.781412" y="236.81476" style="stroke: #000000; stroke-width: 0.4"/>
      </g>
     </g>
     <g id="line2d_34">
      <g>
       <use xlink:href="#ma53e0f0179" x="209.781412" y="3.00024" style="stroke: #000000; stroke-width: 0.4"/>
      </g>
     </g>
    </g>
    <g id="xtick_18">
     <g id="line2d_35">
      <g>
       <use xlink:href="#m2e9b7f96f8" x="222.156492" y="236.81476" style="stroke: #000000; stroke-width: 0.4"/>
      </g>
     </g>
     <g id="line2d_36">
      <g>
       <use xlink:href="#ma53e0f0179" x="222.156492" y="3.00024" style="stroke: #000000; stroke-width: 0.4"/>
      </g>
     </g>
    </g>
    <g id="xtick_19">
     <g id="line2d_37">
      <g>
       <use xlink:href="#m2e9b7f96f8" x="234.531573" y="236.81476" style="stroke: #000000; stroke-width: 0.4"/>
      </g>
     </g>
     <g id="line2d_38">
      <g>
       <use xlink:href="#ma53e0f0179" x="234.531573" y="3.00024" style="stroke: #000000; stroke-width: 0.4"/>
      </g>
     </g>
    </g>
    <g id="xtick_20">
     <g id="line2d_39">
      <g>
       <use xlink:href="#m2e9b7f96f8" x="259.281735" y="236.81476" style="stroke: #000000; stroke-width: 0.4"/>
      </g>
     </g>
     <g id="line2d_40">
      <g>
       <use xlink:href="#ma53e0f0179" x="259.281735" y="3.00024" style="stroke: #000000; stroke-width: 0.4"/>
      </g>
     </g>
    </g>
    <g id="xtick_21">
     <g id="line2d_41">
      <g>
       <use xlink:href="#m2e9b7f96f8" x="271.656816" y="236.81476" style="stroke: #000000; stroke-width: 0.4"/>
      </g>
     </g>
     <g id="line2d_42">
      <g>
       <use xlink:href="#ma53e0f0179" x="271.656816" y="3.00024" style="stroke: #000000; stroke-width: 0.4"/>
      </g>
     </g>
    </g>
    <g id="xtick_22">
     <g id="line2d_43">
      <g>
       <use xlink:href="#m2e9b7f96f8" x="284.031896" y="236.81476" style="stroke: #000000; stroke-width: 0.4"/>
      </g>
     </g>
     <g id="line2d_44">
      <g>
       <use xlink:href="#ma53e0f0179" x="284.031896" y="3.00024" style="stroke: #000000; stroke-width: 0.4"/>
      </g>
     </g>
    </g>
    <g id="xtick_23">
     <g id="line2d_45">
      <g>
       <use xlink:href="#m2e9b7f96f8" x="296.406977" y="236.81476" style="stroke: #000000; stroke-width: 0.4"/>
      </g>
     </g>
     <g id="line2d_46">
      <g>
       <use xlink:href="#ma53e0f0179" x="296.406977" y="3.00024" style="stroke: #000000; stroke-width: 0.4"/>
      </g>
     </g>
    </g>
    <g id="xtick_24">
     <g id="line2d_47">
      <g>
       <use xlink:href="#m2e9b7f96f8" x="321.157139" y="236.81476" style="stroke: #000000; stroke-width: 0.4"/>
      </g>
     </g>
     <g id="line2d_48">
      <g>
       <use xlink:href="#ma53e0f0179" x="321.157139" y="3.00024" style="stroke: #000000; stroke-width: 0.4"/>
      </g>
     </g>
    </g>
    <g id="xtick_25">
     <g id="line2d_49">
      <g>
       <use xlink:href="#m2e9b7f96f8" x="333.53222" y="236.81476" style="stroke: #000000; stroke-width: 0.4"/>
      </g>
     </g>
     <g id="line2d_50">
      <g>
       <use xlink:href="#ma53e0f0179" x="333.53222" y="3.00024" style="stroke: #000000; stroke-width: 0.4"/>
      </g>
     </g>
    </g>
    <g id="text_6">
     <!-- Voltage (V) -->
     <g transform="translate(160.130781 257.928041) scale(0.09 -0.09)">
      <defs>
       <path id="DejaVuSans-56" d="M 1831 0 
L 50 4666 
L 709 4666 
L 2188 738 
L 3669 4666 
L 4325 4666 
L 2547 0 
L 1831 0 
z
" transform="scale(0.015625)"/>
       <path id="DejaVuSans-6f" d="M 1959 3097 
Q 1497 3097 1228 2736 
Q 959 2375 959 1747 
Q 959 1119 1226 758 
Q 1494 397 1959 397 
Q 2419 397 2687 759 
Q 2956 1122 2956 1747 
Q 2956 2369 2687 2733 
Q 2419 3097 1959 3097 
z
M 1959 3584 
Q 2709 3584 3137 3096 
Q 3566 2609 3566 1747 
Q 3566 888 3137 398 
Q 2709 -91 1959 -91 
Q 1206 -91 779 398 
Q 353 888 353 1747 
Q 353 2609 779 3096 
Q 1206 3584 1959 3584 
z
" transform="scale(0.015625)"/>
       <path id="DejaVuSans-6c" d="M 603 4863 
L 1178 4863 
L 1178 0 
L 603 0 
L 603 4863 
z
" transform="scale(0.015625)"/>
       <path id="DejaVuSans-74" d="M 1172 4494 
L 1172 3500 
L 2356 3500 
L 2356 3053 
L 1172 3053 
L 1172 1153 
Q 1172 725 1289 603 
Q 1406 481 1766 481 
L 2356 481 
L 2356 0 
L 1766 0 
Q 1100 0 847 248 
Q 594 497 594 1153 
L 594 3053 
L 172 3053 
L 172 3500 
L 594 3500 
L 594 4494 
L 1172 4494 
z
" transform="scale(0.015625)"/>
       <path id="DejaVuSans-61" d="M 2194 1759 
Q 1497 1759 1228 1600 
Q 959 1441 959 1056 
Q 959 750 1161 570 
Q 1363 391 1709 391 
Q 2188 391 2477 730 
Q 2766 1069 2766 1631 
L 2766 1759 
L 2194 1759 
z
M 3341 1997 
L 3341 0 
L 2766 0 
L 2766 531 
Q 2569 213 2275 61 
Q 1981 -91 1556 -91 
Q 1019 -91 701 211 
Q 384 513 384 1019 
Q 384 1609 779 1909 
Q 1175 2209 1959 2209 
L 2766 2209 
L 2766 2266 
Q 2766 2663 2505 2880 
Q 2244 3097 1772 3097 
Q 1472 3097 1187 3025 
Q 903 2953 641 2809 
L 641 3341 
Q 956 3463 1253 3523 
Q 1550 3584 1831 3584 
Q 2591 3584 2966 3190 
Q 3341 2797 3341 1997 
z
" transform="scale(0.015625)"/>
       <path id="DejaVuSans-67" d="M 2906 1791 
Q 2906 2416 2648 2759 
Q 2391 3103 1925 3103 
Q 1463 3103 1205 2759 
Q 947 2416 947 1791 
Q 947 1169 1205 825 
Q 1463 481 1925 481 
Q 2391 481 2648 825 
Q 2906 1169 2906 1791 
z
M 3481 434 
Q 3481 -459 3084 -895 
Q 2688 -1331 1869 -1331 
Q 1566 -1331 1297 -1286 
Q 1028 -1241 775 -1147 
L 775 -588 
Q 1028 -725 1275 -790 
Q 1522 -856 1778 -856 
Q 2344 -856 2625 -561 
Q 2906 -266 2906 331 
L 2906 616 
Q 2728 306 2450 153 
Q 2172 0 1784 0 
Q 1141 0 747 490 
Q 353 981 353 1791 
Q 353 2603 747 3093 
Q 1141 3584 1784 3584 
Q 2172 3584 2450 3431 
Q 2728 3278 2906 2969 
L 2906 3500 
L 3481 3500 
L 3481 434 
z
" transform="scale(0.015625)"/>
       <path id="DejaVuSans-65" d="M 3597 1894 
L 3597 1613 
L 953 1613 
Q 991 1019 1311 708 
Q 1631 397 2203 397 
Q 2534 397 2845 478 
Q 3156 559 3463 722 
L 3463 178 
Q 3153 47 2828 -22 
Q 2503 -91 2169 -91 
Q 1331 -91 842 396 
Q 353 884 353 1716 
Q 353 2575 817 3079 
Q 1281 3584 2069 3584 
Q 2775 3584 3186 3129 
Q 3597 2675 3597 1894 
z
M 3022 2063 
Q 3016 2534 2758 2815 
Q 2500 3097 2075 3097 
Q 1594 3097 1305 2825 
Q 1016 2553 972 2059 
L 3022 2063 
z
" transform="scale(0.015625)"/>
       <path id="DejaVuSans-20" transform="scale(0.015625)"/>
       <path id="DejaVuSans-28" d="M 1984 4856 
Q 1566 4138 1362 3434 
Q 1159 2731 1159 2009 
Q 1159 1288 1364 580 
Q 1569 -128 1984 -844 
L 1484 -844 
Q 1016 -109 783 600 
Q 550 1309 550 2009 
Q 550 2706 781 3412 
Q 1013 4119 1484 4856 
L 1984 4856 
z
" transform="scale(0.015625)"/>
       <path id="DejaVuSans-29" d="M 513 4856 
L 1013 4856 
Q 1481 4119 1714 3412 
Q 1947 2706 1947 2009 
Q 1947 1309 1714 600 
Q 1481 -109 1013 -844 
L 513 -844 
Q 928 -128 1133 580 
Q 1338 1288 1338 2009 
Q 1338 2731 1133 3434 
Q 928 4138 513 4856 
z
" transform="scale(0.015625)"/>
      </defs>
      <use xlink:href="#DejaVuSans-56"/>
      <use xlink:href="#DejaVuSans-6f" transform="translate(60.658203 0)"/>
      <use xlink:href="#DejaVuSans-6c" transform="translate(121.839844 0)"/>
      <use xlink:href="#DejaVuSans-74" transform="translate(149.623047 0)"/>
      <use xlink:href="#DejaVuSans-61" transform="translate(188.832031 0)"/>
      <use xlink:href="#DejaVuSans-67" transform="translate(250.111328 0)"/>
      <use xlink:href="#DejaVuSans-65" transform="translate(313.587891 0)"/>
      <use xlink:href="#DejaVuSans-20" transform="translate(375.111328 0)"/>
      <use xlink:href="#DejaVuSans-28" transform="translate(406.898438 0)"/>
      <use xlink:href="#DejaVuSans-56" transform="translate(445.912109 0)"/>
      <use xlink:href="#DejaVuSans-29" transform="translate(514.320312 0)"/>
     </g>
    </g>
   </g>
   <g id="matplotlib.axis_2">
    <g id="ytick_1">
     <g id="line2d_51">
      <defs>
       <path id="m9a509817f7" d="M 0 0 
L 2 0 
" style="stroke: #000000; stroke-width: 0.4"/>
      </defs>
      <g>
       <use xlink:href="#m9a509817f7" x="30.34274" y="236.81476" style="stroke: #000000; stroke-width: 0.4"/>
      </g>
     </g>
     <g id="line2d_52">
      <defs>
       <path id="m2dd434f2b8" d="M 0 0 
L -2 0 
" style="stroke: #000000; stroke-width: 0.4"/>
      </defs>
      <g>
       <use xlink:href="#m2dd434f2b8" x="339.71976" y="236.81476" style="stroke: #000000; stroke-width: 0.4"/>
      </g>
     </g>
     <g id="text_7">
      <!-- 0.0 -->
      <g transform="translate(15.710553 239.474213) scale(0.07 -0.07)">
       <use xlink:href="#DejaVuSans-30"/>
       <use xlink:href="#DejaVuSans-2e" transform="translate(63.623047 0)"/>
       <use xlink:href="#DejaVuSans-30" transform="translate(95.410156 0)"/>
      </g>
     </g>
    </g>
    <g id="ytick_2">
     <g id="line2d_53">
      <g>
       <use xlink:href="#m9a509817f7" x="30.34274" y="199.404437" style="stroke: #000000; stroke-width: 0.4"/>
      </g>
     </g>
     <g id="line2d_54">
      <g>
       <use xlink:href="#m2dd434f2b8" x="339.71976" y="199.404437" style="stroke: #000000; stroke-width: 0.4"/>
      </g>
     </g>
     <g id="text_8">
      <!-- 0.2 -->
      <g transform="translate(15.710553 202.06389) scale(0.07 -0.07)">
       <use xlink:href="#DejaVuSans-30"/>
       <use xlink:href="#DejaVuSans-2e" transform="translate(63.623047 0)"/>
       <use xlink:href="#DejaVuSans-32" transform="translate(95.410156 0)"/>
      </g>
     </g>
    </g>
    <g id="ytick_3">
     <g id="line2d_55">
      <g>
       <use xlink:href="#m9a509817f7" x="30.34274" y="161.994114" style="stroke: #000000; stroke-width: 0.4"/>
      </g>
     </g>
     <g id="line2d_56">
      <g>
       <use xlink:href="#m2dd434f2b8" x="339.71976" y="161.994114" style="stroke: #000000; stroke-width: 0.4"/>
      </g>
     </g>
     <g id="text_9">
      <!-- 0.4 -->
      <g transform="translate(15.710553 164.653567) scale(0.07 -0.07)">
       <defs>
        <path id="DejaVuSans-34" d="M 2419 4116 
L 825 1625 
L 2419 1625 
L 2419 4116 
z
M 2253 4666 
L 3047 4666 
L 3047 1625 
L 3713 1625 
L 3713 1100 
L 3047 1100 
L 3047 0 
L 2419 0 
L 2419 1100 
L 313 1100 
L 313 1709 
L 2253 4666 
z
" transform="scale(0.015625)"/>
       </defs>
       <use xlink:href="#DejaVuSans-30"/>
       <use xlink:href="#DejaVuSans-2e" transform="translate(63.623047 0)"/>
       <use xlink:href="#DejaVuSans-34" transform="translate(95.410156 0)"/>
      </g>
     </g>
    </g>
    <g id="ytick_4">
     <g id="line2d_57">
      <g>
       <use xlink:href="#m9a509817f7" x="30.34274" y="124.58379" style="stroke: #000000; stroke-width: 0.4"/>
      </g>
     </g>
     <g id="line2d_58">
      <g>
       <use xlink:href="#m2dd434f2b8" x="339.71976" y="124.58379" style="stroke: #000000; stroke-width: 0.4"/>
      </g>
     </g>
     <g id="text_10">
      <!-- 0.6 -->
      <g transform="translate(15.710553 127.243244) scale(0.07 -0.07)">
       <defs>
        <path id="DejaVuSans-36" d="M 2113 2584 
Q 1688 2584 1439 2293 
Q 1191 2003 1191 1497 
Q 1191 994 1439 701 
Q 1688 409 2113 409 
Q 2538 409 2786 701 
Q 3034 994 3034 1497 
Q 3034 2003 2786 2293 
Q 2538 2584 2113 2584 
z
M 3366 4563 
L 3366 3988 
Q 3128 4100 2886 4159 
Q 2644 4219 2406 4219 
Q 1781 4219 1451 3797 
Q 1122 3375 1075 2522 
Q 1259 2794 1537 2939 
Q 1816 3084 2150 3084 
Q 2853 3084 3261 2657 
Q 3669 2231 3669 1497 
Q 3669 778 3244 343 
Q 2819 -91 2113 -91 
Q 1303 -91 875 529 
Q 447 1150 447 2328 
Q 447 3434 972 4092 
Q 1497 4750 2381 4750 
Q 2619 4750 2861 4703 
Q 3103 4656 3366 4563 
z
" transform="scale(0.015625)"/>
       </defs>
       <use xlink:href="#DejaVuSans-30"/>
       <use xlink:href="#DejaVuSans-2e" transform="translate(63.623047 0)"/>
       <use xlink:href="#DejaVuSans-36" transform="translate(95.410156 0)"/>
      </g>
     </g>
    </g>
    <g id="ytick_5">
     <g id="line2d_59">
      <g>
       <use xlink:href="#m9a509817f7" x="30.34274" y="87.173467" style="stroke: #000000; stroke-width: 0.4"/>
      </g>
     </g>
     <g id="line2d_60">
      <g>
       <use xlink:href="#m2dd434f2b8" x="339.71976" y="87.173467" style="stroke: #000000; stroke-width: 0.4"/>
      </g>
     </g>
     <g id="text_11">
      <!-- 0.8 -->
      <g transform="translate(15.710553 89.83292) scale(0.07 -0.07)">
       <use xlink:href="#DejaVuSans-30"/>
       <use xlink:href="#DejaVuSans-2e" transform="translate(63.623047 0)"/>
       <use xlink:href="#DejaVuSans-38" transform="translate(95.410156 0)"/>
      </g>
     </g>
    </g>
    <g id="ytick_6">
     <g id="line2d_61">
      <g>
       <use xlink:href="#m9a509817f7" x="30.34274" y="49.763144" style="stroke: #000000; stroke-width: 0.4"/>
      </g>
     </g>
     <g id="line2d_62">
      <g>
       <use xlink:href="#m2dd434f2b8" x="339.71976" y="49.763144" style="stroke: #000000; stroke-width: 0.4"/>
      </g>
     </g>
     <g id="text_12">
      <!-- 1.0 -->
      <g transform="translate(15.710553 52.422597) scale(0.07 -0.07)">
       <use xlink:href="#DejaVuSans-31"/>
       <use xlink:href="#DejaVuSans-2e" transform="translate(63.623047 0)"/>
       <use xlink:href="#DejaVuSans-30" transform="translate(95.410156 0)"/>
      </g>
     </g>
    </g>
    <g id="ytick_7">
     <g id="line2d_63">
      <g>
       <use xlink:href="#m9a509817f7" x="30.34274" y="12.352821" style="stroke: #000000; stroke-width: 0.4"/>
      </g>
     </g>
     <g id="line2d_64">
      <g>
       <use xlink:href="#m2dd434f2b8" x="339.71976" y="12.352821" style="stroke: #000000; stroke-width: 0.4"/>
      </g>
     </g>
     <g id="text_13">
      <!-- 1.2 -->
      <g transform="translate(15.710553 15.012274) scale(0.07 -0.07)">
       <use xlink:href="#DejaVuSans-31"/>
       <use xlink:href="#DejaVuSans-2e" transform="translate(63.623047 0)"/>
       <use xlink:href="#DejaVuSans-32" transform="translate(95.410156 0)"/>
      </g>
     </g>
    </g>
    <g id="ytick_8">
     <g id="line2d_65">
      <defs>
       <path id="mcebe82a7e7" d="M 0 0 
L 1.25 0 
" style="stroke: #000000; stroke-width: 0.4"/>
      </defs>
      <g>
       <use xlink:href="#mcebe82a7e7" x="30.34274" y="227.462179" style="stroke: #000000; stroke-width: 0.4"/>
      </g>
     </g>
     <g id="line2d_66">
      <defs>
       <path id="mc4a7ebf262" d="M 0 0 
L -1.25 0 
" style="stroke: #000000; stroke-width: 0.4"/>
      </defs>
      <g>
       <use xlink:href="#mc4a7ebf262" x="339.71976" y="227.462179" style="stroke: #000000; stroke-width: 0.4"/>
      </g>
     </g>
    </g>
    <g id="ytick_9">
     <g id="line2d_67">
      <g>
       <use xlink:href="#mcebe82a7e7" x="30.34274" y="218.109598" style="stroke: #000000; stroke-width: 0.4"/>
      </g>
     </g>
     <g id="line2d_68">
      <g>
       <use xlink:href="#mc4a7ebf262" x="339.71976" y="218.109598" style="stroke: #000000; stroke-width: 0.4"/>
      </g>
     </g>
    </g>
    <g id="ytick_10">
     <g id="line2d_69">
      <g>
       <use xlink:href="#mcebe82a7e7" x="30.34274" y="208.757018" style="stroke: #000000; stroke-width: 0.4"/>
      </g>
     </g>
     <g id="line2d_70">
      <g>
       <use xlink:href="#mc4a7ebf262" x="339.71976" y="208.757018" style="stroke: #000000; stroke-width: 0.4"/>
      </g>
     </g>
    </g>
    <g id="ytick_11">
     <g id="line2d_71">
      <g>
       <use xlink:href="#mcebe82a7e7" x="30.34274" y="190.051856" style="stroke: #000000; stroke-width: 0.4"/>
      </g>
     </g>
     <g id="line2d_72">
      <g>
       <use xlink:href="#mc4a7ebf262" x="339.71976" y="190.051856" style="stroke: #000000; stroke-width: 0.4"/>
      </g>
     </g>
    </g>
    <g id="ytick_12">
     <g id="line2d_73">
      <g>
       <use xlink:href="#mcebe82a7e7" x="30.34274" y="180.699275" style="stroke: #000000; stroke-width: 0.4"/>
      </g>
     </g>
     <g id="line2d_74">
      <g>
       <use xlink:href="#mc4a7ebf262" x="339.71976" y="180.699275" style="stroke: #000000; stroke-width: 0.4"/>
      </g>
     </g>
    </g>
    <g id="ytick_13">
     <g id="line2d_75">
      <g>
       <use xlink:href="#mcebe82a7e7" x="30.34274" y="171.346694" style="stroke: #000000; stroke-width: 0.4"/>
      </g>
     </g>
     <g id="line2d_76">
      <g>
       <use xlink:href="#mc4a7ebf262" x="339.71976" y="171.346694" style="stroke: #000000; stroke-width: 0.4"/>
      </g>
     </g>
    </g>
    <g id="ytick_14">
     <g id="line2d_77">
      <g>
       <use xlink:href="#mcebe82a7e7" x="30.34274" y="152.641533" style="stroke: #000000; stroke-width: 0.4"/>
      </g>
     </g>
     <g id="line2d_78">
      <g>
       <use xlink:href="#mc4a7ebf262" x="339.71976" y="152.641533" style="stroke: #000000; stroke-width: 0.4"/>
      </g>
     </g>
    </g>
    <g id="ytick_15">
     <g id="line2d_79">
      <g>
       <use xlink:href="#mcebe82a7e7" x="30.34274" y="143.288952" style="stroke: #000000; stroke-width: 0.4"/>
      </g>
     </g>
     <g id="line2d_80">
      <g>
       <use xlink:href="#mc4a7ebf262" x="339.71976" y="143.288952" style="stroke: #000000; stroke-width: 0.4"/>
      </g>
     </g>
    </g>
    <g id="ytick_16">
     <g id="line2d_81">
      <g>
       <use xlink:href="#mcebe82a7e7" x="30.34274" y="133.936371" style="stroke: #000000; stroke-width: 0.4"/>
      </g>
     </g>
     <g id="line2d_82">
      <g>
       <use xlink:href="#mc4a7ebf262" x="339.71976" y="133.936371" style="stroke: #000000; stroke-width: 0.4"/>
      </g>
     </g>
    </g>
    <g id="ytick_17">
     <g id="line2d_83">
      <g>
       <use xlink:href="#mcebe82a7e7" x="30.34274" y="115.23121" style="stroke: #000000; stroke-width: 0.4"/>
      </g>
     </g>
     <g id="line2d_84">
      <g>
       <use xlink:href="#mc4a7ebf262" x="339.71976" y="115.23121" style="stroke: #000000; stroke-width: 0.4"/>
      </g>
     </g>
    </g>
    <g id="ytick_18">
     <g id="line2d_85">
      <g>
       <use xlink:href="#mcebe82a7e7" x="30.34274" y="105.878629" style="stroke: #000000; stroke-width: 0.4"/>
      </g>
     </g>
     <g id="line2d_86">
      <g>
       <use xlink:href="#mc4a7ebf262" x="339.71976" y="105.878629" style="stroke: #000000; stroke-width: 0.4"/>
      </g>
     </g>
    </g>
    <g id="ytick_19">
     <g id="line2d_87">
      <g>
       <use xlink:href="#mcebe82a7e7" x="30.34274" y="96.526048" style="stroke: #000000; stroke-width: 0.4"/>
      </g>
     </g>
     <g id="line2d_88">
      <g>
       <use xlink:href="#mc4a7ebf262" x="339.71976" y="96.526048" style="stroke: #000000; stroke-width: 0.4"/>
      </g>
     </g>
    </g>
    <g id="ytick_20">
     <g id="line2d_89">
      <g>
       <use xlink:href="#mcebe82a7e7" x="30.34274" y="77.820886" style="stroke: #000000; stroke-width: 0.4"/>
      </g>
     </g>
     <g id="line2d_90">
      <g>
       <use xlink:href="#mc4a7ebf262" x="339.71976" y="77.820886" style="stroke: #000000; stroke-width: 0.4"/>
      </g>
     </g>
    </g>
    <g id="ytick_21">
     <g id="line2d_91">
      <g>
       <use xlink:href="#mcebe82a7e7" x="30.34274" y="68.468306" style="stroke: #000000; stroke-width: 0.4"/>
      </g>
     </g>
     <g id="line2d_92">
      <g>
       <use xlink:href="#mc4a7ebf262" x="339.71976" y="68.468306" style="stroke: #000000; stroke-width: 0.4"/>
      </g>
     </g>
    </g>
    <g id="ytick_22">
     <g id="line2d_93">
      <g>
       <use xlink:href="#mcebe82a7e7" x="30.34274" y="59.115725" style="stroke: #000000; stroke-width: 0.4"/>
      </g>
     </g>
     <g id="line2d_94">
      <g>
       <use xlink:href="#mc4a7ebf262" x="339.71976" y="59.115725" style="stroke: #000000; stroke-width: 0.4"/>
      </g>
     </g>
    </g>
    <g id="ytick_23">
     <g id="line2d_95">
      <g>
       <use xlink:href="#mcebe82a7e7" x="30.34274" y="40.410563" style="stroke: #000000; stroke-width: 0.4"/>
      </g>
     </g>
     <g id="line2d_96">
      <g>
       <use xlink:href="#mc4a7ebf262" x="339.71976" y="40.410563" style="stroke: #000000; stroke-width: 0.4"/>
      </g>
     </g>
    </g>
    <g id="ytick_24">
     <g id="line2d_97">
      <g>
       <use xlink:href="#mcebe82a7e7" x="30.34274" y="31.057982" style="stroke: #000000; stroke-width: 0.4"/>
      </g>
     </g>
     <g id="line2d_98">
      <g>
       <use xlink:href="#mc4a7ebf262" x="339.71976" y="31.057982" style="stroke: #000000; stroke-width: 0.4"/>
      </g>
     </g>
    </g>
    <g id="ytick_25">
     <g id="line2d_99">
      <g>
       <use xlink:href="#mcebe82a7e7" x="30.34274" y="21.705402" style="stroke: #000000; stroke-width: 0.4"/>
      </g>
     </g>
     <g id="line2d_100">
      <g>
       <use xlink:href="#mc4a7ebf262" x="339.71976" y="21.705402" style="stroke: #000000; stroke-width: 0.4"/>
      </g>
     </g>
    </g>
    <g id="ytick_26">
     <g id="line2d_101">
      <g>
       <use xlink:href="#mcebe82a7e7" x="30.34274" y="3.00024" style="stroke: #000000; stroke-width: 0.4"/>
      </g>
     </g>
     <g id="line2d_102">
      <g>
       <use xlink:href="#mc4a7ebf262" x="339.71976" y="3.00024" style="stroke: #000000; stroke-width: 0.4"/>
      </g>
     </g>
    </g>
    <g id="text_14">
     <!-- Current (A) -->
     <g transform="translate(9.838834 144.82625) rotate(-90) scale(0.09 -0.09)">
      <defs>
       <path id="DejaVuSans-43" d="M 4122 4306 
L 4122 3641 
Q 3803 3938 3442 4084 
Q 3081 4231 2675 4231 
Q 1875 4231 1450 3742 
Q 1025 3253 1025 2328 
Q 1025 1406 1450 917 
Q 1875 428 2675 428 
Q 3081 428 3442 575 
Q 3803 722 4122 1019 
L 4122 359 
Q 3791 134 3420 21 
Q 3050 -91 2638 -91 
Q 1578 -91 968 557 
Q 359 1206 359 2328 
Q 359 3453 968 4101 
Q 1578 4750 2638 4750 
Q 3056 4750 3426 4639 
Q 3797 4528 4122 4306 
z
" transform="scale(0.015625)"/>
       <path id="DejaVuSans-75" d="M 544 1381 
L 544 3500 
L 1119 3500 
L 1119 1403 
Q 1119 906 1312 657 
Q 1506 409 1894 409 
Q 2359 409 2629 706 
Q 2900 1003 2900 1516 
L 2900 3500 
L 3475 3500 
L 3475 0 
L 2900 0 
L 2900 538 
Q 2691 219 2414 64 
Q 2138 -91 1772 -91 
Q 1169 -91 856 284 
Q 544 659 544 1381 
z
M 1991 3584 
L 1991 3584 
z
" transform="scale(0.015625)"/>
       <path id="DejaVuSans-72" d="M 2631 2963 
Q 2534 3019 2420 3045 
Q 2306 3072 2169 3072 
Q 1681 3072 1420 2755 
Q 1159 2438 1159 1844 
L 1159 0 
L 581 0 
L 581 3500 
L 1159 3500 
L 1159 2956 
Q 1341 3275 1631 3429 
Q 1922 3584 2338 3584 
Q 2397 3584 2469 3576 
Q 2541 3569 2628 3553 
L 2631 2963 
z
" transform="scale(0.015625)"/>
       <path id="DejaVuSans-6e" d="M 3513 2113 
L 3513 0 
L 2938 0 
L 2938 2094 
Q 2938 2591 2744 2837 
Q 2550 3084 2163 3084 
Q 1697 3084 1428 2787 
Q 1159 2491 1159 1978 
L 1159 0 
L 581 0 
L 581 3500 
L 1159 3500 
L 1159 2956 
Q 1366 3272 1645 3428 
Q 1925 3584 2291 3584 
Q 2894 3584 3203 3211 
Q 3513 2838 3513 2113 
z
" transform="scale(0.015625)"/>
       <path id="DejaVuSans-41" d="M 2188 4044 
L 1331 1722 
L 3047 1722 
L 2188 4044 
z
M 1831 4666 
L 2547 4666 
L 4325 0 
L 3669 0 
L 3244 1197 
L 1141 1197 
L 716 0 
L 50 0 
L 1831 4666 
z
" transform="scale(0.015625)"/>
      </defs>
      <use xlink:href="#DejaVuSans-43"/>
      <use xlink:href="#DejaVuSans-75" transform="translate(69.824219 0)"/>
      <use xlink:href="#DejaVuSans-72" transform="translate(133.203125 0)"/>
      <use xlink:href="#DejaVuSans-72" transform="translate(172.566406 0)"/>
      <use xlink:href="#DejaVuSans-65" transform="translate(211.429688 0)"/>
      <use xlink:href="#DejaVuSans-6e" transform="translate(272.953125 0)"/>
      <use xlink:href="#DejaVuSans-74" transform="translate(336.332031 0)"/>
      <use xlink:href="#DejaVuSans-20" transform="translate(375.541016 0)"/>
      <use xlink:href="#DejaVuSans-28" transform="translate(407.328125 0)"/>
      <use xlink:href="#DejaVuSans-41" transform="translate(446.341797 0)"/>
      <use xlink:href="#DejaVuSans-29" transform="translate(514.75 0)"/>
     </g>
    </g>
   </g>
   <g id="line2d_103">
    <path d="M 30.34274 236.371281 
L 44.264706 235.991856 
L 55.092902 235.501791 
L 64.374212 234.873695 
L 72.108638 234.1445 
L 79.843063 233.164954 
L 86.030604 232.150955 
L 92.218144 230.882176 
L 96.858799 229.731036 
L 101.499455 228.380454 
L 106.14011 226.802331 
L 110.780765 224.966489 
L 115.42142 222.841111 
L 120.062076 220.393424 
L 124.702731 217.590632 
L 127.796501 215.509126 
L 130.890271 213.246928 
L 133.984042 210.796025 
L 137.077812 208.149402 
L 140.171582 205.301299 
L 143.265352 202.247479 
L 147.906008 197.276194 
L 152.546663 191.837448 
L 157.187318 185.943487 
L 161.827973 179.619381 
L 166.468629 172.903344 
L 171.109284 165.846197 
L 177.296825 156.01449 
L 186.578135 140.714558 
L 198.953216 120.250671 
L 205.140756 110.376509 
L 211.328297 100.924347 
L 215.968952 94.17136 
L 220.609607 87.738264 
L 225.250263 81.642278 
L 229.890918 75.891214 
L 234.531573 70.484808 
L 239.172228 65.416172 
L 243.812884 60.673252 
L 248.453539 56.240191 
L 253.094194 52.098541 
L 257.73485 48.228297 
L 262.375505 44.608748 
L 267.01616 41.219137 
L 273.203701 37.022377 
L 279.391241 33.152701 
L 285.578781 29.567926 
L 291.766322 26.229875 
L 299.500747 22.352807 
L 307.235173 18.750708 
L 314.969598 15.375 
L 324.250909 11.566442 
L 335.079105 7.386577 
L 339.71976 5.665213 
L 339.71976 5.665213 
" clip-path="url(#paa8e58dddd)" style="fill: none; stroke: #000000; stroke-width: 0.75; stroke-linecap: square"/>
   </g>
   <g id="line2d_104">
    <path d="M 30.34274 236.789711 
L 61.280442 236.629742 
L 76.749293 236.335377 
L 87.577489 235.898337 
L 95.311914 235.37272 
L 101.499455 234.754625 
L 107.686995 233.888082 
L 112.32765 233.021425 
L 116.968306 231.916065 
L 121.608961 230.513676 
L 124.702731 229.380045 
L 127.796501 228.06065 
L 130.890271 226.53009 
L 133.984042 224.760993 
L 137.077812 222.724345 
L 140.171582 220.390013 
L 143.265352 217.727485 
L 146.359122 214.706871 
L 149.452893 211.30015 
L 152.546663 207.482686 
L 155.640433 203.234943 
L 158.734203 198.544336 
L 161.827973 193.407076 
L 164.921744 187.829867 
L 168.015514 181.83123 
L 171.109284 175.442276 
L 175.749939 165.225942 
L 180.390595 154.428165 
L 198.953216 110.401808 
L 203.593871 100.36648 
L 206.687641 94.072369 
L 209.781412 88.12493 
L 212.875182 82.537778 
L 215.968952 77.315171 
L 219.062722 72.453424 
L 222.156492 67.94243 
L 225.250263 63.767173 
L 228.344033 59.909115 
L 231.437803 56.347436 
L 234.531573 53.060066 
L 237.625343 50.024526 
L 240.719114 47.218578 
L 245.359769 43.393368 
L 250.000424 39.968692 
L 254.641079 36.883411 
L 259.281735 34.083692 
L 263.92239 31.52293 
L 270.10993 28.412331 
L 276.297471 25.578582 
L 284.031896 22.333218 
L 291.766322 19.333433 
L 301.047632 15.96473 
L 313.422713 11.736471 
L 328.891564 6.708474 
L 339.71976 3.28933 
L 339.71976 3.28933 
" clip-path="url(#paa8e58dddd)" style="fill: none; stroke: #dc241f; stroke-width: 0.75; stroke-linecap: square"/>
   </g>
   <g id="line2d_105">
    <path d="M 30.34274 236.813349 
L 82.936833 236.699736 
L 96.858799 236.473068 
L 106.14011 236.120547 
L 112.32765 235.709797 
L 118.515191 235.067612 
L 123.155846 234.362694 
L 127.796501 233.388519 
L 130.890271 232.544008 
L 133.984042 231.503973 
L 137.077812 230.227877 
L 140.171582 228.668729 
L 143.265352 226.772935 
L 146.359122 224.480592 
L 149.452893 221.726453 
L 152.546663 218.441803 
L 155.640433 214.557501 
L 158.734203 210.008363 
L 161.827973 204.738935 
L 164.921744 198.710436 
L 168.015514 191.908295 
L 171.109284 184.349318 
L 174.203054 176.087158 
L 177.296825 167.214652 
L 181.93748 153.054613 
L 194.312561 114.425795 
L 197.406331 105.495394 
L 200.500101 97.115235 
L 203.593871 89.356067 
L 206.687641 82.254104 
L 209.781412 75.815468 
L 212.875182 70.022242 
L 215.968952 64.83898 
L 219.062722 60.218819 
L 222.156492 56.108687 
L 225.250263 52.453392 
L 228.344033 49.198609 
L 231.437803 46.292872 
L 234.531573 43.688784 
L 237.625343 41.343611 
L 240.719114 39.219455 
L 245.359769 36.376262 
L 250.000424 33.862984 
L 254.641079 31.605176 
L 260.82862 28.893155 
L 267.01616 26.429204 
L 274.750586 23.588252 
L 285.578781 19.892771 
L 299.500747 15.407743 
L 321.157139 8.691915 
L 339.71976 3.031315 
L 339.71976 3.031315 
" clip-path="url(#paa8e58dddd)" style="fill: none; stroke: #0019a8; stroke-width: 0.75; stroke-linecap: square"/>
   </g>
   <g id="line2d_106">
    <path d="M 30.34274 236.814756 
L 113.874535 236.706313 
L 124.702731 236.457223 
L 130.890271 236.115909 
L 135.530927 235.666313 
L 138.624697 235.220399 
L 141.718467 234.607389 
L 144.812237 233.768006 
L 147.906008 232.624082 
L 150.999778 231.074081 
L 152.546663 230.107591 
L 154.093548 228.988744 
L 155.640433 227.696537 
L 157.187318 226.208 
L 158.734203 224.49832 
L 160.281088 222.541079 
L 161.827973 220.308656 
L 163.374859 217.772809 
L 164.921744 214.905484 
L 166.468629 211.679849 
L 168.015514 208.071583 
L 169.562399 204.060383 
L 171.109284 199.631644 
L 172.656169 194.778223 
L 174.203054 189.502163 
L 177.296825 177.744833 
L 180.390595 164.605275 
L 185.03125 143.288952 
L 189.671905 121.812296 
L 192.765675 108.37727 
L 195.859446 96.159403 
L 198.953216 85.399255 
L 200.500101 80.593404 
L 202.046986 76.166763 
L 203.593871 72.107814 
L 205.140756 68.399889 
L 206.687641 65.02265 
L 208.234526 61.953408 
L 209.781412 59.16823 
L 211.328297 56.64284 
L 212.875182 54.353317 
L 214.422067 52.276602 
L 217.515837 48.675717 
L 220.609607 45.683564 
L 223.703377 43.168916 
L 226.797148 41.025075 
L 229.890918 39.167099 
L 232.984688 37.528374 
L 237.625343 35.371641 
L 242.265999 33.467688 
L 248.453539 31.179714 
L 256.187965 28.555675 
L 268.563045 24.617587 
L 293.313207 17.042906 
L 339.71976 3.000598 
L 339.71976 3.000598 
" clip-path="url(#paa8e58dddd)" style="fill: none; stroke: #9b0058; stroke-width: 0.75; stroke-linecap: square"/>
   </g>
   <g id="line2d_107">
    <path d="M 30.34274 236.81476 
L 140.171582 236.721341 
L 146.359122 236.539098 
L 150.999778 236.199498 
L 154.093548 235.76888 
L 157.187318 235.044744 
L 158.734203 234.516655 
L 160.281088 233.835623 
L 161.827973 232.959661 
L 163.374859 231.836538 
L 164.921744 230.402052 
L 166.468629 228.578485 
L 168.015514 226.273632 
L 169.562399 223.380986 
L 171.109284 219.7819 
L 172.656169 215.350741 
L 174.203054 209.964093 
L 175.749939 203.514762 
L 177.296825 195.930398 
L 178.84371 187.194945 
L 180.390595 177.368978 
L 183.484365 155.138281 
L 188.12502 119.855623 
L 189.671905 108.93545 
L 191.21879 98.886319 
L 192.765675 89.856683 
L 194.312561 81.908731 
L 195.859446 75.032118 
L 197.406331 69.163511 
L 198.953216 64.206659 
L 200.500101 60.049562 
L 202.046986 56.577318 
L 203.593871 53.680587 
L 205.140756 51.260405 
L 206.687641 49.230316 
L 208.234526 47.516702 
L 209.781412 46.058069 
L 211.328297 44.803784 
L 214.422067 42.751205 
L 217.515837 41.116148 
L 220.609607 39.743182 
L 225.250263 37.970848 
L 231.437803 35.879554 
L 242.265999 32.490258 
L 279.391241 21.23792 
L 339.71976 3.00024 
L 339.71976 3.00024 
" clip-path="url(#paa8e58dddd)" style="fill: none; stroke: #b26300; stroke-width: 0.75; stroke-linecap: square"/>
   </g>
   <g id="line2d_108">
    <path d="M 30.34274 236.81476 
L 161.827973 236.728601 
L 164.921744 236.570855 
L 168.015514 236.129062 
L 169.562399 235.668847 
L 171.109284 234.905467 
L 172.656169 233.646428 
L 174.203054 231.587501 
L 175.749939 228.263981 
L 177.296825 223.005405 
L 178.84371 214.935617 
L 180.390595 203.103945 
L 181.93748 186.852097 
L 183.484365 166.399165 
L 186.578135 120.119155 
L 188.12502 99.47749 
L 189.671905 82.896766 
L 191.21879 70.610488 
L 192.765675 61.998858 
L 194.312561 56.154537 
L 195.859446 52.234883 
L 197.406331 49.589336 
L 198.953216 47.762078 
L 200.500101 46.450845 
L 202.046986 45.46153 
L 205.140756 44.005418 
L 208.234526 42.87175 
L 214.422067 40.896442 
L 243.812884 31.993243 
L 339.71976 3.00024 
L 339.71976 3.00024 
" clip-path="url(#paa8e58dddd)" style="fill: none; stroke: #838d93; stroke-width: 0.75; stroke-linecap: square"/>
   </g>
   <g id="patch_3">
    <path d="M 30.34274 236.81476 
L 30.34274 3.00024 
" style="fill: none; stroke: #000000; stroke-width: 0.4; stroke-linejoin: miter; stroke-linecap: square"/>
   </g>
   <g id="patch_4">
    <path d="M 339.71976 236.81476 
L 339.71976 3.00024 
" style="fill: none; stroke: #000000; stroke-width: 0.4; stroke-linejoin: miter; stroke-linecap: square"/>
   </g>
   <g id="patch_5">
    <path d="M 30.34274 236.81476 
L 339.71976 236.81476 
" style="fill: none; stroke: #000000; stroke-width: 0.4; stroke-linejoin: miter; stroke-linecap: square"/>
   </g>
   <g id="patch_6">
    <path d="M 30.34274 3.00024 
L 339.71976 3.00024 
" style="fill: none; stroke: #000000; stroke-width: 0.4; stroke-linejoin: miter; stroke-linecap: square"/>
   </g>
   <g id="legend_1">
    <g id="text_15">
     <!-- Order -->
     <g transform="translate(43.176256 14.619146) scale(0.07 -0.07)">
      <defs>
       <path id="DejaVuSans-4f" d="M 2522 4238 
Q 1834 4238 1429 3725 
Q 1025 3213 1025 2328 
Q 1025 1447 1429 934 
Q 1834 422 2522 422 
Q 3209 422 3611 934 
Q 4013 1447 4013 2328 
Q 4013 3213 3611 3725 
Q 3209 4238 2522 4238 
z
M 2522 4750 
Q 3503 4750 4090 4092 
Q 4678 3434 4678 2328 
Q 4678 1225 4090 567 
Q 3503 -91 2522 -91 
Q 1538 -91 948 565 
Q 359 1222 359 2328 
Q 359 3434 948 4092 
Q 1538 4750 2522 4750 
z
" transform="scale(0.015625)"/>
       <path id="DejaVuSans-64" d="M 2906 2969 
L 2906 4863 
L 3481 4863 
L 3481 0 
L 2906 0 
L 2906 525 
Q 2725 213 2448 61 
Q 2172 -91 1784 -91 
Q 1150 -91 751 415 
Q 353 922 353 1747 
Q 353 2572 751 3078 
Q 1150 3584 1784 3584 
Q 2172 3584 2448 3432 
Q 2725 3281 2906 2969 
z
M 947 1747 
Q 947 1113 1208 752 
Q 1469 391 1925 391 
Q 2381 391 2643 752 
Q 2906 1113 2906 1747 
Q 2906 2381 2643 2742 
Q 2381 3103 1925 3103 
Q 1469 3103 1208 2742 
Q 947 2381 947 1747 
z
" transform="scale(0.015625)"/>
      </defs>
      <use xlink:href="#DejaVuSans-4f"/>
      <use xlink:href="#DejaVuSans-72" transform="translate(78.710938 0)"/>
      <use xlink:href="#DejaVuSans-64" transform="translate(118.074219 0)"/>
      <use xlink:href="#DejaVuSans-65" transform="translate(181.550781 0)"/>
      <use xlink:href="#DejaVuSans-72" transform="translate(243.074219 0)"/>
     </g>
    </g>
    <g id="line2d_109">
     <path d="M 36.64274 22.443834 
L 43.64274 22.443834 
L 50.64274 22.443834 
" style="fill: none; stroke: #000000; stroke-width: 0.75; stroke-linecap: square"/>
    </g>
    <g id="text_16">
     <!-- 10 -->
     <g transform="translate(56.24274 24.893834) scale(0.07 -0.07)">
      <use xlink:href="#DejaVuSans-31"/>
      <use xlink:href="#DejaVuSans-30" transform="translate(63.623047 0)"/>
     </g>
    </g>
    <g id="line2d_110">
     <path d="M 36.64274 32.718521 
L 43.64274 32.718521 
L 50.64274 32.718521 
" style="fill: none; stroke: #dc241f; stroke-width: 0.75; stroke-linecap: square"/>
    </g>
    <g id="text_17">
     <!-- 15 -->
     <g transform="translate(56.24274 35.168521) scale(0.07 -0.07)">
      <defs>
       <path id="DejaVuSans-35" d="M 691 4666 
L 3169 4666 
L 3169 4134 
L 1269 4134 
L 1269 2991 
Q 1406 3038 1543 3061 
Q 1681 3084 1819 3084 
Q 2600 3084 3056 2656 
Q 3513 2228 3513 1497 
Q 3513 744 3044 326 
Q 2575 -91 1722 -91 
Q 1428 -91 1123 -41 
Q 819 9 494 109 
L 494 744 
Q 775 591 1075 516 
Q 1375 441 1709 441 
Q 2250 441 2565 725 
Q 2881 1009 2881 1497 
Q 2881 1984 2565 2268 
Q 2250 2553 1709 2553 
Q 1456 2553 1204 2497 
Q 953 2441 691 2322 
L 691 4666 
z
" transform="scale(0.015625)"/>
      </defs>
      <use xlink:href="#DejaVuSans-31"/>
      <use xlink:href="#DejaVuSans-35" transform="translate(63.623047 0)"/>
     </g>
    </g>
    <g id="line2d_111">
     <path d="M 36.64274 42.993209 
L 43.64274 42.993209 
L 50.64274 42.993209 
" style="fill: none; stroke: #0019a8; stroke-width: 0.75; stroke-linecap: square"/>
    </g>
    <g id="text_18">
     <!-- 20 -->
     <g transform="translate(56.24274 45.443209) scale(0.07 -0.07)">
      <use xlink:href="#DejaVuSans-32"/>
      <use xlink:href="#DejaVuSans-30" transform="translate(63.623047 0)"/>
     </g>
    </g>
    <g id="line2d_112">
     <path d="M 36.64274 53.267896 
L 43.64274 53.267896 
L 50.64274 53.267896 
" style="fill: none; stroke: #9b0058; stroke-width: 0.75; stroke-linecap: square"/>
    </g>
    <g id="text_19">
     <!-- 30 -->
     <g transform="translate(56.24274 55.717896) scale(0.07 -0.07)">
      <defs>
       <path id="DejaVuSans-33" d="M 2597 2516 
Q 3050 2419 3304 2112 
Q 3559 1806 3559 1356 
Q 3559 666 3084 287 
Q 2609 -91 1734 -91 
Q 1441 -91 1130 -33 
Q 819 25 488 141 
L 488 750 
Q 750 597 1062 519 
Q 1375 441 1716 441 
Q 2309 441 2620 675 
Q 2931 909 2931 1356 
Q 2931 1769 2642 2001 
Q 2353 2234 1838 2234 
L 1294 2234 
L 1294 2753 
L 1863 2753 
Q 2328 2753 2575 2939 
Q 2822 3125 2822 3475 
Q 2822 3834 2567 4026 
Q 2313 4219 1838 4219 
Q 1578 4219 1281 4162 
Q 984 4106 628 3988 
L 628 4550 
Q 988 4650 1302 4700 
Q 1616 4750 1894 4750 
Q 2613 4750 3031 4423 
Q 3450 4097 3450 3541 
Q 3450 3153 3228 2886 
Q 3006 2619 2597 2516 
z
" transform="scale(0.015625)"/>
      </defs>
      <use xlink:href="#DejaVuSans-33"/>
      <use xlink:href="#DejaVuSans-30" transform="translate(63.623047 0)"/>
     </g>
    </g>
    <g id="line2d_113">
     <path d="M 36.64274 63.542584 
L 43.64274 63.542584 
L 50.64274 63.542584 
" style="fill: none; stroke: #b26300; stroke-width: 0.75; stroke-linecap: square"/>
    </g>
    <g id="text_20">
     <!-- 50 -->
     <g transform="translate(56.24274 65.992584) scale(0.07 -0.07)">
      <use xlink:href="#DejaVuSans-35"/>
      <use xlink:href="#DejaVuSans-30" transform="translate(63.623047 0)"/>
     </g>
    </g>
    <g id="line2d_114">
     <path d="M 36.64274 73.817271 
L 43.64274 73.817271 
L 50.64274 73.817271 
" style="fill: none; stroke: #838d93; stroke-width: 0.75; stroke-linecap: square"/>
    </g>
    <g id="text_21">
     <!-- 100 -->
     <g transform="translate(56.24274 76.267271) scale(0.07 -0.07)">
      <use xlink:href="#DejaVuSans-31"/>
      <use xlink:href="#DejaVuSans-30" transform="translate(63.623047 0)"/>
      <use xlink:href="#DejaVuSans-30" transform="translate(127.246094 0)"/>
     </g>
    </g>
   </g>
  </g>
 </g>
 <defs>
  <clipPath id="paa8e58dddd">
   <rect x="30.34274" y="3.00024" width="309.37702" height="233.81452"/>
  </clipPath>
 </defs>
</svg>
