<?xml version="1.0" encoding="utf-8" standalone="no"?>
<!DOCTYPE svg PUBLIC "-//W3C//DTD SVG 1.1//EN"
  "http://www.w3.org/Graphics/SVG/1.1/DTD/svg11.dtd">
<svg xmlns:xlink="http://www.w3.org/1999/xlink" width="521.28pt" height="396pt" viewBox="0 0 521.28 396" xmlns="http://www.w3.org/2000/svg" version="1.1">
 <metadata>
  <rdf:RDF xmlns:dc="http://purl.org/dc/elements/1.1/" xmlns:cc="http://creativecommons.org/ns#" xmlns:rdf="http://www.w3.org/1999/02/22-rdf-syntax-ns#">
   <cc:Work>
    <dc:type rdf:resource="http://purl.org/dc/dcmitype/StillImage"/>
    <dc:date>2026-01-31T12:27:23.291104</dc:date>
    <dc:format>image/svg+xml</dc:format>
    <dc:creator>
     <cc:Agent>
      <dc:title>Matplotlib v3.10.8, https://matplotlib.org/</dc:title>
     </cc:Agent>
    </dc:creator>
   </cc:Work>
  </rdf:RDF>
 </metadata>
 <defs>
  <style type="text/css">*{stroke-linejoin: round; stroke-linecap: butt}</style>
 </defs>
 <g id="figure_1">
  <g id="patch_1">
   <path d="M 0 396 
L 521.28 396 
L 521.28 0 
L 0 0 
z
" style="fill: #ffffff"/>
  </g>
  <g id="axes_1">
   <g id="patch_2">
    <path d="M 30.34274 370.01476 
L 518.27976 370.01476 
L 518.27976 3.00024 
L 30.34274 3.00024 
z
" style="fill: #ffffff"/>
   </g>
   <g id="matplotlib.axis_1">
    <g id="xtick_1">
     <g id="line2d_1">
      <defs>
       <path id="m4f6021c355" d="M 0 0 
L 0 -2 
" style="stroke: #000000; stroke-width: 0.4"/>
      </defs>
      <g>
       <use xlink:href="#m4f6021c355" x="79.136442" y="370.01476" style="stroke: #000000; stroke-width: 0.4"/>
      </g>
     </g>
     <g id="line2d_2">
      <defs>
       <path id="mb14c198638" d="M 0 0 
L 0 2 
" style="stroke: #000000; stroke-width: 0.4"/>
      </defs>
      <g>
       <use xlink:href="#mb14c198638" x="79.136442" y="3.00024" style="stroke: #000000; stroke-width: 0.4"/>
      </g>
     </g>
     <g id="text_1">
      <!-- 0.8 -->
      <g transform="translate(73.570348 378.833666) scale(0.07 -0.07)">
       <defs>
        <path id="DejaVuSans-30" d="M 2034 4250 
Q 1547 4250 1301 3770 
Q 1056 3291 1056 2328 
Q 1056 1369 1301 889 
Q 1547 409 2034 409 
Q 2525 409 2770 889 
Q 3016 1369 3016 2328 
Q 3016 3291 2770 3770 
Q 2525 4250 2034 4250 
z
M 2034 4750 
Q 2819 4750 3233 4129 
Q 3647 3509 3647 2328 
Q 3647 1150 3233 529 
Q 2819 -91 2034 -91 
Q 1250 -91 836 529 
Q 422 1150 422 2328 
Q 422 3509 836 4129 
Q 1250 4750 2034 4750 
z
" transform="scale(0.015625)"/>
        <path id="DejaVuSans-2e" d="M 684 794 
L 1344 794 
L 1344 0 
L 684 0 
L 684 794 
z
" transform="scale(0.015625)"/>
        <path id="DejaVuSans-38" d="M 2034 2216 
Q 1584 2216 1326 1975 
Q 1069 1734 1069 1313 
Q 1069 891 1326 650 
Q 1584 409 2034 409 
Q 2484 409 2743 651 
Q 3003 894 3003 1313 
Q 3003 1734 2745 1975 
Q 2488 2216 2034 2216 
z
M 1403 2484 
Q 997 2584 770 2862 
Q 544 3141 544 3541 
Q 544 4100 942 4425 
Q 1341 4750 2034 4750 
Q 2731 4750 3128 4425 
Q 3525 4100 3525 3541 
Q 3525 3141 3298 2862 
Q 3072 2584 2669 2484 
Q 3125 2378 3379 2068 
Q 3634 1759 3634 1313 
Q 3634 634 3220 271 
Q 2806 -91 2034 -91 
Q 1263 -91 848 271 
Q 434 634 434 1313 
Q 434 1759 690 2068 
Q 947 2378 1403 2484 
z
M 1172 3481 
Q 1172 3119 1398 2916 
Q 1625 2713 2034 2713 
Q 2441 2713 2670 2916 
Q 2900 3119 2900 3481 
Q 2900 3844 2670 4047 
Q 2441 4250 2034 4250 
Q 1625 4250 1398 4047 
Q 1172 3844 1172 3481 
z
" transform="scale(0.015625)"/>
       </defs>
       <use xlink:href="#DejaVuSans-30"/>
       <use xlink:href="#DejaVuSans-2e" transform="translate(63.623047 0)"/>
       <use xlink:href="#DejaVuSans-38" transform="translate(95.410156 0)"/>
      </g>
     </g>
    </g>
    <g id="xtick_2">
     <g id="line2d_3">
      <g>
       <use xlink:href="#m4f6021c355" x="176.723846" y="370.01476" style="stroke: #000000; stroke-width: 0.4"/>
      </g>
     </g>
     <g id="line2d_4">
      <g>
       <use xlink:href="#mb14c198638" x="176.723846" y="3.00024" style="stroke: #000000; stroke-width: 0.4"/>
      </g>
     </g>
     <g id="text_2">
      <!-- 0.9 -->
      <g transform="translate(171.157752 378.833666) scale(0.07 -0.07)">
       <defs>
        <path id="DejaVuSans-39" d="M 703 97 
L 703 672 
Q 941 559 1184 500 
Q 1428 441 1663 441 
Q 2288 441 2617 861 
Q 2947 1281 2994 2138 
Q 2813 1869 2534 1725 
Q 2256 1581 1919 1581 
Q 1219 1581 811 2004 
Q 403 2428 403 3163 
Q 403 3881 828 4315 
Q 1253 4750 1959 4750 
Q 2769 4750 3195 4129 
Q 3622 3509 3622 2328 
Q 3622 1225 3098 567 
Q 2575 -91 1691 -91 
Q 1453 -91 1209 -44 
Q 966 3 703 97 
z
M 1959 2075 
Q 2384 2075 2632 2365 
Q 2881 2656 2881 3163 
Q 2881 3666 2632 3958 
Q 2384 4250 1959 4250 
Q 1534 4250 1286 3958 
Q 1038 3666 1038 3163 
Q 1038 2656 1286 2365 
Q 1534 2075 1959 2075 
z
" transform="scale(0.015625)"/>
       </defs>
       <use xlink:href="#DejaVuSans-30"/>
       <use xlink:href="#DejaVuSans-2e" transform="translate(63.623047 0)"/>
       <use xlink:href="#DejaVuSans-39" transform="translate(95.410156 0)"/>
      </g>
     </g>
    </g>
    <g id="xtick_3">
     <g id="line2d_5">
      <g>
       <use xlink:href="#m4f6021c355" x="274.31125" y="370.01476" style="stroke: #000000; stroke-width: 0.4"/>
      </g>
     </g>
     <g id="line2d_6">
      <g>
       <use xlink:href="#mb14c198638" x="274.31125" y="3.00024" style="stroke: #000000; stroke-width: 0.4"/>
      </g>
     </g>
     <g id="text_3">
      <!-- 1.0 -->
      <g transform="translate(268.745156 378.833666) scale(0.07 -0.07)">
       <defs>
        <path id="DejaVuSans-31" d="M 794 531 
L 1825 531 
L 1825 4091 
L 703 3866 
L 703 4441 
L 1819 4666 
L 2450 4666 
L 2450 531 
L 3481 531 
L 3481 0 
L 794 0 
L 794 531 
z
" transform="scale(0.015625)"/>
       </defs>
       <use xlink:href="#DejaVuSans-31"/>
       <use xlink:href="#DejaVuSans-2e" transform="translate(63.623047 0)"/>
       <use xlink:href="#DejaVuSans-30" transform="translate(95.410156 0)"/>
      </g>
     </g>
    </g>
    <g id="xtick_4">
     <g id="line2d_7">
      <g>
       <use xlink:href="#m4f6021c355" x="371.898654" y="370.01476" style="stroke: #000000; stroke-width: 0.4"/>
      </g>
     </g>
     <g id="line2d_8">
      <g>
       <use xlink:href="#mb14c198638" x="371.898654" y="3.00024" style="stroke: #000000; stroke-width: 0.4"/>
      </g>
     </g>
     <g id="text_4">
      <!-- 1.1 -->
      <g transform="translate(366.33256 378.833666) scale(0.07 -0.07)">
       <use xlink:href="#DejaVuSans-31"/>
       <use xlink:href="#DejaVuSans-2e" transform="translate(63.623047 0)"/>
       <use xlink:href="#DejaVuSans-31" transform="translate(95.410156 0)"/>
      </g>
     </g>
    </g>
    <g id="xtick_5">
     <g id="line2d_9">
      <g>
       <use xlink:href="#m4f6021c355" x="469.486058" y="370.01476" style="stroke: #000000; stroke-width: 0.4"/>
      </g>
     </g>
     <g id="line2d_10">
      <g>
       <use xlink:href="#mb14c198638" x="469.486058" y="3.00024" style="stroke: #000000; stroke-width: 0.4"/>
      </g>
     </g>
     <g id="text_5">
      <!-- 1.2 -->
      <g transform="translate(463.919964 378.833666) scale(0.07 -0.07)">
       <defs>
        <path id="DejaVuSans-32" d="M 1228 531 
L 3431 531 
L 3431 0 
L 469 0 
L 469 531 
Q 828 903 1448 1529 
Q 2069 2156 2228 2338 
Q 2531 2678 2651 2914 
Q 2772 3150 2772 3378 
Q 2772 3750 2511 3984 
Q 2250 4219 1831 4219 
Q 1534 4219 1204 4116 
Q 875 4013 500 3803 
L 500 4441 
Q 881 4594 1212 4672 
Q 1544 4750 1819 4750 
Q 2544 4750 2975 4387 
Q 3406 4025 3406 3419 
Q 3406 3131 3298 2873 
Q 3191 2616 2906 2266 
Q 2828 2175 2409 1742 
Q 1991 1309 1228 531 
z
" transform="scale(0.015625)"/>
       </defs>
       <use xlink:href="#DejaVuSans-31"/>
       <use xlink:href="#DejaVuSans-2e" transform="translate(63.623047 0)"/>
       <use xlink:href="#DejaVuSans-32" transform="translate(95.410156 0)"/>
      </g>
     </g>
    </g>
    <g id="xtick_6">
     <g id="line2d_11">
      <defs>
       <path id="mcec3ad0d2d" d="M 0 0 
L 0 -1.25 
" style="stroke: #000000; stroke-width: 0.4"/>
      </defs>
      <g>
       <use xlink:href="#mcec3ad0d2d" x="40.10148" y="370.01476" style="stroke: #000000; stroke-width: 0.4"/>
      </g>
     </g>
     <g id="line2d_12">
      <defs>
       <path id="ma5e3d7d689" d="M 0 0 
L 0 1.25 
" style="stroke: #000000; stroke-width: 0.4"/>
      </defs>
      <g>
       <use xlink:href="#ma5e3d7d689" x="40.10148" y="3.00024" style="stroke: #000000; stroke-width: 0.4"/>
      </g>
     </g>
    </g>
    <g id="xtick_7">
     <g id="line2d_13">
      <g>
       <use xlink:href="#mcec3ad0d2d" x="59.618961" y="370.01476" style="stroke: #000000; stroke-width: 0.4"/>
      </g>
     </g>
     <g id="line2d_14">
      <g>
       <use xlink:href="#ma5e3d7d689" x="59.618961" y="3.00024" style="stroke: #000000; stroke-width: 0.4"/>
      </g>
     </g>
    </g>
    <g id="xtick_8">
     <g id="line2d_15">
      <g>
       <use xlink:href="#mcec3ad0d2d" x="98.653923" y="370.01476" style="stroke: #000000; stroke-width: 0.4"/>
      </g>
     </g>
     <g id="line2d_16">
      <g>
       <use xlink:href="#ma5e3d7d689" x="98.653923" y="3.00024" style="stroke: #000000; stroke-width: 0.4"/>
      </g>
     </g>
    </g>
    <g id="xtick_9">
     <g id="line2d_17">
      <g>
       <use xlink:href="#mcec3ad0d2d" x="118.171404" y="370.01476" style="stroke: #000000; stroke-width: 0.4"/>
      </g>
     </g>
     <g id="line2d_18">
      <g>
       <use xlink:href="#ma5e3d7d689" x="118.171404" y="3.00024" style="stroke: #000000; stroke-width: 0.4"/>
      </g>
     </g>
    </g>
    <g id="xtick_10">
     <g id="line2d_19">
      <g>
       <use xlink:href="#mcec3ad0d2d" x="137.688884" y="370.01476" style="stroke: #000000; stroke-width: 0.4"/>
      </g>
     </g>
     <g id="line2d_20">
      <g>
       <use xlink:href="#ma5e3d7d689" x="137.688884" y="3.00024" style="stroke: #000000; stroke-width: 0.4"/>
      </g>
     </g>
    </g>
    <g id="xtick_11">
     <g id="line2d_21">
      <g>
       <use xlink:href="#mcec3ad0d2d" x="157.206365" y="370.01476" style="stroke: #000000; stroke-width: 0.4"/>
      </g>
     </g>
     <g id="line2d_22">
      <g>
       <use xlink:href="#ma5e3d7d689" x="157.206365" y="3.00024" style="stroke: #000000; stroke-width: 0.4"/>
      </g>
     </g>
    </g>
    <g id="xtick_12">
     <g id="line2d_23">
      <g>
       <use xlink:href="#mcec3ad0d2d" x="196.241327" y="370.01476" style="stroke: #000000; stroke-width: 0.4"/>
      </g>
     </g>
     <g id="line2d_24">
      <g>
       <use xlink:href="#ma5e3d7d689" x="196.241327" y="3.00024" style="stroke: #000000; stroke-width: 0.4"/>
      </g>
     </g>
    </g>
    <g id="xtick_13">
     <g id="line2d_25">
      <g>
       <use xlink:href="#mcec3ad0d2d" x="215.758808" y="370.01476" style="stroke: #000000; stroke-width: 0.4"/>
      </g>
     </g>
     <g id="line2d_26">
      <g>
       <use xlink:href="#ma5e3d7d689" x="215.758808" y="3.00024" style="stroke: #000000; stroke-width: 0.4"/>
      </g>
     </g>
    </g>
    <g id="xtick_14">
     <g id="line2d_27">
      <g>
       <use xlink:href="#mcec3ad0d2d" x="235.276288" y="370.01476" style="stroke: #000000; stroke-width: 0.4"/>
      </g>
     </g>
     <g id="line2d_28">
      <g>
       <use xlink:href="#ma5e3d7d689" x="235.276288" y="3.00024" style="stroke: #000000; stroke-width: 0.4"/>
      </g>
     </g>
    </g>
    <g id="xtick_15">
     <g id="line2d_29">
      <g>
       <use xlink:href="#mcec3ad0d2d" x="254.793769" y="370.01476" style="stroke: #000000; stroke-width: 0.4"/>
      </g>
     </g>
     <g id="line2d_30">
      <g>
       <use xlink:href="#ma5e3d7d689" x="254.793769" y="3.00024" style="stroke: #000000; stroke-width: 0.4"/>
      </g>
     </g>
    </g>
    <g id="xtick_16">
     <g id="line2d_31">
      <g>
       <use xlink:href="#mcec3ad0d2d" x="293.828731" y="370.01476" style="stroke: #000000; stroke-width: 0.4"/>
      </g>
     </g>
     <g id="line2d_32">
      <g>
       <use xlink:href="#ma5e3d7d689" x="293.828731" y="3.00024" style="stroke: #000000; stroke-width: 0.4"/>
      </g>
     </g>
    </g>
    <g id="xtick_17">
     <g id="line2d_33">
      <g>
       <use xlink:href="#mcec3ad0d2d" x="313.346212" y="370.01476" style="stroke: #000000; stroke-width: 0.4"/>
      </g>
     </g>
     <g id="line2d_34">
      <g>
       <use xlink:href="#ma5e3d7d689" x="313.346212" y="3.00024" style="stroke: #000000; stroke-width: 0.4"/>
      </g>
     </g>
    </g>
    <g id="xtick_18">
     <g id="line2d_35">
      <g>
       <use xlink:href="#mcec3ad0d2d" x="332.863692" y="370.01476" style="stroke: #000000; stroke-width: 0.4"/>
      </g>
     </g>
     <g id="line2d_36">
      <g>
       <use xlink:href="#ma5e3d7d689" x="332.863692" y="3.00024" style="stroke: #000000; stroke-width: 0.4"/>
      </g>
     </g>
    </g>
    <g id="xtick_19">
     <g id="line2d_37">
      <g>
       <use xlink:href="#mcec3ad0d2d" x="352.381173" y="370.01476" style="stroke: #000000; stroke-width: 0.4"/>
      </g>
     </g>
     <g id="line2d_38">
      <g>
       <use xlink:href="#ma5e3d7d689" x="352.381173" y="3.00024" style="stroke: #000000; stroke-width: 0.4"/>
      </g>
     </g>
    </g>
    <g id="xtick_20">
     <g id="line2d_39">
      <g>
       <use xlink:href="#mcec3ad0d2d" x="391.416135" y="370.01476" style="stroke: #000000; stroke-width: 0.4"/>
      </g>
     </g>
     <g id="line2d_40">
      <g>
       <use xlink:href="#ma5e3d7d689" x="391.416135" y="3.00024" style="stroke: #000000; stroke-width: 0.4"/>
      </g>
     </g>
    </g>
    <g id="xtick_21">
     <g id="line2d_41">
      <g>
       <use xlink:href="#mcec3ad0d2d" x="410.933616" y="370.01476" style="stroke: #000000; stroke-width: 0.4"/>
      </g>
     </g>
     <g id="line2d_42">
      <g>
       <use xlink:href="#ma5e3d7d689" x="410.933616" y="3.00024" style="stroke: #000000; stroke-width: 0.4"/>
      </g>
     </g>
    </g>
    <g id="xtick_22">
     <g id="line2d_43">
      <g>
       <use xlink:href="#mcec3ad0d2d" x="430.451096" y="370.01476" style="stroke: #000000; stroke-width: 0.4"/>
      </g>
     </g>
     <g id="line2d_44">
      <g>
       <use xlink:href="#ma5e3d7d689" x="430.451096" y="3.00024" style="stroke: #000000; stroke-width: 0.4"/>
      </g>
     </g>
    </g>
    <g id="xtick_23">
     <g id="line2d_45">
      <g>
       <use xlink:href="#mcec3ad0d2d" x="449.968577" y="370.01476" style="stroke: #000000; stroke-width: 0.4"/>
      </g>
     </g>
     <g id="line2d_46">
      <g>
       <use xlink:href="#ma5e3d7d689" x="449.968577" y="3.00024" style="stroke: #000000; stroke-width: 0.4"/>
      </g>
     </g>
    </g>
    <g id="xtick_24">
     <g id="line2d_47">
      <g>
       <use xlink:href="#mcec3ad0d2d" x="489.003539" y="370.01476" style="stroke: #000000; stroke-width: 0.4"/>
      </g>
     </g>
     <g id="line2d_48">
      <g>
       <use xlink:href="#ma5e3d7d689" x="489.003539" y="3.00024" style="stroke: #000000; stroke-width: 0.4"/>
      </g>
     </g>
    </g>
    <g id="xtick_25">
     <g id="line2d_49">
      <g>
       <use xlink:href="#mcec3ad0d2d" x="508.52102" y="370.01476" style="stroke: #000000; stroke-width: 0.4"/>
      </g>
     </g>
     <g id="line2d_50">
      <g>
       <use xlink:href="#ma5e3d7d689" x="508.52102" y="3.00024" style="stroke: #000000; stroke-width: 0.4"/>
      </g>
     </g>
    </g>
    <g id="text_6">
     <!-- Voltage (V) -->
     <g transform="translate(249.410781 391.128041) scale(0.09 -0.09)">
      <defs>
       <path id="DejaVuSans-56" d="M 1831 0 
L 50 4666 
L 709 4666 
L 2188 738 
L 3669 4666 
L 4325 4666 
L 2547 0 
L 1831 0 
z
" transform="scale(0.015625)"/>
       <path id="DejaVuSans-6f" d="M 1959 3097 
Q 1497 3097 1228 2736 
Q 959 2375 959 1747 
Q 959 1119 1226 758 
Q 1494 397 1959 397 
Q 2419 397 2687 759 
Q 2956 1122 2956 1747 
Q 2956 2369 2687 2733 
Q 2419 3097 1959 3097 
z
M 1959 3584 
Q 2709 3584 3137 3096 
Q 3566 2609 3566 1747 
Q 3566 888 3137 398 
Q 2709 -91 1959 -91 
Q 1206 -91 779 398 
Q 353 888 353 1747 
Q 353 2609 779 3096 
Q 1206 3584 1959 3584 
z
" transform="scale(0.015625)"/>
       <path id="DejaVuSans-6c" d="M 603 4863 
L 1178 4863 
L 1178 0 
L 603 0 
L 603 4863 
z
" transform="scale(0.015625)"/>
       <path id="DejaVuSans-74" d="M 1172 4494 
L 1172 3500 
L 2356 3500 
L 2356 3053 
L 1172 3053 
L 1172 1153 
Q 1172 725 1289 603 
Q 1406 481 1766 481 
L 2356 481 
L 2356 0 
L 1766 0 
Q 1100 0 847 248 
Q 594 497 594 1153 
L 594 3053 
L 172 3053 
L 172 3500 
L 594 3500 
L 594 4494 
L 1172 4494 
z
" transform="scale(0.015625)"/>
       <path id="DejaVuSans-61" d="M 2194 1759 
Q 1497 1759 1228 1600 
Q 959 1441 959 1056 
Q 959 750 1161 570 
Q 1363 391 1709 391 
Q 2188 391 2477 730 
Q 2766 1069 2766 1631 
L 2766 1759 
L 2194 1759 
z
M 3341 1997 
L 3341 0 
L 2766 0 
L 2766 531 
Q 2569 213 2275 61 
Q 1981 -91 1556 -91 
Q 1019 -91 701 211 
Q 384 513 384 1019 
Q 384 1609 779 1909 
Q 1175 2209 1959 2209 
L 2766 2209 
L 2766 2266 
Q 2766 2663 2505 2880 
Q 2244 3097 1772 3097 
Q 1472 3097 1187 3025 
Q 903 2953 641 2809 
L 641 3341 
Q 956 3463 1253 3523 
Q 1550 3584 1831 3584 
Q 2591 3584 2966 3190 
Q 3341 2797 3341 1997 
z
" transform="scale(0.015625)"/>
       <path id="DejaVuSans-67" d="M 2906 1791 
Q 2906 2416 2648 2759 
Q 2391 3103 1925 3103 
Q 1463 3103 1205 2759 
Q 947 2416 947 1791 
Q 947 1169 1205 825 
Q 1463 481 1925 481 
Q 2391 481 2648 825 
Q 2906 1169 2906 1791 
z
M 3481 434 
Q 3481 -459 3084 -895 
Q 2688 -1331 1869 -1331 
Q 1566 -1331 1297 -1286 
Q 1028 -1241 775 -1147 
L 775 -588 
Q 1028 -725 1275 -790 
Q 1522 -856 1778 -856 
Q 2344 -856 2625 -561 
Q 2906 -266 2906 331 
L 2906 616 
Q 2728 306 2450 153 
Q 2172 0 1784 0 
Q 1141 0 747 490 
Q 353 981 353 1791 
Q 353 2603 747 3093 
Q 1141 3584 1784 3584 
Q 2172 3584 2450 3431 
Q 2728 3278 2906 2969 
L 2906 3500 
L 3481 3500 
L 3481 434 
z
" transform="scale(0.015625)"/>
       <path id="DejaVuSans-65" d="M 3597 1894 
L 3597 1613 
L 953 1613 
Q 991 1019 1311 708 
Q 1631 397 2203 397 
Q 2534 397 2845 478 
Q 3156 559 3463 722 
L 3463 178 
Q 3153 47 2828 -22 
Q 2503 -91 2169 -91 
Q 1331 -91 842 396 
Q 353 884 353 1716 
Q 353 2575 817 3079 
Q 1281 3584 2069 3584 
Q 2775 3584 3186 3129 
Q 3597 2675 3597 1894 
z
M 3022 2063 
Q 3016 2534 2758 2815 
Q 2500 3097 2075 3097 
Q 1594 3097 1305 2825 
Q 1016 2553 972 2059 
L 3022 2063 
z
" transform="scale(0.015625)"/>
       <path id="DejaVuSans-20" transform="scale(0.015625)"/>
       <path id="DejaVuSans-28" d="M 1984 4856 
Q 1566 4138 1362 3434 
Q 1159 2731 1159 2009 
Q 1159 1288 1364 580 
Q 1569 -128 1984 -844 
L 1484 -844 
Q 1016 -109 783 600 
Q 550 1309 550 2009 
Q 550 2706 781 3412 
Q 1013 4119 1484 4856 
L 1984 4856 
z
" transform="scale(0.015625)"/>
       <path id="DejaVuSans-29" d="M 513 4856 
L 1013 4856 
Q 1481 4119 1714 3412 
Q 1947 2706 1947 2009 
Q 1947 1309 1714 600 
Q 1481 -109 1013 -844 
L 513 -844 
Q 928 -128 1133 580 
Q 1338 1288 1338 2009 
Q 1338 2731 1133 3434 
Q 928 4138 513 4856 
z
" transform="scale(0.015625)"/>
      </defs>
      <use xlink:href="#DejaVuSans-56"/>
      <use xlink:href="#DejaVuSans-6f" transform="translate(60.658203 0)"/>
      <use xlink:href="#DejaVuSans-6c" transform="translate(121.839844 0)"/>
      <use xlink:href="#DejaVuSans-74" transform="translate(149.623047 0)"/>
      <use xlink:href="#DejaVuSans-61" transform="translate(188.832031 0)"/>
      <use xlink:href="#DejaVuSans-67" transform="translate(250.111328 0)"/>
      <use xlink:href="#DejaVuSans-65" transform="translate(313.587891 0)"/>
      <use xlink:href="#DejaVuSans-20" transform="translate(375.111328 0)"/>
      <use xlink:href="#DejaVuSans-28" transform="translate(406.898438 0)"/>
      <use xlink:href="#DejaVuSans-56" transform="translate(445.912109 0)"/>
      <use xlink:href="#DejaVuSans-29" transform="translate(514.320312 0)"/>
     </g>
    </g>
   </g>
   <g id="matplotlib.axis_2">
    <g id="ytick_1">
     <g id="line2d_51">
      <defs>
       <path id="med16d93294" d="M 0 0 
L 2 0 
" style="stroke: #000000; stroke-width: 0.4"/>
      </defs>
      <g>
       <use xlink:href="#med16d93294" x="30.34274" y="370.01476" style="stroke: #000000; stroke-width: 0.4"/>
      </g>
     </g>
     <g id="line2d_52">
      <defs>
       <path id="me3317eebfc" d="M 0 0 
L -2 0 
" style="stroke: #000000; stroke-width: 0.4"/>
      </defs>
      <g>
       <use xlink:href="#me3317eebfc" x="518.27976" y="370.01476" style="stroke: #000000; stroke-width: 0.4"/>
      </g>
     </g>
     <g id="text_7">
      <!-- 0.0 -->
      <g transform="translate(15.710553 372.674213) scale(0.07 -0.07)">
       <use xlink:href="#DejaVuSans-30"/>
       <use xlink:href="#DejaVuSans-2e" transform="translate(63.623047 0)"/>
       <use xlink:href="#DejaVuSans-30" transform="translate(95.410156 0)"/>
      </g>
     </g>
    </g>
    <g id="ytick_2">
     <g id="line2d_53">
      <g>
       <use xlink:href="#med16d93294" x="30.34274" y="311.292437" style="stroke: #000000; stroke-width: 0.4"/>
      </g>
     </g>
     <g id="line2d_54">
      <g>
       <use xlink:href="#me3317eebfc" x="518.27976" y="311.292437" style="stroke: #000000; stroke-width: 0.4"/>
      </g>
     </g>
     <g id="text_8">
      <!-- 0.2 -->
      <g transform="translate(15.710553 313.95189) scale(0.07 -0.07)">
       <use xlink:href="#DejaVuSans-30"/>
       <use xlink:href="#DejaVuSans-2e" transform="translate(63.623047 0)"/>
       <use xlink:href="#DejaVuSans-32" transform="translate(95.410156 0)"/>
      </g>
     </g>
    </g>
    <g id="ytick_3">
     <g id="line2d_55">
      <g>
       <use xlink:href="#med16d93294" x="30.34274" y="252.570114" style="stroke: #000000; stroke-width: 0.4"/>
      </g>
     </g>
     <g id="line2d_56">
      <g>
       <use xlink:href="#me3317eebfc" x="518.27976" y="252.570114" style="stroke: #000000; stroke-width: 0.4"/>
      </g>
     </g>
     <g id="text_9">
      <!-- 0.4 -->
      <g transform="translate(15.710553 255.229567) scale(0.07 -0.07)">
       <defs>
        <path id="DejaVuSans-34" d="M 2419 4116 
L 825 1625 
L 2419 1625 
L 2419 4116 
z
M 2253 4666 
L 3047 4666 
L 3047 1625 
L 3713 1625 
L 3713 1100 
L 3047 1100 
L 3047 0 
L 2419 0 
L 2419 1100 
L 313 1100 
L 313 1709 
L 2253 4666 
z
" transform="scale(0.015625)"/>
       </defs>
       <use xlink:href="#DejaVuSans-30"/>
       <use xlink:href="#DejaVuSans-2e" transform="translate(63.623047 0)"/>
       <use xlink:href="#DejaVuSans-34" transform="translate(95.410156 0)"/>
      </g>
     </g>
    </g>
    <g id="ytick_4">
     <g id="line2d_57">
      <g>
       <use xlink:href="#med16d93294" x="30.34274" y="193.84779" style="stroke: #000000; stroke-width: 0.4"/>
      </g>
     </g>
     <g id="line2d_58">
      <g>
       <use xlink:href="#me3317eebfc" x="518.27976" y="193.84779" style="stroke: #000000; stroke-width: 0.4"/>
      </g>
     </g>
     <g id="text_10">
      <!-- 0.6 -->
      <g transform="translate(15.710553 196.507244) scale(0.07 -0.07)">
       <defs>
        <path id="DejaVuSans-36" d="M 2113 2584 
Q 1688 2584 1439 2293 
Q 1191 2003 1191 1497 
Q 1191 994 1439 701 
Q 1688 409 2113 409 
Q 2538 409 2786 701 
Q 3034 994 3034 1497 
Q 3034 2003 2786 2293 
Q 2538 2584 2113 2584 
z
M 3366 4563 
L 3366 3988 
Q 3128 4100 2886 4159 
Q 2644 4219 2406 4219 
Q 1781 4219 1451 3797 
Q 1122 3375 1075 2522 
Q 1259 2794 1537 2939 
Q 1816 3084 2150 3084 
Q 2853 3084 3261 2657 
Q 3669 2231 3669 1497 
Q 3669 778 3244 343 
Q 2819 -91 2113 -91 
Q 1303 -91 875 529 
Q 447 1150 447 2328 
Q 447 3434 972 4092 
Q 1497 4750 2381 4750 
Q 2619 4750 2861 4703 
Q 3103 4656 3366 4563 
z
" transform="scale(0.015625)"/>
       </defs>
       <use xlink:href="#DejaVuSans-30"/>
       <use xlink:href="#DejaVuSans-2e" transform="translate(63.623047 0)"/>
       <use xlink:href="#DejaVuSans-36" transform="translate(95.410156 0)"/>
      </g>
     </g>
    </g>
    <g id="ytick_5">
     <g id="line2d_59">
      <g>
       <use xlink:href="#med16d93294" x="30.34274" y="135.125467" style="stroke: #000000; stroke-width: 0.4"/>
      </g>
     </g>
     <g id="line2d_60">
      <g>
       <use xlink:href="#me3317eebfc" x="518.27976" y="135.125467" style="stroke: #000000; stroke-width: 0.4"/>
      </g>
     </g>
     <g id="text_11">
      <!-- 0.8 -->
      <g transform="translate(15.710553 137.78492) scale(0.07 -0.07)">
       <use xlink:href="#DejaVuSans-30"/>
       <use xlink:href="#DejaVuSans-2e" transform="translate(63.623047 0)"/>
       <use xlink:href="#DejaVuSans-38" transform="translate(95.410156 0)"/>
      </g>
     </g>
    </g>
    <g id="ytick_6">
     <g id="line2d_61">
      <g>
       <use xlink:href="#med16d93294" x="30.34274" y="76.403144" style="stroke: #000000; stroke-width: 0.4"/>
      </g>
     </g>
     <g id="line2d_62">
      <g>
       <use xlink:href="#me3317eebfc" x="518.27976" y="76.403144" style="stroke: #000000; stroke-width: 0.4"/>
      </g>
     </g>
     <g id="text_12">
      <!-- 1.0 -->
      <g transform="translate(15.710553 79.062597) scale(0.07 -0.07)">
       <use xlink:href="#DejaVuSans-31"/>
       <use xlink:href="#DejaVuSans-2e" transform="translate(63.623047 0)"/>
       <use xlink:href="#DejaVuSans-30" transform="translate(95.410156 0)"/>
      </g>
     </g>
    </g>
    <g id="ytick_7">
     <g id="line2d_63">
      <g>
       <use xlink:href="#med16d93294" x="30.34274" y="17.680821" style="stroke: #000000; stroke-width: 0.4"/>
      </g>
     </g>
     <g id="line2d_64">
      <g>
       <use xlink:href="#me3317eebfc" x="518.27976" y="17.680821" style="stroke: #000000; stroke-width: 0.4"/>
      </g>
     </g>
     <g id="text_13">
      <!-- 1.2 -->
      <g transform="translate(15.710553 20.340274) scale(0.07 -0.07)">
       <use xlink:href="#DejaVuSans-31"/>
       <use xlink:href="#DejaVuSans-2e" transform="translate(63.623047 0)"/>
       <use xlink:href="#DejaVuSans-32" transform="translate(95.410156 0)"/>
      </g>
     </g>
    </g>
    <g id="ytick_8">
     <g id="line2d_65">
      <defs>
       <path id="m196ea4d72b" d="M 0 0 
L 1.25 0 
" style="stroke: #000000; stroke-width: 0.4"/>
      </defs>
      <g>
       <use xlink:href="#m196ea4d72b" x="30.34274" y="355.334179" style="stroke: #000000; stroke-width: 0.4"/>
      </g>
     </g>
     <g id="line2d_66">
      <defs>
       <path id="m2023ae3af6" d="M 0 0 
L -1.25 0 
" style="stroke: #000000; stroke-width: 0.4"/>
      </defs>
      <g>
       <use xlink:href="#m2023ae3af6" x="518.27976" y="355.334179" style="stroke: #000000; stroke-width: 0.4"/>
      </g>
     </g>
    </g>
    <g id="ytick_9">
     <g id="line2d_67">
      <g>
       <use xlink:href="#m196ea4d72b" x="30.34274" y="340.653598" style="stroke: #000000; stroke-width: 0.4"/>
      </g>
     </g>
     <g id="line2d_68">
      <g>
       <use xlink:href="#m2023ae3af6" x="518.27976" y="340.653598" style="stroke: #000000; stroke-width: 0.4"/>
      </g>
     </g>
    </g>
    <g id="ytick_10">
     <g id="line2d_69">
      <g>
       <use xlink:href="#m196ea4d72b" x="30.34274" y="325.973018" style="stroke: #000000; stroke-width: 0.4"/>
      </g>
     </g>
     <g id="line2d_70">
      <g>
       <use xlink:href="#m2023ae3af6" x="518.27976" y="325.973018" style="stroke: #000000; stroke-width: 0.4"/>
      </g>
     </g>
    </g>
    <g id="ytick_11">
     <g id="line2d_71">
      <g>
       <use xlink:href="#m196ea4d72b" x="30.34274" y="296.611856" style="stroke: #000000; stroke-width: 0.4"/>
      </g>
     </g>
     <g id="line2d_72">
      <g>
       <use xlink:href="#m2023ae3af6" x="518.27976" y="296.611856" style="stroke: #000000; stroke-width: 0.4"/>
      </g>
     </g>
    </g>
    <g id="ytick_12">
     <g id="line2d_73">
      <g>
       <use xlink:href="#m196ea4d72b" x="30.34274" y="281.931275" style="stroke: #000000; stroke-width: 0.4"/>
      </g>
     </g>
     <g id="line2d_74">
      <g>
       <use xlink:href="#m2023ae3af6" x="518.27976" y="281.931275" style="stroke: #000000; stroke-width: 0.4"/>
      </g>
     </g>
    </g>
    <g id="ytick_13">
     <g id="line2d_75">
      <g>
       <use xlink:href="#m196ea4d72b" x="30.34274" y="267.250694" style="stroke: #000000; stroke-width: 0.4"/>
      </g>
     </g>
     <g id="line2d_76">
      <g>
       <use xlink:href="#m2023ae3af6" x="518.27976" y="267.250694" style="stroke: #000000; stroke-width: 0.4"/>
      </g>
     </g>
    </g>
    <g id="ytick_14">
     <g id="line2d_77">
      <g>
       <use xlink:href="#m196ea4d72b" x="30.34274" y="237.889533" style="stroke: #000000; stroke-width: 0.4"/>
      </g>
     </g>
     <g id="line2d_78">
      <g>
       <use xlink:href="#m2023ae3af6" x="518.27976" y="237.889533" style="stroke: #000000; stroke-width: 0.4"/>
      </g>
     </g>
    </g>
    <g id="ytick_15">
     <g id="line2d_79">
      <g>
       <use xlink:href="#m196ea4d72b" x="30.34274" y="223.208952" style="stroke: #000000; stroke-width: 0.4"/>
      </g>
     </g>
     <g id="line2d_80">
      <g>
       <use xlink:href="#m2023ae3af6" x="518.27976" y="223.208952" style="stroke: #000000; stroke-width: 0.4"/>
      </g>
     </g>
    </g>
    <g id="ytick_16">
     <g id="line2d_81">
      <g>
       <use xlink:href="#m196ea4d72b" x="30.34274" y="208.528371" style="stroke: #000000; stroke-width: 0.4"/>
      </g>
     </g>
     <g id="line2d_82">
      <g>
       <use xlink:href="#m2023ae3af6" x="518.27976" y="208.528371" style="stroke: #000000; stroke-width: 0.4"/>
      </g>
     </g>
    </g>
    <g id="ytick_17">
     <g id="line2d_83">
      <g>
       <use xlink:href="#m196ea4d72b" x="30.34274" y="179.16721" style="stroke: #000000; stroke-width: 0.4"/>
      </g>
     </g>
     <g id="line2d_84">
      <g>
       <use xlink:href="#m2023ae3af6" x="518.27976" y="179.16721" style="stroke: #000000; stroke-width: 0.4"/>
      </g>
     </g>
    </g>
    <g id="ytick_18">
     <g id="line2d_85">
      <g>
       <use xlink:href="#m196ea4d72b" x="30.34274" y="164.486629" style="stroke: #000000; stroke-width: 0.4"/>
      </g>
     </g>
     <g id="line2d_86">
      <g>
       <use xlink:href="#m2023ae3af6" x="518.27976" y="164.486629" style="stroke: #000000; stroke-width: 0.4"/>
      </g>
     </g>
    </g>
    <g id="ytick_19">
     <g id="line2d_87">
      <g>
       <use xlink:href="#m196ea4d72b" x="30.34274" y="149.806048" style="stroke: #000000; stroke-width: 0.4"/>
      </g>
     </g>
     <g id="line2d_88">
      <g>
       <use xlink:href="#m2023ae3af6" x="518.27976" y="149.806048" style="stroke: #000000; stroke-width: 0.4"/>
      </g>
     </g>
    </g>
    <g id="ytick_20">
     <g id="line2d_89">
      <g>
       <use xlink:href="#m196ea4d72b" x="30.34274" y="120.444886" style="stroke: #000000; stroke-width: 0.4"/>
      </g>
     </g>
     <g id="line2d_90">
      <g>
       <use xlink:href="#m2023ae3af6" x="518.27976" y="120.444886" style="stroke: #000000; stroke-width: 0.4"/>
      </g>
     </g>
    </g>
    <g id="ytick_21">
     <g id="line2d_91">
      <g>
       <use xlink:href="#m196ea4d72b" x="30.34274" y="105.764306" style="stroke: #000000; stroke-width: 0.4"/>
      </g>
     </g>
     <g id="line2d_92">
      <g>
       <use xlink:href="#m2023ae3af6" x="518.27976" y="105.764306" style="stroke: #000000; stroke-width: 0.4"/>
      </g>
     </g>
    </g>
    <g id="ytick_22">
     <g id="line2d_93">
      <g>
       <use xlink:href="#m196ea4d72b" x="30.34274" y="91.083725" style="stroke: #000000; stroke-width: 0.4"/>
      </g>
     </g>
     <g id="line2d_94">
      <g>
       <use xlink:href="#m2023ae3af6" x="518.27976" y="91.083725" style="stroke: #000000; stroke-width: 0.4"/>
      </g>
     </g>
    </g>
    <g id="ytick_23">
     <g id="line2d_95">
      <g>
       <use xlink:href="#m196ea4d72b" x="30.34274" y="61.722563" style="stroke: #000000; stroke-width: 0.4"/>
      </g>
     </g>
     <g id="line2d_96">
      <g>
       <use xlink:href="#m2023ae3af6" x="518.27976" y="61.722563" style="stroke: #000000; stroke-width: 0.4"/>
      </g>
     </g>
    </g>
    <g id="ytick_24">
     <g id="line2d_97">
      <g>
       <use xlink:href="#m196ea4d72b" x="30.34274" y="47.041982" style="stroke: #000000; stroke-width: 0.4"/>
      </g>
     </g>
     <g id="line2d_98">
      <g>
       <use xlink:href="#m2023ae3af6" x="518.27976" y="47.041982" style="stroke: #000000; stroke-width: 0.4"/>
      </g>
     </g>
    </g>
    <g id="ytick_25">
     <g id="line2d_99">
      <g>
       <use xlink:href="#m196ea4d72b" x="30.34274" y="32.361402" style="stroke: #000000; stroke-width: 0.4"/>
      </g>
     </g>
     <g id="line2d_100">
      <g>
       <use xlink:href="#m2023ae3af6" x="518.27976" y="32.361402" style="stroke: #000000; stroke-width: 0.4"/>
      </g>
     </g>
    </g>
    <g id="ytick_26">
     <g id="line2d_101">
      <g>
       <use xlink:href="#m196ea4d72b" x="30.34274" y="3.00024" style="stroke: #000000; stroke-width: 0.4"/>
      </g>
     </g>
     <g id="line2d_102">
      <g>
       <use xlink:href="#m2023ae3af6" x="518.27976" y="3.00024" style="stroke: #000000; stroke-width: 0.4"/>
      </g>
     </g>
    </g>
    <g id="text_14">
     <!-- Current (A) -->
     <g transform="translate(9.838834 211.42625) rotate(-90) scale(0.09 -0.09)">
      <defs>
       <path id="DejaVuSans-43" d="M 4122 4306 
L 4122 3641 
Q 3803 3938 3442 4084 
Q 3081 4231 2675 4231 
Q 1875 4231 1450 3742 
Q 1025 3253 1025 2328 
Q 1025 1406 1450 917 
Q 1875 428 2675 428 
Q 3081 428 3442 575 
Q 3803 722 4122 1019 
L 4122 359 
Q 3791 134 3420 21 
Q 3050 -91 2638 -91 
Q 1578 -91 968 557 
Q 359 1206 359 2328 
Q 359 3453 968 4101 
Q 1578 4750 2638 4750 
Q 3056 4750 3426 4639 
Q 3797 4528 4122 4306 
z
" transform="scale(0.015625)"/>
       <path id="DejaVuSans-75" d="M 544 1381 
L 544 3500 
L 1119 3500 
L 1119 1403 
Q 1119 906 1312 657 
Q 1506 409 1894 409 
Q 2359 409 2629 706 
Q 2900 1003 2900 1516 
L 2900 3500 
L 3475 3500 
L 3475 0 
L 2900 0 
L 2900 538 
Q 2691 219 2414 64 
Q 2138 -91 1772 -91 
Q 1169 -91 856 284 
Q 544 659 544 1381 
z
M 1991 3584 
L 1991 3584 
z
" transform="scale(0.015625)"/>
       <path id="DejaVuSans-72" d="M 2631 2963 
Q 2534 3019 2420 3045 
Q 2306 3072 2169 3072 
Q 1681 3072 1420 2755 
Q 1159 2438 1159 1844 
L 1159 0 
L 581 0 
L 581 3500 
L 1159 3500 
L 1159 2956 
Q 1341 3275 1631 3429 
Q 1922 3584 2338 3584 
Q 2397 3584 2469 3576 
Q 2541 3569 2628 3553 
L 2631 2963 
z
" transform="scale(0.015625)"/>
       <path id="DejaVuSans-6e" d="M 3513 2113 
L 3513 0 
L 2938 0 
L 2938 2094 
Q 2938 2591 2744 2837 
Q 2550 3084 2163 3084 
Q 1697 3084 1428 2787 
Q 1159 2491 1159 1978 
L 1159 0 
L 581 0 
L 581 3500 
L 1159 3500 
L 1159 2956 
Q 1366 3272 1645 3428 
Q 1925 3584 2291 3584 
Q 2894 3584 3203 3211 
Q 3513 2838 3513 2113 
z
" transform="scale(0.015625)"/>
       <path id="DejaVuSans-41" d="M 2188 4044 
L 1331 1722 
L 3047 1722 
L 2188 4044 
z
M 1831 4666 
L 2547 4666 
L 4325 0 
L 3669 0 
L 3244 1197 
L 1141 1197 
L 716 0 
L 50 0 
L 1831 4666 
z
" transform="scale(0.015625)"/>
      </defs>
      <use xlink:href="#DejaVuSans-43"/>
      <use xlink:href="#DejaVuSans-75" transform="translate(69.824219 0)"/>
      <use xlink:href="#DejaVuSans-72" transform="translate(133.203125 0)"/>
      <use xlink:href="#DejaVuSans-72" transform="translate(172.566406 0)"/>
      <use xlink:href="#DejaVuSans-65" transform="translate(211.429688 0)"/>
      <use xlink:href="#DejaVuSans-6e" transform="translate(272.953125 0)"/>
      <use xlink:href="#DejaVuSans-74" transform="translate(336.332031 0)"/>
      <use xlink:href="#DejaVuSans-20" transform="translate(375.541016 0)"/>
      <use xlink:href="#DejaVuSans-28" transform="translate(407.328125 0)"/>
      <use xlink:href="#DejaVuSans-41" transform="translate(446.341797 0)"/>
      <use xlink:href="#DejaVuSans-29" transform="translate(514.75 0)"/>
     </g>
    </g>
   </g>
   <g id="line2d_103">
    <path d="M 30.34274 369.318639 
L 49.860221 368.807632 
L 64.498331 368.209165 
L 76.696757 367.506112 
L 86.455497 366.765582 
L 96.214238 365.823299 
L 105.972978 364.629982 
L 113.292033 363.535037 
L 120.611089 362.236785 
L 127.930144 360.702488 
L 135.249199 358.895563 
L 142.568255 356.775578 
L 147.447625 355.166693 
L 152.326995 353.385235 
L 157.206365 351.416738 
L 162.085735 349.246282 
L 166.965106 346.858644 
L 171.844476 344.238479 
L 176.723846 341.370542 
L 181.603216 338.239951 
L 186.482586 334.832488 
L 191.361957 331.134936 
L 196.241327 327.135451 
L 201.120697 322.823955 
L 206.000067 318.19255 
L 210.879437 313.235928 
L 215.758808 307.951772 
L 220.638178 302.341115 
L 225.517548 296.408661 
L 230.396918 290.163022 
L 235.276288 283.616871 
L 240.155659 276.786978 
L 247.474714 266.056667 
L 254.793769 254.821555 
L 262.112824 243.184005 
L 271.871565 227.240755 
L 296.268416 187.046169 
L 306.027156 171.546872 
L 313.346212 160.347898 
L 320.665267 149.589287 
L 327.984322 139.320209 
L 335.303378 129.573011 
L 340.182748 123.373767 
L 345.062118 117.415914 
L 349.941488 111.698721 
L 354.820858 106.219403 
L 359.700228 100.973425 
L 364.579599 95.954802 
L 369.458969 91.15637 
L 374.338339 86.570051 
L 381.657394 80.068975 
L 388.97645 73.993922 
L 396.295505 68.312379 
L 403.61456 62.991768 
L 410.933616 58.000232 
L 418.252671 53.307209 
L 425.571726 48.883812 
L 432.890781 44.703067 
L 440.209837 40.740032 
L 449.968577 35.755402 
L 459.727318 31.068742 
L 469.486058 26.637492 
L 479.244798 22.424682 
L 491.443224 17.417657 
L 503.641649 12.649745 
L 518.27976 7.183401 
L 518.27976 7.183401 
" clip-path="url(#pbd8023d975)" style="fill: none; stroke: #000000; stroke-width: 0.75; stroke-linecap: square"/>
   </g>
   <g id="line2d_104">
    <path d="M 30.34274 369.975442 
L 71.817387 369.797817 
L 93.774553 369.498675 
L 108.412663 369.107828 
L 120.611089 368.576268 
L 130.369829 367.946072 
L 140.12857 367.055382 
L 147.447625 366.157647 
L 154.76668 365.003989 
L 159.64605 364.060429 
L 164.52542 362.950664 
L 169.404791 361.648403 
L 174.284161 360.12406 
L 179.163531 358.344619 
L 184.042901 356.273587 
L 188.922271 353.871095 
L 193.801642 351.094175 
L 198.681012 347.897285 
L 203.560382 344.233124 
L 208.439752 340.053802 
L 213.319123 335.312397 
L 218.198493 329.964928 
L 223.077863 323.972722 
L 227.957233 317.305115 
L 232.836603 309.942351 
L 237.715974 301.878486 
L 242.595344 293.124039 
L 247.474714 283.708084 
L 252.354084 273.679457 
L 257.233454 263.106808 
L 262.112824 252.077311 
L 269.43188 234.905195 
L 291.389046 182.622405 
L 296.268416 171.586584 
L 301.147786 160.96709 
L 306.027156 150.828372 
L 310.906527 141.217032 
L 315.785897 132.162505 
L 320.665267 123.67856 
L 325.544637 115.765354 
L 330.424007 108.41176 
L 335.303378 101.597773 
L 340.182748 95.2968 
L 345.062118 89.477727 
L 349.941488 84.106709 
L 354.820858 79.148636 
L 359.700228 74.568303 
L 364.579599 70.331294 
L 369.458969 66.404619 
L 374.338339 62.75715 
L 379.217709 59.359879 
L 384.097079 56.186054 
L 388.97645 53.211214 
L 396.295505 49.074056 
L 403.61456 45.269174 
L 410.933616 41.740563 
L 418.252671 38.441065 
L 428.011411 34.330894 
L 437.770152 30.48287 
L 449.968577 25.95286 
L 462.167003 21.654148 
L 476.805113 16.713348 
L 496.322594 10.374258 
L 518.27976 3.45402 
L 518.27976 3.45402 
" clip-path="url(#pbd8023d975)" style="fill: none; stroke: #dc241f; stroke-width: 0.75; stroke-linecap: square"/>
   </g>
   <g id="line2d_105">
    <path d="M 30.34274 370.012545 
L 103.533293 369.904559 
L 125.490459 369.682925 
L 140.12857 369.334417 
L 149.88731 368.925065 
L 159.64605 368.280318 
L 166.965106 367.567517 
L 174.284161 366.575379 
L 179.163531 365.709544 
L 184.042901 364.63665 
L 188.922271 363.311036 
L 193.801642 361.678512 
L 198.681012 359.675446 
L 203.560382 357.228079 
L 206.000067 355.811891 
L 208.439752 354.252285 
L 210.879437 352.537198 
L 213.319123 350.654035 
L 215.758808 348.589742 
L 218.198493 346.330911 
L 220.638178 343.863911 
L 223.077863 341.175054 
L 225.517548 338.250788 
L 227.957233 335.077933 
L 230.396918 331.643949 
L 232.836603 327.937232 
L 235.276288 323.947452 
L 237.715974 319.665905 
L 240.155659 315.085888 
L 242.595344 310.203076 
L 245.035029 305.015897 
L 247.474714 299.525875 
L 249.914399 293.737942 
L 254.793769 281.306505 
L 259.673139 267.836486 
L 264.55251 253.503681 
L 271.871565 230.900955 
L 284.06999 192.616874 
L 288.949361 177.902964 
L 293.828731 163.885072 
L 298.708101 150.730884 
L 303.587471 138.551455 
L 308.466841 127.403629 
L 313.346212 117.297017 
L 315.785897 112.626569 
L 318.225582 108.203492 
L 320.665267 104.020055 
L 323.104952 100.067418 
L 325.544637 96.335901 
L 327.984322 92.815233 
L 330.424007 89.494758 
L 335.303378 83.410966 
L 340.182748 77.998089 
L 345.062118 73.172789 
L 349.941488 68.857307 
L 354.820858 64.980833 
L 359.700228 61.480086 
L 364.579599 58.29932 
L 369.458969 55.389992 
L 374.338339 52.7102 
L 379.217709 50.224037 
L 386.536765 46.792195 
L 393.85582 43.643891 
L 401.174875 40.713655 
L 410.933616 37.060268 
L 423.132041 32.781604 
L 437.770152 27.921221 
L 457.287632 21.711224 
L 486.563854 12.678862 
L 518.27976 3.049018 
L 518.27976 3.049018 
" clip-path="url(#pbd8023d975)" style="fill: none; stroke: #0019a8; stroke-width: 0.75; stroke-linecap: square"/>
   </g>
   <g id="line2d_106">
    <path d="M 30.34274 370.014753 
L 154.76668 369.913444 
L 171.844476 369.677146 
L 181.603216 369.350635 
L 188.922271 368.917785 
L 196.241327 368.212063 
L 201.120697 367.51212 
L 206.000067 366.549889 
L 210.879437 365.232324 
L 213.319123 364.403297 
L 215.758808 363.436727 
L 218.198493 362.311487 
L 220.638178 361.003717 
L 223.077863 359.486636 
L 225.517548 357.730401 
L 227.957233 355.702046 
L 230.396918 353.365516 
L 232.836603 350.681861 
L 235.276288 347.609615 
L 237.715974 344.10542 
L 240.155659 340.124946 
L 242.595344 335.624156 
L 245.035029 330.560934 
L 247.474714 324.897103 
L 249.914399 318.600793 
L 252.354084 311.649079 
L 254.793769 304.030751 
L 257.233454 295.749013 
L 259.673139 286.823846 
L 262.112824 277.293739 
L 266.992195 256.668807 
L 271.871565 234.552004 
L 281.630305 189.497425 
L 286.509675 168.408702 
L 288.949361 158.550456 
L 291.389046 149.230531 
L 293.828731 140.486925 
L 296.268416 132.340518 
L 298.708101 124.796858 
L 301.147786 117.848439 
L 303.587471 111.477178 
L 306.027156 105.656913 
L 308.466841 100.35572 
L 310.906527 95.537985 
L 313.346212 91.166141 
L 315.785897 87.202082 
L 318.225582 83.608257 
L 320.665267 80.348475 
L 323.104952 77.388465 
L 325.544637 74.696229 
L 327.984322 72.242238 
L 330.424007 69.999499 
L 332.863692 67.943536 
L 335.303378 66.052301 
L 340.182748 62.687152 
L 345.062118 59.77072 
L 349.941488 57.198443 
L 354.820858 54.889188 
L 359.700228 52.780478 
L 367.019284 49.891918 
L 374.338339 47.233063 
L 384.097079 43.915524 
L 398.73519 39.214592 
L 420.692356 32.438404 
L 469.486058 17.687074 
L 518.27976 3.000802 
L 518.27976 3.000802 
" clip-path="url(#pbd8023d975)" style="fill: none; stroke: #9b0058; stroke-width: 0.75; stroke-linecap: square"/>
   </g>
   <g id="line2d_107">
    <path d="M 30.34274 370.01476 
L 198.681012 369.929795 
L 208.439752 369.762467 
L 215.758808 369.448788 
L 220.638178 369.048995 
L 225.517548 368.37306 
L 227.957233 367.877756 
L 230.396918 367.236397 
L 232.836603 366.407465 
L 235.276288 365.338462 
L 237.715974 363.963479 
L 240.155659 362.200533 
L 242.595344 359.948846 
L 245.035029 357.086425 
L 247.474714 353.468537 
L 249.914399 348.928002 
L 252.354084 343.278581 
L 254.793769 336.323068 
L 257.233454 327.867742 
L 259.673139 317.744341 
L 262.112824 305.8393 
L 264.55251 292.127414 
L 266.992195 276.703767 
L 269.43188 259.804778 
L 274.31125 223.208952 
L 279.19062 186.42607 
L 281.630305 169.284866 
L 284.06999 153.510924 
L 286.509675 139.337264 
L 288.949361 126.861504 
L 291.389046 116.067405 
L 293.828731 106.855557 
L 296.268416 99.074874 
L 298.708101 92.549553 
L 301.147786 87.099233 
L 303.587471 82.552284 
L 306.027156 78.753369 
L 308.466841 75.566773 
L 310.906527 72.876943 
L 313.346212 70.587354 
L 315.785897 68.618525 
L 318.225582 66.905716 
L 320.665267 65.396628 
L 323.104952 64.049275 
L 327.984322 61.712416 
L 332.863692 59.701012 
L 340.182748 57.040104 
L 349.941488 53.829467 
L 367.019284 48.54683 
L 415.812986 33.829902 
L 518.27976 3.00024 
L 518.27976 3.00024 
" clip-path="url(#pbd8023d975)" style="fill: none; stroke: #b26300; stroke-width: 0.75; stroke-linecap: square"/>
   </g>
   <g id="line2d_108">
    <path d="M 30.34274 370.01476 
L 235.276288 369.934561 
L 240.155659 369.787033 
L 245.035029 369.372204 
L 247.474714 368.938432 
L 249.914399 368.21604 
L 252.354084 367.017776 
L 254.793769 365.041485 
L 257.233454 361.809625 
L 259.673139 356.592754 
L 262.112824 348.33846 
L 264.55251 335.671456 
L 266.992195 317.09949 
L 269.43188 291.58925 
L 271.871565 259.484646 
L 276.750935 186.839731 
L 279.19062 154.438875 
L 281.630305 128.412404 
L 284.06999 109.126852 
L 286.509675 95.609327 
L 288.949361 86.435601 
L 291.389046 80.282989 
L 293.828731 76.130321 
L 296.268416 73.262106 
L 298.708101 71.203886 
L 301.147786 69.650977 
L 303.587471 68.411362 
L 308.466841 66.438768 
L 313.346212 64.778345 
L 323.104952 61.74039 
L 369.458969 47.776014 
L 518.27976 3.00024 
L 518.27976 3.00024 
" clip-path="url(#pbd8023d975)" style="fill: none; stroke: #838d93; stroke-width: 0.75; stroke-linecap: square"/>
   </g>
   <g id="patch_3">
    <path d="M 30.34274 370.01476 
L 30.34274 3.00024 
" style="fill: none; stroke: #000000; stroke-width: 0.4; stroke-linejoin: miter; stroke-linecap: square"/>
   </g>
   <g id="patch_4">
    <path d="M 518.27976 370.01476 
L 518.27976 3.00024 
" style="fill: none; stroke: #000000; stroke-width: 0.4; stroke-linejoin: miter; stroke-linecap: square"/>
   </g>
   <g id="patch_5">
    <path d="M 30.34274 370.01476 
L 518.27976 370.01476 
" style="fill: none; stroke: #000000; stroke-width: 0.4; stroke-linejoin: miter; stroke-linecap: square"/>
   </g>
   <g id="patch_6">
    <path d="M 30.34274 3.00024 
L 518.27976 3.00024 
" style="fill: none; stroke: #000000; stroke-width: 0.4; stroke-linejoin: miter; stroke-linecap: square"/>
   </g>
   <g id="legend_1">
    <g id="text_15">
     <!-- Order -->
     <g transform="translate(43.176256 14.619146) scale(0.07 -0.07)">
      <defs>
       <path id="DejaVuSans-4f" d="M 2522 4238 
Q 1834 4238 1429 3725 
Q 1025 3213 1025 2328 
Q 1025 1447 1429 934 
Q 1834 422 2522 422 
Q 3209 422 3611 934 
Q 4013 1447 4013 2328 
Q 4013 3213 3611 3725 
Q 3209 4238 2522 4238 
z
M 2522 4750 
Q 3503 4750 4090 4092 
Q 4678 3434 4678 2328 
Q 4678 1225 4090 567 
Q 3503 -91 2522 -91 
Q 1538 -91 948 565 
Q 359 1222 359 2328 
Q 359 3434 948 4092 
Q 1538 4750 2522 4750 
z
" transform="scale(0.015625)"/>
       <path id="DejaVuSans-64" d="M 2906 2969 
L 2906 4863 
L 3481 4863 
L 3481 0 
L 2906 0 
L 2906 525 
Q 2725 213 2448 61 
Q 2172 -91 1784 -91 
Q 1150 -91 751 415 
Q 353 922 353 1747 
Q 353 2572 751 3078 
Q 1150 3584 1784 3584 
Q 2172 3584 2448 3432 
Q 2725 3281 2906 2969 
z
M 947 1747 
Q 947 1113 1208 752 
Q 1469 391 1925 391 
Q 2381 391 2643 752 
Q 2906 1113 2906 1747 
Q 2906 2381 2643 2742 
Q 2381 3103 1925 3103 
Q 1469 3103 1208 2742 
Q 947 2381 947 1747 
z
" transform="scale(0.015625)"/>
      </defs>
      <use xlink:href="#DejaVuSans-4f"/>
      <use xlink:href="#DejaVuSans-72" transform="translate(78.710938 0)"/>
      <use xlink:href="#DejaVuSans-64" transform="translate(118.074219 0)"/>
      <use xlink:href="#DejaVuSans-65" transform="translate(181.550781 0)"/>
      <use xlink:href="#DejaVuSans-72" transform="translate(243.074219 0)"/>
     </g>
    </g>
    <g id="line2d_109">
     <path d="M 36.64274 22.443834 
L 43.64274 22.443834 
L 50.64274 22.443834 
" style="fill: none; stroke: #000000; stroke-width: 0.75; stroke-linecap: square"/>
    </g>
    <g id="text_16">
     <!-- 10 -->
     <g transform="translate(56.24274 24.893834) scale(0.07 -0.07)">
      <use xlink:href="#DejaVuSans-31"/>
      <use xlink:href="#DejaVuSans-30" transform="translate(63.623047 0)"/>
     </g>
    </g>
    <g id="line2d_110">
     <path d="M 36.64274 32.718521 
L 43.64274 32.718521 
L 50.64274 32.718521 
" style="fill: none; stroke: #dc241f; stroke-width: 0.75; stroke-linecap: square"/>
    </g>
    <g id="text_17">
     <!-- 15 -->
     <g transform="translate(56.24274 35.168521) scale(0.07 -0.07)">
      <defs>
       <path id="DejaVuSans-35" d="M 691 4666 
L 3169 4666 
L 3169 4134 
L 1269 4134 
L 1269 2991 
Q 1406 3038 1543 3061 
Q 1681 3084 1819 3084 
Q 2600 3084 3056 2656 
Q 3513 2228 3513 1497 
Q 3513 744 3044 326 
Q 2575 -91 1722 -91 
Q 1428 -91 1123 -41 
Q 819 9 494 109 
L 494 744 
Q 775 591 1075 516 
Q 1375 441 1709 441 
Q 2250 441 2565 725 
Q 2881 1009 2881 1497 
Q 2881 1984 2565 2268 
Q 2250 2553 1709 2553 
Q 1456 2553 1204 2497 
Q 953 2441 691 2322 
L 691 4666 
z
" transform="scale(0.015625)"/>
      </defs>
      <use xlink:href="#DejaVuSans-31"/>
      <use xlink:href="#DejaVuSans-35" transform="translate(63.623047 0)"/>
     </g>
    </g>
    <g id="line2d_111">
     <path d="M 36.64274 42.993209 
L 43.64274 42.993209 
L 50.64274 42.993209 
" style="fill: none; stroke: #0019a8; stroke-width: 0.75; stroke-linecap: square"/>
    </g>
    <g id="text_18">
     <!-- 20 -->
     <g transform="translate(56.24274 45.443209) scale(0.07 -0.07)">
      <use xlink:href="#DejaVuSans-32"/>
      <use xlink:href="#DejaVuSans-30" transform="translate(63.623047 0)"/>
     </g>
    </g>
    <g id="line2d_112">
     <path d="M 36.64274 53.267896 
L 43.64274 53.267896 
L 50.64274 53.267896 
" style="fill: none; stroke: #9b0058; stroke-width: 0.75; stroke-linecap: square"/>
    </g>
    <g id="text_19">
     <!-- 30 -->
     <g transform="translate(56.24274 55.717896) scale(0.07 -0.07)">
      <defs>
       <path id="DejaVuSans-33" d="M 2597 2516 
Q 3050 2419 3304 2112 
Q 3559 1806 3559 1356 
Q 3559 666 3084 287 
Q 2609 -91 1734 -91 
Q 1441 -91 1130 -33 
Q 819 25 488 141 
L 488 750 
Q 750 597 1062 519 
Q 1375 441 1716 441 
Q 2309 441 2620 675 
Q 2931 909 2931 1356 
Q 2931 1769 2642 2001 
Q 2353 2234 1838 2234 
L 1294 2234 
L 1294 2753 
L 1863 2753 
Q 2328 2753 2575 2939 
Q 2822 3125 2822 3475 
Q 2822 3834 2567 4026 
Q 2313 4219 1838 4219 
Q 1578 4219 1281 4162 
Q 984 4106 628 3988 
L 628 4550 
Q 988 4650 1302 4700 
Q 1616 4750 1894 4750 
Q 2613 4750 3031 4423 
Q 3450 4097 3450 3541 
Q 3450 3153 3228 2886 
Q 3006 2619 2597 2516 
z
" transform="scale(0.015625)"/>
      </defs>
      <use xlink:href="#DejaVuSans-33"/>
      <use xlink:href="#DejaVuSans-30" transform="translate(63.623047 0)"/>
     </g>
    </g>
    <g id="line2d_113">
     <path d="M 36.64274 63.542584 
L 43.64274 63.542584 
L 50.64274 63.542584 
" style="fill: none; stroke: #b26300; stroke-width: 0.75; stroke-linecap: square"/>
    </g>
    <g id="text_20">
     <!-- 50 -->
     <g transform="translate(56.24274 65.992584) scale(0.07 -0.07)">
      <use xlink:href="#DejaVuSans-35"/>
      <use xlink:href="#DejaVuSans-30" transform="translate(63.623047 0)"/>
     </g>
    </g>
    <g id="line2d_114">
     <path d="M 36.64274 73.817271 
L 43.64274 73.817271 
L 50.64274 73.817271 
" style="fill: none; stroke: #838d93; stroke-width: 0.75; stroke-linecap: square"/>
    </g>
    <g id="text_21">
     <!-- 100 -->
     <g transform="translate(56.24274 76.267271) scale(0.07 -0.07)">
      <use xlink:href="#DejaVuSans-31"/>
      <use xlink:href="#DejaVuSans-30" transform="translate(63.623047 0)"/>
      <use xlink:href="#DejaVuSans-30" transform="translate(127.246094 0)"/>
     </g>
    </g>
   </g>
  </g>
 </g>
 <defs>
  <clipPath id="pbd8023d975">
   <rect x="30.34274" y="3.00024" width="487.93702" height="367.01452"/>
  </clipPath>
 </defs>
</svg>
