<?xml version="1.0" encoding="utf-8" standalone="no"?>
<!DOCTYPE svg PUBLIC "-//W3C//DTD SVG 1.1//EN"
  "http://www.w3.org/Graphics/SVG/1.1/DTD/svg11.dtd">
<svg xmlns:xlink="http://www.w3.org/1999/xlink" width="410.4pt" height="254.16pt" viewBox="0 0 410.4 254.16" xmlns="http://www.w3.org/2000/svg" version="1.1">
 <metadata>
  <rdf:RDF xmlns:dc="http://purl.org/dc/elements/1.1/" xmlns:cc="http://creativecommons.org/ns#" xmlns:rdf="http://www.w3.org/1999/02/22-rdf-syntax-ns#">
   <cc:Work>
    <dc:type rdf:resource="http://purl.org/dc/dcmitype/StillImage"/>
    <dc:date>2025-12-21T16:05:50.442725</dc:date>
    <dc:format>image/svg+xml</dc:format>
    <dc:creator>
     <cc:Agent>
      <dc:title>Matplotlib v3.10.6, https://matplotlib.org/</dc:title>
     </cc:Agent>
    </dc:creator>
   </cc:Work>
  </rdf:RDF>
 </metadata>
 <defs>
  <style type="text/css">*{stroke-linejoin: round; stroke-linecap: butt}</style>
 </defs>
 <g id="figure_1">
  <g id="patch_1">
   <path d="M 0 254.16 
L 410.4 254.16 
L 410.4 0 
L 0 0 
z
" style="fill: #ffffff"/>
  </g>
  <g id="axes_1">
   <g id="patch_2">
    <path d="M 29.959615 226.44476 
L 407.39976 226.44476 
L 407.39976 3.00024 
L 29.959615 3.00024 
z
" style="fill: #ffffff"/>
   </g>
   <g id="matplotlib.axis_1">
    <g id="xtick_1">
     <g id="line2d_1">
      <defs>
       <path id="mfaa5f4e92d" d="M 0 0 
L 0 -3 
" style="stroke: #000000; stroke-width: 0.5"/>
      </defs>
      <g>
       <use xlink:href="#mfaa5f4e92d" x="81.428726" y="226.44476" style="stroke: #000000; stroke-width: 0.5"/>
      </g>
     </g>
     <g id="line2d_2">
      <defs>
       <path id="mf10aed8e3a" d="M 0 0 
L 0 3 
" style="stroke: #000000; stroke-width: 0.5"/>
      </defs>
      <g>
       <use xlink:href="#mf10aed8e3a" x="81.428726" y="3.00024" style="stroke: #000000; stroke-width: 0.5"/>
      </g>
     </g>
     <g id="text_1">
      <!-- 0.8 -->
      <g transform="translate(76.225601 235.784916) scale(0.09 -0.09)">
       <defs>
        <path id="Garamond-30" d="M 2800 1972 
Q 2800 1650 2753 1400 
Q 2669 969 2519 678 
Q 2369 388 2163 188 
Q 2013 41 1844 -26 
Q 1675 -94 1500 -94 
Q 1191 -94 914 112 
Q 638 319 431 794 
Q 225 1269 225 1913 
Q 225 2416 350 2878 
Q 475 3341 679 3595 
Q 884 3850 1086 3962 
Q 1288 4075 1525 4075 
Q 1859 4075 2173 3812 
Q 2488 3550 2675 2997 
Q 2800 2625 2800 1972 
z
M 2331 2075 
Q 2328 2844 2275 3119 
Q 2188 3572 1989 3753 
Q 1791 3934 1525 3934 
Q 1303 3934 1104 3790 
Q 906 3647 831 3341 
Q 703 2844 703 1834 
Q 703 834 901 436 
Q 1100 38 1497 38 
Q 1769 38 1967 206 
Q 2166 375 2252 833 
Q 2338 1291 2334 1859 
L 2331 2075 
z
" transform="scale(0.015625)"/>
        <path id="Garamond-2e" d="M 375 253 
Q 375 391 476 494 
Q 578 597 713 597 
Q 844 597 934 500 
Q 1025 403 1025 256 
Q 1025 109 929 9 
Q 834 -91 700 -91 
Q 569 -91 472 11 
Q 375 113 375 253 
z
" transform="scale(0.015625)"/>
        <path id="Garamond-38" d="M 1206 1997 
Q 903 2159 794 2256 
Q 638 2391 533 2603 
Q 428 2816 428 3038 
Q 428 3425 736 3739 
Q 1044 4053 1491 4053 
Q 1994 4053 2287 3787 
Q 2581 3522 2581 3141 
Q 2581 2928 2493 2753 
Q 2406 2578 2234 2438 
Q 2119 2341 1838 2197 
Q 2266 1969 2347 1903 
Q 2516 1772 2631 1556 
Q 2747 1341 2747 1078 
Q 2747 588 2408 250 
Q 2069 -88 1544 -88 
Q 1003 -88 683 207 
Q 363 503 363 938 
Q 363 1184 447 1386 
Q 531 1588 709 1731 
Q 847 1841 1206 1997 
z
M 1697 2269 
Q 1959 2413 2063 2566 
Q 2231 2819 2231 3141 
Q 2231 3391 2131 3570 
Q 2031 3750 1864 3828 
Q 1697 3906 1503 3906 
Q 1194 3906 994 3693 
Q 794 3481 794 3172 
Q 794 2991 847 2870 
Q 900 2750 1016 2647 
Q 1091 2578 1366 2400 
Q 1406 2375 1563 2322 
Q 1609 2306 1697 2269 
z
M 1359 1928 
Q 1134 1809 1044 1719 
Q 906 1588 828 1406 
Q 750 1225 750 906 
Q 750 572 897 381 
Q 1141 66 1534 66 
Q 1894 66 2123 294 
Q 2353 522 2353 881 
Q 2353 1272 2120 1500 
Q 1888 1728 1359 1928 
z
" transform="scale(0.015625)"/>
       </defs>
       <use xlink:href="#Garamond-30"/>
       <use xlink:href="#Garamond-2e" transform="translate(46.875 0)"/>
       <use xlink:href="#Garamond-38" transform="translate(68.75 0)"/>
      </g>
     </g>
    </g>
    <g id="xtick_2">
     <g id="line2d_3">
      <g>
       <use xlink:href="#mfaa5f4e92d" x="150.054207" y="226.44476" style="stroke: #000000; stroke-width: 0.5"/>
      </g>
     </g>
     <g id="line2d_4">
      <g>
       <use xlink:href="#mf10aed8e3a" x="150.054207" y="3.00024" style="stroke: #000000; stroke-width: 0.5"/>
      </g>
     </g>
     <g id="text_2">
      <!-- 0.9 -->
      <g transform="translate(144.851082 235.784916) scale(0.09 -0.09)">
       <defs>
        <path id="Garamond-39" d="M 2234 3784 
Q 2466 3534 2566 3291 
Q 2700 2947 2700 2494 
Q 2700 1981 2550 1581 
Q 2400 1181 2186 889 
Q 1972 597 1737 408 
Q 1503 219 1159 62 
Q 816 -94 584 -94 
L 559 -94 
Q 522 -66 522 -25 
Q 522 22 537 37 
Q 553 53 619 56 
Q 734 66 1009 200 
Q 1384 388 1581 613 
Q 1916 994 2080 1475 
Q 2244 1956 2244 2553 
Q 2244 3050 2131 3359 
Q 2019 3669 1812 3806 
Q 1606 3944 1416 3944 
Q 1166 3944 991 3706 
Q 750 3375 750 2750 
Q 750 2256 975 1972 
Q 1134 1772 1413 1772 
Q 1513 1772 1556 1791 
L 1581 1800 
Q 1613 1800 1638 1769 
Q 1675 1722 1675 1672 
L 1641 1644 
Q 1572 1613 1483 1597 
Q 1394 1581 1284 1581 
Q 900 1581 590 1931 
Q 281 2281 281 2813 
Q 281 3356 629 3720 
Q 978 4084 1463 4084 
Q 1672 4084 1831 4025 
Q 1991 3966 2234 3784 
z
" transform="scale(0.015625)"/>
       </defs>
       <use xlink:href="#Garamond-30"/>
       <use xlink:href="#Garamond-2e" transform="translate(46.875 0)"/>
       <use xlink:href="#Garamond-39" transform="translate(68.75 0)"/>
      </g>
     </g>
    </g>
    <g id="xtick_3">
     <g id="line2d_5">
      <g>
       <use xlink:href="#mfaa5f4e92d" x="218.679688" y="226.44476" style="stroke: #000000; stroke-width: 0.5"/>
      </g>
     </g>
     <g id="line2d_6">
      <g>
       <use xlink:href="#mf10aed8e3a" x="218.679688" y="3.00024" style="stroke: #000000; stroke-width: 0.5"/>
      </g>
     </g>
     <g id="text_3">
      <!-- 1.0 -->
      <g transform="translate(213.476562 235.784916) scale(0.09 -0.09)">
       <defs>
        <path id="Garamond-31" d="M 2269 6 
L 838 6 
Q 834 34 834 53 
Q 834 106 856 126 
Q 878 147 994 169 
Q 1175 206 1288 259 
Q 1319 328 1319 388 
L 1319 581 
Q 1319 616 1328 897 
Q 1331 1003 1334 1816 
L 1341 2550 
L 1334 2978 
Q 1334 3072 1341 3569 
Q 631 3063 563 3063 
Q 538 3063 509 3089 
Q 481 3116 481 3141 
Q 481 3172 503 3191 
Q 547 3231 713 3325 
Q 738 3338 928 3494 
Q 1231 3747 1372 3890 
Q 1513 4034 1544 4053 
Q 1606 4056 1641 4056 
Q 1722 4056 1742 4029 
Q 1763 4003 1763 3838 
L 1741 1053 
L 1741 778 
Q 1741 678 1737 576 
Q 1734 475 1734 428 
Q 1734 316 1763 281 
Q 1781 259 1878 225 
L 2091 181 
Q 2228 147 2241 134 
Q 2272 106 2272 47 
L 2269 6 
z
" transform="scale(0.015625)"/>
       </defs>
       <use xlink:href="#Garamond-31"/>
       <use xlink:href="#Garamond-2e" transform="translate(46.875 0)"/>
       <use xlink:href="#Garamond-30" transform="translate(68.75 0)"/>
      </g>
     </g>
    </g>
    <g id="xtick_4">
     <g id="line2d_7">
      <g>
       <use xlink:href="#mfaa5f4e92d" x="287.305168" y="226.44476" style="stroke: #000000; stroke-width: 0.5"/>
      </g>
     </g>
     <g id="line2d_8">
      <g>
       <use xlink:href="#mf10aed8e3a" x="287.305168" y="3.00024" style="stroke: #000000; stroke-width: 0.5"/>
      </g>
     </g>
     <g id="text_4">
      <!-- 1.1 -->
      <g transform="translate(282.102043 235.784916) scale(0.09 -0.09)">
       <use xlink:href="#Garamond-31"/>
       <use xlink:href="#Garamond-2e" transform="translate(46.875 0)"/>
       <use xlink:href="#Garamond-31" transform="translate(68.75 0)"/>
      </g>
     </g>
    </g>
    <g id="xtick_5">
     <g id="line2d_9">
      <g>
       <use xlink:href="#mfaa5f4e92d" x="355.930649" y="226.44476" style="stroke: #000000; stroke-width: 0.5"/>
      </g>
     </g>
     <g id="line2d_10">
      <g>
       <use xlink:href="#mf10aed8e3a" x="355.930649" y="3.00024" style="stroke: #000000; stroke-width: 0.5"/>
      </g>
     </g>
     <g id="text_5">
      <!-- 1.2 -->
      <g transform="translate(350.727524 235.784916) scale(0.09 -0.09)">
       <defs>
        <path id="Garamond-32" d="M 2728 6 
Q 2259 25 1472 25 
L 794 6 
L 491 16 
L 250 6 
Q 213 9 141 22 
Q 197 153 284 263 
Q 544 581 1044 1084 
Q 1744 1788 1966 2189 
Q 2188 2591 2188 2944 
Q 2188 3275 1963 3500 
Q 1738 3725 1409 3725 
Q 1213 3725 1028 3633 
Q 844 3541 731 3400 
Q 659 3309 541 3038 
Q 475 2888 463 2875 
Q 444 2853 419 2853 
Q 394 2853 370 2879 
Q 347 2906 347 2947 
Q 347 3088 489 3397 
Q 631 3706 907 3881 
Q 1184 4056 1550 4056 
Q 2028 4056 2348 3745 
Q 2669 3434 2669 3003 
Q 2669 2663 2450 2311 
Q 2231 1959 1444 1234 
Q 1184 997 1075 884 
Q 966 772 634 397 
Q 1113 378 1503 378 
Q 1588 378 1688 384 
Q 1872 391 1903 391 
L 2338 381 
Q 2409 381 2484 450 
Q 2559 519 2688 838 
L 2763 841 
Q 2778 841 2809 838 
Q 2825 806 2825 791 
L 2819 766 
Q 2794 675 2775 434 
Q 2763 294 2728 6 
z
" transform="scale(0.015625)"/>
       </defs>
       <use xlink:href="#Garamond-31"/>
       <use xlink:href="#Garamond-2e" transform="translate(46.875 0)"/>
       <use xlink:href="#Garamond-32" transform="translate(68.75 0)"/>
      </g>
     </g>
    </g>
    <g id="xtick_6">
     <g id="line2d_11">
      <defs>
       <path id="mdd3b540539" d="M 0 0 
L 0 -1.5 
" style="stroke: #000000; stroke-width: 0.5"/>
      </defs>
      <g>
       <use xlink:href="#mdd3b540539" x="40.253437" y="226.44476" style="stroke: #000000; stroke-width: 0.5"/>
      </g>
     </g>
     <g id="line2d_12">
      <defs>
       <path id="mee02284861" d="M 0 0 
L 0 1.5 
" style="stroke: #000000; stroke-width: 0.5"/>
      </defs>
      <g>
       <use xlink:href="#mee02284861" x="40.253437" y="3.00024" style="stroke: #000000; stroke-width: 0.5"/>
      </g>
     </g>
    </g>
    <g id="xtick_7">
     <g id="line2d_13">
      <g>
       <use xlink:href="#mdd3b540539" x="53.978533" y="226.44476" style="stroke: #000000; stroke-width: 0.5"/>
      </g>
     </g>
     <g id="line2d_14">
      <g>
       <use xlink:href="#mee02284861" x="53.978533" y="3.00024" style="stroke: #000000; stroke-width: 0.5"/>
      </g>
     </g>
    </g>
    <g id="xtick_8">
     <g id="line2d_15">
      <g>
       <use xlink:href="#mdd3b540539" x="67.70363" y="226.44476" style="stroke: #000000; stroke-width: 0.5"/>
      </g>
     </g>
     <g id="line2d_16">
      <g>
       <use xlink:href="#mee02284861" x="67.70363" y="3.00024" style="stroke: #000000; stroke-width: 0.5"/>
      </g>
     </g>
    </g>
    <g id="xtick_9">
     <g id="line2d_17">
      <g>
       <use xlink:href="#mdd3b540539" x="95.153822" y="226.44476" style="stroke: #000000; stroke-width: 0.5"/>
      </g>
     </g>
     <g id="line2d_18">
      <g>
       <use xlink:href="#mee02284861" x="95.153822" y="3.00024" style="stroke: #000000; stroke-width: 0.5"/>
      </g>
     </g>
    </g>
    <g id="xtick_10">
     <g id="line2d_19">
      <g>
       <use xlink:href="#mdd3b540539" x="108.878918" y="226.44476" style="stroke: #000000; stroke-width: 0.5"/>
      </g>
     </g>
     <g id="line2d_20">
      <g>
       <use xlink:href="#mee02284861" x="108.878918" y="3.00024" style="stroke: #000000; stroke-width: 0.5"/>
      </g>
     </g>
    </g>
    <g id="xtick_11">
     <g id="line2d_21">
      <g>
       <use xlink:href="#mdd3b540539" x="122.604014" y="226.44476" style="stroke: #000000; stroke-width: 0.5"/>
      </g>
     </g>
     <g id="line2d_22">
      <g>
       <use xlink:href="#mee02284861" x="122.604014" y="3.00024" style="stroke: #000000; stroke-width: 0.5"/>
      </g>
     </g>
    </g>
    <g id="xtick_12">
     <g id="line2d_23">
      <g>
       <use xlink:href="#mdd3b540539" x="136.32911" y="226.44476" style="stroke: #000000; stroke-width: 0.5"/>
      </g>
     </g>
     <g id="line2d_24">
      <g>
       <use xlink:href="#mee02284861" x="136.32911" y="3.00024" style="stroke: #000000; stroke-width: 0.5"/>
      </g>
     </g>
    </g>
    <g id="xtick_13">
     <g id="line2d_25">
      <g>
       <use xlink:href="#mdd3b540539" x="163.779303" y="226.44476" style="stroke: #000000; stroke-width: 0.5"/>
      </g>
     </g>
     <g id="line2d_26">
      <g>
       <use xlink:href="#mee02284861" x="163.779303" y="3.00024" style="stroke: #000000; stroke-width: 0.5"/>
      </g>
     </g>
    </g>
    <g id="xtick_14">
     <g id="line2d_27">
      <g>
       <use xlink:href="#mdd3b540539" x="177.504399" y="226.44476" style="stroke: #000000; stroke-width: 0.5"/>
      </g>
     </g>
     <g id="line2d_28">
      <g>
       <use xlink:href="#mee02284861" x="177.504399" y="3.00024" style="stroke: #000000; stroke-width: 0.5"/>
      </g>
     </g>
    </g>
    <g id="xtick_15">
     <g id="line2d_29">
      <g>
       <use xlink:href="#mdd3b540539" x="191.229495" y="226.44476" style="stroke: #000000; stroke-width: 0.5"/>
      </g>
     </g>
     <g id="line2d_30">
      <g>
       <use xlink:href="#mee02284861" x="191.229495" y="3.00024" style="stroke: #000000; stroke-width: 0.5"/>
      </g>
     </g>
    </g>
    <g id="xtick_16">
     <g id="line2d_31">
      <g>
       <use xlink:href="#mdd3b540539" x="204.954591" y="226.44476" style="stroke: #000000; stroke-width: 0.5"/>
      </g>
     </g>
     <g id="line2d_32">
      <g>
       <use xlink:href="#mee02284861" x="204.954591" y="3.00024" style="stroke: #000000; stroke-width: 0.5"/>
      </g>
     </g>
    </g>
    <g id="xtick_17">
     <g id="line2d_33">
      <g>
       <use xlink:href="#mdd3b540539" x="232.404784" y="226.44476" style="stroke: #000000; stroke-width: 0.5"/>
      </g>
     </g>
     <g id="line2d_34">
      <g>
       <use xlink:href="#mee02284861" x="232.404784" y="3.00024" style="stroke: #000000; stroke-width: 0.5"/>
      </g>
     </g>
    </g>
    <g id="xtick_18">
     <g id="line2d_35">
      <g>
       <use xlink:href="#mdd3b540539" x="246.12988" y="226.44476" style="stroke: #000000; stroke-width: 0.5"/>
      </g>
     </g>
     <g id="line2d_36">
      <g>
       <use xlink:href="#mee02284861" x="246.12988" y="3.00024" style="stroke: #000000; stroke-width: 0.5"/>
      </g>
     </g>
    </g>
    <g id="xtick_19">
     <g id="line2d_37">
      <g>
       <use xlink:href="#mdd3b540539" x="259.854976" y="226.44476" style="stroke: #000000; stroke-width: 0.5"/>
      </g>
     </g>
     <g id="line2d_38">
      <g>
       <use xlink:href="#mee02284861" x="259.854976" y="3.00024" style="stroke: #000000; stroke-width: 0.5"/>
      </g>
     </g>
    </g>
    <g id="xtick_20">
     <g id="line2d_39">
      <g>
       <use xlink:href="#mdd3b540539" x="273.580072" y="226.44476" style="stroke: #000000; stroke-width: 0.5"/>
      </g>
     </g>
     <g id="line2d_40">
      <g>
       <use xlink:href="#mee02284861" x="273.580072" y="3.00024" style="stroke: #000000; stroke-width: 0.5"/>
      </g>
     </g>
    </g>
    <g id="xtick_21">
     <g id="line2d_41">
      <g>
       <use xlink:href="#mdd3b540539" x="301.030265" y="226.44476" style="stroke: #000000; stroke-width: 0.5"/>
      </g>
     </g>
     <g id="line2d_42">
      <g>
       <use xlink:href="#mee02284861" x="301.030265" y="3.00024" style="stroke: #000000; stroke-width: 0.5"/>
      </g>
     </g>
    </g>
    <g id="xtick_22">
     <g id="line2d_43">
      <g>
       <use xlink:href="#mdd3b540539" x="314.755361" y="226.44476" style="stroke: #000000; stroke-width: 0.5"/>
      </g>
     </g>
     <g id="line2d_44">
      <g>
       <use xlink:href="#mee02284861" x="314.755361" y="3.00024" style="stroke: #000000; stroke-width: 0.5"/>
      </g>
     </g>
    </g>
    <g id="xtick_23">
     <g id="line2d_45">
      <g>
       <use xlink:href="#mdd3b540539" x="328.480457" y="226.44476" style="stroke: #000000; stroke-width: 0.5"/>
      </g>
     </g>
     <g id="line2d_46">
      <g>
       <use xlink:href="#mee02284861" x="328.480457" y="3.00024" style="stroke: #000000; stroke-width: 0.5"/>
      </g>
     </g>
    </g>
    <g id="xtick_24">
     <g id="line2d_47">
      <g>
       <use xlink:href="#mdd3b540539" x="342.205553" y="226.44476" style="stroke: #000000; stroke-width: 0.5"/>
      </g>
     </g>
     <g id="line2d_48">
      <g>
       <use xlink:href="#mee02284861" x="342.205553" y="3.00024" style="stroke: #000000; stroke-width: 0.5"/>
      </g>
     </g>
    </g>
    <g id="xtick_25">
     <g id="line2d_49">
      <g>
       <use xlink:href="#mdd3b540539" x="369.655745" y="226.44476" style="stroke: #000000; stroke-width: 0.5"/>
      </g>
     </g>
     <g id="line2d_50">
      <g>
       <use xlink:href="#mee02284861" x="369.655745" y="3.00024" style="stroke: #000000; stroke-width: 0.5"/>
      </g>
     </g>
    </g>
    <g id="xtick_26">
     <g id="line2d_51">
      <g>
       <use xlink:href="#mdd3b540539" x="383.380842" y="226.44476" style="stroke: #000000; stroke-width: 0.5"/>
      </g>
     </g>
     <g id="line2d_52">
      <g>
       <use xlink:href="#mee02284861" x="383.380842" y="3.00024" style="stroke: #000000; stroke-width: 0.5"/>
      </g>
     </g>
    </g>
    <g id="xtick_27">
     <g id="line2d_53">
      <g>
       <use xlink:href="#mdd3b540539" x="397.105938" y="226.44476" style="stroke: #000000; stroke-width: 0.5"/>
      </g>
     </g>
     <g id="line2d_54">
      <g>
       <use xlink:href="#mee02284861" x="397.105938" y="3.00024" style="stroke: #000000; stroke-width: 0.5"/>
      </g>
     </g>
    </g>
    <g id="text_6">
     <!-- Voltage (V) -->
     <g transform="translate(196.503125 248.581635) scale(0.1 -0.1)">
      <defs>
       <path id="Garamond-56" d="M -53 3963 
L -31 4016 
Q 222 4016 475 4009 
L 578 4009 
Q 625 4009 681 4013 
Q 884 4022 1416 4022 
Q 1522 4022 1622 4020 
Q 1722 4019 1816 4016 
Q 1834 4006 1844 3988 
L 1838 3938 
Q 1819 3906 1744 3906 
L 1719 3906 
Q 1631 3909 1431 3892 
Q 1231 3875 1169 3828 
Q 1128 3794 1128 3738 
Q 1128 3616 1231 3372 
L 1706 2269 
L 1872 1903 
Q 2113 1322 2347 716 
Q 2372 650 2394 597 
L 2603 1109 
Q 2766 1497 2931 1934 
L 3147 2522 
Q 3153 2541 3181 2647 
Q 3484 3475 3484 3694 
Q 3484 3741 3442 3789 
Q 3400 3838 3306 3869 
Q 3269 3881 3063 3906 
L 2831 3934 
Q 2803 3966 2803 3988 
L 2813 4013 
L 3825 4022 
L 4159 4022 
Q 4328 4022 4391 4000 
L 4394 3975 
Q 4394 3950 4375 3909 
Q 4300 3884 4238 3878 
Q 3975 3847 3912 3805 
Q 3850 3763 3781 3625 
L 2959 1594 
Q 2575 678 2413 175 
L 2322 -97 
Q 2281 -122 2253 -122 
Q 2219 -122 2178 -116 
Q 1806 847 1572 1372 
L 616 3541 
Q 513 3734 461 3773 
Q 409 3813 100 3884 
Q -9 3909 -22 3916 
Q -44 3931 -53 3963 
z
" transform="scale(0.015625)"/>
       <path id="Garamond-6f" d="M 228 1256 
Q 228 1469 317 1711 
Q 406 1953 587 2145 
Q 769 2338 972 2431 
Q 1256 2563 1666 2563 
Q 2250 2563 2642 2163 
Q 3034 1763 3034 1200 
Q 3034 700 2623 308 
Q 2213 -84 1584 -84 
Q 1197 -84 853 119 
Q 597 272 412 572 
Q 228 872 228 1256 
z
M 1609 38 
Q 1847 38 2067 166 
Q 2288 294 2419 576 
Q 2550 859 2550 1231 
Q 2550 1475 2448 1797 
Q 2347 2119 2136 2280 
Q 1925 2441 1641 2441 
Q 1434 2441 1220 2344 
Q 1006 2247 857 1972 
Q 709 1697 709 1191 
Q 709 622 967 330 
Q 1225 38 1609 38 
z
" transform="scale(0.015625)"/>
       <path id="Garamond-6c" d="M 163 3872 
L 163 3941 
Q 250 3969 356 4000 
Q 513 4050 819 4153 
L 966 4153 
Q 969 4003 969 3981 
Q 969 1416 953 922 
Q 944 631 944 613 
Q 944 263 972 222 
Q 1009 166 1201 144 
Q 1394 122 1428 100 
Q 1453 88 1453 56 
Q 1453 22 1439 8 
Q 1425 -6 1388 -6 
Q 1366 -6 1059 3 
L 650 16 
L 125 -6 
Q 75 -9 50 13 
Q 31 28 31 56 
Q 31 88 51 102 
Q 72 116 276 150 
Q 481 184 511 207 
Q 541 231 550 313 
Q 563 425 563 947 
L 559 1666 
L 569 2409 
L 566 3153 
L 575 3519 
Q 575 3628 540 3676 
Q 506 3725 394 3772 
Q 225 3841 163 3872 
z
" transform="scale(0.015625)"/>
       <path id="Garamond-74" d="M 894 3088 
L 991 3084 
L 1003 2788 
L 997 2403 
Q 1056 2400 1072 2400 
Q 1153 2400 1381 2413 
Q 1528 2422 1663 2422 
Q 1725 2422 1850 2419 
Q 1856 2356 1856 2319 
Q 1856 2278 1838 2191 
L 1784 2191 
L 1300 2175 
L 1059 2169 
L 1003 2163 
Q 978 2084 978 1981 
L 988 1513 
L 981 688 
Q 981 363 1066 256 
Q 1147 147 1309 147 
Q 1391 147 1616 197 
Q 1684 213 1800 300 
L 1828 300 
Q 1856 300 1873 283 
Q 1891 266 1891 238 
L 1888 216 
Q 1753 69 1579 1 
Q 1406 -66 1119 -66 
Q 916 -66 783 28 
Q 650 122 612 250 
Q 575 378 575 809 
L 588 1513 
L 584 1850 
L 584 1975 
Q 584 2063 578 2150 
L 525 2153 
L 269 2144 
L 244 2141 
Q 209 2141 192 2156 
Q 175 2172 175 2194 
Q 175 2231 198 2254 
Q 222 2278 341 2328 
Q 422 2363 530 2458 
Q 638 2553 713 2669 
Q 750 2731 819 2906 
Q 869 3034 894 3088 
z
" transform="scale(0.015625)"/>
       <path id="Garamond-61" d="M 2541 425 
Q 2559 384 2559 366 
Q 2559 319 2484 200 
Q 2388 44 2269 -28 
Q 2194 -75 2063 -75 
Q 1838 -75 1725 63 
Q 1656 144 1628 353 
L 1278 109 
Q 1094 3 997 -25 
Q 841 -66 622 -66 
Q 463 -66 370 29 
Q 278 125 278 275 
Q 278 491 542 791 
Q 806 1091 1259 1281 
Q 1578 1416 1650 1453 
Q 1656 1556 1656 1678 
Q 1656 2075 1545 2215 
Q 1434 2356 1228 2356 
Q 1013 2356 825 2188 
Q 709 2081 650 1788 
Q 631 1706 578 1613 
Q 444 1525 363 1525 
Q 294 1525 238 1566 
Q 206 1588 206 1616 
Q 206 1697 379 1983 
Q 553 2269 817 2411 
Q 1081 2553 1278 2553 
Q 1547 2553 1678 2504 
Q 1809 2456 1909 2334 
Q 2009 2213 2031 2069 
Q 2044 2000 2044 1578 
L 2034 1081 
L 2038 719 
Q 2038 647 2034 597 
Q 2031 506 2031 463 
Q 2031 359 2091 297 
Q 2150 234 2231 234 
Q 2350 234 2434 353 
L 2472 403 
Q 2488 413 2541 425 
z
M 1622 516 
Q 1644 913 1644 1075 
Q 1644 1159 1634 1303 
Q 1425 1228 1190 1075 
Q 956 922 819 722 
Q 719 578 719 450 
Q 719 328 801 247 
Q 884 166 1009 166 
Q 1106 166 1244 234 
Q 1425 325 1622 516 
z
" transform="scale(0.015625)"/>
       <path id="Garamond-67" d="M 844 -206 
Q 806 -188 603 -103 
Q 366 50 303 125 
Q 241 200 241 291 
Q 241 372 288 422 
Q 356 494 559 559 
Q 763 625 894 688 
Q 853 716 766 769 
Q 300 1056 300 1566 
Q 300 1984 595 2273 
Q 891 2563 1353 2563 
Q 1563 2563 1738 2503 
Q 1838 2472 2034 2347 
Q 2159 2269 2181 2259 
Q 2231 2244 2294 2244 
Q 2347 2244 2551 2270 
Q 2756 2297 2794 2297 
Q 2866 2297 2913 2269 
Q 2950 2206 2950 2059 
Q 2950 2009 2923 1984 
Q 2897 1959 2847 1959 
Q 2759 1959 2557 2014 
Q 2356 2069 2313 2069 
Q 2297 2069 2253 2063 
Q 2388 1794 2388 1572 
Q 2388 1350 2247 1112 
Q 2106 875 1859 750 
Q 1613 625 1359 625 
Q 1341 625 1253 628 
Q 966 628 725 484 
Q 609 413 609 350 
Q 609 284 722 222 
Q 1019 63 1847 38 
Q 2206 25 2406 -65 
Q 2606 -156 2707 -332 
Q 2809 -509 2809 -697 
Q 2809 -950 2637 -1165 
Q 2466 -1381 2116 -1515 
Q 1766 -1650 1313 -1650 
Q 813 -1650 541 -1528 
Q 269 -1406 155 -1262 
Q 41 -1119 41 -978 
Q 41 -856 166 -673 
Q 291 -491 684 -291 
Q 800 -231 844 -206 
z
M 719 1578 
Q 719 1297 803 1108 
Q 888 919 1034 826 
Q 1181 734 1331 734 
Q 1603 734 1783 942 
Q 1963 1150 1963 1575 
Q 1963 2003 1775 2226 
Q 1588 2450 1322 2450 
Q 1025 2450 872 2237 
Q 719 2025 719 1578 
z
M 616 -1316 
Q 900 -1534 1334 -1534 
Q 1644 -1534 1951 -1436 
Q 2259 -1338 2401 -1155 
Q 2544 -972 2544 -809 
Q 2544 -709 2494 -611 
Q 2444 -513 2358 -448 
Q 2272 -384 2131 -347 
Q 2031 -319 1847 -306 
Q 1322 -266 1203 -266 
Q 869 -266 606 -491 
Q 403 -666 403 -909 
Q 403 -1134 616 -1316 
z
" transform="scale(0.015625)"/>
       <path id="Garamond-65" d="M 2475 1650 
L 1222 1641 
L 984 1641 
Q 841 1641 691 1628 
Q 663 1534 663 1500 
L 666 1469 
L 666 1438 
L 663 1284 
Q 663 1094 783 817 
Q 903 541 1126 395 
Q 1350 250 1684 241 
Q 1863 250 1969 284 
Q 2075 319 2269 444 
L 2494 628 
L 2513 503 
Q 2513 481 2509 456 
Q 2369 278 2153 143 
Q 1938 9 1716 -53 
Q 1609 -81 1366 -81 
Q 1144 -81 928 9 
Q 609 147 426 451 
Q 244 756 244 1191 
Q 244 1328 295 1543 
Q 347 1759 481 2003 
Q 572 2169 703 2275 
Q 891 2425 1031 2484 
Q 1234 2569 1503 2569 
Q 1794 2569 1978 2463 
Q 2228 2322 2351 2100 
Q 2475 1878 2475 1694 
L 2475 1650 
z
M 731 1763 
L 878 1763 
Q 1038 1763 1828 1813 
Q 1953 1819 1981 1838 
Q 2038 1897 2038 1944 
Q 2038 2041 1975 2164 
Q 1913 2288 1783 2355 
Q 1653 2422 1481 2422 
Q 1119 2422 900 2150 
Q 731 1944 731 1763 
z
" transform="scale(0.015625)"/>
       <path id="Garamond-20" transform="scale(0.015625)"/>
       <path id="Garamond-28" d="M 1900 4091 
Q 1934 4006 1981 3925 
Q 1947 3891 1809 3766 
Q 1603 3572 1494 3413 
Q 1209 3003 1075 2717 
Q 941 2431 862 2057 
Q 784 1684 784 1178 
Q 784 831 848 506 
Q 913 181 1077 -184 
Q 1241 -550 1509 -934 
Q 1631 -1113 1809 -1269 
Q 1841 -1297 1919 -1375 
L 1963 -1419 
L 1897 -1569 
Q 1625 -1409 1419 -1163 
Q 1063 -741 864 -341 
Q 666 59 597 441 
Q 491 1025 491 1281 
Q 491 1706 600 2162 
Q 709 2619 966 3078 
Q 1138 3388 1466 3747 
Q 1672 3972 1900 4091 
z
" transform="scale(0.015625)"/>
       <path id="Garamond-29" d="M -138 -1400 
Q -41 -1306 25 -1247 
Q 238 -1063 378 -853 
Q 672 -422 778 -194 
Q 925 122 1001 494 
Q 1078 866 1078 1278 
Q 1078 1759 993 2117 
Q 909 2475 717 2864 
Q 525 3253 319 3525 
Q 281 3578 -84 3944 
L -22 4097 
Q 231 3947 447 3700 
Q 775 3322 987 2897 
Q 1200 2472 1266 2091 
Q 1369 1503 1369 1216 
Q 1369 853 1266 398 
Q 1163 -56 897 -538 
Q 694 -906 325 -1281 
Q 166 -1444 -56 -1563 
Q -88 -1484 -138 -1400 
z
" transform="scale(0.015625)"/>
      </defs>
      <use xlink:href="#Garamond-56"/>
      <use xlink:href="#Garamond-6f" transform="translate(60.849609 0)"/>
      <use xlink:href="#Garamond-6c" transform="translate(111.875 0)"/>
      <use xlink:href="#Garamond-74" transform="translate(134.775391 0)"/>
      <use xlink:href="#Garamond-61" transform="translate(163.925781 0)"/>
      <use xlink:href="#Garamond-67" transform="translate(204.550781 0)"/>
      <use xlink:href="#Garamond-65" transform="translate(250.826172 0)"/>
      <use xlink:href="#Garamond-20" transform="translate(292.476562 0)"/>
      <use xlink:href="#Garamond-28" transform="translate(317.476562 0)"/>
      <use xlink:href="#Garamond-56" transform="translate(346.626953 0)"/>
      <use xlink:href="#Garamond-29" transform="translate(414.351562 0)"/>
     </g>
    </g>
   </g>
   <g id="matplotlib.axis_2">
    <g id="ytick_1">
     <g id="line2d_55">
      <defs>
       <path id="me331d6f701" d="M 0 0 
L 3 0 
" style="stroke: #000000; stroke-width: 0.5"/>
      </defs>
      <g>
       <use xlink:href="#me331d6f701" x="29.959615" y="216.288191" style="stroke: #000000; stroke-width: 0.5"/>
      </g>
     </g>
     <g id="line2d_56">
      <defs>
       <path id="m5511c7243f" d="M 0 0 
L -3 0 
" style="stroke: #000000; stroke-width: 0.5"/>
      </defs>
      <g>
       <use xlink:href="#m5511c7243f" x="407.39976" y="216.288191" style="stroke: #000000; stroke-width: 0.5"/>
      </g>
     </g>
     <g id="text_7">
      <!-- 0.0 -->
      <g transform="translate(16.053365 219.208269) scale(0.09 -0.09)">
       <use xlink:href="#Garamond-30"/>
       <use xlink:href="#Garamond-2e" transform="translate(46.875 0)"/>
       <use xlink:href="#Garamond-30" transform="translate(68.75 0)"/>
      </g>
     </g>
    </g>
    <g id="ytick_2">
     <g id="line2d_57">
      <g>
       <use xlink:href="#me331d6f701" x="29.959615" y="183.78717" style="stroke: #000000; stroke-width: 0.5"/>
      </g>
     </g>
     <g id="line2d_58">
      <g>
       <use xlink:href="#m5511c7243f" x="407.39976" y="183.78717" style="stroke: #000000; stroke-width: 0.5"/>
      </g>
     </g>
     <g id="text_8">
      <!-- 0.2 -->
      <g transform="translate(16.053365 186.707248) scale(0.09 -0.09)">
       <use xlink:href="#Garamond-30"/>
       <use xlink:href="#Garamond-2e" transform="translate(46.875 0)"/>
       <use xlink:href="#Garamond-32" transform="translate(68.75 0)"/>
      </g>
     </g>
    </g>
    <g id="ytick_3">
     <g id="line2d_59">
      <g>
       <use xlink:href="#me331d6f701" x="29.959615" y="151.286149" style="stroke: #000000; stroke-width: 0.5"/>
      </g>
     </g>
     <g id="line2d_60">
      <g>
       <use xlink:href="#m5511c7243f" x="407.39976" y="151.286149" style="stroke: #000000; stroke-width: 0.5"/>
      </g>
     </g>
     <g id="text_9">
      <!-- 0.4 -->
      <g transform="translate(16.053365 154.206227) scale(0.09 -0.09)">
       <defs>
        <path id="Garamond-34" d="M 2097 4075 
L 2241 4075 
Q 2238 3978 2238 3959 
L 2247 3500 
L 2228 3088 
L 2241 2628 
L 2241 2266 
L 2247 1772 
Q 2247 1656 2241 1422 
L 2306 1419 
L 2528 1419 
L 2741 1416 
L 2916 1422 
Q 2922 1325 2922 1278 
Q 2922 1231 2916 1134 
Q 2722 1125 2706 1125 
L 2550 1128 
L 2425 1128 
Q 2375 1128 2241 1134 
Q 2234 691 2241 -44 
Q 2222 -63 2200 -69 
L 2006 -75 
Q 1944 -75 1816 -69 
Q 1825 300 1825 459 
Q 1825 600 1819 716 
Q 1809 928 1809 959 
Q 1809 1016 1816 1134 
Q 1684 1119 1613 1119 
Q 1575 1119 1528 1122 
Q 1213 1138 1172 1138 
Q 1131 1138 972 1116 
L 650 1134 
L 475 1125 
L 356 1144 
L 206 1113 
L 178 1134 
Q 172 1203 172 1238 
Q 172 1272 178 1341 
Q 266 1456 500 1809 
L 1109 2694 
Q 1334 3028 1487 3225 
Q 1641 3422 1791 3648 
Q 1941 3875 2097 4075 
z
M 1816 1422 
L 1819 1934 
L 1816 2341 
L 1816 3388 
Q 1559 3050 1103 2366 
Q 581 1584 484 1422 
Q 622 1428 691 1428 
L 1547 1416 
Q 1641 1416 1816 1422 
z
" transform="scale(0.015625)"/>
       </defs>
       <use xlink:href="#Garamond-30"/>
       <use xlink:href="#Garamond-2e" transform="translate(46.875 0)"/>
       <use xlink:href="#Garamond-34" transform="translate(68.75 0)"/>
      </g>
     </g>
    </g>
    <g id="ytick_4">
     <g id="line2d_61">
      <g>
       <use xlink:href="#me331d6f701" x="29.959615" y="118.785128" style="stroke: #000000; stroke-width: 0.5"/>
      </g>
     </g>
     <g id="line2d_62">
      <g>
       <use xlink:href="#m5511c7243f" x="407.39976" y="118.785128" style="stroke: #000000; stroke-width: 0.5"/>
      </g>
     </g>
     <g id="text_10">
      <!-- 0.6 -->
      <g transform="translate(16.053365 121.705206) scale(0.09 -0.09)">
       <defs>
        <path id="Garamond-36" d="M 2459 4094 
Q 2488 4047 2500 3991 
Q 2481 3956 2441 3944 
Q 2309 3909 2053 3763 
Q 1994 3731 1691 3472 
Q 1556 3378 1366 3122 
Q 1106 2778 993 2508 
Q 881 2238 794 1800 
Q 769 1675 759 1359 
L 750 1244 
Q 750 844 986 445 
Q 1222 47 1575 47 
Q 1759 47 1920 159 
Q 2081 272 2175 540 
Q 2269 809 2269 1191 
Q 2269 1709 2070 1957 
Q 1872 2206 1594 2206 
Q 1509 2206 1444 2181 
L 1419 2175 
Q 1378 2175 1334 2266 
Q 1416 2319 1531 2353 
Q 1647 2388 1681 2388 
Q 1703 2388 1966 2341 
L 2056 2297 
Q 2206 2250 2284 2188 
Q 2428 2072 2541 1897 
Q 2597 1806 2691 1528 
Q 2697 1509 2734 1253 
L 2719 941 
Q 2653 659 2594 547 
Q 2506 375 2300 172 
Q 2194 69 2025 3 
Q 1788 -88 1522 -88 
Q 1016 -88 664 317 
Q 313 722 313 1491 
Q 313 1919 444 2301 
Q 575 2684 816 3003 
Q 978 3219 1258 3466 
Q 1538 3713 1788 3850 
Q 2128 4031 2459 4094 
z
" transform="scale(0.015625)"/>
       </defs>
       <use xlink:href="#Garamond-30"/>
       <use xlink:href="#Garamond-2e" transform="translate(46.875 0)"/>
       <use xlink:href="#Garamond-36" transform="translate(68.75 0)"/>
      </g>
     </g>
    </g>
    <g id="ytick_5">
     <g id="line2d_63">
      <g>
       <use xlink:href="#me331d6f701" x="29.959615" y="86.284107" style="stroke: #000000; stroke-width: 0.5"/>
      </g>
     </g>
     <g id="line2d_64">
      <g>
       <use xlink:href="#m5511c7243f" x="407.39976" y="86.284107" style="stroke: #000000; stroke-width: 0.5"/>
      </g>
     </g>
     <g id="text_11">
      <!-- 0.8 -->
      <g transform="translate(16.053365 89.204185) scale(0.09 -0.09)">
       <use xlink:href="#Garamond-30"/>
       <use xlink:href="#Garamond-2e" transform="translate(46.875 0)"/>
       <use xlink:href="#Garamond-38" transform="translate(68.75 0)"/>
      </g>
     </g>
    </g>
    <g id="ytick_6">
     <g id="line2d_65">
      <g>
       <use xlink:href="#me331d6f701" x="29.959615" y="53.783085" style="stroke: #000000; stroke-width: 0.5"/>
      </g>
     </g>
     <g id="line2d_66">
      <g>
       <use xlink:href="#m5511c7243f" x="407.39976" y="53.783085" style="stroke: #000000; stroke-width: 0.5"/>
      </g>
     </g>
     <g id="text_12">
      <!-- 1.0 -->
      <g transform="translate(16.053365 56.703164) scale(0.09 -0.09)">
       <use xlink:href="#Garamond-31"/>
       <use xlink:href="#Garamond-2e" transform="translate(46.875 0)"/>
       <use xlink:href="#Garamond-30" transform="translate(68.75 0)"/>
      </g>
     </g>
    </g>
    <g id="ytick_7">
     <g id="line2d_67">
      <g>
       <use xlink:href="#me331d6f701" x="29.959615" y="21.282064" style="stroke: #000000; stroke-width: 0.5"/>
      </g>
     </g>
     <g id="line2d_68">
      <g>
       <use xlink:href="#m5511c7243f" x="407.39976" y="21.282064" style="stroke: #000000; stroke-width: 0.5"/>
      </g>
     </g>
     <g id="text_13">
      <!-- 1.2 -->
      <g transform="translate(16.053365 24.202142) scale(0.09 -0.09)">
       <use xlink:href="#Garamond-31"/>
       <use xlink:href="#Garamond-2e" transform="translate(46.875 0)"/>
       <use xlink:href="#Garamond-32" transform="translate(68.75 0)"/>
      </g>
     </g>
    </g>
    <g id="ytick_8">
     <g id="line2d_69">
      <defs>
       <path id="m58b86a3c1e" d="M 0 0 
L 1.5 0 
" style="stroke: #000000; stroke-width: 0.5"/>
      </defs>
      <g>
       <use xlink:href="#m58b86a3c1e" x="29.959615" y="224.413446" style="stroke: #000000; stroke-width: 0.5"/>
      </g>
     </g>
     <g id="line2d_70">
      <defs>
       <path id="m277865d67b" d="M 0 0 
L -1.5 0 
" style="stroke: #000000; stroke-width: 0.5"/>
      </defs>
      <g>
       <use xlink:href="#m277865d67b" x="407.39976" y="224.413446" style="stroke: #000000; stroke-width: 0.5"/>
      </g>
     </g>
    </g>
    <g id="ytick_9">
     <g id="line2d_71">
      <g>
       <use xlink:href="#m58b86a3c1e" x="29.959615" y="208.162936" style="stroke: #000000; stroke-width: 0.5"/>
      </g>
     </g>
     <g id="line2d_72">
      <g>
       <use xlink:href="#m277865d67b" x="407.39976" y="208.162936" style="stroke: #000000; stroke-width: 0.5"/>
      </g>
     </g>
    </g>
    <g id="ytick_10">
     <g id="line2d_73">
      <g>
       <use xlink:href="#m58b86a3c1e" x="29.959615" y="200.03768" style="stroke: #000000; stroke-width: 0.5"/>
      </g>
     </g>
     <g id="line2d_74">
      <g>
       <use xlink:href="#m277865d67b" x="407.39976" y="200.03768" style="stroke: #000000; stroke-width: 0.5"/>
      </g>
     </g>
    </g>
    <g id="ytick_11">
     <g id="line2d_75">
      <g>
       <use xlink:href="#m58b86a3c1e" x="29.959615" y="191.912425" style="stroke: #000000; stroke-width: 0.5"/>
      </g>
     </g>
     <g id="line2d_76">
      <g>
       <use xlink:href="#m277865d67b" x="407.39976" y="191.912425" style="stroke: #000000; stroke-width: 0.5"/>
      </g>
     </g>
    </g>
    <g id="ytick_12">
     <g id="line2d_77">
      <g>
       <use xlink:href="#m58b86a3c1e" x="29.959615" y="175.661915" style="stroke: #000000; stroke-width: 0.5"/>
      </g>
     </g>
     <g id="line2d_78">
      <g>
       <use xlink:href="#m277865d67b" x="407.39976" y="175.661915" style="stroke: #000000; stroke-width: 0.5"/>
      </g>
     </g>
    </g>
    <g id="ytick_13">
     <g id="line2d_79">
      <g>
       <use xlink:href="#m58b86a3c1e" x="29.959615" y="167.536659" style="stroke: #000000; stroke-width: 0.5"/>
      </g>
     </g>
     <g id="line2d_80">
      <g>
       <use xlink:href="#m277865d67b" x="407.39976" y="167.536659" style="stroke: #000000; stroke-width: 0.5"/>
      </g>
     </g>
    </g>
    <g id="ytick_14">
     <g id="line2d_81">
      <g>
       <use xlink:href="#m58b86a3c1e" x="29.959615" y="159.411404" style="stroke: #000000; stroke-width: 0.5"/>
      </g>
     </g>
     <g id="line2d_82">
      <g>
       <use xlink:href="#m277865d67b" x="407.39976" y="159.411404" style="stroke: #000000; stroke-width: 0.5"/>
      </g>
     </g>
    </g>
    <g id="ytick_15">
     <g id="line2d_83">
      <g>
       <use xlink:href="#m58b86a3c1e" x="29.959615" y="143.160893" style="stroke: #000000; stroke-width: 0.5"/>
      </g>
     </g>
     <g id="line2d_84">
      <g>
       <use xlink:href="#m277865d67b" x="407.39976" y="143.160893" style="stroke: #000000; stroke-width: 0.5"/>
      </g>
     </g>
    </g>
    <g id="ytick_16">
     <g id="line2d_85">
      <g>
       <use xlink:href="#m58b86a3c1e" x="29.959615" y="135.035638" style="stroke: #000000; stroke-width: 0.5"/>
      </g>
     </g>
     <g id="line2d_86">
      <g>
       <use xlink:href="#m277865d67b" x="407.39976" y="135.035638" style="stroke: #000000; stroke-width: 0.5"/>
      </g>
     </g>
    </g>
    <g id="ytick_17">
     <g id="line2d_87">
      <g>
       <use xlink:href="#m58b86a3c1e" x="29.959615" y="126.910383" style="stroke: #000000; stroke-width: 0.5"/>
      </g>
     </g>
     <g id="line2d_88">
      <g>
       <use xlink:href="#m277865d67b" x="407.39976" y="126.910383" style="stroke: #000000; stroke-width: 0.5"/>
      </g>
     </g>
    </g>
    <g id="ytick_18">
     <g id="line2d_89">
      <g>
       <use xlink:href="#m58b86a3c1e" x="29.959615" y="110.659872" style="stroke: #000000; stroke-width: 0.5"/>
      </g>
     </g>
     <g id="line2d_90">
      <g>
       <use xlink:href="#m277865d67b" x="407.39976" y="110.659872" style="stroke: #000000; stroke-width: 0.5"/>
      </g>
     </g>
    </g>
    <g id="ytick_19">
     <g id="line2d_91">
      <g>
       <use xlink:href="#m58b86a3c1e" x="29.959615" y="102.534617" style="stroke: #000000; stroke-width: 0.5"/>
      </g>
     </g>
     <g id="line2d_92">
      <g>
       <use xlink:href="#m277865d67b" x="407.39976" y="102.534617" style="stroke: #000000; stroke-width: 0.5"/>
      </g>
     </g>
    </g>
    <g id="ytick_20">
     <g id="line2d_93">
      <g>
       <use xlink:href="#m58b86a3c1e" x="29.959615" y="94.409362" style="stroke: #000000; stroke-width: 0.5"/>
      </g>
     </g>
     <g id="line2d_94">
      <g>
       <use xlink:href="#m277865d67b" x="407.39976" y="94.409362" style="stroke: #000000; stroke-width: 0.5"/>
      </g>
     </g>
    </g>
    <g id="ytick_21">
     <g id="line2d_95">
      <g>
       <use xlink:href="#m58b86a3c1e" x="29.959615" y="78.158851" style="stroke: #000000; stroke-width: 0.5"/>
      </g>
     </g>
     <g id="line2d_96">
      <g>
       <use xlink:href="#m277865d67b" x="407.39976" y="78.158851" style="stroke: #000000; stroke-width: 0.5"/>
      </g>
     </g>
    </g>
    <g id="ytick_22">
     <g id="line2d_97">
      <g>
       <use xlink:href="#m58b86a3c1e" x="29.959615" y="70.033596" style="stroke: #000000; stroke-width: 0.5"/>
      </g>
     </g>
     <g id="line2d_98">
      <g>
       <use xlink:href="#m277865d67b" x="407.39976" y="70.033596" style="stroke: #000000; stroke-width: 0.5"/>
      </g>
     </g>
    </g>
    <g id="ytick_23">
     <g id="line2d_99">
      <g>
       <use xlink:href="#m58b86a3c1e" x="29.959615" y="61.908341" style="stroke: #000000; stroke-width: 0.5"/>
      </g>
     </g>
     <g id="line2d_100">
      <g>
       <use xlink:href="#m277865d67b" x="407.39976" y="61.908341" style="stroke: #000000; stroke-width: 0.5"/>
      </g>
     </g>
    </g>
    <g id="ytick_24">
     <g id="line2d_101">
      <g>
       <use xlink:href="#m58b86a3c1e" x="29.959615" y="45.65783" style="stroke: #000000; stroke-width: 0.5"/>
      </g>
     </g>
     <g id="line2d_102">
      <g>
       <use xlink:href="#m277865d67b" x="407.39976" y="45.65783" style="stroke: #000000; stroke-width: 0.5"/>
      </g>
     </g>
    </g>
    <g id="ytick_25">
     <g id="line2d_103">
      <g>
       <use xlink:href="#m58b86a3c1e" x="29.959615" y="37.532575" style="stroke: #000000; stroke-width: 0.5"/>
      </g>
     </g>
     <g id="line2d_104">
      <g>
       <use xlink:href="#m277865d67b" x="407.39976" y="37.532575" style="stroke: #000000; stroke-width: 0.5"/>
      </g>
     </g>
    </g>
    <g id="ytick_26">
     <g id="line2d_105">
      <g>
       <use xlink:href="#m58b86a3c1e" x="29.959615" y="29.40732" style="stroke: #000000; stroke-width: 0.5"/>
      </g>
     </g>
     <g id="line2d_106">
      <g>
       <use xlink:href="#m277865d67b" x="407.39976" y="29.40732" style="stroke: #000000; stroke-width: 0.5"/>
      </g>
     </g>
    </g>
    <g id="ytick_27">
     <g id="line2d_107">
      <g>
       <use xlink:href="#m58b86a3c1e" x="29.959615" y="13.156809" style="stroke: #000000; stroke-width: 0.5"/>
      </g>
     </g>
     <g id="line2d_108">
      <g>
       <use xlink:href="#m277865d67b" x="407.39976" y="13.156809" style="stroke: #000000; stroke-width: 0.5"/>
      </g>
     </g>
    </g>
    <g id="ytick_28">
     <g id="line2d_109">
      <g>
       <use xlink:href="#m58b86a3c1e" x="29.959615" y="5.031554" style="stroke: #000000; stroke-width: 0.5"/>
      </g>
     </g>
     <g id="line2d_110">
      <g>
       <use xlink:href="#m277865d67b" x="407.39976" y="5.031554" style="stroke: #000000; stroke-width: 0.5"/>
      </g>
     </g>
    </g>
    <g id="text_14">
     <!-- Current (A) -->
     <g transform="translate(9.489303 137.450625) rotate(-90) scale(0.1 -0.1)">
      <defs>
       <path id="Garamond-43" d="M 3703 3825 
Q 3741 3584 3741 3331 
Q 3741 3281 3738 3197 
Q 3694 3188 3672 3188 
Q 3653 3188 3619 3194 
Q 3488 3559 3191 3756 
Q 2894 3953 2456 3953 
Q 2225 3953 2066 3900 
Q 1784 3803 1571 3633 
Q 1359 3463 1212 3227 
Q 1066 2991 980 2655 
Q 894 2319 894 1969 
Q 894 1300 1097 864 
Q 1300 428 1653 242 
Q 2006 56 2366 56 
L 2513 59 
Q 2763 91 2853 119 
Q 3081 184 3229 273 
Q 3378 363 3520 525 
Q 3663 688 3763 903 
L 3800 916 
Q 3816 916 3847 897 
Q 3844 822 3841 800 
Q 3709 272 3650 78 
Q 3600 66 3525 41 
Q 3159 -84 2547 -84 
Q 2053 -84 1808 -17 
Q 1563 50 1273 192 
Q 984 334 765 568 
Q 547 803 412 1161 
Q 278 1519 278 1941 
Q 278 2341 384 2639 
Q 491 2938 712 3244 
Q 934 3550 1236 3753 
Q 1538 3956 1906 4041 
Q 2166 4097 2641 4097 
Q 2988 4097 3294 4005 
Q 3600 3913 3703 3825 
z
" transform="scale(0.015625)"/>
       <path id="Garamond-75" d="M 103 2453 
L 338 2453 
L 441 2447 
L 522 2453 
Q 844 2453 922 2447 
L 925 2388 
Q 925 1947 913 1534 
Q 903 1291 903 1256 
Q 903 706 939 568 
Q 975 431 1108 348 
Q 1241 266 1428 266 
Q 1656 266 1864 361 
Q 2072 456 2219 594 
Q 2234 713 2234 856 
Q 2234 1322 2244 1484 
Q 2247 1581 2247 1653 
Q 2247 2159 2197 2225 
Q 2147 2291 1816 2325 
Q 1706 2338 1656 2347 
Q 1631 2388 1631 2409 
L 1641 2444 
Q 1722 2453 1800 2453 
L 2297 2447 
Q 2563 2453 2578 2453 
Q 2613 2453 2644 2450 
L 2650 2222 
Q 2628 1747 2625 1047 
L 2619 794 
L 2631 369 
Q 2659 319 2681 309 
Q 2719 294 2834 294 
L 2863 294 
Q 2903 294 3094 275 
Q 3097 234 3097 216 
L 3097 181 
Q 2678 91 2419 0 
Q 2316 -34 2244 -50 
Q 2228 59 2228 84 
L 2228 338 
Q 2228 353 2225 422 
Q 2184 394 2131 353 
Q 1884 163 1609 31 
Q 1425 -59 1253 -59 
Q 925 -59 719 184 
Q 509 428 509 1016 
Q 509 1047 513 1128 
Q 525 1278 525 1338 
Q 525 1359 522 1475 
Q 519 1525 519 1563 
Q 519 1591 522 1689 
Q 525 1788 525 1828 
Q 525 1881 522 1922 
L 516 2088 
L 519 2175 
Q 519 2225 469 2266 
Q 272 2319 211 2326 
Q 150 2334 103 2353 
L 103 2453 
z
" transform="scale(0.015625)"/>
       <path id="Garamond-72" d="M 128 -9 
L 116 31 
Q 116 53 144 97 
L 328 134 
L 588 181 
Q 619 197 631 225 
Q 650 266 650 466 
Q 650 1528 637 1692 
Q 625 1856 581 1900 
Q 538 1944 356 1969 
Q 250 1984 188 2009 
L 200 2103 
Q 528 2238 641 2334 
Q 797 2475 906 2703 
L 1013 2700 
Q 1031 2544 1031 2006 
L 1028 1953 
Q 1028 1934 1034 1894 
Q 1153 2109 1331 2291 
L 1403 2363 
Q 1447 2413 1488 2441 
Q 1706 2572 1813 2572 
Q 1950 2572 2037 2480 
Q 2125 2388 2125 2253 
Q 2125 2147 2063 2088 
Q 1978 2009 1869 2009 
Q 1819 2009 1672 2062 
Q 1525 2116 1478 2116 
Q 1391 2116 1356 2088 
Q 1269 2019 1144 1806 
Q 1047 1647 1047 1513 
L 1063 997 
L 1069 378 
Q 1078 272 1094 241 
Q 1106 219 1156 188 
Q 1494 159 1556 147 
Q 1600 144 1622 141 
Q 1756 138 1809 103 
Q 1838 88 1838 56 
Q 1838 38 1813 6 
L 1466 9 
L 1334 13 
L 1144 9 
L 825 9 
L 653 0 
L 128 -9 
z
" transform="scale(0.015625)"/>
       <path id="Garamond-6e" d="M 119 100 
Q 197 122 300 138 
Q 497 166 536 203 
Q 575 241 575 375 
L 581 488 
Q 584 550 584 647 
L 578 1606 
Q 578 1800 528 1856 
Q 444 1944 216 1978 
L 216 2091 
Q 444 2153 566 2253 
Q 744 2394 866 2634 
L 972 2631 
Q 981 2484 981 2422 
L 981 2216 
L 984 2159 
Q 1022 2184 1072 2222 
Q 1259 2363 1456 2452 
Q 1653 2541 1806 2575 
Q 1903 2600 2025 2600 
Q 2281 2600 2465 2462 
Q 2650 2325 2704 2139 
Q 2759 1953 2759 1400 
L 2759 928 
Q 2759 909 2754 803 
Q 2750 697 2750 559 
Q 2750 341 2769 281 
Q 2784 241 2850 200 
Q 3150 159 3200 103 
L 3200 78 
Q 3200 47 3181 0 
L 3122 0 
L 2709 3 
L 2303 -3 
Q 2078 -9 1888 0 
L 1869 66 
Q 1869 84 1891 116 
Q 1975 153 2128 166 
Q 2219 172 2253 184 
Q 2288 197 2338 234 
Q 2375 309 2375 359 
Q 2375 381 2369 447 
Q 2359 591 2356 1163 
L 2356 1325 
L 2363 1575 
Q 2363 1978 2200 2131 
Q 2038 2284 1766 2284 
Q 1556 2284 1356 2192 
Q 1156 2100 969 1916 
Q 963 1766 963 1659 
L 972 969 
Q 972 428 988 306 
Q 994 256 1009 238 
Q 1034 213 1109 197 
Q 1184 181 1282 153 
Q 1381 125 1413 119 
Q 1475 103 1497 56 
L 1494 -6 
L 1166 -6 
L 491 3 
Q 256 -3 194 -3 
L 116 -3 
L 109 38 
Q 109 59 119 100 
z
" transform="scale(0.015625)"/>
       <path id="Garamond-41" d="M -34 100 
Q 9 125 44 125 
L 116 125 
Q 138 125 191 128 
Q 431 150 475 172 
Q 584 231 663 378 
Q 825 697 1028 1281 
Q 1125 1559 1150 1619 
Q 1228 1806 1300 2013 
L 1594 2834 
Q 1663 3028 1925 3722 
Q 1991 3897 2084 4191 
L 2175 4197 
L 2284 4194 
Q 2419 3928 2522 3622 
Q 2578 3459 2706 3138 
L 3181 1853 
L 3434 1156 
Q 3634 563 3696 427 
Q 3759 291 3813 247 
Q 3828 234 3929 209 
Q 4031 184 4072 172 
Q 4216 131 4272 103 
Q 4284 69 4284 50 
Q 4284 34 4275 3 
Q 4175 0 4134 0 
Q 3975 0 3572 9 
L 3259 19 
L 2881 13 
Q 2844 13 2805 17 
Q 2766 22 2738 22 
L 2669 22 
Q 2634 25 2606 41 
Q 2606 84 2622 125 
Q 2659 144 2691 147 
L 3019 169 
Q 3147 175 3213 203 
Q 3231 259 3231 288 
Q 3231 344 3150 578 
Q 3094 734 3051 875 
Q 3009 1016 2719 1800 
Q 2591 1822 2494 1822 
L 1825 1816 
L 1628 1819 
Q 1522 1819 1394 1803 
Q 1353 1709 1341 1669 
L 1066 809 
Q 891 319 891 269 
Q 891 241 919 175 
Q 984 156 1094 141 
L 1519 103 
Q 1553 75 1553 53 
Q 1553 38 1544 6 
Q 1403 3 1328 3 
Q 1078 3 747 19 
Q 594 25 528 25 
Q 463 25 300 19 
Q 194 13 147 13 
Q 72 13 -47 22 
L -47 41 
Q -47 63 -34 100 
z
M 1456 1975 
Q 1791 1956 2219 1956 
Q 2463 1956 2647 1972 
Q 2616 2094 2575 2200 
Q 2372 2744 2350 2800 
L 2066 3522 
L 2034 3578 
Q 2016 3541 1897 3256 
Q 1697 2769 1609 2497 
Q 1569 2375 1525 2254 
Q 1481 2134 1470 2086 
Q 1459 2038 1438 1988 
L 1456 1975 
z
" transform="scale(0.015625)"/>
      </defs>
      <use xlink:href="#Garamond-43"/>
      <use xlink:href="#Garamond-75" transform="translate(63.525391 0)"/>
      <use xlink:href="#Garamond-72" transform="translate(112.5 0)"/>
      <use xlink:href="#Garamond-72" transform="translate(148.349609 0)"/>
      <use xlink:href="#Garamond-65" transform="translate(181.699219 0)"/>
      <use xlink:href="#Garamond-6e" transform="translate(223.349609 0)"/>
      <use xlink:href="#Garamond-74" transform="translate(274.375 0)"/>
      <use xlink:href="#Garamond-20" transform="translate(303.525391 0)"/>
      <use xlink:href="#Garamond-28" transform="translate(328.525391 0)"/>
      <use xlink:href="#Garamond-41" transform="translate(357.675781 0)"/>
      <use xlink:href="#Garamond-29" transform="translate(425.400391 0)"/>
     </g>
    </g>
   </g>
   <g id="line2d_111">
    <path d="M 47.115985 209.790664 
L 57.409807 208.302564 
L 65.987992 206.850701 
L 74.566178 205.18426 
L 83.144363 203.282438 
L 91.722548 201.124883 
L 100.300733 198.692366 
L 107.163281 196.536633 
L 114.025829 194.186084 
L 120.888377 191.634421 
L 127.750925 188.877004 
L 134.613473 185.911114 
L 141.476021 182.736183 
L 148.33857 179.353984 
L 155.201118 175.768771 
L 163.779303 171.01237 
L 172.357488 165.968424 
L 180.935673 160.661682 
L 191.229495 153.989346 
L 201.523317 147.042265 
L 213.532776 138.679115 
L 232.404784 125.231327 
L 256.423702 108.151708 
L 270.148798 98.665175 
L 282.158257 90.628968 
L 292.452079 83.975056 
L 302.745902 77.55854 
L 313.039724 71.391245 
L 323.333546 65.478197 
L 333.627368 59.81876 
L 343.92119 54.407781 
L 354.215012 49.236655 
L 364.508834 44.294283 
L 376.518294 38.800199 
L 388.527753 33.578133 
L 390.24339 32.853012 
L 390.24339 32.853012 
" clip-path="url(#p178519d446)" style="fill: none; stroke: #000000; stroke-width: 0.8; stroke-linecap: square"/>
   </g>
   <g id="line2d_112">
    <path d="M 47.115985 215.902909 
L 64.272355 215.523374 
L 77.997452 214.987476 
L 88.291274 214.370935 
L 96.869459 213.657392 
L 105.447644 212.701861 
L 112.310192 211.715728 
L 119.17274 210.485516 
L 124.319651 209.372541 
L 129.466562 208.070237 
L 134.613473 206.552954 
L 139.760384 204.79347 
L 144.907296 202.763511 
L 150.054207 200.434487 
L 155.201118 197.778464 
L 160.348029 194.76939 
L 165.49494 191.384546 
L 170.641851 187.606173 
L 175.788762 183.423193 
L 180.935673 178.832885 
L 186.082584 173.842349 
L 191.229495 168.469585 
L 196.376406 162.744 
L 201.523317 156.706196 
L 208.385865 148.259174 
L 216.96405 137.267119 
L 235.836058 112.847379 
L 242.698606 104.351146 
L 249.561154 96.245288 
L 254.708065 90.468916 
L 259.854976 84.976412 
L 265.001887 79.779898 
L 270.148798 74.883683 
L 275.295709 70.285478 
L 280.44262 65.977667 
L 285.589531 61.948548 
L 290.736442 58.183485 
L 295.883354 54.665909 
L 301.030265 51.378162 
L 306.177176 48.30218 
L 313.039724 44.499345 
L 319.902272 41.000188 
L 326.76482 37.766449 
L 333.627368 34.763193 
L 342.205553 31.285796 
L 350.783738 28.066329 
L 361.07756 24.48024 
L 371.371383 21.136411 
L 383.380842 17.473487 
L 390.24339 15.472061 
L 390.24339 15.472061 
" clip-path="url(#p178519d446)" style="fill: none; stroke: #dc241f; stroke-width: 0.8; stroke-linecap: square"/>
   </g>
   <g id="line2d_113">
    <path d="M 47.115985 216.286965 
L 107.163281 216.175242 
L 122.604014 215.953793 
L 132.897836 215.610359 
L 139.760384 215.211041 
L 146.622933 214.587973 
L 151.769844 213.905385 
L 156.916755 212.963968 
L 160.348029 212.149414 
L 163.779303 211.148065 
L 167.210577 209.921938 
L 170.641851 208.427335 
L 174.073125 206.614891 
L 177.504399 204.430095 
L 180.935673 201.814491 
L 184.366947 198.707798 
L 187.798221 195.051113 
L 191.229495 190.791336 
L 194.660769 185.88673 
L 198.092043 180.313296 
L 201.523317 174.071291 
L 204.954591 167.190868 
L 208.385865 159.735622 
L 211.817139 151.80285 
L 216.96405 139.292928 
L 227.257873 113.990843 
L 230.689147 106.02623 
L 234.120421 98.497122 
L 237.551695 91.480687 
L 240.982969 85.023038 
L 244.414243 79.141967 
L 247.845517 73.83165 
L 251.276791 69.068206 
L 254.708065 64.815261 
L 258.139339 61.028896 
L 261.570613 57.661702 
L 265.001887 54.665839 
L 268.433161 51.995182 
L 271.864435 49.606694 
L 275.295709 47.461184 
L 278.726983 45.523626 
L 283.873894 42.940809 
L 289.020805 40.669761 
L 294.167716 38.640528 
L 301.030265 36.217655 
L 307.892813 34.030038 
L 316.470998 31.522243 
L 328.480457 28.278701 
L 343.92119 24.360916 
L 369.655745 18.101574 
L 390.24339 13.183806 
L 390.24339 13.183806 
" clip-path="url(#p178519d446)" style="fill: none; stroke: #0019a8; stroke-width: 0.8; stroke-linecap: square"/>
   </g>
   <g id="line2d_114">
    <path d="M 47.115985 216.288191 
L 155.201118 216.195979 
L 165.49494 215.962853 
L 170.641851 215.682418 
L 175.788762 215.167595 
L 179.220036 214.606536 
L 182.65131 213.774464 
L 184.366947 213.220111 
L 186.082584 212.548386 
L 187.798221 211.736238 
L 189.513858 210.756812 
L 191.229495 209.579135 
L 192.945132 208.167919 
L 194.660769 206.483566 
L 196.376406 204.482481 
L 198.092043 202.117816 
L 199.80768 199.340796 
L 201.523317 196.102758 
L 203.238954 192.358013 
L 204.954591 188.067546 
L 206.670228 183.203455 
L 208.385865 177.753818 
L 210.101502 171.72746 
L 211.817139 165.15789 
L 215.248413 150.657654 
L 225.542236 104.592103 
L 227.257873 97.833583 
L 228.97351 91.571403 
L 230.689147 85.839207 
L 232.404784 80.647559 
L 234.120421 75.987808 
L 235.836058 71.836564 
L 237.551695 68.16015 
L 239.267332 64.918604 
L 240.982969 62.068984 
L 242.698606 59.567921 
L 244.414243 57.373443 
L 246.12988 55.44618 
L 247.845517 53.750063 
L 249.561154 52.252646 
L 251.276791 50.925164 
L 254.708065 48.682474 
L 258.139339 46.858296 
L 261.570613 45.332147 
L 265.001887 44.016958 
L 270.148798 42.308802 
L 277.011346 40.327224 
L 287.305168 37.66025 
L 306.177176 33.083733 
L 379.949568 15.594407 
L 390.24339 13.156818 
L 390.24339 13.156818 
" clip-path="url(#p178519d446)" style="fill: none; stroke: #007d32; stroke-width: 0.8; stroke-linecap: square"/>
   </g>
   <g id="line2d_115">
    <path d="M 47.115985 216.288191 
L 192.945132 216.213338 
L 196.376406 216.076293 
L 199.80768 215.692476 
L 201.523317 215.292654 
L 203.238954 214.629452 
L 204.954591 213.535634 
L 206.670228 211.746898 
L 208.385865 208.859519 
L 210.101502 204.291018 
L 211.817139 197.280216 
L 213.532776 187.001197 
L 215.248413 172.882055 
L 216.96405 155.113132 
L 220.395325 114.90638 
L 222.110962 96.973491 
L 223.826599 82.56863 
L 225.542236 71.894663 
L 227.257873 64.413124 
L 228.97351 59.335745 
L 230.689147 55.930462 
L 232.404784 53.632086 
L 234.120421 52.044617 
L 235.836058 50.905454 
L 237.551695 50.045966 
L 240.982969 48.780938 
L 246.12988 47.349112 
L 258.139339 44.441436 
L 390.24339 13.156809 
L 390.24339 13.156809 
" clip-path="url(#p178519d446)" style="fill: none; stroke: #9b0058; stroke-width: 0.8; stroke-linecap: square"/>
   </g>
   <g id="patch_3">
    <path d="M 29.959615 226.44476 
L 29.959615 3.00024 
" style="fill: none; stroke: #000000; stroke-width: 0.75; stroke-linejoin: miter; stroke-linecap: square"/>
   </g>
   <g id="patch_4">
    <path d="M 407.39976 226.44476 
L 407.39976 3.00024 
" style="fill: none; stroke: #000000; stroke-width: 0.75; stroke-linejoin: miter; stroke-linecap: square"/>
   </g>
   <g id="patch_5">
    <path d="M 29.959615 226.44476 
L 407.39976 226.44476 
" style="fill: none; stroke: #000000; stroke-width: 0.75; stroke-linejoin: miter; stroke-linecap: square"/>
   </g>
   <g id="patch_6">
    <path d="M 29.959615 3.00024 
L 407.39976 3.00024 
" style="fill: none; stroke: #000000; stroke-width: 0.75; stroke-linejoin: miter; stroke-linecap: square"/>
   </g>
   <g id="legend_1">
    <g id="text_15">
     <!-- Order -->
     <g transform="translate(41.475709 19.938209) scale(0.11 -0.11)">
      <defs>
       <path id="Garamond-4f" d="M 294 1997 
Q 294 2316 370 2564 
Q 447 2813 628 3103 
Q 809 3394 1065 3589 
Q 1322 3784 1775 3934 
Q 2094 4038 2581 4038 
Q 2909 4038 3223 3950 
Q 3538 3863 3794 3706 
Q 4050 3550 4306 3225 
Q 4484 3000 4575 2741 
Q 4694 2400 4694 2038 
Q 4694 1625 4614 1353 
Q 4534 1081 4347 816 
Q 4200 609 3844 341 
Q 3606 159 3253 48 
Q 2900 -63 2491 -63 
Q 2075 -63 1750 34 
Q 1425 131 1208 270 
Q 991 409 761 681 
Q 531 953 412 1281 
Q 294 1609 294 1997 
z
M 2463 53 
Q 2725 53 3008 126 
Q 3291 200 3509 370 
Q 3728 541 3851 758 
Q 3975 975 4050 1315 
Q 4125 1656 4125 1997 
Q 4125 2422 4000 2838 
Q 3903 3153 3684 3401 
Q 3466 3650 3156 3786 
Q 2847 3922 2497 3922 
Q 2213 3922 1941 3828 
Q 1669 3734 1494 3589 
Q 1319 3444 1169 3176 
Q 1019 2909 941 2587 
Q 863 2266 863 2019 
Q 863 1759 941 1431 
Q 1019 1103 1155 862 
Q 1291 622 1489 436 
Q 1688 250 1934 151 
Q 2181 53 2463 53 
z
" transform="scale(0.015625)"/>
       <path id="Garamond-64" d="M 2281 2269 
L 2284 2359 
L 2281 2725 
L 2284 3416 
Q 2284 3703 2221 3781 
Q 2159 3859 1856 3941 
Q 1834 3947 1788 3959 
L 1788 3994 
Q 1788 4025 1794 4063 
Q 2219 4106 2525 4209 
L 2684 4213 
Q 2697 4000 2697 3738 
L 2684 2534 
L 2706 1178 
L 2697 456 
Q 2697 234 2728 206 
Q 2791 144 3003 141 
Q 3047 141 3122 134 
L 3122 78 
Q 3122 56 3119 31 
Q 3022 9 2919 -9 
L 2466 -97 
Q 2366 -116 2306 -116 
L 2306 184 
Q 2253 169 2141 122 
Q 1653 -84 1244 -84 
Q 997 -84 740 77 
Q 484 238 346 525 
Q 209 813 209 1113 
Q 209 1381 300 1626 
Q 391 1872 538 2034 
Q 631 2141 803 2245 
Q 975 2350 1088 2378 
Q 1366 2450 1459 2450 
Q 1881 2450 2153 2325 
Q 2238 2284 2281 2269 
z
M 2284 338 
Q 2297 547 2297 1200 
Q 2297 1753 2245 1898 
Q 2194 2044 1987 2173 
Q 1781 2303 1525 2303 
Q 1166 2303 916 2025 
Q 666 1747 666 1203 
Q 666 725 936 440 
Q 1206 156 1609 156 
Q 1841 156 2031 218 
Q 2222 281 2284 338 
z
" transform="scale(0.015625)"/>
      </defs>
      <use xlink:href="#Garamond-4f"/>
      <use xlink:href="#Garamond-72" transform="translate(78.125 0)"/>
      <use xlink:href="#Garamond-64" transform="translate(111.474609 0)"/>
      <use xlink:href="#Garamond-65" transform="translate(161.474609 0)"/>
      <use xlink:href="#Garamond-72" transform="translate(203.125 0)"/>
     </g>
    </g>
    <g id="line2d_116">
     <path d="M 39.759615 26.608678 
L 46.759615 26.608678 
L 53.759615 26.608678 
" style="fill: none; stroke: #000000; stroke-width: 0.8; stroke-linecap: square"/>
    </g>
    <g id="text_16">
     <!-- 5 -->
     <g transform="translate(59.359615 29.058678) scale(0.07 -0.07)">
      <defs>
       <path id="Garamond-35" d="M 2369 3606 
Q 2019 3578 1803 3578 
Q 1644 3578 1466 3588 
Q 1369 3594 1350 3594 
Q 969 3594 941 3578 
Q 928 3572 925 3550 
Q 916 3500 844 2434 
Q 984 2506 1115 2536 
Q 1247 2566 1463 2566 
Q 1616 2566 1675 2547 
Q 1972 2450 2103 2372 
Q 2284 2259 2398 2115 
Q 2513 1972 2609 1694 
Q 2678 1494 2678 1275 
Q 2678 1038 2611 833 
Q 2544 628 2444 490 
Q 2344 353 2147 204 
Q 1950 56 1683 -22 
Q 1416 -100 1325 -103 
L 872 -63 
Q 684 -31 543 39 
Q 403 109 356 175 
Q 328 216 328 281 
Q 328 331 398 390 
Q 469 450 572 450 
Q 619 450 675 422 
L 922 263 
Q 1006 188 1131 122 
Q 1150 113 1225 100 
Q 1406 75 1422 75 
Q 1491 75 1656 131 
Q 1822 188 1962 323 
Q 2103 459 2204 667 
Q 2306 875 2306 1128 
Q 2306 1581 2022 1875 
Q 1738 2169 1338 2169 
Q 1159 2169 1007 2109 
Q 856 2050 803 1978 
L 756 1959 
Q 719 1944 703 1944 
L 663 1953 
Q 653 2009 653 2038 
Q 653 2063 663 2125 
Q 684 2278 686 2442 
Q 688 2606 719 2738 
L 709 2888 
Q 731 3003 734 3109 
Q 744 3828 794 3934 
Q 816 3984 869 3984 
Q 891 3984 941 3978 
L 959 3975 
L 1356 3978 
Q 1625 3963 1753 3963 
Q 2047 3963 2225 4003 
Q 2313 4084 2359 4084 
Q 2378 4084 2428 4078 
L 2438 4041 
L 2413 3909 
L 2397 3700 
Q 2394 3678 2369 3606 
z
" transform="scale(0.015625)"/>
      </defs>
      <use xlink:href="#Garamond-35"/>
     </g>
    </g>
    <g id="line2d_117">
     <path d="M 39.759615 34.703521 
L 46.759615 34.703521 
L 53.759615 34.703521 
" style="fill: none; stroke: #dc241f; stroke-width: 0.8; stroke-linecap: square"/>
    </g>
    <g id="text_17">
     <!-- 10 -->
     <g transform="translate(59.359615 37.153521) scale(0.07 -0.07)">
      <use xlink:href="#Garamond-31"/>
      <use xlink:href="#Garamond-30" transform="translate(46.875 0)"/>
     </g>
    </g>
    <g id="line2d_118">
     <path d="M 39.759615 42.798365 
L 46.759615 42.798365 
L 53.759615 42.798365 
" style="fill: none; stroke: #0019a8; stroke-width: 0.8; stroke-linecap: square"/>
    </g>
    <g id="text_18">
     <!-- 20 -->
     <g transform="translate(59.359615 45.248365) scale(0.07 -0.07)">
      <use xlink:href="#Garamond-32"/>
      <use xlink:href="#Garamond-30" transform="translate(46.875 0)"/>
     </g>
    </g>
    <g id="line2d_119">
     <path d="M 39.759615 50.893209 
L 46.759615 50.893209 
L 53.759615 50.893209 
" style="fill: none; stroke: #007d32; stroke-width: 0.8; stroke-linecap: square"/>
    </g>
    <g id="text_19">
     <!-- 38 -->
     <g transform="translate(59.359615 53.343209) scale(0.07 -0.07)">
      <defs>
       <path id="Garamond-33" d="M 534 3150 
L 431 3206 
Q 628 3684 900 3879 
Q 1172 4075 1534 4075 
Q 1872 4075 2075 3925 
Q 2378 3700 2378 3419 
Q 2378 3191 2223 2959 
Q 2069 2728 1681 2441 
L 1756 2444 
Q 2000 2444 2226 2320 
Q 2453 2197 2584 1936 
Q 2716 1675 2716 1375 
Q 2716 772 2273 342 
Q 1831 -88 1147 -88 
Q 628 -88 381 63 
Q 247 141 247 259 
Q 247 325 301 378 
Q 356 431 438 431 
Q 541 431 688 319 
Q 1034 53 1291 53 
Q 1678 53 1978 379 
Q 2278 706 2278 1203 
Q 2278 1616 2076 1880 
Q 1875 2144 1566 2144 
Q 1334 2144 1084 1925 
L 1009 2050 
Q 1166 2184 1291 2278 
Q 1672 2556 1859 2825 
Q 1994 3019 1994 3166 
Q 1994 3413 1819 3583 
Q 1644 3753 1359 3753 
Q 891 3753 534 3150 
z
" transform="scale(0.015625)"/>
      </defs>
      <use xlink:href="#Garamond-33"/>
      <use xlink:href="#Garamond-38" transform="translate(46.875 0)"/>
     </g>
    </g>
    <g id="line2d_120">
     <path d="M 39.759615 58.988052 
L 46.759615 58.988052 
L 53.759615 58.988052 
" style="fill: none; stroke: #9b0058; stroke-width: 0.8; stroke-linecap: square"/>
    </g>
    <g id="text_20">
     <!-- 100 -->
     <g transform="translate(59.359615 61.438052) scale(0.07 -0.07)">
      <use xlink:href="#Garamond-31"/>
      <use xlink:href="#Garamond-30" transform="translate(46.875 0)"/>
      <use xlink:href="#Garamond-30" transform="translate(93.75 0)"/>
     </g>
    </g>
   </g>
  </g>
  <g id="axes_2">
   <g id="patch_7">
    <path d="M 274.639281 199.730126 
L 399.194529 199.730126 
L 399.194529 110.352318 
L 274.639281 110.352318 
z
" style="fill: #ffffff"/>
   </g>
   <g id="PathCollection_1">
    <defs>
     <path id="m2c56c0ebb3" d="M 0 1.3 
C 0.344764 1.3 0.675454 1.163024 0.919239 0.919239 
C 1.163024 0.675454 1.3 0.344764 1.3 0 
C 1.3 -0.344764 1.163024 -0.675454 0.919239 -0.919239 
C 0.675454 -1.163024 0.344764 -1.3 0 -1.3 
C -0.344764 -1.3 -0.675454 -1.163024 -0.919239 -0.919239 
C -1.163024 -0.675454 -1.3 -0.344764 -1.3 0 
C -1.3 0.344764 -1.163024 0.675454 -0.919239 0.919239 
C -0.675454 1.163024 -0.344764 1.3 0 1.3 
z
" style="stroke: #007d32"/>
    </defs>
    <g clip-path="url(#p57b5f1267a)">
     <use xlink:href="#m2c56c0ebb3" x="280.300883" y="195.667498" style="fill: #007d32; stroke: #007d32"/>
     <use xlink:href="#m2c56c0ebb3" x="284.830165" y="195.667498" style="fill: #007d32; stroke: #007d32"/>
     <use xlink:href="#m2c56c0ebb3" x="289.359447" y="195.667498" style="fill: #007d32; stroke: #007d32"/>
     <use xlink:href="#m2c56c0ebb3" x="293.888729" y="195.667498" style="fill: #007d32; stroke: #007d32"/>
     <use xlink:href="#m2c56c0ebb3" x="298.41801" y="195.667498" style="fill: #007d32; stroke: #007d32"/>
     <use xlink:href="#m2c56c0ebb3" x="302.947292" y="195.667498" style="fill: #007d32; stroke: #007d32"/>
     <use xlink:href="#m2c56c0ebb3" x="307.476574" y="195.667498" style="fill: #007d32; stroke: #007d32"/>
     <use xlink:href="#m2c56c0ebb3" x="312.005856" y="195.667498" style="fill: #007d32; stroke: #007d32"/>
     <use xlink:href="#m2c56c0ebb3" x="316.535137" y="195.667498" style="fill: #007d32; stroke: #007d32"/>
     <use xlink:href="#m2c56c0ebb3" x="321.064419" y="195.667498" style="fill: #007d32; stroke: #007d32"/>
     <use xlink:href="#m2c56c0ebb3" x="325.593701" y="195.667498" style="fill: #007d32; stroke: #007d32"/>
     <use xlink:href="#m2c56c0ebb3" x="330.122982" y="195.667176" style="fill: #007d32; stroke: #007d32"/>
     <use xlink:href="#m2c56c0ebb3" x="334.652264" y="194.532714" style="fill: #007d32; stroke: #007d32"/>
     <use xlink:href="#m2c56c0ebb3" x="339.181546" y="131.219528" style="fill: #007d32; stroke: #007d32"/>
     <use xlink:href="#m2c56c0ebb3" x="343.710828" y="128.715885" style="fill: #007d32; stroke: #007d32"/>
     <use xlink:href="#m2c56c0ebb3" x="348.240109" y="127.415354" style="fill: #007d32; stroke: #007d32"/>
     <use xlink:href="#m2c56c0ebb3" x="352.769391" y="126.115313" style="fill: #007d32; stroke: #007d32"/>
     <use xlink:href="#m2c56c0ebb3" x="357.298673" y="124.815272" style="fill: #007d32; stroke: #007d32"/>
     <use xlink:href="#m2c56c0ebb3" x="361.827955" y="123.515231" style="fill: #007d32; stroke: #007d32"/>
     <use xlink:href="#m2c56c0ebb3" x="366.357236" y="122.21519" style="fill: #007d32; stroke: #007d32"/>
     <use xlink:href="#m2c56c0ebb3" x="370.886518" y="120.915149" style="fill: #007d32; stroke: #007d32"/>
     <use xlink:href="#m2c56c0ebb3" x="375.4158" y="119.615109" style="fill: #007d32; stroke: #007d32"/>
     <use xlink:href="#m2c56c0ebb3" x="379.945082" y="118.315068" style="fill: #007d32; stroke: #007d32"/>
     <use xlink:href="#m2c56c0ebb3" x="384.474363" y="117.015027" style="fill: #007d32; stroke: #007d32"/>
     <use xlink:href="#m2c56c0ebb3" x="389.003645" y="115.714986" style="fill: #007d32; stroke: #007d32"/>
     <use xlink:href="#m2c56c0ebb3" x="393.532927" y="114.414945" style="fill: #007d32; stroke: #007d32"/>
    </g>
   </g>
   <g id="matplotlib.axis_3">
    <g id="xtick_28">
     <g id="line2d_121">
      <g>
       <use xlink:href="#mfaa5f4e92d" x="291.624088" y="199.730126" style="stroke: #000000; stroke-width: 0.5"/>
      </g>
     </g>
     <g id="line2d_122">
      <g>
       <use xlink:href="#mf10aed8e3a" x="291.624088" y="110.352318" style="stroke: #000000; stroke-width: 0.5"/>
      </g>
     </g>
     <g id="text_21">
      <!-- 0.8 -->
      <g transform="translate(286.420963 209.070282) scale(0.09 -0.09)">
       <use xlink:href="#Garamond-30"/>
       <use xlink:href="#Garamond-2e" transform="translate(46.875 0)"/>
       <use xlink:href="#Garamond-38" transform="translate(68.75 0)"/>
      </g>
     </g>
    </g>
    <g id="xtick_29">
     <g id="line2d_123">
      <g>
       <use xlink:href="#mfaa5f4e92d" x="336.916905" y="199.730126" style="stroke: #000000; stroke-width: 0.5"/>
      </g>
     </g>
     <g id="line2d_124">
      <g>
       <use xlink:href="#mf10aed8e3a" x="336.916905" y="110.352318" style="stroke: #000000; stroke-width: 0.5"/>
      </g>
     </g>
     <g id="text_22">
      <!-- 1.0 -->
      <g transform="translate(331.71378 209.070282) scale(0.09 -0.09)">
       <use xlink:href="#Garamond-31"/>
       <use xlink:href="#Garamond-2e" transform="translate(46.875 0)"/>
       <use xlink:href="#Garamond-30" transform="translate(68.75 0)"/>
      </g>
     </g>
    </g>
    <g id="xtick_30">
     <g id="line2d_125">
      <g>
       <use xlink:href="#mfaa5f4e92d" x="382.209723" y="199.730126" style="stroke: #000000; stroke-width: 0.5"/>
      </g>
     </g>
     <g id="line2d_126">
      <g>
       <use xlink:href="#mf10aed8e3a" x="382.209723" y="110.352318" style="stroke: #000000; stroke-width: 0.5"/>
      </g>
     </g>
     <g id="text_23">
      <!-- 1.2 -->
      <g transform="translate(377.006598 209.070282) scale(0.09 -0.09)">
       <use xlink:href="#Garamond-31"/>
       <use xlink:href="#Garamond-2e" transform="translate(46.875 0)"/>
       <use xlink:href="#Garamond-32" transform="translate(68.75 0)"/>
      </g>
     </g>
    </g>
    <g id="xtick_31">
     <g id="line2d_127">
      <g>
       <use xlink:href="#mdd3b540539" x="280.300883" y="199.730126" style="stroke: #000000; stroke-width: 0.5"/>
      </g>
     </g>
     <g id="line2d_128">
      <g>
       <use xlink:href="#mee02284861" x="280.300883" y="110.352318" style="stroke: #000000; stroke-width: 0.5"/>
      </g>
     </g>
    </g>
    <g id="xtick_32">
     <g id="line2d_129">
      <g>
       <use xlink:href="#mdd3b540539" x="302.947292" y="199.730126" style="stroke: #000000; stroke-width: 0.5"/>
      </g>
     </g>
     <g id="line2d_130">
      <g>
       <use xlink:href="#mee02284861" x="302.947292" y="110.352318" style="stroke: #000000; stroke-width: 0.5"/>
      </g>
     </g>
    </g>
    <g id="xtick_33">
     <g id="line2d_131">
      <g>
       <use xlink:href="#mdd3b540539" x="314.270496" y="199.730126" style="stroke: #000000; stroke-width: 0.5"/>
      </g>
     </g>
     <g id="line2d_132">
      <g>
       <use xlink:href="#mee02284861" x="314.270496" y="110.352318" style="stroke: #000000; stroke-width: 0.5"/>
      </g>
     </g>
    </g>
    <g id="xtick_34">
     <g id="line2d_133">
      <g>
       <use xlink:href="#mdd3b540539" x="325.593701" y="199.730126" style="stroke: #000000; stroke-width: 0.5"/>
      </g>
     </g>
     <g id="line2d_134">
      <g>
       <use xlink:href="#mee02284861" x="325.593701" y="110.352318" style="stroke: #000000; stroke-width: 0.5"/>
      </g>
     </g>
    </g>
    <g id="xtick_35">
     <g id="line2d_135">
      <g>
       <use xlink:href="#mdd3b540539" x="348.240109" y="199.730126" style="stroke: #000000; stroke-width: 0.5"/>
      </g>
     </g>
     <g id="line2d_136">
      <g>
       <use xlink:href="#mee02284861" x="348.240109" y="110.352318" style="stroke: #000000; stroke-width: 0.5"/>
      </g>
     </g>
    </g>
    <g id="xtick_36">
     <g id="line2d_137">
      <g>
       <use xlink:href="#mdd3b540539" x="359.563314" y="199.730126" style="stroke: #000000; stroke-width: 0.5"/>
      </g>
     </g>
     <g id="line2d_138">
      <g>
       <use xlink:href="#mee02284861" x="359.563314" y="110.352318" style="stroke: #000000; stroke-width: 0.5"/>
      </g>
     </g>
    </g>
    <g id="xtick_37">
     <g id="line2d_139">
      <g>
       <use xlink:href="#mdd3b540539" x="370.886518" y="199.730126" style="stroke: #000000; stroke-width: 0.5"/>
      </g>
     </g>
     <g id="line2d_140">
      <g>
       <use xlink:href="#mee02284861" x="370.886518" y="110.352318" style="stroke: #000000; stroke-width: 0.5"/>
      </g>
     </g>
    </g>
    <g id="xtick_38">
     <g id="line2d_141">
      <g>
       <use xlink:href="#mdd3b540539" x="393.532927" y="199.730126" style="stroke: #000000; stroke-width: 0.5"/>
      </g>
     </g>
     <g id="line2d_142">
      <g>
       <use xlink:href="#mee02284861" x="393.532927" y="110.352318" style="stroke: #000000; stroke-width: 0.5"/>
      </g>
     </g>
    </g>
    <g id="text_24">
     <!-- Time -->
     <g transform="translate(326.760655 221.867001) scale(0.1 -0.1)">
      <defs>
       <path id="Garamond-54" d="M 113 3531 
L 241 4003 
Q 253 4097 275 4123 
Q 297 4150 325 4150 
Q 381 4150 453 4016 
Q 506 3919 540 3892 
Q 575 3866 641 3856 
L 672 3859 
L 806 3847 
L 1544 3838 
L 2416 3841 
L 2672 3841 
L 3156 3850 
Q 3188 3850 3234 3844 
Q 3447 3825 3497 3825 
Q 3544 3825 3572 3856 
Q 3581 3869 3675 4069 
Q 3716 4159 3775 4159 
Q 3800 4159 3838 4147 
Q 3853 4084 3853 4034 
L 3850 3909 
L 3853 3644 
Q 3853 3547 3838 3019 
Q 3838 2984 3825 2956 
Q 3791 2934 3766 2934 
Q 3741 2934 3722 2957 
Q 3703 2981 3675 3103 
Q 3613 3384 3519 3506 
Q 3456 3584 3339 3618 
Q 3222 3653 2778 3653 
Q 2422 3653 2250 3641 
Q 2244 3516 2244 3413 
L 2269 1472 
Q 2269 1356 2256 1034 
L 2259 619 
L 2256 388 
Q 2256 278 2293 231 
Q 2331 184 2497 141 
Q 2784 69 2881 53 
Q 2941 47 2978 28 
L 2978 -66 
L 2534 -53 
Q 2169 -50 1984 -38 
L 1528 -59 
L 1194 -78 
Q 1053 -78 1022 -72 
L 978 -53 
Q 984 19 1006 39 
Q 1028 59 1122 72 
Q 1253 91 1431 139 
Q 1609 188 1666 238 
Q 1697 266 1709 331 
Q 1738 469 1738 872 
L 1738 1403 
L 1725 2563 
L 1713 2813 
L 1709 3647 
Q 1513 3669 1206 3669 
Q 756 3669 659 3613 
Q 506 3525 203 3100 
Q 103 2941 28 2941 
L 0 2947 
Q -13 2966 -13 2981 
Q -13 3019 38 3206 
Q 100 3447 113 3531 
z
" transform="scale(0.015625)"/>
       <path id="Garamond-69" d="M 444 3841 
Q 444 3944 523 4019 
Q 603 4094 716 4094 
Q 831 4094 918 4009 
Q 1006 3925 1006 3828 
Q 1006 3731 918 3645 
Q 831 3559 716 3559 
Q 600 3559 522 3637 
Q 444 3716 444 3841 
z
M 181 2222 
L 184 2313 
Q 388 2372 403 2381 
Q 516 2431 639 2534 
Q 763 2638 847 2766 
Q 884 2772 906 2772 
L 944 2769 
Q 956 2619 956 2550 
Q 956 2534 950 2409 
L 950 2244 
L 953 1344 
L 944 391 
Q 941 275 981 229 
Q 1022 184 1222 128 
Q 1347 94 1409 69 
Q 1419 47 1419 31 
Q 1419 13 1403 -16 
Q 1281 -13 1091 0 
Q 831 22 747 22 
Q 706 22 247 6 
Q 153 3 66 -9 
Q 50 -9 16 0 
Q 0 22 0 38 
Q 0 81 59 106 
Q 72 113 378 178 
Q 478 197 509 241 
Q 563 306 563 450 
Q 569 691 569 1769 
Q 569 1984 550 2038 
Q 534 2075 467 2123 
Q 400 2172 181 2222 
z
" transform="scale(0.015625)"/>
       <path id="Garamond-6d" d="M 125 109 
Q 175 144 263 156 
Q 388 172 456 206 
Q 513 253 531 341 
Q 553 453 553 1131 
Q 553 1797 513 1991 
Q 444 2034 334 2059 
Q 300 2066 191 2094 
L 191 2197 
Q 375 2250 489 2334 
Q 603 2419 806 2672 
L 825 2672 
Q 844 2672 884 2675 
Q 909 2672 925 2659 
L 922 2303 
Q 922 2194 928 2069 
Q 1263 2372 1528 2494 
Q 1709 2575 1938 2575 
Q 2209 2575 2368 2472 
Q 2528 2369 2672 2100 
Q 2950 2375 3176 2484 
Q 3403 2594 3634 2594 
Q 3984 2594 4209 2366 
Q 4431 2134 4438 1688 
L 4438 1428 
L 4441 1144 
L 4438 413 
Q 4434 284 4494 219 
Q 4519 209 4684 163 
Q 4788 134 4806 118 
Q 4825 103 4825 75 
Q 4825 41 4806 -6 
L 4784 -6 
L 4469 13 
Q 4413 16 4291 16 
Q 4141 16 3872 3 
L 3713 3 
Q 3678 3 3578 0 
Q 3575 28 3575 50 
Q 3575 75 3597 113 
Q 3681 150 3828 173 
Q 3975 197 4011 258 
Q 4047 319 4047 744 
Q 4047 1666 4025 1813 
Q 3988 2047 3827 2180 
Q 3666 2313 3422 2313 
Q 3234 2313 3056 2214 
Q 2878 2116 2706 1919 
L 2703 1844 
L 2703 1366 
L 2691 994 
Q 2691 425 2702 347 
Q 2713 269 2755 233 
Q 2797 197 3000 169 
Q 3091 156 3141 144 
Q 3178 113 3178 63 
Q 3178 22 3150 6 
L 3097 6 
L 2941 9 
L 2031 9 
L 1781 6 
Q 1775 53 1775 75 
L 1778 113 
Q 1847 150 2034 184 
Q 2131 200 2234 238 
Q 2253 253 2263 278 
Q 2278 322 2284 528 
L 2300 891 
L 2294 1300 
L 2297 1528 
Q 2297 1913 2140 2089 
Q 1984 2266 1747 2266 
Q 1525 2266 1301 2156 
Q 1078 2047 931 1863 
Q 928 1775 928 1703 
L 941 653 
Q 944 309 980 261 
Q 1016 213 1141 194 
Q 1341 166 1400 125 
Q 1428 106 1428 69 
Q 1428 44 1425 9 
Q 1069 34 947 34 
Q 822 34 722 31 
L 566 22 
L 469 22 
L 119 9 
Q 113 31 113 47 
Q 113 63 125 109 
z
" transform="scale(0.015625)"/>
      </defs>
      <use xlink:href="#Garamond-54"/>
      <use xlink:href="#Garamond-69" transform="translate(61.474609 0)"/>
      <use xlink:href="#Garamond-6d" transform="translate(84.375 0)"/>
      <use xlink:href="#Garamond-65" transform="translate(161.474609 0)"/>
     </g>
    </g>
   </g>
   <g id="matplotlib.axis_4">
    <g id="ytick_29">
     <g id="line2d_143">
      <g>
       <use xlink:href="#me331d6f701" x="274.639281" y="195.667498" style="stroke: #000000; stroke-width: 0.5"/>
      </g>
     </g>
     <g id="line2d_144">
      <g>
       <use xlink:href="#m5511c7243f" x="399.194529" y="195.667498" style="stroke: #000000; stroke-width: 0.5"/>
      </g>
     </g>
     <g id="text_25">
      <!-- 0.0 -->
      <g transform="translate(260.733031 198.587576) scale(0.09 -0.09)">
       <use xlink:href="#Garamond-30"/>
       <use xlink:href="#Garamond-2e" transform="translate(46.875 0)"/>
       <use xlink:href="#Garamond-30" transform="translate(68.75 0)"/>
      </g>
     </g>
    </g>
    <g id="ytick_30">
     <g id="line2d_145">
      <g>
       <use xlink:href="#me331d6f701" x="274.639281" y="163.166477" style="stroke: #000000; stroke-width: 0.5"/>
      </g>
     </g>
     <g id="line2d_146">
      <g>
       <use xlink:href="#m5511c7243f" x="399.194529" y="163.166477" style="stroke: #000000; stroke-width: 0.5"/>
      </g>
     </g>
     <g id="text_26">
      <!-- 0.5 -->
      <g transform="translate(260.733031 166.086555) scale(0.09 -0.09)">
       <use xlink:href="#Garamond-30"/>
       <use xlink:href="#Garamond-2e" transform="translate(46.875 0)"/>
       <use xlink:href="#Garamond-35" transform="translate(68.75 0)"/>
      </g>
     </g>
    </g>
    <g id="ytick_31">
     <g id="line2d_147">
      <g>
       <use xlink:href="#me331d6f701" x="274.639281" y="130.665456" style="stroke: #000000; stroke-width: 0.5"/>
      </g>
     </g>
     <g id="line2d_148">
      <g>
       <use xlink:href="#m5511c7243f" x="399.194529" y="130.665456" style="stroke: #000000; stroke-width: 0.5"/>
      </g>
     </g>
     <g id="text_27">
      <!-- 1.0 -->
      <g transform="translate(260.733031 133.585534) scale(0.09 -0.09)">
       <use xlink:href="#Garamond-31"/>
       <use xlink:href="#Garamond-2e" transform="translate(46.875 0)"/>
       <use xlink:href="#Garamond-30" transform="translate(68.75 0)"/>
      </g>
     </g>
    </g>
    <g id="ytick_32">
     <g id="line2d_149">
      <g>
       <use xlink:href="#m58b86a3c1e" x="274.639281" y="189.167294" style="stroke: #000000; stroke-width: 0.5"/>
      </g>
     </g>
     <g id="line2d_150">
      <g>
       <use xlink:href="#m277865d67b" x="399.194529" y="189.167294" style="stroke: #000000; stroke-width: 0.5"/>
      </g>
     </g>
    </g>
    <g id="ytick_33">
     <g id="line2d_151">
      <g>
       <use xlink:href="#m58b86a3c1e" x="274.639281" y="182.66709" style="stroke: #000000; stroke-width: 0.5"/>
      </g>
     </g>
     <g id="line2d_152">
      <g>
       <use xlink:href="#m277865d67b" x="399.194529" y="182.66709" style="stroke: #000000; stroke-width: 0.5"/>
      </g>
     </g>
    </g>
    <g id="ytick_34">
     <g id="line2d_153">
      <g>
       <use xlink:href="#m58b86a3c1e" x="274.639281" y="176.166885" style="stroke: #000000; stroke-width: 0.5"/>
      </g>
     </g>
     <g id="line2d_154">
      <g>
       <use xlink:href="#m277865d67b" x="399.194529" y="176.166885" style="stroke: #000000; stroke-width: 0.5"/>
      </g>
     </g>
    </g>
    <g id="ytick_35">
     <g id="line2d_155">
      <g>
       <use xlink:href="#m58b86a3c1e" x="274.639281" y="169.666681" style="stroke: #000000; stroke-width: 0.5"/>
      </g>
     </g>
     <g id="line2d_156">
      <g>
       <use xlink:href="#m277865d67b" x="399.194529" y="169.666681" style="stroke: #000000; stroke-width: 0.5"/>
      </g>
     </g>
    </g>
    <g id="ytick_36">
     <g id="line2d_157">
      <g>
       <use xlink:href="#m58b86a3c1e" x="274.639281" y="156.666273" style="stroke: #000000; stroke-width: 0.5"/>
      </g>
     </g>
     <g id="line2d_158">
      <g>
       <use xlink:href="#m277865d67b" x="399.194529" y="156.666273" style="stroke: #000000; stroke-width: 0.5"/>
      </g>
     </g>
    </g>
    <g id="ytick_37">
     <g id="line2d_159">
      <g>
       <use xlink:href="#m58b86a3c1e" x="274.639281" y="150.166068" style="stroke: #000000; stroke-width: 0.5"/>
      </g>
     </g>
     <g id="line2d_160">
      <g>
       <use xlink:href="#m277865d67b" x="399.194529" y="150.166068" style="stroke: #000000; stroke-width: 0.5"/>
      </g>
     </g>
    </g>
    <g id="ytick_38">
     <g id="line2d_161">
      <g>
       <use xlink:href="#m58b86a3c1e" x="274.639281" y="143.665864" style="stroke: #000000; stroke-width: 0.5"/>
      </g>
     </g>
     <g id="line2d_162">
      <g>
       <use xlink:href="#m277865d67b" x="399.194529" y="143.665864" style="stroke: #000000; stroke-width: 0.5"/>
      </g>
     </g>
    </g>
    <g id="ytick_39">
     <g id="line2d_163">
      <g>
       <use xlink:href="#m58b86a3c1e" x="274.639281" y="137.16566" style="stroke: #000000; stroke-width: 0.5"/>
      </g>
     </g>
     <g id="line2d_164">
      <g>
       <use xlink:href="#m277865d67b" x="399.194529" y="137.16566" style="stroke: #000000; stroke-width: 0.5"/>
      </g>
     </g>
    </g>
    <g id="ytick_40">
     <g id="line2d_165">
      <g>
       <use xlink:href="#m58b86a3c1e" x="274.639281" y="124.165252" style="stroke: #000000; stroke-width: 0.5"/>
      </g>
     </g>
     <g id="line2d_166">
      <g>
       <use xlink:href="#m277865d67b" x="399.194529" y="124.165252" style="stroke: #000000; stroke-width: 0.5"/>
      </g>
     </g>
    </g>
    <g id="ytick_41">
     <g id="line2d_167">
      <g>
       <use xlink:href="#m58b86a3c1e" x="274.639281" y="117.665047" style="stroke: #000000; stroke-width: 0.5"/>
      </g>
     </g>
     <g id="line2d_168">
      <g>
       <use xlink:href="#m277865d67b" x="399.194529" y="117.665047" style="stroke: #000000; stroke-width: 0.5"/>
      </g>
     </g>
    </g>
    <g id="ytick_42">
     <g id="line2d_169">
      <g>
       <use xlink:href="#m58b86a3c1e" x="274.639281" y="111.164843" style="stroke: #000000; stroke-width: 0.5"/>
      </g>
     </g>
     <g id="line2d_170">
      <g>
       <use xlink:href="#m277865d67b" x="399.194529" y="111.164843" style="stroke: #000000; stroke-width: 0.5"/>
      </g>
     </g>
    </g>
    <g id="text_28">
     <!-- Signal -->
     <g transform="translate(254.154906 166.549034) rotate(-90) scale(0.1 -0.1)">
      <defs>
       <path id="Garamond-53" d="M 2484 3856 
Q 2509 3650 2509 3619 
L 2497 3341 
Q 2491 3163 2481 3113 
Q 2453 3100 2434 3100 
L 2406 3106 
Q 2306 3544 2067 3744 
Q 1828 3944 1484 3944 
Q 1128 3944 900 3744 
Q 672 3544 672 3278 
Q 672 3075 831 2906 
Q 991 2738 1647 2400 
Q 2147 2141 2362 1977 
Q 2578 1813 2687 1597 
Q 2797 1381 2797 1116 
Q 2797 781 2623 487 
Q 2450 194 2156 45 
Q 1863 -103 1378 -103 
Q 956 -103 569 31 
Q 341 113 291 163 
Q 241 213 241 269 
Q 241 303 247 356 
Q 291 725 294 963 
Q 300 1109 316 1134 
Q 328 1156 363 1156 
Q 391 1156 408 1136 
Q 425 1116 431 1059 
Q 466 675 788 372 
Q 1106 69 1509 69 
Q 1756 69 1964 172 
Q 2172 275 2289 470 
Q 2406 666 2406 850 
Q 2406 1103 2228 1313 
Q 2050 1522 1512 1801 
Q 975 2081 813 2209 
Q 550 2419 419 2653 
Q 322 2834 322 3075 
Q 322 3509 665 3811 
Q 1009 4113 1588 4113 
Q 1906 4113 2138 4041 
Q 2306 3984 2484 3856 
z
" transform="scale(0.015625)"/>
      </defs>
      <use xlink:href="#Garamond-53"/>
      <use xlink:href="#Garamond-69" transform="translate(47.900391 0)"/>
      <use xlink:href="#Garamond-67" transform="translate(70.800781 0)"/>
      <use xlink:href="#Garamond-6e" transform="translate(115.576172 0)"/>
      <use xlink:href="#Garamond-61" transform="translate(166.601562 0)"/>
      <use xlink:href="#Garamond-6c" transform="translate(207.226562 0)"/>
     </g>
    </g>
   </g>
   <g id="patch_8">
    <path d="M 274.639281 199.730126 
L 274.639281 110.352318 
" style="fill: none; stroke: #000000; stroke-width: 0.75; stroke-linejoin: miter; stroke-linecap: square"/>
   </g>
   <g id="patch_9">
    <path d="M 399.194529 199.730126 
L 399.194529 110.352318 
" style="fill: none; stroke: #000000; stroke-width: 0.75; stroke-linejoin: miter; stroke-linecap: square"/>
   </g>
   <g id="patch_10">
    <path d="M 274.639281 199.730126 
L 399.194529 199.730126 
" style="fill: none; stroke: #000000; stroke-width: 0.75; stroke-linejoin: miter; stroke-linecap: square"/>
   </g>
   <g id="patch_11">
    <path d="M 274.639281 110.352318 
L 399.194529 110.352318 
" style="fill: none; stroke: #000000; stroke-width: 0.75; stroke-linejoin: miter; stroke-linecap: square"/>
   </g>
  </g>
  <g id="axes_3">
   <g id="patch_12">
    <path d="M 290.589898 144.924309 
L 331.69313 144.924309 
L 331.69313 115.429632 
L 290.589898 115.429632 
z
" style="fill: #ffffff"/>
   </g>
   <g id="PathCollection_2">
    <g clip-path="url(#p4e8023143c)">
     <use xlink:href="#m2c56c0ebb3" x="292.458227" y="143.583642" style="fill: #007d32; stroke: #007d32"/>
     <use xlink:href="#m2c56c0ebb3" x="294.326556" y="143.583642" style="fill: #007d32; stroke: #007d32"/>
     <use xlink:href="#m2c56c0ebb3" x="296.194884" y="143.583642" style="fill: #007d32; stroke: #007d32"/>
     <use xlink:href="#m2c56c0ebb3" x="298.063213" y="143.583642" style="fill: #007d32; stroke: #007d32"/>
     <use xlink:href="#m2c56c0ebb3" x="299.931542" y="143.583642" style="fill: #007d32; stroke: #007d32"/>
     <use xlink:href="#m2c56c0ebb3" x="301.799871" y="143.583642" style="fill: #007d32; stroke: #007d32"/>
     <use xlink:href="#m2c56c0ebb3" x="303.668199" y="143.583642" style="fill: #007d32; stroke: #007d32"/>
     <use xlink:href="#m2c56c0ebb3" x="305.536528" y="143.583642" style="fill: #007d32; stroke: #007d32"/>
     <use xlink:href="#m2c56c0ebb3" x="307.404857" y="143.583642" style="fill: #007d32; stroke: #007d32"/>
     <use xlink:href="#m2c56c0ebb3" x="309.273185" y="143.583637" style="fill: #007d32; stroke: #007d32"/>
     <use xlink:href="#m2c56c0ebb3" x="311.141514" y="132.858305" style="fill: #007d32; stroke: #007d32"/>
     <use xlink:href="#m2c56c0ebb3" x="313.009843" y="121.596709" style="fill: #007d32; stroke: #007d32"/>
     <use xlink:href="#m2c56c0ebb3" x="314.878172" y="121.060434" style="fill: #007d32; stroke: #007d32"/>
     <use xlink:href="#m2c56c0ebb3" x="316.7465" y="120.524167" style="fill: #007d32; stroke: #007d32"/>
     <use xlink:href="#m2c56c0ebb3" x="318.614829" y="119.987901" style="fill: #007d32; stroke: #007d32"/>
     <use xlink:href="#m2c56c0ebb3" x="320.483158" y="119.451634" style="fill: #007d32; stroke: #007d32"/>
     <use xlink:href="#m2c56c0ebb3" x="322.351487" y="118.915367" style="fill: #007d32; stroke: #007d32"/>
     <use xlink:href="#m2c56c0ebb3" x="324.219815" y="118.3791" style="fill: #007d32; stroke: #007d32"/>
     <use xlink:href="#m2c56c0ebb3" x="326.088144" y="117.842833" style="fill: #007d32; stroke: #007d32"/>
     <use xlink:href="#m2c56c0ebb3" x="327.956473" y="117.306566" style="fill: #007d32; stroke: #007d32"/>
     <use xlink:href="#m2c56c0ebb3" x="329.824801" y="116.770299" style="fill: #007d32; stroke: #007d32"/>
    </g>
   </g>
   <g id="matplotlib.axis_5">
    <g id="xtick_39">
     <g id="line2d_171">
      <g>
       <use xlink:href="#mfaa5f4e92d" x="292.458227" y="144.924309" style="stroke: #000000; stroke-width: 0.5"/>
      </g>
     </g>
     <g id="line2d_172">
      <g>
       <use xlink:href="#mf10aed8e3a" x="292.458227" y="115.429632" style="stroke: #000000; stroke-width: 0.5"/>
      </g>
     </g>
     <g id="text_29">
      <!-- 0.75 -->
      <g transform="translate(285.145727 154.264465) scale(0.09 -0.09)">
       <defs>
        <path id="Garamond-37" d="M 341 3950 
Q 725 3966 1378 3966 
Q 1675 3966 2056 3956 
Q 2288 3947 2359 3947 
L 2663 3950 
L 2734 3950 
Q 2759 3925 2759 3903 
Q 2759 3866 2688 3722 
Q 2653 3659 2384 3038 
Q 2253 2731 2063 2234 
L 1669 1125 
Q 1528 744 1488 594 
L 1416 303 
Q 1372 175 1372 116 
Q 1372 69 1425 -31 
Q 1388 -81 1256 -81 
Q 1197 -81 1144 -31 
Q 1163 153 1263 456 
Q 1300 566 1390 887 
Q 1481 1209 1569 1456 
L 1925 2425 
Q 2078 2838 2222 3184 
Q 2272 3300 2297 3347 
Q 2363 3463 2363 3538 
L 2322 3534 
L 2288 3534 
L 1875 3547 
Q 1856 3547 1743 3540 
Q 1631 3534 1575 3534 
L 1091 3538 
L 944 3538 
L 738 3544 
Q 556 3547 511 3501 
Q 466 3456 459 3269 
Q 456 3222 434 3178 
Q 400 3169 384 3169 
Q 350 3169 294 3194 
Q 297 3272 297 3309 
L 303 3403 
L 294 3575 
Q 294 3800 306 3878 
Q 313 3909 341 3950 
z
" transform="scale(0.015625)"/>
       </defs>
       <use xlink:href="#Garamond-30"/>
       <use xlink:href="#Garamond-2e" transform="translate(46.875 0)"/>
       <use xlink:href="#Garamond-37" transform="translate(68.75 0)"/>
       <use xlink:href="#Garamond-35" transform="translate(115.625 0)"/>
      </g>
     </g>
    </g>
    <g id="xtick_40">
     <g id="line2d_173">
      <g>
       <use xlink:href="#mfaa5f4e92d" x="311.141514" y="144.924309" style="stroke: #000000; stroke-width: 0.5"/>
      </g>
     </g>
     <g id="line2d_174">
      <g>
       <use xlink:href="#mf10aed8e3a" x="311.141514" y="115.429632" style="stroke: #000000; stroke-width: 0.5"/>
      </g>
     </g>
     <g id="text_30">
      <!-- 1.00 -->
      <g transform="translate(303.829014 154.264465) scale(0.09 -0.09)">
       <use xlink:href="#Garamond-31"/>
       <use xlink:href="#Garamond-2e" transform="translate(46.875 0)"/>
       <use xlink:href="#Garamond-30" transform="translate(68.75 0)"/>
       <use xlink:href="#Garamond-30" transform="translate(115.625 0)"/>
      </g>
     </g>
    </g>
    <g id="xtick_41">
     <g id="line2d_175">
      <g>
       <use xlink:href="#mfaa5f4e92d" x="329.824801" y="144.924309" style="stroke: #000000; stroke-width: 0.5"/>
      </g>
     </g>
     <g id="line2d_176">
      <g>
       <use xlink:href="#mf10aed8e3a" x="329.824801" y="115.429632" style="stroke: #000000; stroke-width: 0.5"/>
      </g>
     </g>
     <g id="text_31">
      <!-- 1.25 -->
      <g transform="translate(322.512301 154.264465) scale(0.09 -0.09)">
       <use xlink:href="#Garamond-31"/>
       <use xlink:href="#Garamond-2e" transform="translate(46.875 0)"/>
       <use xlink:href="#Garamond-32" transform="translate(68.75 0)"/>
       <use xlink:href="#Garamond-35" transform="translate(115.625 0)"/>
      </g>
     </g>
    </g>
    <g id="xtick_42">
     <g id="line2d_177">
      <g>
       <use xlink:href="#mdd3b540539" x="296.194884" y="144.924309" style="stroke: #000000; stroke-width: 0.5"/>
      </g>
     </g>
     <g id="line2d_178">
      <g>
       <use xlink:href="#mee02284861" x="296.194884" y="115.429632" style="stroke: #000000; stroke-width: 0.5"/>
      </g>
     </g>
    </g>
    <g id="xtick_43">
     <g id="line2d_179">
      <g>
       <use xlink:href="#mdd3b540539" x="299.931542" y="144.924309" style="stroke: #000000; stroke-width: 0.5"/>
      </g>
     </g>
     <g id="line2d_180">
      <g>
       <use xlink:href="#mee02284861" x="299.931542" y="115.429632" style="stroke: #000000; stroke-width: 0.5"/>
      </g>
     </g>
    </g>
    <g id="xtick_44">
     <g id="line2d_181">
      <g>
       <use xlink:href="#mdd3b540539" x="303.668199" y="144.924309" style="stroke: #000000; stroke-width: 0.5"/>
      </g>
     </g>
     <g id="line2d_182">
      <g>
       <use xlink:href="#mee02284861" x="303.668199" y="115.429632" style="stroke: #000000; stroke-width: 0.5"/>
      </g>
     </g>
    </g>
    <g id="xtick_45">
     <g id="line2d_183">
      <g>
       <use xlink:href="#mdd3b540539" x="307.404857" y="144.924309" style="stroke: #000000; stroke-width: 0.5"/>
      </g>
     </g>
     <g id="line2d_184">
      <g>
       <use xlink:href="#mee02284861" x="307.404857" y="115.429632" style="stroke: #000000; stroke-width: 0.5"/>
      </g>
     </g>
    </g>
    <g id="xtick_46">
     <g id="line2d_185">
      <g>
       <use xlink:href="#mdd3b540539" x="314.878172" y="144.924309" style="stroke: #000000; stroke-width: 0.5"/>
      </g>
     </g>
     <g id="line2d_186">
      <g>
       <use xlink:href="#mee02284861" x="314.878172" y="115.429632" style="stroke: #000000; stroke-width: 0.5"/>
      </g>
     </g>
    </g>
    <g id="xtick_47">
     <g id="line2d_187">
      <g>
       <use xlink:href="#mdd3b540539" x="318.614829" y="144.924309" style="stroke: #000000; stroke-width: 0.5"/>
      </g>
     </g>
     <g id="line2d_188">
      <g>
       <use xlink:href="#mee02284861" x="318.614829" y="115.429632" style="stroke: #000000; stroke-width: 0.5"/>
      </g>
     </g>
    </g>
    <g id="xtick_48">
     <g id="line2d_189">
      <g>
       <use xlink:href="#mdd3b540539" x="322.351487" y="144.924309" style="stroke: #000000; stroke-width: 0.5"/>
      </g>
     </g>
     <g id="line2d_190">
      <g>
       <use xlink:href="#mee02284861" x="322.351487" y="115.429632" style="stroke: #000000; stroke-width: 0.5"/>
      </g>
     </g>
    </g>
    <g id="xtick_49">
     <g id="line2d_191">
      <g>
       <use xlink:href="#mdd3b540539" x="326.088144" y="144.924309" style="stroke: #000000; stroke-width: 0.5"/>
      </g>
     </g>
     <g id="line2d_192">
      <g>
       <use xlink:href="#mee02284861" x="326.088144" y="115.429632" style="stroke: #000000; stroke-width: 0.5"/>
      </g>
     </g>
    </g>
   </g>
   <g id="matplotlib.axis_6">
    <g id="ytick_43">
     <g id="line2d_193">
      <g>
       <use xlink:href="#me331d6f701" x="290.589898" y="143.583642" style="stroke: #000000; stroke-width: 0.5"/>
      </g>
     </g>
     <g id="line2d_194">
      <g>
       <use xlink:href="#m5511c7243f" x="331.69313" y="143.583642" style="stroke: #000000; stroke-width: 0.5"/>
      </g>
     </g>
     <g id="text_32">
      <!-- 0 -->
      <g transform="translate(282.871148 146.50372) scale(0.09 -0.09)">
       <use xlink:href="#Garamond-30"/>
      </g>
     </g>
    </g>
    <g id="ytick_44">
     <g id="line2d_195">
      <g>
       <use xlink:href="#me331d6f701" x="290.589898" y="122.132968" style="stroke: #000000; stroke-width: 0.5"/>
      </g>
     </g>
     <g id="line2d_196">
      <g>
       <use xlink:href="#m5511c7243f" x="331.69313" y="122.132968" style="stroke: #000000; stroke-width: 0.5"/>
      </g>
     </g>
     <g id="text_33">
      <!-- 1 -->
      <g transform="translate(282.871148 125.053046) scale(0.09 -0.09)">
       <use xlink:href="#Garamond-31"/>
      </g>
     </g>
    </g>
    <g id="ytick_45">
     <g id="line2d_197">
      <g>
       <use xlink:href="#m58b86a3c1e" x="290.589898" y="139.293507" style="stroke: #000000; stroke-width: 0.5"/>
      </g>
     </g>
     <g id="line2d_198">
      <g>
       <use xlink:href="#m277865d67b" x="331.69313" y="139.293507" style="stroke: #000000; stroke-width: 0.5"/>
      </g>
     </g>
    </g>
    <g id="ytick_46">
     <g id="line2d_199">
      <g>
       <use xlink:href="#m58b86a3c1e" x="290.589898" y="135.003372" style="stroke: #000000; stroke-width: 0.5"/>
      </g>
     </g>
     <g id="line2d_200">
      <g>
       <use xlink:href="#m277865d67b" x="331.69313" y="135.003372" style="stroke: #000000; stroke-width: 0.5"/>
      </g>
     </g>
    </g>
    <g id="ytick_47">
     <g id="line2d_201">
      <g>
       <use xlink:href="#m58b86a3c1e" x="290.589898" y="130.713238" style="stroke: #000000; stroke-width: 0.5"/>
      </g>
     </g>
     <g id="line2d_202">
      <g>
       <use xlink:href="#m277865d67b" x="331.69313" y="130.713238" style="stroke: #000000; stroke-width: 0.5"/>
      </g>
     </g>
    </g>
    <g id="ytick_48">
     <g id="line2d_203">
      <g>
       <use xlink:href="#m58b86a3c1e" x="290.589898" y="126.423103" style="stroke: #000000; stroke-width: 0.5"/>
      </g>
     </g>
     <g id="line2d_204">
      <g>
       <use xlink:href="#m277865d67b" x="331.69313" y="126.423103" style="stroke: #000000; stroke-width: 0.5"/>
      </g>
     </g>
    </g>
    <g id="ytick_49">
     <g id="line2d_205">
      <g>
       <use xlink:href="#m58b86a3c1e" x="290.589898" y="117.842833" style="stroke: #000000; stroke-width: 0.5"/>
      </g>
     </g>
     <g id="line2d_206">
      <g>
       <use xlink:href="#m277865d67b" x="331.69313" y="117.842833" style="stroke: #000000; stroke-width: 0.5"/>
      </g>
     </g>
    </g>
   </g>
   <g id="patch_13">
    <path d="M 290.589898 144.924309 
L 290.589898 115.429632 
" style="fill: none; stroke: #000000; stroke-width: 0.75; stroke-linejoin: miter; stroke-linecap: square"/>
   </g>
   <g id="patch_14">
    <path d="M 331.69313 144.924309 
L 331.69313 115.429632 
" style="fill: none; stroke: #000000; stroke-width: 0.75; stroke-linejoin: miter; stroke-linecap: square"/>
   </g>
   <g id="patch_15">
    <path d="M 290.589898 144.924309 
L 331.69313 144.924309 
" style="fill: none; stroke: #000000; stroke-width: 0.75; stroke-linejoin: miter; stroke-linecap: square"/>
   </g>
   <g id="patch_16">
    <path d="M 290.589898 115.429632 
L 331.69313 115.429632 
" style="fill: none; stroke: #000000; stroke-width: 0.75; stroke-linejoin: miter; stroke-linecap: square"/>
   </g>
  </g>
 </g>
 <defs>
  <clipPath id="p178519d446">
   <rect x="29.959615" y="3.00024" width="377.440145" height="223.44452"/>
  </clipPath>
  <clipPath id="p57b5f1267a">
   <rect x="274.639281" y="110.352318" width="124.555248" height="89.377808"/>
  </clipPath>
  <clipPath id="p4e8023143c">
   <rect x="290.589898" y="115.429632" width="41.103232" height="29.494677"/>
  </clipPath>
 </defs>
</svg>
