<?xml version="1.0" encoding="utf-8" standalone="no"?>
<!DOCTYPE svg PUBLIC "-//W3C//DTD SVG 1.1//EN"
  "http://www.w3.org/Graphics/SVG/1.1/DTD/svg11.dtd">
<svg xmlns:xlink="http://www.w3.org/1999/xlink" width="408.96pt" height="190.08pt" viewBox="0 0 408.96 190.08" xmlns="http://www.w3.org/2000/svg" version="1.1">
 <metadata>
  <rdf:RDF xmlns:dc="http://purl.org/dc/elements/1.1/" xmlns:cc="http://creativecommons.org/ns#" xmlns:rdf="http://www.w3.org/1999/02/22-rdf-syntax-ns#">
   <cc:Work>
    <dc:type rdf:resource="http://purl.org/dc/dcmitype/StillImage"/>
    <dc:date>2025-12-23T13:12:16.470173</dc:date>
    <dc:format>image/svg+xml</dc:format>
    <dc:creator>
     <cc:Agent>
      <dc:title>Matplotlib v3.10.6, https://matplotlib.org/</dc:title>
     </cc:Agent>
    </dc:creator>
   </cc:Work>
  </rdf:RDF>
 </metadata>
 <defs>
  <style type="text/css">*{stroke-linejoin: round; stroke-linecap: butt}</style>
 </defs>
 <g id="figure_1">
  <g id="patch_1">
   <path d="M 0 190.08 
L 408.96 190.08 
L 408.96 0 
L 0 0 
z
" style="fill: #ffffff"/>
  </g>
  <g id="axes_1">
   <g id="patch_2">
    <path d="M 31.663468 162.36476 
L 203.032478 162.36476 
L 203.032478 3.00024 
L 31.663468 3.00024 
z
" style="fill: #ffffff"/>
   </g>
   <g id="matplotlib.axis_1">
    <g id="xtick_1">
     <g id="line2d_1">
      <defs>
       <path id="mf993e05095" d="M 0 0 
L 0 -3 
" style="stroke: #000000; stroke-width: 0.5"/>
      </defs>
      <g>
       <use xlink:href="#mf993e05095" x="55.031969" y="162.36476" style="stroke: #000000; stroke-width: 0.5"/>
      </g>
     </g>
     <g id="line2d_2">
      <defs>
       <path id="me00ded7c6b" d="M 0 0 
L 0 3 
" style="stroke: #000000; stroke-width: 0.5"/>
      </defs>
      <g>
       <use xlink:href="#me00ded7c6b" x="55.031969" y="3.00024" style="stroke: #000000; stroke-width: 0.5"/>
      </g>
     </g>
     <g id="text_1">
      <!-- 0.8 -->
      <g transform="translate(49.828844 171.704916) scale(0.09 -0.09)">
       <defs>
        <path id="Garamond-30" d="M 2800 1972 
Q 2800 1650 2753 1400 
Q 2669 969 2519 678 
Q 2369 388 2163 188 
Q 2013 41 1844 -26 
Q 1675 -94 1500 -94 
Q 1191 -94 914 112 
Q 638 319 431 794 
Q 225 1269 225 1913 
Q 225 2416 350 2878 
Q 475 3341 679 3595 
Q 884 3850 1086 3962 
Q 1288 4075 1525 4075 
Q 1859 4075 2173 3812 
Q 2488 3550 2675 2997 
Q 2800 2625 2800 1972 
z
M 2331 2075 
Q 2328 2844 2275 3119 
Q 2188 3572 1989 3753 
Q 1791 3934 1525 3934 
Q 1303 3934 1104 3790 
Q 906 3647 831 3341 
Q 703 2844 703 1834 
Q 703 834 901 436 
Q 1100 38 1497 38 
Q 1769 38 1967 206 
Q 2166 375 2252 833 
Q 2338 1291 2334 1859 
L 2331 2075 
z
" transform="scale(0.015625)"/>
        <path id="Garamond-2e" d="M 375 253 
Q 375 391 476 494 
Q 578 597 713 597 
Q 844 597 934 500 
Q 1025 403 1025 256 
Q 1025 109 929 9 
Q 834 -91 700 -91 
Q 569 -91 472 11 
Q 375 113 375 253 
z
" transform="scale(0.015625)"/>
        <path id="Garamond-38" d="M 1206 1997 
Q 903 2159 794 2256 
Q 638 2391 533 2603 
Q 428 2816 428 3038 
Q 428 3425 736 3739 
Q 1044 4053 1491 4053 
Q 1994 4053 2287 3787 
Q 2581 3522 2581 3141 
Q 2581 2928 2493 2753 
Q 2406 2578 2234 2438 
Q 2119 2341 1838 2197 
Q 2266 1969 2347 1903 
Q 2516 1772 2631 1556 
Q 2747 1341 2747 1078 
Q 2747 588 2408 250 
Q 2069 -88 1544 -88 
Q 1003 -88 683 207 
Q 363 503 363 938 
Q 363 1184 447 1386 
Q 531 1588 709 1731 
Q 847 1841 1206 1997 
z
M 1697 2269 
Q 1959 2413 2063 2566 
Q 2231 2819 2231 3141 
Q 2231 3391 2131 3570 
Q 2031 3750 1864 3828 
Q 1697 3906 1503 3906 
Q 1194 3906 994 3693 
Q 794 3481 794 3172 
Q 794 2991 847 2870 
Q 900 2750 1016 2647 
Q 1091 2578 1366 2400 
Q 1406 2375 1563 2322 
Q 1609 2306 1697 2269 
z
M 1359 1928 
Q 1134 1809 1044 1719 
Q 906 1588 828 1406 
Q 750 1225 750 906 
Q 750 572 897 381 
Q 1141 66 1534 66 
Q 1894 66 2123 294 
Q 2353 522 2353 881 
Q 2353 1272 2120 1500 
Q 1888 1728 1359 1928 
z
" transform="scale(0.015625)"/>
       </defs>
       <use xlink:href="#Garamond-30"/>
       <use xlink:href="#Garamond-2e" transform="translate(46.875 0)"/>
       <use xlink:href="#Garamond-38" transform="translate(68.75 0)"/>
      </g>
     </g>
    </g>
    <g id="xtick_2">
     <g id="line2d_3">
      <g>
       <use xlink:href="#mf993e05095" x="117.347973" y="162.36476" style="stroke: #000000; stroke-width: 0.5"/>
      </g>
     </g>
     <g id="line2d_4">
      <g>
       <use xlink:href="#me00ded7c6b" x="117.347973" y="3.00024" style="stroke: #000000; stroke-width: 0.5"/>
      </g>
     </g>
     <g id="text_2">
      <!-- 1.0 -->
      <g transform="translate(112.144848 171.704916) scale(0.09 -0.09)">
       <defs>
        <path id="Garamond-31" d="M 2269 6 
L 838 6 
Q 834 34 834 53 
Q 834 106 856 126 
Q 878 147 994 169 
Q 1175 206 1288 259 
Q 1319 328 1319 388 
L 1319 581 
Q 1319 616 1328 897 
Q 1331 1003 1334 1816 
L 1341 2550 
L 1334 2978 
Q 1334 3072 1341 3569 
Q 631 3063 563 3063 
Q 538 3063 509 3089 
Q 481 3116 481 3141 
Q 481 3172 503 3191 
Q 547 3231 713 3325 
Q 738 3338 928 3494 
Q 1231 3747 1372 3890 
Q 1513 4034 1544 4053 
Q 1606 4056 1641 4056 
Q 1722 4056 1742 4029 
Q 1763 4003 1763 3838 
L 1741 1053 
L 1741 778 
Q 1741 678 1737 576 
Q 1734 475 1734 428 
Q 1734 316 1763 281 
Q 1781 259 1878 225 
L 2091 181 
Q 2228 147 2241 134 
Q 2272 106 2272 47 
L 2269 6 
z
" transform="scale(0.015625)"/>
       </defs>
       <use xlink:href="#Garamond-31"/>
       <use xlink:href="#Garamond-2e" transform="translate(46.875 0)"/>
       <use xlink:href="#Garamond-30" transform="translate(68.75 0)"/>
      </g>
     </g>
    </g>
    <g id="xtick_3">
     <g id="line2d_5">
      <g>
       <use xlink:href="#mf993e05095" x="179.663977" y="162.36476" style="stroke: #000000; stroke-width: 0.5"/>
      </g>
     </g>
     <g id="line2d_6">
      <g>
       <use xlink:href="#me00ded7c6b" x="179.663977" y="3.00024" style="stroke: #000000; stroke-width: 0.5"/>
      </g>
     </g>
     <g id="text_3">
      <!-- 1.2 -->
      <g transform="translate(174.460852 171.704916) scale(0.09 -0.09)">
       <defs>
        <path id="Garamond-32" d="M 2728 6 
Q 2259 25 1472 25 
L 794 6 
L 491 16 
L 250 6 
Q 213 9 141 22 
Q 197 153 284 263 
Q 544 581 1044 1084 
Q 1744 1788 1966 2189 
Q 2188 2591 2188 2944 
Q 2188 3275 1963 3500 
Q 1738 3725 1409 3725 
Q 1213 3725 1028 3633 
Q 844 3541 731 3400 
Q 659 3309 541 3038 
Q 475 2888 463 2875 
Q 444 2853 419 2853 
Q 394 2853 370 2879 
Q 347 2906 347 2947 
Q 347 3088 489 3397 
Q 631 3706 907 3881 
Q 1184 4056 1550 4056 
Q 2028 4056 2348 3745 
Q 2669 3434 2669 3003 
Q 2669 2663 2450 2311 
Q 2231 1959 1444 1234 
Q 1184 997 1075 884 
Q 966 772 634 397 
Q 1113 378 1503 378 
Q 1588 378 1688 384 
Q 1872 391 1903 391 
L 2338 381 
Q 2409 381 2484 450 
Q 2559 519 2688 838 
L 2763 841 
Q 2778 841 2809 838 
Q 2825 806 2825 791 
L 2819 766 
Q 2794 675 2775 434 
Q 2763 294 2728 6 
z
" transform="scale(0.015625)"/>
       </defs>
       <use xlink:href="#Garamond-31"/>
       <use xlink:href="#Garamond-2e" transform="translate(46.875 0)"/>
       <use xlink:href="#Garamond-32" transform="translate(68.75 0)"/>
      </g>
     </g>
    </g>
    <g id="xtick_4">
     <g id="line2d_7">
      <defs>
       <path id="mdf1859b065" d="M 0 0 
L 0 -1.5 
" style="stroke: #000000; stroke-width: 0.5"/>
      </defs>
      <g>
       <use xlink:href="#mdf1859b065" x="39.452968" y="162.36476" style="stroke: #000000; stroke-width: 0.5"/>
      </g>
     </g>
     <g id="line2d_8">
      <defs>
       <path id="m7e4ddd6630" d="M 0 0 
L 0 1.5 
" style="stroke: #000000; stroke-width: 0.5"/>
      </defs>
      <g>
       <use xlink:href="#m7e4ddd6630" x="39.452968" y="3.00024" style="stroke: #000000; stroke-width: 0.5"/>
      </g>
     </g>
    </g>
    <g id="xtick_5">
     <g id="line2d_9">
      <g>
       <use xlink:href="#mdf1859b065" x="70.61097" y="162.36476" style="stroke: #000000; stroke-width: 0.5"/>
      </g>
     </g>
     <g id="line2d_10">
      <g>
       <use xlink:href="#m7e4ddd6630" x="70.61097" y="3.00024" style="stroke: #000000; stroke-width: 0.5"/>
      </g>
     </g>
    </g>
    <g id="xtick_6">
     <g id="line2d_11">
      <g>
       <use xlink:href="#mdf1859b065" x="86.189971" y="162.36476" style="stroke: #000000; stroke-width: 0.5"/>
      </g>
     </g>
     <g id="line2d_12">
      <g>
       <use xlink:href="#m7e4ddd6630" x="86.189971" y="3.00024" style="stroke: #000000; stroke-width: 0.5"/>
      </g>
     </g>
    </g>
    <g id="xtick_7">
     <g id="line2d_13">
      <g>
       <use xlink:href="#mdf1859b065" x="101.768972" y="162.36476" style="stroke: #000000; stroke-width: 0.5"/>
      </g>
     </g>
     <g id="line2d_14">
      <g>
       <use xlink:href="#m7e4ddd6630" x="101.768972" y="3.00024" style="stroke: #000000; stroke-width: 0.5"/>
      </g>
     </g>
    </g>
    <g id="xtick_8">
     <g id="line2d_15">
      <g>
       <use xlink:href="#mdf1859b065" x="132.926974" y="162.36476" style="stroke: #000000; stroke-width: 0.5"/>
      </g>
     </g>
     <g id="line2d_16">
      <g>
       <use xlink:href="#m7e4ddd6630" x="132.926974" y="3.00024" style="stroke: #000000; stroke-width: 0.5"/>
      </g>
     </g>
    </g>
    <g id="xtick_9">
     <g id="line2d_17">
      <g>
       <use xlink:href="#mdf1859b065" x="148.505975" y="162.36476" style="stroke: #000000; stroke-width: 0.5"/>
      </g>
     </g>
     <g id="line2d_18">
      <g>
       <use xlink:href="#m7e4ddd6630" x="148.505975" y="3.00024" style="stroke: #000000; stroke-width: 0.5"/>
      </g>
     </g>
    </g>
    <g id="xtick_10">
     <g id="line2d_19">
      <g>
       <use xlink:href="#mdf1859b065" x="164.084976" y="162.36476" style="stroke: #000000; stroke-width: 0.5"/>
      </g>
     </g>
     <g id="line2d_20">
      <g>
       <use xlink:href="#m7e4ddd6630" x="164.084976" y="3.00024" style="stroke: #000000; stroke-width: 0.5"/>
      </g>
     </g>
    </g>
    <g id="xtick_11">
     <g id="line2d_21">
      <g>
       <use xlink:href="#mdf1859b065" x="195.242978" y="162.36476" style="stroke: #000000; stroke-width: 0.5"/>
      </g>
     </g>
     <g id="line2d_22">
      <g>
       <use xlink:href="#m7e4ddd6630" x="195.242978" y="3.00024" style="stroke: #000000; stroke-width: 0.5"/>
      </g>
     </g>
    </g>
    <g id="text_4">
     <!-- Voltage (V) -->
     <g transform="translate(95.17141 184.501635) scale(0.1 -0.1)">
      <defs>
       <path id="Garamond-56" d="M -53 3963 
L -31 4016 
Q 222 4016 475 4009 
L 578 4009 
Q 625 4009 681 4013 
Q 884 4022 1416 4022 
Q 1522 4022 1622 4020 
Q 1722 4019 1816 4016 
Q 1834 4006 1844 3988 
L 1838 3938 
Q 1819 3906 1744 3906 
L 1719 3906 
Q 1631 3909 1431 3892 
Q 1231 3875 1169 3828 
Q 1128 3794 1128 3738 
Q 1128 3616 1231 3372 
L 1706 2269 
L 1872 1903 
Q 2113 1322 2347 716 
Q 2372 650 2394 597 
L 2603 1109 
Q 2766 1497 2931 1934 
L 3147 2522 
Q 3153 2541 3181 2647 
Q 3484 3475 3484 3694 
Q 3484 3741 3442 3789 
Q 3400 3838 3306 3869 
Q 3269 3881 3063 3906 
L 2831 3934 
Q 2803 3966 2803 3988 
L 2813 4013 
L 3825 4022 
L 4159 4022 
Q 4328 4022 4391 4000 
L 4394 3975 
Q 4394 3950 4375 3909 
Q 4300 3884 4238 3878 
Q 3975 3847 3912 3805 
Q 3850 3763 3781 3625 
L 2959 1594 
Q 2575 678 2413 175 
L 2322 -97 
Q 2281 -122 2253 -122 
Q 2219 -122 2178 -116 
Q 1806 847 1572 1372 
L 616 3541 
Q 513 3734 461 3773 
Q 409 3813 100 3884 
Q -9 3909 -22 3916 
Q -44 3931 -53 3963 
z
" transform="scale(0.015625)"/>
       <path id="Garamond-6f" d="M 228 1256 
Q 228 1469 317 1711 
Q 406 1953 587 2145 
Q 769 2338 972 2431 
Q 1256 2563 1666 2563 
Q 2250 2563 2642 2163 
Q 3034 1763 3034 1200 
Q 3034 700 2623 308 
Q 2213 -84 1584 -84 
Q 1197 -84 853 119 
Q 597 272 412 572 
Q 228 872 228 1256 
z
M 1609 38 
Q 1847 38 2067 166 
Q 2288 294 2419 576 
Q 2550 859 2550 1231 
Q 2550 1475 2448 1797 
Q 2347 2119 2136 2280 
Q 1925 2441 1641 2441 
Q 1434 2441 1220 2344 
Q 1006 2247 857 1972 
Q 709 1697 709 1191 
Q 709 622 967 330 
Q 1225 38 1609 38 
z
" transform="scale(0.015625)"/>
       <path id="Garamond-6c" d="M 163 3872 
L 163 3941 
Q 250 3969 356 4000 
Q 513 4050 819 4153 
L 966 4153 
Q 969 4003 969 3981 
Q 969 1416 953 922 
Q 944 631 944 613 
Q 944 263 972 222 
Q 1009 166 1201 144 
Q 1394 122 1428 100 
Q 1453 88 1453 56 
Q 1453 22 1439 8 
Q 1425 -6 1388 -6 
Q 1366 -6 1059 3 
L 650 16 
L 125 -6 
Q 75 -9 50 13 
Q 31 28 31 56 
Q 31 88 51 102 
Q 72 116 276 150 
Q 481 184 511 207 
Q 541 231 550 313 
Q 563 425 563 947 
L 559 1666 
L 569 2409 
L 566 3153 
L 575 3519 
Q 575 3628 540 3676 
Q 506 3725 394 3772 
Q 225 3841 163 3872 
z
" transform="scale(0.015625)"/>
       <path id="Garamond-74" d="M 894 3088 
L 991 3084 
L 1003 2788 
L 997 2403 
Q 1056 2400 1072 2400 
Q 1153 2400 1381 2413 
Q 1528 2422 1663 2422 
Q 1725 2422 1850 2419 
Q 1856 2356 1856 2319 
Q 1856 2278 1838 2191 
L 1784 2191 
L 1300 2175 
L 1059 2169 
L 1003 2163 
Q 978 2084 978 1981 
L 988 1513 
L 981 688 
Q 981 363 1066 256 
Q 1147 147 1309 147 
Q 1391 147 1616 197 
Q 1684 213 1800 300 
L 1828 300 
Q 1856 300 1873 283 
Q 1891 266 1891 238 
L 1888 216 
Q 1753 69 1579 1 
Q 1406 -66 1119 -66 
Q 916 -66 783 28 
Q 650 122 612 250 
Q 575 378 575 809 
L 588 1513 
L 584 1850 
L 584 1975 
Q 584 2063 578 2150 
L 525 2153 
L 269 2144 
L 244 2141 
Q 209 2141 192 2156 
Q 175 2172 175 2194 
Q 175 2231 198 2254 
Q 222 2278 341 2328 
Q 422 2363 530 2458 
Q 638 2553 713 2669 
Q 750 2731 819 2906 
Q 869 3034 894 3088 
z
" transform="scale(0.015625)"/>
       <path id="Garamond-61" d="M 2541 425 
Q 2559 384 2559 366 
Q 2559 319 2484 200 
Q 2388 44 2269 -28 
Q 2194 -75 2063 -75 
Q 1838 -75 1725 63 
Q 1656 144 1628 353 
L 1278 109 
Q 1094 3 997 -25 
Q 841 -66 622 -66 
Q 463 -66 370 29 
Q 278 125 278 275 
Q 278 491 542 791 
Q 806 1091 1259 1281 
Q 1578 1416 1650 1453 
Q 1656 1556 1656 1678 
Q 1656 2075 1545 2215 
Q 1434 2356 1228 2356 
Q 1013 2356 825 2188 
Q 709 2081 650 1788 
Q 631 1706 578 1613 
Q 444 1525 363 1525 
Q 294 1525 238 1566 
Q 206 1588 206 1616 
Q 206 1697 379 1983 
Q 553 2269 817 2411 
Q 1081 2553 1278 2553 
Q 1547 2553 1678 2504 
Q 1809 2456 1909 2334 
Q 2009 2213 2031 2069 
Q 2044 2000 2044 1578 
L 2034 1081 
L 2038 719 
Q 2038 647 2034 597 
Q 2031 506 2031 463 
Q 2031 359 2091 297 
Q 2150 234 2231 234 
Q 2350 234 2434 353 
L 2472 403 
Q 2488 413 2541 425 
z
M 1622 516 
Q 1644 913 1644 1075 
Q 1644 1159 1634 1303 
Q 1425 1228 1190 1075 
Q 956 922 819 722 
Q 719 578 719 450 
Q 719 328 801 247 
Q 884 166 1009 166 
Q 1106 166 1244 234 
Q 1425 325 1622 516 
z
" transform="scale(0.015625)"/>
       <path id="Garamond-67" d="M 844 -206 
Q 806 -188 603 -103 
Q 366 50 303 125 
Q 241 200 241 291 
Q 241 372 288 422 
Q 356 494 559 559 
Q 763 625 894 688 
Q 853 716 766 769 
Q 300 1056 300 1566 
Q 300 1984 595 2273 
Q 891 2563 1353 2563 
Q 1563 2563 1738 2503 
Q 1838 2472 2034 2347 
Q 2159 2269 2181 2259 
Q 2231 2244 2294 2244 
Q 2347 2244 2551 2270 
Q 2756 2297 2794 2297 
Q 2866 2297 2913 2269 
Q 2950 2206 2950 2059 
Q 2950 2009 2923 1984 
Q 2897 1959 2847 1959 
Q 2759 1959 2557 2014 
Q 2356 2069 2313 2069 
Q 2297 2069 2253 2063 
Q 2388 1794 2388 1572 
Q 2388 1350 2247 1112 
Q 2106 875 1859 750 
Q 1613 625 1359 625 
Q 1341 625 1253 628 
Q 966 628 725 484 
Q 609 413 609 350 
Q 609 284 722 222 
Q 1019 63 1847 38 
Q 2206 25 2406 -65 
Q 2606 -156 2707 -332 
Q 2809 -509 2809 -697 
Q 2809 -950 2637 -1165 
Q 2466 -1381 2116 -1515 
Q 1766 -1650 1313 -1650 
Q 813 -1650 541 -1528 
Q 269 -1406 155 -1262 
Q 41 -1119 41 -978 
Q 41 -856 166 -673 
Q 291 -491 684 -291 
Q 800 -231 844 -206 
z
M 719 1578 
Q 719 1297 803 1108 
Q 888 919 1034 826 
Q 1181 734 1331 734 
Q 1603 734 1783 942 
Q 1963 1150 1963 1575 
Q 1963 2003 1775 2226 
Q 1588 2450 1322 2450 
Q 1025 2450 872 2237 
Q 719 2025 719 1578 
z
M 616 -1316 
Q 900 -1534 1334 -1534 
Q 1644 -1534 1951 -1436 
Q 2259 -1338 2401 -1155 
Q 2544 -972 2544 -809 
Q 2544 -709 2494 -611 
Q 2444 -513 2358 -448 
Q 2272 -384 2131 -347 
Q 2031 -319 1847 -306 
Q 1322 -266 1203 -266 
Q 869 -266 606 -491 
Q 403 -666 403 -909 
Q 403 -1134 616 -1316 
z
" transform="scale(0.015625)"/>
       <path id="Garamond-65" d="M 2475 1650 
L 1222 1641 
L 984 1641 
Q 841 1641 691 1628 
Q 663 1534 663 1500 
L 666 1469 
L 666 1438 
L 663 1284 
Q 663 1094 783 817 
Q 903 541 1126 395 
Q 1350 250 1684 241 
Q 1863 250 1969 284 
Q 2075 319 2269 444 
L 2494 628 
L 2513 503 
Q 2513 481 2509 456 
Q 2369 278 2153 143 
Q 1938 9 1716 -53 
Q 1609 -81 1366 -81 
Q 1144 -81 928 9 
Q 609 147 426 451 
Q 244 756 244 1191 
Q 244 1328 295 1543 
Q 347 1759 481 2003 
Q 572 2169 703 2275 
Q 891 2425 1031 2484 
Q 1234 2569 1503 2569 
Q 1794 2569 1978 2463 
Q 2228 2322 2351 2100 
Q 2475 1878 2475 1694 
L 2475 1650 
z
M 731 1763 
L 878 1763 
Q 1038 1763 1828 1813 
Q 1953 1819 1981 1838 
Q 2038 1897 2038 1944 
Q 2038 2041 1975 2164 
Q 1913 2288 1783 2355 
Q 1653 2422 1481 2422 
Q 1119 2422 900 2150 
Q 731 1944 731 1763 
z
" transform="scale(0.015625)"/>
       <path id="Garamond-20" transform="scale(0.015625)"/>
       <path id="Garamond-28" d="M 1900 4091 
Q 1934 4006 1981 3925 
Q 1947 3891 1809 3766 
Q 1603 3572 1494 3413 
Q 1209 3003 1075 2717 
Q 941 2431 862 2057 
Q 784 1684 784 1178 
Q 784 831 848 506 
Q 913 181 1077 -184 
Q 1241 -550 1509 -934 
Q 1631 -1113 1809 -1269 
Q 1841 -1297 1919 -1375 
L 1963 -1419 
L 1897 -1569 
Q 1625 -1409 1419 -1163 
Q 1063 -741 864 -341 
Q 666 59 597 441 
Q 491 1025 491 1281 
Q 491 1706 600 2162 
Q 709 2619 966 3078 
Q 1138 3388 1466 3747 
Q 1672 3972 1900 4091 
z
" transform="scale(0.015625)"/>
       <path id="Garamond-29" d="M -138 -1400 
Q -41 -1306 25 -1247 
Q 238 -1063 378 -853 
Q 672 -422 778 -194 
Q 925 122 1001 494 
Q 1078 866 1078 1278 
Q 1078 1759 993 2117 
Q 909 2475 717 2864 
Q 525 3253 319 3525 
Q 281 3578 -84 3944 
L -22 4097 
Q 231 3947 447 3700 
Q 775 3322 987 2897 
Q 1200 2472 1266 2091 
Q 1369 1503 1369 1216 
Q 1369 853 1266 398 
Q 1163 -56 897 -538 
Q 694 -906 325 -1281 
Q 166 -1444 -56 -1563 
Q -88 -1484 -138 -1400 
z
" transform="scale(0.015625)"/>
      </defs>
      <use xlink:href="#Garamond-56"/>
      <use xlink:href="#Garamond-6f" transform="translate(60.849609 0)"/>
      <use xlink:href="#Garamond-6c" transform="translate(111.875 0)"/>
      <use xlink:href="#Garamond-74" transform="translate(134.775391 0)"/>
      <use xlink:href="#Garamond-61" transform="translate(163.925781 0)"/>
      <use xlink:href="#Garamond-67" transform="translate(204.550781 0)"/>
      <use xlink:href="#Garamond-65" transform="translate(250.826172 0)"/>
      <use xlink:href="#Garamond-20" transform="translate(292.476562 0)"/>
      <use xlink:href="#Garamond-28" transform="translate(317.476562 0)"/>
      <use xlink:href="#Garamond-56" transform="translate(346.626953 0)"/>
      <use xlink:href="#Garamond-29" transform="translate(414.351562 0)"/>
     </g>
    </g>
   </g>
   <g id="matplotlib.axis_2">
    <g id="ytick_1">
     <g id="line2d_23">
      <defs>
       <path id="m750fdaff6e" d="M 0 0 
L 3 0 
" style="stroke: #000000; stroke-width: 0.5"/>
      </defs>
      <g>
       <use xlink:href="#m750fdaff6e" x="31.663468" y="155.120918" style="stroke: #000000; stroke-width: 0.5"/>
      </g>
     </g>
     <g id="line2d_24">
      <defs>
       <path id="m55b1795a5a" d="M 0 0 
L -3 0 
" style="stroke: #000000; stroke-width: 0.5"/>
      </defs>
      <g>
       <use xlink:href="#m55b1795a5a" x="203.032478" y="155.120918" style="stroke: #000000; stroke-width: 0.5"/>
      </g>
     </g>
     <g id="text_5">
      <!-- 0.0 -->
      <g transform="translate(17.757218 158.040996) scale(0.09 -0.09)">
       <use xlink:href="#Garamond-30"/>
       <use xlink:href="#Garamond-2e" transform="translate(46.875 0)"/>
       <use xlink:href="#Garamond-30" transform="translate(68.75 0)"/>
      </g>
     </g>
    </g>
    <g id="ytick_2">
     <g id="line2d_25">
      <g>
       <use xlink:href="#m750fdaff6e" x="31.663468" y="131.940624" style="stroke: #000000; stroke-width: 0.5"/>
      </g>
     </g>
     <g id="line2d_26">
      <g>
       <use xlink:href="#m55b1795a5a" x="203.032478" y="131.940624" style="stroke: #000000; stroke-width: 0.5"/>
      </g>
     </g>
     <g id="text_6">
      <!-- 0.2 -->
      <g transform="translate(17.757218 134.860702) scale(0.09 -0.09)">
       <use xlink:href="#Garamond-30"/>
       <use xlink:href="#Garamond-2e" transform="translate(46.875 0)"/>
       <use xlink:href="#Garamond-32" transform="translate(68.75 0)"/>
      </g>
     </g>
    </g>
    <g id="ytick_3">
     <g id="line2d_27">
      <g>
       <use xlink:href="#m750fdaff6e" x="31.663468" y="108.760331" style="stroke: #000000; stroke-width: 0.5"/>
      </g>
     </g>
     <g id="line2d_28">
      <g>
       <use xlink:href="#m55b1795a5a" x="203.032478" y="108.760331" style="stroke: #000000; stroke-width: 0.5"/>
      </g>
     </g>
     <g id="text_7">
      <!-- 0.4 -->
      <g transform="translate(17.757218 111.680409) scale(0.09 -0.09)">
       <defs>
        <path id="Garamond-34" d="M 2097 4075 
L 2241 4075 
Q 2238 3978 2238 3959 
L 2247 3500 
L 2228 3088 
L 2241 2628 
L 2241 2266 
L 2247 1772 
Q 2247 1656 2241 1422 
L 2306 1419 
L 2528 1419 
L 2741 1416 
L 2916 1422 
Q 2922 1325 2922 1278 
Q 2922 1231 2916 1134 
Q 2722 1125 2706 1125 
L 2550 1128 
L 2425 1128 
Q 2375 1128 2241 1134 
Q 2234 691 2241 -44 
Q 2222 -63 2200 -69 
L 2006 -75 
Q 1944 -75 1816 -69 
Q 1825 300 1825 459 
Q 1825 600 1819 716 
Q 1809 928 1809 959 
Q 1809 1016 1816 1134 
Q 1684 1119 1613 1119 
Q 1575 1119 1528 1122 
Q 1213 1138 1172 1138 
Q 1131 1138 972 1116 
L 650 1134 
L 475 1125 
L 356 1144 
L 206 1113 
L 178 1134 
Q 172 1203 172 1238 
Q 172 1272 178 1341 
Q 266 1456 500 1809 
L 1109 2694 
Q 1334 3028 1487 3225 
Q 1641 3422 1791 3648 
Q 1941 3875 2097 4075 
z
M 1816 1422 
L 1819 1934 
L 1816 2341 
L 1816 3388 
Q 1559 3050 1103 2366 
Q 581 1584 484 1422 
Q 622 1428 691 1428 
L 1547 1416 
Q 1641 1416 1816 1422 
z
" transform="scale(0.015625)"/>
       </defs>
       <use xlink:href="#Garamond-30"/>
       <use xlink:href="#Garamond-2e" transform="translate(46.875 0)"/>
       <use xlink:href="#Garamond-34" transform="translate(68.75 0)"/>
      </g>
     </g>
    </g>
    <g id="ytick_4">
     <g id="line2d_29">
      <g>
       <use xlink:href="#m750fdaff6e" x="31.663468" y="85.580037" style="stroke: #000000; stroke-width: 0.5"/>
      </g>
     </g>
     <g id="line2d_30">
      <g>
       <use xlink:href="#m55b1795a5a" x="203.032478" y="85.580037" style="stroke: #000000; stroke-width: 0.5"/>
      </g>
     </g>
     <g id="text_8">
      <!-- 0.6 -->
      <g transform="translate(17.757218 88.500115) scale(0.09 -0.09)">
       <defs>
        <path id="Garamond-36" d="M 2459 4094 
Q 2488 4047 2500 3991 
Q 2481 3956 2441 3944 
Q 2309 3909 2053 3763 
Q 1994 3731 1691 3472 
Q 1556 3378 1366 3122 
Q 1106 2778 993 2508 
Q 881 2238 794 1800 
Q 769 1675 759 1359 
L 750 1244 
Q 750 844 986 445 
Q 1222 47 1575 47 
Q 1759 47 1920 159 
Q 2081 272 2175 540 
Q 2269 809 2269 1191 
Q 2269 1709 2070 1957 
Q 1872 2206 1594 2206 
Q 1509 2206 1444 2181 
L 1419 2175 
Q 1378 2175 1334 2266 
Q 1416 2319 1531 2353 
Q 1647 2388 1681 2388 
Q 1703 2388 1966 2341 
L 2056 2297 
Q 2206 2250 2284 2188 
Q 2428 2072 2541 1897 
Q 2597 1806 2691 1528 
Q 2697 1509 2734 1253 
L 2719 941 
Q 2653 659 2594 547 
Q 2506 375 2300 172 
Q 2194 69 2025 3 
Q 1788 -88 1522 -88 
Q 1016 -88 664 317 
Q 313 722 313 1491 
Q 313 1919 444 2301 
Q 575 2684 816 3003 
Q 978 3219 1258 3466 
Q 1538 3713 1788 3850 
Q 2128 4031 2459 4094 
z
" transform="scale(0.015625)"/>
       </defs>
       <use xlink:href="#Garamond-30"/>
       <use xlink:href="#Garamond-2e" transform="translate(46.875 0)"/>
       <use xlink:href="#Garamond-36" transform="translate(68.75 0)"/>
      </g>
     </g>
    </g>
    <g id="ytick_5">
     <g id="line2d_31">
      <g>
       <use xlink:href="#m750fdaff6e" x="31.663468" y="62.399743" style="stroke: #000000; stroke-width: 0.5"/>
      </g>
     </g>
     <g id="line2d_32">
      <g>
       <use xlink:href="#m55b1795a5a" x="203.032478" y="62.399743" style="stroke: #000000; stroke-width: 0.5"/>
      </g>
     </g>
     <g id="text_9">
      <!-- 0.8 -->
      <g transform="translate(17.757218 65.319821) scale(0.09 -0.09)">
       <use xlink:href="#Garamond-30"/>
       <use xlink:href="#Garamond-2e" transform="translate(46.875 0)"/>
       <use xlink:href="#Garamond-38" transform="translate(68.75 0)"/>
      </g>
     </g>
    </g>
    <g id="ytick_6">
     <g id="line2d_33">
      <g>
       <use xlink:href="#m750fdaff6e" x="31.663468" y="39.219449" style="stroke: #000000; stroke-width: 0.5"/>
      </g>
     </g>
     <g id="line2d_34">
      <g>
       <use xlink:href="#m55b1795a5a" x="203.032478" y="39.219449" style="stroke: #000000; stroke-width: 0.5"/>
      </g>
     </g>
     <g id="text_10">
      <!-- 1.0 -->
      <g transform="translate(17.757218 42.139527) scale(0.09 -0.09)">
       <use xlink:href="#Garamond-31"/>
       <use xlink:href="#Garamond-2e" transform="translate(46.875 0)"/>
       <use xlink:href="#Garamond-30" transform="translate(68.75 0)"/>
      </g>
     </g>
    </g>
    <g id="ytick_7">
     <g id="line2d_35">
      <g>
       <use xlink:href="#m750fdaff6e" x="31.663468" y="16.039155" style="stroke: #000000; stroke-width: 0.5"/>
      </g>
     </g>
     <g id="line2d_36">
      <g>
       <use xlink:href="#m55b1795a5a" x="203.032478" y="16.039155" style="stroke: #000000; stroke-width: 0.5"/>
      </g>
     </g>
     <g id="text_11">
      <!-- 1.2 -->
      <g transform="translate(17.757218 18.959233) scale(0.09 -0.09)">
       <use xlink:href="#Garamond-31"/>
       <use xlink:href="#Garamond-2e" transform="translate(46.875 0)"/>
       <use xlink:href="#Garamond-32" transform="translate(68.75 0)"/>
      </g>
     </g>
    </g>
    <g id="ytick_8">
     <g id="line2d_37">
      <defs>
       <path id="m556850fc98" d="M 0 0 
L 1.5 0 
" style="stroke: #000000; stroke-width: 0.5"/>
      </defs>
      <g>
       <use xlink:href="#m556850fc98" x="31.663468" y="160.915992" style="stroke: #000000; stroke-width: 0.5"/>
      </g>
     </g>
     <g id="line2d_38">
      <defs>
       <path id="m4b5475e3e7" d="M 0 0 
L -1.5 0 
" style="stroke: #000000; stroke-width: 0.5"/>
      </defs>
      <g>
       <use xlink:href="#m4b5475e3e7" x="203.032478" y="160.915992" style="stroke: #000000; stroke-width: 0.5"/>
      </g>
     </g>
    </g>
    <g id="ytick_9">
     <g id="line2d_39">
      <g>
       <use xlink:href="#m556850fc98" x="31.663468" y="149.325845" style="stroke: #000000; stroke-width: 0.5"/>
      </g>
     </g>
     <g id="line2d_40">
      <g>
       <use xlink:href="#m4b5475e3e7" x="203.032478" y="149.325845" style="stroke: #000000; stroke-width: 0.5"/>
      </g>
     </g>
    </g>
    <g id="ytick_10">
     <g id="line2d_41">
      <g>
       <use xlink:href="#m556850fc98" x="31.663468" y="143.530771" style="stroke: #000000; stroke-width: 0.5"/>
      </g>
     </g>
     <g id="line2d_42">
      <g>
       <use xlink:href="#m4b5475e3e7" x="203.032478" y="143.530771" style="stroke: #000000; stroke-width: 0.5"/>
      </g>
     </g>
    </g>
    <g id="ytick_11">
     <g id="line2d_43">
      <g>
       <use xlink:href="#m556850fc98" x="31.663468" y="137.735698" style="stroke: #000000; stroke-width: 0.5"/>
      </g>
     </g>
     <g id="line2d_44">
      <g>
       <use xlink:href="#m4b5475e3e7" x="203.032478" y="137.735698" style="stroke: #000000; stroke-width: 0.5"/>
      </g>
     </g>
    </g>
    <g id="ytick_12">
     <g id="line2d_45">
      <g>
       <use xlink:href="#m556850fc98" x="31.663468" y="126.145551" style="stroke: #000000; stroke-width: 0.5"/>
      </g>
     </g>
     <g id="line2d_46">
      <g>
       <use xlink:href="#m4b5475e3e7" x="203.032478" y="126.145551" style="stroke: #000000; stroke-width: 0.5"/>
      </g>
     </g>
    </g>
    <g id="ytick_13">
     <g id="line2d_47">
      <g>
       <use xlink:href="#m556850fc98" x="31.663468" y="120.350477" style="stroke: #000000; stroke-width: 0.5"/>
      </g>
     </g>
     <g id="line2d_48">
      <g>
       <use xlink:href="#m4b5475e3e7" x="203.032478" y="120.350477" style="stroke: #000000; stroke-width: 0.5"/>
      </g>
     </g>
    </g>
    <g id="ytick_14">
     <g id="line2d_49">
      <g>
       <use xlink:href="#m556850fc98" x="31.663468" y="114.555404" style="stroke: #000000; stroke-width: 0.5"/>
      </g>
     </g>
     <g id="line2d_50">
      <g>
       <use xlink:href="#m4b5475e3e7" x="203.032478" y="114.555404" style="stroke: #000000; stroke-width: 0.5"/>
      </g>
     </g>
    </g>
    <g id="ytick_15">
     <g id="line2d_51">
      <g>
       <use xlink:href="#m556850fc98" x="31.663468" y="102.965257" style="stroke: #000000; stroke-width: 0.5"/>
      </g>
     </g>
     <g id="line2d_52">
      <g>
       <use xlink:href="#m4b5475e3e7" x="203.032478" y="102.965257" style="stroke: #000000; stroke-width: 0.5"/>
      </g>
     </g>
    </g>
    <g id="ytick_16">
     <g id="line2d_53">
      <g>
       <use xlink:href="#m556850fc98" x="31.663468" y="97.170184" style="stroke: #000000; stroke-width: 0.5"/>
      </g>
     </g>
     <g id="line2d_54">
      <g>
       <use xlink:href="#m4b5475e3e7" x="203.032478" y="97.170184" style="stroke: #000000; stroke-width: 0.5"/>
      </g>
     </g>
    </g>
    <g id="ytick_17">
     <g id="line2d_55">
      <g>
       <use xlink:href="#m556850fc98" x="31.663468" y="91.37511" style="stroke: #000000; stroke-width: 0.5"/>
      </g>
     </g>
     <g id="line2d_56">
      <g>
       <use xlink:href="#m4b5475e3e7" x="203.032478" y="91.37511" style="stroke: #000000; stroke-width: 0.5"/>
      </g>
     </g>
    </g>
    <g id="ytick_18">
     <g id="line2d_57">
      <g>
       <use xlink:href="#m556850fc98" x="31.663468" y="79.784963" style="stroke: #000000; stroke-width: 0.5"/>
      </g>
     </g>
     <g id="line2d_58">
      <g>
       <use xlink:href="#m4b5475e3e7" x="203.032478" y="79.784963" style="stroke: #000000; stroke-width: 0.5"/>
      </g>
     </g>
    </g>
    <g id="ytick_19">
     <g id="line2d_59">
      <g>
       <use xlink:href="#m556850fc98" x="31.663468" y="73.98989" style="stroke: #000000; stroke-width: 0.5"/>
      </g>
     </g>
     <g id="line2d_60">
      <g>
       <use xlink:href="#m4b5475e3e7" x="203.032478" y="73.98989" style="stroke: #000000; stroke-width: 0.5"/>
      </g>
     </g>
    </g>
    <g id="ytick_20">
     <g id="line2d_61">
      <g>
       <use xlink:href="#m556850fc98" x="31.663468" y="68.194816" style="stroke: #000000; stroke-width: 0.5"/>
      </g>
     </g>
     <g id="line2d_62">
      <g>
       <use xlink:href="#m4b5475e3e7" x="203.032478" y="68.194816" style="stroke: #000000; stroke-width: 0.5"/>
      </g>
     </g>
    </g>
    <g id="ytick_21">
     <g id="line2d_63">
      <g>
       <use xlink:href="#m556850fc98" x="31.663468" y="56.604669" style="stroke: #000000; stroke-width: 0.5"/>
      </g>
     </g>
     <g id="line2d_64">
      <g>
       <use xlink:href="#m4b5475e3e7" x="203.032478" y="56.604669" style="stroke: #000000; stroke-width: 0.5"/>
      </g>
     </g>
    </g>
    <g id="ytick_22">
     <g id="line2d_65">
      <g>
       <use xlink:href="#m556850fc98" x="31.663468" y="50.809596" style="stroke: #000000; stroke-width: 0.5"/>
      </g>
     </g>
     <g id="line2d_66">
      <g>
       <use xlink:href="#m4b5475e3e7" x="203.032478" y="50.809596" style="stroke: #000000; stroke-width: 0.5"/>
      </g>
     </g>
    </g>
    <g id="ytick_23">
     <g id="line2d_67">
      <g>
       <use xlink:href="#m556850fc98" x="31.663468" y="45.014523" style="stroke: #000000; stroke-width: 0.5"/>
      </g>
     </g>
     <g id="line2d_68">
      <g>
       <use xlink:href="#m4b5475e3e7" x="203.032478" y="45.014523" style="stroke: #000000; stroke-width: 0.5"/>
      </g>
     </g>
    </g>
    <g id="ytick_24">
     <g id="line2d_69">
      <g>
       <use xlink:href="#m556850fc98" x="31.663468" y="33.424376" style="stroke: #000000; stroke-width: 0.5"/>
      </g>
     </g>
     <g id="line2d_70">
      <g>
       <use xlink:href="#m4b5475e3e7" x="203.032478" y="33.424376" style="stroke: #000000; stroke-width: 0.5"/>
      </g>
     </g>
    </g>
    <g id="ytick_25">
     <g id="line2d_71">
      <g>
       <use xlink:href="#m556850fc98" x="31.663468" y="27.629302" style="stroke: #000000; stroke-width: 0.5"/>
      </g>
     </g>
     <g id="line2d_72">
      <g>
       <use xlink:href="#m4b5475e3e7" x="203.032478" y="27.629302" style="stroke: #000000; stroke-width: 0.5"/>
      </g>
     </g>
    </g>
    <g id="ytick_26">
     <g id="line2d_73">
      <g>
       <use xlink:href="#m556850fc98" x="31.663468" y="21.834229" style="stroke: #000000; stroke-width: 0.5"/>
      </g>
     </g>
     <g id="line2d_74">
      <g>
       <use xlink:href="#m4b5475e3e7" x="203.032478" y="21.834229" style="stroke: #000000; stroke-width: 0.5"/>
      </g>
     </g>
    </g>
    <g id="ytick_27">
     <g id="line2d_75">
      <g>
       <use xlink:href="#m556850fc98" x="31.663468" y="10.244082" style="stroke: #000000; stroke-width: 0.5"/>
      </g>
     </g>
     <g id="line2d_76">
      <g>
       <use xlink:href="#m4b5475e3e7" x="203.032478" y="10.244082" style="stroke: #000000; stroke-width: 0.5"/>
      </g>
     </g>
    </g>
    <g id="ytick_28">
     <g id="line2d_77">
      <g>
       <use xlink:href="#m556850fc98" x="31.663468" y="4.449008" style="stroke: #000000; stroke-width: 0.5"/>
      </g>
     </g>
     <g id="line2d_78">
      <g>
       <use xlink:href="#m4b5475e3e7" x="203.032478" y="4.449008" style="stroke: #000000; stroke-width: 0.5"/>
      </g>
     </g>
    </g>
    <g id="text_12">
     <!-- Current (A) -->
     <g transform="translate(11.193155 105.410625) rotate(-90) scale(0.1 -0.1)">
      <defs>
       <path id="Garamond-43" d="M 3703 3825 
Q 3741 3584 3741 3331 
Q 3741 3281 3738 3197 
Q 3694 3188 3672 3188 
Q 3653 3188 3619 3194 
Q 3488 3559 3191 3756 
Q 2894 3953 2456 3953 
Q 2225 3953 2066 3900 
Q 1784 3803 1571 3633 
Q 1359 3463 1212 3227 
Q 1066 2991 980 2655 
Q 894 2319 894 1969 
Q 894 1300 1097 864 
Q 1300 428 1653 242 
Q 2006 56 2366 56 
L 2513 59 
Q 2763 91 2853 119 
Q 3081 184 3229 273 
Q 3378 363 3520 525 
Q 3663 688 3763 903 
L 3800 916 
Q 3816 916 3847 897 
Q 3844 822 3841 800 
Q 3709 272 3650 78 
Q 3600 66 3525 41 
Q 3159 -84 2547 -84 
Q 2053 -84 1808 -17 
Q 1563 50 1273 192 
Q 984 334 765 568 
Q 547 803 412 1161 
Q 278 1519 278 1941 
Q 278 2341 384 2639 
Q 491 2938 712 3244 
Q 934 3550 1236 3753 
Q 1538 3956 1906 4041 
Q 2166 4097 2641 4097 
Q 2988 4097 3294 4005 
Q 3600 3913 3703 3825 
z
" transform="scale(0.015625)"/>
       <path id="Garamond-75" d="M 103 2453 
L 338 2453 
L 441 2447 
L 522 2453 
Q 844 2453 922 2447 
L 925 2388 
Q 925 1947 913 1534 
Q 903 1291 903 1256 
Q 903 706 939 568 
Q 975 431 1108 348 
Q 1241 266 1428 266 
Q 1656 266 1864 361 
Q 2072 456 2219 594 
Q 2234 713 2234 856 
Q 2234 1322 2244 1484 
Q 2247 1581 2247 1653 
Q 2247 2159 2197 2225 
Q 2147 2291 1816 2325 
Q 1706 2338 1656 2347 
Q 1631 2388 1631 2409 
L 1641 2444 
Q 1722 2453 1800 2453 
L 2297 2447 
Q 2563 2453 2578 2453 
Q 2613 2453 2644 2450 
L 2650 2222 
Q 2628 1747 2625 1047 
L 2619 794 
L 2631 369 
Q 2659 319 2681 309 
Q 2719 294 2834 294 
L 2863 294 
Q 2903 294 3094 275 
Q 3097 234 3097 216 
L 3097 181 
Q 2678 91 2419 0 
Q 2316 -34 2244 -50 
Q 2228 59 2228 84 
L 2228 338 
Q 2228 353 2225 422 
Q 2184 394 2131 353 
Q 1884 163 1609 31 
Q 1425 -59 1253 -59 
Q 925 -59 719 184 
Q 509 428 509 1016 
Q 509 1047 513 1128 
Q 525 1278 525 1338 
Q 525 1359 522 1475 
Q 519 1525 519 1563 
Q 519 1591 522 1689 
Q 525 1788 525 1828 
Q 525 1881 522 1922 
L 516 2088 
L 519 2175 
Q 519 2225 469 2266 
Q 272 2319 211 2326 
Q 150 2334 103 2353 
L 103 2453 
z
" transform="scale(0.015625)"/>
       <path id="Garamond-72" d="M 128 -9 
L 116 31 
Q 116 53 144 97 
L 328 134 
L 588 181 
Q 619 197 631 225 
Q 650 266 650 466 
Q 650 1528 637 1692 
Q 625 1856 581 1900 
Q 538 1944 356 1969 
Q 250 1984 188 2009 
L 200 2103 
Q 528 2238 641 2334 
Q 797 2475 906 2703 
L 1013 2700 
Q 1031 2544 1031 2006 
L 1028 1953 
Q 1028 1934 1034 1894 
Q 1153 2109 1331 2291 
L 1403 2363 
Q 1447 2413 1488 2441 
Q 1706 2572 1813 2572 
Q 1950 2572 2037 2480 
Q 2125 2388 2125 2253 
Q 2125 2147 2063 2088 
Q 1978 2009 1869 2009 
Q 1819 2009 1672 2062 
Q 1525 2116 1478 2116 
Q 1391 2116 1356 2088 
Q 1269 2019 1144 1806 
Q 1047 1647 1047 1513 
L 1063 997 
L 1069 378 
Q 1078 272 1094 241 
Q 1106 219 1156 188 
Q 1494 159 1556 147 
Q 1600 144 1622 141 
Q 1756 138 1809 103 
Q 1838 88 1838 56 
Q 1838 38 1813 6 
L 1466 9 
L 1334 13 
L 1144 9 
L 825 9 
L 653 0 
L 128 -9 
z
" transform="scale(0.015625)"/>
       <path id="Garamond-6e" d="M 119 100 
Q 197 122 300 138 
Q 497 166 536 203 
Q 575 241 575 375 
L 581 488 
Q 584 550 584 647 
L 578 1606 
Q 578 1800 528 1856 
Q 444 1944 216 1978 
L 216 2091 
Q 444 2153 566 2253 
Q 744 2394 866 2634 
L 972 2631 
Q 981 2484 981 2422 
L 981 2216 
L 984 2159 
Q 1022 2184 1072 2222 
Q 1259 2363 1456 2452 
Q 1653 2541 1806 2575 
Q 1903 2600 2025 2600 
Q 2281 2600 2465 2462 
Q 2650 2325 2704 2139 
Q 2759 1953 2759 1400 
L 2759 928 
Q 2759 909 2754 803 
Q 2750 697 2750 559 
Q 2750 341 2769 281 
Q 2784 241 2850 200 
Q 3150 159 3200 103 
L 3200 78 
Q 3200 47 3181 0 
L 3122 0 
L 2709 3 
L 2303 -3 
Q 2078 -9 1888 0 
L 1869 66 
Q 1869 84 1891 116 
Q 1975 153 2128 166 
Q 2219 172 2253 184 
Q 2288 197 2338 234 
Q 2375 309 2375 359 
Q 2375 381 2369 447 
Q 2359 591 2356 1163 
L 2356 1325 
L 2363 1575 
Q 2363 1978 2200 2131 
Q 2038 2284 1766 2284 
Q 1556 2284 1356 2192 
Q 1156 2100 969 1916 
Q 963 1766 963 1659 
L 972 969 
Q 972 428 988 306 
Q 994 256 1009 238 
Q 1034 213 1109 197 
Q 1184 181 1282 153 
Q 1381 125 1413 119 
Q 1475 103 1497 56 
L 1494 -6 
L 1166 -6 
L 491 3 
Q 256 -3 194 -3 
L 116 -3 
L 109 38 
Q 109 59 119 100 
z
" transform="scale(0.015625)"/>
       <path id="Garamond-41" d="M -34 100 
Q 9 125 44 125 
L 116 125 
Q 138 125 191 128 
Q 431 150 475 172 
Q 584 231 663 378 
Q 825 697 1028 1281 
Q 1125 1559 1150 1619 
Q 1228 1806 1300 2013 
L 1594 2834 
Q 1663 3028 1925 3722 
Q 1991 3897 2084 4191 
L 2175 4197 
L 2284 4194 
Q 2419 3928 2522 3622 
Q 2578 3459 2706 3138 
L 3181 1853 
L 3434 1156 
Q 3634 563 3696 427 
Q 3759 291 3813 247 
Q 3828 234 3929 209 
Q 4031 184 4072 172 
Q 4216 131 4272 103 
Q 4284 69 4284 50 
Q 4284 34 4275 3 
Q 4175 0 4134 0 
Q 3975 0 3572 9 
L 3259 19 
L 2881 13 
Q 2844 13 2805 17 
Q 2766 22 2738 22 
L 2669 22 
Q 2634 25 2606 41 
Q 2606 84 2622 125 
Q 2659 144 2691 147 
L 3019 169 
Q 3147 175 3213 203 
Q 3231 259 3231 288 
Q 3231 344 3150 578 
Q 3094 734 3051 875 
Q 3009 1016 2719 1800 
Q 2591 1822 2494 1822 
L 1825 1816 
L 1628 1819 
Q 1522 1819 1394 1803 
Q 1353 1709 1341 1669 
L 1066 809 
Q 891 319 891 269 
Q 891 241 919 175 
Q 984 156 1094 141 
L 1519 103 
Q 1553 75 1553 53 
Q 1553 38 1544 6 
Q 1403 3 1328 3 
Q 1078 3 747 19 
Q 594 25 528 25 
Q 463 25 300 19 
Q 194 13 147 13 
Q 72 13 -47 22 
L -47 41 
Q -47 63 -34 100 
z
M 1456 1975 
Q 1791 1956 2219 1956 
Q 2463 1956 2647 1972 
Q 2616 2094 2575 2200 
Q 2372 2744 2350 2800 
L 2066 3522 
L 2034 3578 
Q 2016 3541 1897 3256 
Q 1697 2769 1609 2497 
Q 1569 2375 1525 2254 
Q 1481 2134 1470 2086 
Q 1459 2038 1438 1988 
L 1456 1975 
z
" transform="scale(0.015625)"/>
      </defs>
      <use xlink:href="#Garamond-43"/>
      <use xlink:href="#Garamond-75" transform="translate(63.525391 0)"/>
      <use xlink:href="#Garamond-72" transform="translate(112.5 0)"/>
      <use xlink:href="#Garamond-72" transform="translate(148.349609 0)"/>
      <use xlink:href="#Garamond-65" transform="translate(181.699219 0)"/>
      <use xlink:href="#Garamond-6e" transform="translate(223.349609 0)"/>
      <use xlink:href="#Garamond-74" transform="translate(274.375 0)"/>
      <use xlink:href="#Garamond-20" transform="translate(303.525391 0)"/>
      <use xlink:href="#Garamond-28" transform="translate(328.525391 0)"/>
      <use xlink:href="#Garamond-41" transform="translate(357.675781 0)"/>
      <use xlink:href="#Garamond-29" transform="translate(425.400391 0)"/>
     </g>
    </g>
   </g>
   <g id="line2d_79">
    <path d="M 39.452968 154.846129 
L 48.800369 154.497085 
L 55.031969 154.0641 
L 60.48462 153.466364 
L 65.15832 152.715482 
L 69.05307 151.859758 
L 72.16887 150.98235 
L 75.28467 149.894829 
L 78.400471 148.55651 
L 81.516271 146.922683 
L 83.853121 145.474881 
L 86.189971 143.813781 
L 88.526821 141.919459 
L 90.863671 139.773335 
L 93.200521 137.359205 
L 95.537372 134.664404 
L 97.874222 131.68103 
L 100.211072 128.407142 
L 103.326872 123.599912 
L 106.442672 118.319796 
L 109.558472 112.626002 
L 113.453223 105.055219 
L 120.463773 90.785869 
L 126.695373 78.284736 
L 130.590124 70.920103 
L 134.484874 64.055593 
L 137.600674 58.972491 
L 140.716474 54.268762 
L 143.832274 49.942455 
L 146.948075 45.979602 
L 150.063875 42.357891 
L 153.179675 39.049889 
L 156.295475 36.025667 
L 160.190225 32.598124 
L 164.084976 29.509143 
L 167.979726 26.706029 
L 172.653426 23.654169 
L 177.327126 20.877811 
L 182.779777 17.911767 
L 189.011377 14.795853 
L 195.242978 11.89536 
L 195.242978 11.89536 
" clip-path="url(#p28f0231c67)" style="fill: none; stroke: #000000; stroke-width: 0.8; stroke-linecap: square"/>
   </g>
   <g id="line2d_80">
    <path d="M 39.452968 155.120915 
L 83.074171 155.02619 
L 88.526821 154.810854 
L 91.642621 154.517542 
L 93.979472 154.133015 
L 96.316322 153.513385 
L 97.874222 152.905826 
L 99.432122 152.080096 
L 100.990022 150.965003 
L 102.547922 149.471058 
L 104.105822 147.489369 
L 105.663722 144.893358 
L 107.221622 141.545428 
L 108.779522 137.310987 
L 110.337422 132.081407 
L 111.895323 125.804949 
L 113.453223 118.519837 
L 115.790073 106.066007 
L 121.242723 75.538105 
L 122.800623 67.967635 
L 124.358523 61.3004 
L 125.916423 55.579737 
L 127.474324 50.767203 
L 129.032224 46.772816 
L 130.590124 43.482267 
L 132.148024 40.776846 
L 133.705924 38.545654 
L 135.263824 36.691648 
L 136.821724 35.133514 
L 139.158574 33.210198 
L 141.495424 31.638505 
L 144.611225 29.89454 
L 148.505975 28.046648 
L 153.958625 25.765817 
L 163.306026 22.158542 
L 191.348227 11.693252 
L 195.242978 10.244304 
L 195.242978 10.244304 
" clip-path="url(#p28f0231c67)" style="fill: none; stroke: #dc241f; stroke-width: 0.8; stroke-linecap: square"/>
   </g>
   <g id="line2d_81">
    <path d="M 39.452968 155.120918 
L 106.442672 155.031024 
L 108.000572 154.867273 
L 108.779522 154.696044 
L 109.558472 154.410884 
L 110.337422 153.937876 
L 111.116373 153.157747 
L 111.895323 151.881989 
L 112.674273 149.82266 
L 113.453223 146.564326 
L 114.232173 141.5641 
L 115.011123 134.232925 
L 115.790073 124.162907 
L 117.347973 97.170184 
L 118.905873 70.023598 
L 119.684823 59.749801 
L 120.463773 52.136941 
L 121.242723 46.800978 
L 122.021673 43.179703 
L 122.800623 40.750995 
L 123.579573 39.111754 
L 124.358523 37.979543 
L 125.137473 37.167073 
L 126.695373 36.06474 
L 129.032224 34.949384 
L 133.705924 33.139006 
L 191.348227 11.69285 
L 195.242978 10.244082 
L 195.242978 10.244082 
" clip-path="url(#p28f0231c67)" style="fill: none; stroke: #0019a8; stroke-width: 0.8; stroke-linecap: square"/>
   </g>
   <g id="patch_3">
    <path d="M 31.663468 162.36476 
L 31.663468 3.00024 
" style="fill: none; stroke: #000000; stroke-width: 0.75; stroke-linejoin: miter; stroke-linecap: square"/>
   </g>
   <g id="patch_4">
    <path d="M 203.032478 162.36476 
L 203.032478 3.00024 
" style="fill: none; stroke: #000000; stroke-width: 0.75; stroke-linejoin: miter; stroke-linecap: square"/>
   </g>
   <g id="patch_5">
    <path d="M 31.663468 162.36476 
L 203.032478 162.36476 
" style="fill: none; stroke: #000000; stroke-width: 0.75; stroke-linejoin: miter; stroke-linecap: square"/>
   </g>
   <g id="patch_6">
    <path d="M 31.663468 3.00024 
L 203.032478 3.00024 
" style="fill: none; stroke: #000000; stroke-width: 0.75; stroke-linejoin: miter; stroke-linecap: square"/>
   </g>
   <g id="text_13">
    <!--  (a) -->
    <g transform="translate(31.663468 13.332856) scale(0.1 -0.1)">
     <use xlink:href="#Garamond-20"/>
     <use xlink:href="#Garamond-28" transform="translate(25 0)"/>
     <use xlink:href="#Garamond-61" transform="translate(54.150391 0)"/>
     <use xlink:href="#Garamond-29" transform="translate(94.775391 0)"/>
    </g>
   </g>
   <g id="legend_1">
    <g id="text_14">
     <!-- Order -->
     <g transform="translate(50.185812 22.738209) scale(0.11 -0.11)">
      <defs>
       <path id="Garamond-4f" d="M 294 1997 
Q 294 2316 370 2564 
Q 447 2813 628 3103 
Q 809 3394 1065 3589 
Q 1322 3784 1775 3934 
Q 2094 4038 2581 4038 
Q 2909 4038 3223 3950 
Q 3538 3863 3794 3706 
Q 4050 3550 4306 3225 
Q 4484 3000 4575 2741 
Q 4694 2400 4694 2038 
Q 4694 1625 4614 1353 
Q 4534 1081 4347 816 
Q 4200 609 3844 341 
Q 3606 159 3253 48 
Q 2900 -63 2491 -63 
Q 2075 -63 1750 34 
Q 1425 131 1208 270 
Q 991 409 761 681 
Q 531 953 412 1281 
Q 294 1609 294 1997 
z
M 2463 53 
Q 2725 53 3008 126 
Q 3291 200 3509 370 
Q 3728 541 3851 758 
Q 3975 975 4050 1315 
Q 4125 1656 4125 1997 
Q 4125 2422 4000 2838 
Q 3903 3153 3684 3401 
Q 3466 3650 3156 3786 
Q 2847 3922 2497 3922 
Q 2213 3922 1941 3828 
Q 1669 3734 1494 3589 
Q 1319 3444 1169 3176 
Q 1019 2909 941 2587 
Q 863 2266 863 2019 
Q 863 1759 941 1431 
Q 1019 1103 1155 862 
Q 1291 622 1489 436 
Q 1688 250 1934 151 
Q 2181 53 2463 53 
z
" transform="scale(0.015625)"/>
       <path id="Garamond-64" d="M 2281 2269 
L 2284 2359 
L 2281 2725 
L 2284 3416 
Q 2284 3703 2221 3781 
Q 2159 3859 1856 3941 
Q 1834 3947 1788 3959 
L 1788 3994 
Q 1788 4025 1794 4063 
Q 2219 4106 2525 4209 
L 2684 4213 
Q 2697 4000 2697 3738 
L 2684 2534 
L 2706 1178 
L 2697 456 
Q 2697 234 2728 206 
Q 2791 144 3003 141 
Q 3047 141 3122 134 
L 3122 78 
Q 3122 56 3119 31 
Q 3022 9 2919 -9 
L 2466 -97 
Q 2366 -116 2306 -116 
L 2306 184 
Q 2253 169 2141 122 
Q 1653 -84 1244 -84 
Q 997 -84 740 77 
Q 484 238 346 525 
Q 209 813 209 1113 
Q 209 1381 300 1626 
Q 391 1872 538 2034 
Q 631 2141 803 2245 
Q 975 2350 1088 2378 
Q 1366 2450 1459 2450 
Q 1881 2450 2153 2325 
Q 2238 2284 2281 2269 
z
M 2284 338 
Q 2297 547 2297 1200 
Q 2297 1753 2245 1898 
Q 2194 2044 1987 2173 
Q 1781 2303 1525 2303 
Q 1166 2303 916 2025 
Q 666 1747 666 1203 
Q 666 725 936 440 
Q 1206 156 1609 156 
Q 1841 156 2031 218 
Q 2222 281 2284 338 
z
" transform="scale(0.015625)"/>
      </defs>
      <use xlink:href="#Garamond-4f"/>
      <use xlink:href="#Garamond-72" transform="translate(78.125 0)"/>
      <use xlink:href="#Garamond-64" transform="translate(111.474609 0)"/>
      <use xlink:href="#Garamond-65" transform="translate(161.474609 0)"/>
      <use xlink:href="#Garamond-72" transform="translate(203.125 0)"/>
     </g>
    </g>
    <g id="line2d_82">
     <path d="M 44.263468 30.508678 
L 53.263468 30.508678 
L 62.263468 30.508678 
" style="fill: none; stroke: #000000; stroke-width: 0.8; stroke-linecap: square"/>
    </g>
    <g id="text_15">
     <!-- 10 -->
     <g transform="translate(69.463468 33.658678) scale(0.09 -0.09)">
      <use xlink:href="#Garamond-31"/>
      <use xlink:href="#Garamond-30" transform="translate(46.875 0)"/>
     </g>
    </g>
    <g id="line2d_83">
     <path d="M 44.263468 40.916334 
L 53.263468 40.916334 
L 62.263468 40.916334 
" style="fill: none; stroke: #dc241f; stroke-width: 0.8; stroke-linecap: square"/>
    </g>
    <g id="text_16">
     <!-- 30 -->
     <g transform="translate(69.463468 44.066334) scale(0.09 -0.09)">
      <defs>
       <path id="Garamond-33" d="M 534 3150 
L 431 3206 
Q 628 3684 900 3879 
Q 1172 4075 1534 4075 
Q 1872 4075 2075 3925 
Q 2378 3700 2378 3419 
Q 2378 3191 2223 2959 
Q 2069 2728 1681 2441 
L 1756 2444 
Q 2000 2444 2226 2320 
Q 2453 2197 2584 1936 
Q 2716 1675 2716 1375 
Q 2716 772 2273 342 
Q 1831 -88 1147 -88 
Q 628 -88 381 63 
Q 247 141 247 259 
Q 247 325 301 378 
Q 356 431 438 431 
Q 541 431 688 319 
Q 1034 53 1291 53 
Q 1678 53 1978 379 
Q 2278 706 2278 1203 
Q 2278 1616 2076 1880 
Q 1875 2144 1566 2144 
Q 1334 2144 1084 1925 
L 1009 2050 
Q 1166 2184 1291 2278 
Q 1672 2556 1859 2825 
Q 1994 3019 1994 3166 
Q 1994 3413 1819 3583 
Q 1644 3753 1359 3753 
Q 891 3753 534 3150 
z
" transform="scale(0.015625)"/>
      </defs>
      <use xlink:href="#Garamond-33"/>
      <use xlink:href="#Garamond-30" transform="translate(46.875 0)"/>
     </g>
    </g>
    <g id="line2d_84">
     <path d="M 44.263468 51.32399 
L 53.263468 51.32399 
L 62.263468 51.32399 
" style="fill: none; stroke: #0019a8; stroke-width: 0.8; stroke-linecap: square"/>
    </g>
    <g id="text_17">
     <!-- 100 -->
     <g transform="translate(69.463468 54.47399) scale(0.09 -0.09)">
      <use xlink:href="#Garamond-31"/>
      <use xlink:href="#Garamond-30" transform="translate(46.875 0)"/>
      <use xlink:href="#Garamond-30" transform="translate(93.75 0)"/>
     </g>
    </g>
   </g>
  </g>
  <g id="axes_2">
   <g id="patch_7">
    <path d="M 278.784156 64.32452 
L 344.727826 64.32452 
L 344.727826 3.00024 
L 278.784156 3.00024 
z
" style="fill: #ffffff"/>
   </g>
   <g id="matplotlib.axis_3">
    <g id="xtick_12">
     <g id="line2d_85">
      <g>
       <use xlink:href="#mf993e05095" x="281.781596" y="64.32452" style="stroke: #000000; stroke-width: 0.5"/>
      </g>
     </g>
     <g id="line2d_86">
      <g>
       <use xlink:href="#me00ded7c6b" x="281.781596" y="3.00024" style="stroke: #000000; stroke-width: 0.5"/>
      </g>
     </g>
     <g id="text_18">
      <!-- 0.75 -->
      <g transform="translate(274.469096 73.664676) scale(0.09 -0.09)">
       <defs>
        <path id="Garamond-37" d="M 341 3950 
Q 725 3966 1378 3966 
Q 1675 3966 2056 3956 
Q 2288 3947 2359 3947 
L 2663 3950 
L 2734 3950 
Q 2759 3925 2759 3903 
Q 2759 3866 2688 3722 
Q 2653 3659 2384 3038 
Q 2253 2731 2063 2234 
L 1669 1125 
Q 1528 744 1488 594 
L 1416 303 
Q 1372 175 1372 116 
Q 1372 69 1425 -31 
Q 1388 -81 1256 -81 
Q 1197 -81 1144 -31 
Q 1163 153 1263 456 
Q 1300 566 1390 887 
Q 1481 1209 1569 1456 
L 1925 2425 
Q 2078 2838 2222 3184 
Q 2272 3300 2297 3347 
Q 2363 3463 2363 3538 
L 2322 3534 
L 2288 3534 
L 1875 3547 
Q 1856 3547 1743 3540 
Q 1631 3534 1575 3534 
L 1091 3538 
L 944 3538 
L 738 3544 
Q 556 3547 511 3501 
Q 466 3456 459 3269 
Q 456 3222 434 3178 
Q 400 3169 384 3169 
Q 350 3169 294 3194 
Q 297 3272 297 3309 
L 303 3403 
L 294 3575 
Q 294 3800 306 3878 
Q 313 3909 341 3950 
z
" transform="scale(0.015625)"/>
        <path id="Garamond-35" d="M 2369 3606 
Q 2019 3578 1803 3578 
Q 1644 3578 1466 3588 
Q 1369 3594 1350 3594 
Q 969 3594 941 3578 
Q 928 3572 925 3550 
Q 916 3500 844 2434 
Q 984 2506 1115 2536 
Q 1247 2566 1463 2566 
Q 1616 2566 1675 2547 
Q 1972 2450 2103 2372 
Q 2284 2259 2398 2115 
Q 2513 1972 2609 1694 
Q 2678 1494 2678 1275 
Q 2678 1038 2611 833 
Q 2544 628 2444 490 
Q 2344 353 2147 204 
Q 1950 56 1683 -22 
Q 1416 -100 1325 -103 
L 872 -63 
Q 684 -31 543 39 
Q 403 109 356 175 
Q 328 216 328 281 
Q 328 331 398 390 
Q 469 450 572 450 
Q 619 450 675 422 
L 922 263 
Q 1006 188 1131 122 
Q 1150 113 1225 100 
Q 1406 75 1422 75 
Q 1491 75 1656 131 
Q 1822 188 1962 323 
Q 2103 459 2204 667 
Q 2306 875 2306 1128 
Q 2306 1581 2022 1875 
Q 1738 2169 1338 2169 
Q 1159 2169 1007 2109 
Q 856 2050 803 1978 
L 756 1959 
Q 719 1944 703 1944 
L 663 1953 
Q 653 2009 653 2038 
Q 653 2063 663 2125 
Q 684 2278 686 2442 
Q 688 2606 719 2738 
L 709 2888 
Q 731 3003 734 3109 
Q 744 3828 794 3934 
Q 816 3984 869 3984 
Q 891 3984 941 3978 
L 959 3975 
L 1356 3978 
Q 1625 3963 1753 3963 
Q 2047 3963 2225 4003 
Q 2313 4084 2359 4084 
Q 2378 4084 2428 4078 
L 2438 4041 
L 2413 3909 
L 2397 3700 
Q 2394 3678 2369 3606 
z
" transform="scale(0.015625)"/>
       </defs>
       <use xlink:href="#Garamond-30"/>
       <use xlink:href="#Garamond-2e" transform="translate(46.875 0)"/>
       <use xlink:href="#Garamond-37" transform="translate(68.75 0)"/>
       <use xlink:href="#Garamond-35" transform="translate(115.625 0)"/>
      </g>
     </g>
    </g>
    <g id="xtick_13">
     <g id="line2d_87">
      <g>
       <use xlink:href="#mf993e05095" x="311.755991" y="64.32452" style="stroke: #000000; stroke-width: 0.5"/>
      </g>
     </g>
     <g id="line2d_88">
      <g>
       <use xlink:href="#me00ded7c6b" x="311.755991" y="3.00024" style="stroke: #000000; stroke-width: 0.5"/>
      </g>
     </g>
     <g id="text_19">
      <!-- 1.00 -->
      <g transform="translate(304.443491 73.664676) scale(0.09 -0.09)">
       <use xlink:href="#Garamond-31"/>
       <use xlink:href="#Garamond-2e" transform="translate(46.875 0)"/>
       <use xlink:href="#Garamond-30" transform="translate(68.75 0)"/>
       <use xlink:href="#Garamond-30" transform="translate(115.625 0)"/>
      </g>
     </g>
    </g>
    <g id="xtick_14">
     <g id="line2d_89">
      <g>
       <use xlink:href="#mf993e05095" x="341.730386" y="64.32452" style="stroke: #000000; stroke-width: 0.5"/>
      </g>
     </g>
     <g id="line2d_90">
      <g>
       <use xlink:href="#me00ded7c6b" x="341.730386" y="3.00024" style="stroke: #000000; stroke-width: 0.5"/>
      </g>
     </g>
     <g id="text_20">
      <!-- 1.25 -->
      <g transform="translate(334.417886 73.664676) scale(0.09 -0.09)">
       <use xlink:href="#Garamond-31"/>
       <use xlink:href="#Garamond-2e" transform="translate(46.875 0)"/>
       <use xlink:href="#Garamond-32" transform="translate(68.75 0)"/>
       <use xlink:href="#Garamond-35" transform="translate(115.625 0)"/>
      </g>
     </g>
    </g>
    <g id="xtick_15">
     <g id="line2d_91">
      <g>
       <use xlink:href="#mdf1859b065" x="287.776475" y="64.32452" style="stroke: #000000; stroke-width: 0.5"/>
      </g>
     </g>
     <g id="line2d_92">
      <g>
       <use xlink:href="#m7e4ddd6630" x="287.776475" y="3.00024" style="stroke: #000000; stroke-width: 0.5"/>
      </g>
     </g>
    </g>
    <g id="xtick_16">
     <g id="line2d_93">
      <g>
       <use xlink:href="#mdf1859b065" x="293.771354" y="64.32452" style="stroke: #000000; stroke-width: 0.5"/>
      </g>
     </g>
     <g id="line2d_94">
      <g>
       <use xlink:href="#m7e4ddd6630" x="293.771354" y="3.00024" style="stroke: #000000; stroke-width: 0.5"/>
      </g>
     </g>
    </g>
    <g id="xtick_17">
     <g id="line2d_95">
      <g>
       <use xlink:href="#mdf1859b065" x="299.766233" y="64.32452" style="stroke: #000000; stroke-width: 0.5"/>
      </g>
     </g>
     <g id="line2d_96">
      <g>
       <use xlink:href="#m7e4ddd6630" x="299.766233" y="3.00024" style="stroke: #000000; stroke-width: 0.5"/>
      </g>
     </g>
    </g>
    <g id="xtick_18">
     <g id="line2d_97">
      <g>
       <use xlink:href="#mdf1859b065" x="305.761112" y="64.32452" style="stroke: #000000; stroke-width: 0.5"/>
      </g>
     </g>
     <g id="line2d_98">
      <g>
       <use xlink:href="#m7e4ddd6630" x="305.761112" y="3.00024" style="stroke: #000000; stroke-width: 0.5"/>
      </g>
     </g>
    </g>
    <g id="xtick_19">
     <g id="line2d_99">
      <g>
       <use xlink:href="#mdf1859b065" x="317.75087" y="64.32452" style="stroke: #000000; stroke-width: 0.5"/>
      </g>
     </g>
     <g id="line2d_100">
      <g>
       <use xlink:href="#m7e4ddd6630" x="317.75087" y="3.00024" style="stroke: #000000; stroke-width: 0.5"/>
      </g>
     </g>
    </g>
    <g id="xtick_20">
     <g id="line2d_101">
      <g>
       <use xlink:href="#mdf1859b065" x="323.745749" y="64.32452" style="stroke: #000000; stroke-width: 0.5"/>
      </g>
     </g>
     <g id="line2d_102">
      <g>
       <use xlink:href="#m7e4ddd6630" x="323.745749" y="3.00024" style="stroke: #000000; stroke-width: 0.5"/>
      </g>
     </g>
    </g>
    <g id="xtick_21">
     <g id="line2d_103">
      <g>
       <use xlink:href="#mdf1859b065" x="329.740628" y="64.32452" style="stroke: #000000; stroke-width: 0.5"/>
      </g>
     </g>
     <g id="line2d_104">
      <g>
       <use xlink:href="#m7e4ddd6630" x="329.740628" y="3.00024" style="stroke: #000000; stroke-width: 0.5"/>
      </g>
     </g>
    </g>
    <g id="xtick_22">
     <g id="line2d_105">
      <g>
       <use xlink:href="#mdf1859b065" x="335.735507" y="64.32452" style="stroke: #000000; stroke-width: 0.5"/>
      </g>
     </g>
     <g id="line2d_106">
      <g>
       <use xlink:href="#m7e4ddd6630" x="335.735507" y="3.00024" style="stroke: #000000; stroke-width: 0.5"/>
      </g>
     </g>
    </g>
    <g id="text_21">
     <!-- Voltage (V) -->
     <g transform="translate(289.579428 86.461395) scale(0.1 -0.1)">
      <use xlink:href="#Garamond-56"/>
      <use xlink:href="#Garamond-6f" transform="translate(60.849609 0)"/>
      <use xlink:href="#Garamond-6c" transform="translate(111.875 0)"/>
      <use xlink:href="#Garamond-74" transform="translate(134.775391 0)"/>
      <use xlink:href="#Garamond-61" transform="translate(163.925781 0)"/>
      <use xlink:href="#Garamond-67" transform="translate(204.550781 0)"/>
      <use xlink:href="#Garamond-65" transform="translate(250.826172 0)"/>
      <use xlink:href="#Garamond-20" transform="translate(292.476562 0)"/>
      <use xlink:href="#Garamond-28" transform="translate(317.476562 0)"/>
      <use xlink:href="#Garamond-56" transform="translate(346.626953 0)"/>
      <use xlink:href="#Garamond-29" transform="translate(414.351562 0)"/>
     </g>
    </g>
   </g>
   <g id="matplotlib.axis_4">
    <g id="ytick_29">
     <g id="line2d_107">
      <g>
       <use xlink:href="#m750fdaff6e" x="278.784156" y="61.537053" style="stroke: #000000; stroke-width: 0.5"/>
      </g>
     </g>
     <g id="line2d_108">
      <g>
       <use xlink:href="#m55b1795a5a" x="344.727826" y="61.537053" style="stroke: #000000; stroke-width: 0.5"/>
      </g>
     </g>
     <g id="text_22">
      <!-- 0.0 -->
      <g transform="translate(264.877906 64.457131) scale(0.09 -0.09)">
       <use xlink:href="#Garamond-30"/>
       <use xlink:href="#Garamond-2e" transform="translate(46.875 0)"/>
       <use xlink:href="#Garamond-30" transform="translate(68.75 0)"/>
      </g>
     </g>
    </g>
    <g id="ytick_30">
     <g id="line2d_109">
      <g>
       <use xlink:href="#m750fdaff6e" x="278.784156" y="39.237315" style="stroke: #000000; stroke-width: 0.5"/>
      </g>
     </g>
     <g id="line2d_110">
      <g>
       <use xlink:href="#m55b1795a5a" x="344.727826" y="39.237315" style="stroke: #000000; stroke-width: 0.5"/>
      </g>
     </g>
     <g id="text_23">
      <!-- 0.5 -->
      <g transform="translate(264.877906 42.157393) scale(0.09 -0.09)">
       <use xlink:href="#Garamond-30"/>
       <use xlink:href="#Garamond-2e" transform="translate(46.875 0)"/>
       <use xlink:href="#Garamond-35" transform="translate(68.75 0)"/>
      </g>
     </g>
    </g>
    <g id="ytick_31">
     <g id="line2d_111">
      <g>
       <use xlink:href="#m750fdaff6e" x="278.784156" y="16.937576" style="stroke: #000000; stroke-width: 0.5"/>
      </g>
     </g>
     <g id="line2d_112">
      <g>
       <use xlink:href="#m55b1795a5a" x="344.727826" y="16.937576" style="stroke: #000000; stroke-width: 0.5"/>
      </g>
     </g>
     <g id="text_24">
      <!-- 1.0 -->
      <g transform="translate(264.877906 19.857654) scale(0.09 -0.09)">
       <use xlink:href="#Garamond-31"/>
       <use xlink:href="#Garamond-2e" transform="translate(46.875 0)"/>
       <use xlink:href="#Garamond-30" transform="translate(68.75 0)"/>
      </g>
     </g>
    </g>
    <g id="ytick_32">
     <g id="line2d_113">
      <g>
       <use xlink:href="#m556850fc98" x="278.784156" y="57.077105" style="stroke: #000000; stroke-width: 0.5"/>
      </g>
     </g>
     <g id="line2d_114">
      <g>
       <use xlink:href="#m4b5475e3e7" x="344.727826" y="57.077105" style="stroke: #000000; stroke-width: 0.5"/>
      </g>
     </g>
    </g>
    <g id="ytick_33">
     <g id="line2d_115">
      <g>
       <use xlink:href="#m556850fc98" x="278.784156" y="52.617157" style="stroke: #000000; stroke-width: 0.5"/>
      </g>
     </g>
     <g id="line2d_116">
      <g>
       <use xlink:href="#m4b5475e3e7" x="344.727826" y="52.617157" style="stroke: #000000; stroke-width: 0.5"/>
      </g>
     </g>
    </g>
    <g id="ytick_34">
     <g id="line2d_117">
      <g>
       <use xlink:href="#m556850fc98" x="278.784156" y="48.15721" style="stroke: #000000; stroke-width: 0.5"/>
      </g>
     </g>
     <g id="line2d_118">
      <g>
       <use xlink:href="#m4b5475e3e7" x="344.727826" y="48.15721" style="stroke: #000000; stroke-width: 0.5"/>
      </g>
     </g>
    </g>
    <g id="ytick_35">
     <g id="line2d_119">
      <g>
       <use xlink:href="#m556850fc98" x="278.784156" y="43.697262" style="stroke: #000000; stroke-width: 0.5"/>
      </g>
     </g>
     <g id="line2d_120">
      <g>
       <use xlink:href="#m4b5475e3e7" x="344.727826" y="43.697262" style="stroke: #000000; stroke-width: 0.5"/>
      </g>
     </g>
    </g>
    <g id="ytick_36">
     <g id="line2d_121">
      <g>
       <use xlink:href="#m556850fc98" x="278.784156" y="34.777367" style="stroke: #000000; stroke-width: 0.5"/>
      </g>
     </g>
     <g id="line2d_122">
      <g>
       <use xlink:href="#m4b5475e3e7" x="344.727826" y="34.777367" style="stroke: #000000; stroke-width: 0.5"/>
      </g>
     </g>
    </g>
    <g id="ytick_37">
     <g id="line2d_123">
      <g>
       <use xlink:href="#m556850fc98" x="278.784156" y="30.317419" style="stroke: #000000; stroke-width: 0.5"/>
      </g>
     </g>
     <g id="line2d_124">
      <g>
       <use xlink:href="#m4b5475e3e7" x="344.727826" y="30.317419" style="stroke: #000000; stroke-width: 0.5"/>
      </g>
     </g>
    </g>
    <g id="ytick_38">
     <g id="line2d_125">
      <g>
       <use xlink:href="#m556850fc98" x="278.784156" y="25.857472" style="stroke: #000000; stroke-width: 0.5"/>
      </g>
     </g>
     <g id="line2d_126">
      <g>
       <use xlink:href="#m4b5475e3e7" x="344.727826" y="25.857472" style="stroke: #000000; stroke-width: 0.5"/>
      </g>
     </g>
    </g>
    <g id="ytick_39">
     <g id="line2d_127">
      <g>
       <use xlink:href="#m556850fc98" x="278.784156" y="21.397524" style="stroke: #000000; stroke-width: 0.5"/>
      </g>
     </g>
     <g id="line2d_128">
      <g>
       <use xlink:href="#m4b5475e3e7" x="344.727826" y="21.397524" style="stroke: #000000; stroke-width: 0.5"/>
      </g>
     </g>
    </g>
    <g id="ytick_40">
     <g id="line2d_129">
      <g>
       <use xlink:href="#m556850fc98" x="278.784156" y="12.477629" style="stroke: #000000; stroke-width: 0.5"/>
      </g>
     </g>
     <g id="line2d_130">
      <g>
       <use xlink:href="#m4b5475e3e7" x="344.727826" y="12.477629" style="stroke: #000000; stroke-width: 0.5"/>
      </g>
     </g>
    </g>
    <g id="ytick_41">
     <g id="line2d_131">
      <g>
       <use xlink:href="#m556850fc98" x="278.784156" y="8.017681" style="stroke: #000000; stroke-width: 0.5"/>
      </g>
     </g>
     <g id="line2d_132">
      <g>
       <use xlink:href="#m4b5475e3e7" x="344.727826" y="8.017681" style="stroke: #000000; stroke-width: 0.5"/>
      </g>
     </g>
    </g>
    <g id="ytick_42">
     <g id="line2d_133">
      <g>
       <use xlink:href="#m556850fc98" x="278.784156" y="3.557733" style="stroke: #000000; stroke-width: 0.5"/>
      </g>
     </g>
     <g id="line2d_134">
      <g>
       <use xlink:href="#m4b5475e3e7" x="344.727826" y="3.557733" style="stroke: #000000; stroke-width: 0.5"/>
      </g>
     </g>
    </g>
    <g id="text_25">
     <!-- Current (A) -->
     <g transform="translate(258.313844 56.390505) rotate(-90) scale(0.1 -0.1)">
      <use xlink:href="#Garamond-43"/>
      <use xlink:href="#Garamond-75" transform="translate(63.525391 0)"/>
      <use xlink:href="#Garamond-72" transform="translate(112.5 0)"/>
      <use xlink:href="#Garamond-72" transform="translate(148.349609 0)"/>
      <use xlink:href="#Garamond-65" transform="translate(181.699219 0)"/>
      <use xlink:href="#Garamond-6e" transform="translate(223.349609 0)"/>
      <use xlink:href="#Garamond-74" transform="translate(274.375 0)"/>
      <use xlink:href="#Garamond-20" transform="translate(303.525391 0)"/>
      <use xlink:href="#Garamond-28" transform="translate(328.525391 0)"/>
      <use xlink:href="#Garamond-41" transform="translate(357.675781 0)"/>
      <use xlink:href="#Garamond-29" transform="translate(425.400391 0)"/>
     </g>
    </g>
   </g>
   <g id="line2d_135">
    <path d="M 281.781596 61.53108 
L 291.373402 61.39929 
L 294.670586 61.160959 
L 297.068537 60.775919 
L 298.867001 60.266207 
L 300.365721 59.612972 
L 301.564697 58.881464 
L 302.763672 57.908453 
L 303.962648 56.636992 
L 305.161624 55.010961 
L 306.3606 52.98459 
L 307.559576 50.535189 
L 309.058295 46.903762 
L 310.856759 41.893282 
L 315.352918 29.003135 
L 316.851638 25.407399 
L 318.350358 22.347712 
L 319.849078 19.807514 
L 321.347797 17.723675 
L 322.846517 16.015265 
L 324.644981 14.348712 
L 326.443445 12.989707 
L 328.541652 11.672345 
L 331.239348 10.250199 
L 334.836275 8.621228 
L 340.53141 6.320682 
L 341.730386 5.856636 
L 341.730386 5.856636 
" clip-path="url(#pa190d5da9a)" style="fill: none; stroke: #000000; stroke-width: 0.8; stroke-linecap: square"/>
   </g>
   <g id="line2d_136">
    <path d="M 281.781596 61.537053 
L 301.864441 61.43858 
L 303.662904 61.227204 
L 304.86188 60.88169 
L 305.761112 60.399717 
L 306.660344 59.587694 
L 307.259832 58.771029 
L 307.85932 57.650566 
L 308.458808 56.144084 
L 309.058295 54.17091 
L 309.957527 50.216144 
L 310.856759 45.104925 
L 313.854199 26.545587 
L 314.75343 22.715496 
L 315.652662 19.923474 
L 316.551894 17.952567 
L 317.451126 16.565547 
L 318.350358 15.568016 
L 319.549334 14.610024 
L 321.048053 13.738279 
L 323.446005 12.6617 
L 328.541652 10.698932 
L 341.730386 5.787716 
L 341.730386 5.787716 
" clip-path="url(#pa190d5da9a)" style="fill: none; stroke: #dc241f; stroke-width: 0.8; stroke-linecap: square"/>
   </g>
   <g id="line2d_137">
    <path d="M 281.781596 61.537053 
L 308.159064 61.465035 
L 308.758551 61.324642 
L 309.358039 60.917847 
L 309.657783 60.487579 
L 309.957527 59.772752 
L 310.257271 58.607728 
L 310.557015 56.765224 
L 310.856759 53.98266 
L 311.456247 45.008421 
L 312.355479 28.356222 
L 312.954967 21.451753 
L 313.554455 18.170898 
L 314.153943 16.745684 
L 314.75343 16.077048 
L 315.652662 15.543784 
L 317.75087 14.709265 
L 341.730386 5.787707 
L 341.730386 5.787707 
" clip-path="url(#pa190d5da9a)" style="fill: none; stroke: #0019a8; stroke-width: 0.8; stroke-linecap: square"/>
   </g>
   <g id="patch_8">
    <path d="M 278.784156 64.32452 
L 278.784156 3.00024 
" style="fill: none; stroke: #000000; stroke-width: 0.75; stroke-linejoin: miter; stroke-linecap: square"/>
   </g>
   <g id="patch_9">
    <path d="M 344.727826 64.32452 
L 344.727826 3.00024 
" style="fill: none; stroke: #000000; stroke-width: 0.75; stroke-linejoin: miter; stroke-linecap: square"/>
   </g>
   <g id="patch_10">
    <path d="M 278.784156 64.32452 
L 344.727826 64.32452 
" style="fill: none; stroke: #000000; stroke-width: 0.75; stroke-linejoin: miter; stroke-linecap: square"/>
   </g>
   <g id="patch_11">
    <path d="M 278.784156 3.00024 
L 344.727826 3.00024 
" style="fill: none; stroke: #000000; stroke-width: 0.75; stroke-linejoin: miter; stroke-linecap: square"/>
   </g>
   <g id="text_26">
    <!--  (b) -->
    <g transform="translate(278.784156 10.826963) scale(0.1 -0.1)">
     <defs>
      <path id="Garamond-62" d="M 106 3928 
L 106 3944 
Q 106 3975 131 4031 
Q 472 4091 856 4213 
Q 878 4216 925 4216 
Q 941 4166 941 4150 
L 941 3219 
L 938 2922 
L 941 2591 
L 934 2322 
Q 934 2306 941 2216 
L 1197 2313 
Q 1238 2325 1466 2394 
Q 1756 2441 1803 2441 
Q 2116 2441 2366 2341 
Q 2519 2278 2669 2133 
Q 2819 1988 2891 1825 
Q 3016 1528 3016 1313 
Q 3016 972 2972 841 
Q 2866 528 2712 347 
Q 2559 166 2284 37 
Q 2009 -91 1700 -91 
Q 1416 -91 1162 15 
Q 909 122 878 122 
Q 781 122 631 -134 
L 541 -131 
Q 528 78 528 384 
L 534 850 
L 531 1088 
L 538 1769 
L 531 1900 
L 544 2222 
L 544 2497 
L 547 2609 
Q 547 2644 544 2881 
L 544 3069 
Q 553 3613 497 3697 
Q 406 3831 106 3928 
z
M 1591 81 
Q 2066 81 2314 348 
Q 2563 616 2563 1144 
Q 2563 1628 2281 1928 
Q 2000 2228 1588 2228 
Q 1288 2228 1084 2131 
Q 963 2072 948 2022 
Q 934 1972 934 1353 
Q 934 619 966 494 
Q 1019 300 1159 216 
Q 1381 81 1591 81 
z
" transform="scale(0.015625)"/>
     </defs>
     <use xlink:href="#Garamond-20"/>
     <use xlink:href="#Garamond-28" transform="translate(25 0)"/>
     <use xlink:href="#Garamond-62" transform="translate(54.150391 0)"/>
     <use xlink:href="#Garamond-29" transform="translate(105.175781 0)"/>
    </g>
   </g>
   <g id="legend_2">
    <g id="text_27">
     <!-- Order -->
     <g transform="translate(300.193919 22.738209) scale(0.11 -0.11)">
      <use xlink:href="#Garamond-4f"/>
      <use xlink:href="#Garamond-72" transform="translate(78.125 0)"/>
      <use xlink:href="#Garamond-64" transform="translate(111.474609 0)"/>
      <use xlink:href="#Garamond-65" transform="translate(161.474609 0)"/>
      <use xlink:href="#Garamond-72" transform="translate(203.125 0)"/>
     </g>
    </g>
    <g id="line2d_138">
     <path d="M 294.271576 30.508678 
L 303.271576 30.508678 
L 312.271576 30.508678 
" style="fill: none; stroke: #000000; stroke-width: 0.8; stroke-linecap: square"/>
    </g>
    <g id="text_28">
     <!-- 15 -->
     <g transform="translate(319.471576 33.658678) scale(0.09 -0.09)">
      <use xlink:href="#Garamond-31"/>
      <use xlink:href="#Garamond-35" transform="translate(46.875 0)"/>
     </g>
    </g>
    <g id="line2d_139">
     <path d="M 294.271576 40.916334 
L 303.271576 40.916334 
L 312.271576 40.916334 
" style="fill: none; stroke: #dc241f; stroke-width: 0.8; stroke-linecap: square"/>
    </g>
    <g id="text_29">
     <!-- 35 -->
     <g transform="translate(319.471576 44.066334) scale(0.09 -0.09)">
      <use xlink:href="#Garamond-33"/>
      <use xlink:href="#Garamond-35" transform="translate(46.875 0)"/>
     </g>
    </g>
    <g id="line2d_140">
     <path d="M 294.271576 51.32399 
L 303.271576 51.32399 
L 312.271576 51.32399 
" style="fill: none; stroke: #0019a8; stroke-width: 0.8; stroke-linecap: square"/>
    </g>
    <g id="text_30">
     <!-- 105 -->
     <g transform="translate(319.471576 54.47399) scale(0.09 -0.09)">
      <use xlink:href="#Garamond-31"/>
      <use xlink:href="#Garamond-30" transform="translate(46.875 0)"/>
      <use xlink:href="#Garamond-35" transform="translate(93.75 0)"/>
     </g>
    </g>
   </g>
  </g>
  <g id="axes_3">
   <g id="patch_12">
    <path d="M 278.784156 162.36476 
L 344.727826 162.36476 
L 344.727826 101.04048 
L 278.784156 101.04048 
z
" style="fill: #ffffff"/>
   </g>
   <g id="matplotlib.axis_5">
    <g id="xtick_23">
     <g id="line2d_141">
      <g>
       <use xlink:href="#mf993e05095" x="281.781596" y="162.36476" style="stroke: #000000; stroke-width: 0.5"/>
      </g>
     </g>
     <g id="line2d_142">
      <g>
       <use xlink:href="#me00ded7c6b" x="281.781596" y="101.04048" style="stroke: #000000; stroke-width: 0.5"/>
      </g>
     </g>
     <g id="text_31">
      <!-- 0.75 -->
      <g transform="translate(274.469096 171.704916) scale(0.09 -0.09)">
       <use xlink:href="#Garamond-30"/>
       <use xlink:href="#Garamond-2e" transform="translate(46.875 0)"/>
       <use xlink:href="#Garamond-37" transform="translate(68.75 0)"/>
       <use xlink:href="#Garamond-35" transform="translate(115.625 0)"/>
      </g>
     </g>
    </g>
    <g id="xtick_24">
     <g id="line2d_143">
      <g>
       <use xlink:href="#mf993e05095" x="311.755991" y="162.36476" style="stroke: #000000; stroke-width: 0.5"/>
      </g>
     </g>
     <g id="line2d_144">
      <g>
       <use xlink:href="#me00ded7c6b" x="311.755991" y="101.04048" style="stroke: #000000; stroke-width: 0.5"/>
      </g>
     </g>
     <g id="text_32">
      <!-- 1.00 -->
      <g transform="translate(304.443491 171.704916) scale(0.09 -0.09)">
       <use xlink:href="#Garamond-31"/>
       <use xlink:href="#Garamond-2e" transform="translate(46.875 0)"/>
       <use xlink:href="#Garamond-30" transform="translate(68.75 0)"/>
       <use xlink:href="#Garamond-30" transform="translate(115.625 0)"/>
      </g>
     </g>
    </g>
    <g id="xtick_25">
     <g id="line2d_145">
      <g>
       <use xlink:href="#mf993e05095" x="341.730386" y="162.36476" style="stroke: #000000; stroke-width: 0.5"/>
      </g>
     </g>
     <g id="line2d_146">
      <g>
       <use xlink:href="#me00ded7c6b" x="341.730386" y="101.04048" style="stroke: #000000; stroke-width: 0.5"/>
      </g>
     </g>
     <g id="text_33">
      <!-- 1.25 -->
      <g transform="translate(334.417886 171.704916) scale(0.09 -0.09)">
       <use xlink:href="#Garamond-31"/>
       <use xlink:href="#Garamond-2e" transform="translate(46.875 0)"/>
       <use xlink:href="#Garamond-32" transform="translate(68.75 0)"/>
       <use xlink:href="#Garamond-35" transform="translate(115.625 0)"/>
      </g>
     </g>
    </g>
    <g id="xtick_26">
     <g id="line2d_147">
      <g>
       <use xlink:href="#mdf1859b065" x="287.776475" y="162.36476" style="stroke: #000000; stroke-width: 0.5"/>
      </g>
     </g>
     <g id="line2d_148">
      <g>
       <use xlink:href="#m7e4ddd6630" x="287.776475" y="101.04048" style="stroke: #000000; stroke-width: 0.5"/>
      </g>
     </g>
    </g>
    <g id="xtick_27">
     <g id="line2d_149">
      <g>
       <use xlink:href="#mdf1859b065" x="293.771354" y="162.36476" style="stroke: #000000; stroke-width: 0.5"/>
      </g>
     </g>
     <g id="line2d_150">
      <g>
       <use xlink:href="#m7e4ddd6630" x="293.771354" y="101.04048" style="stroke: #000000; stroke-width: 0.5"/>
      </g>
     </g>
    </g>
    <g id="xtick_28">
     <g id="line2d_151">
      <g>
       <use xlink:href="#mdf1859b065" x="299.766233" y="162.36476" style="stroke: #000000; stroke-width: 0.5"/>
      </g>
     </g>
     <g id="line2d_152">
      <g>
       <use xlink:href="#m7e4ddd6630" x="299.766233" y="101.04048" style="stroke: #000000; stroke-width: 0.5"/>
      </g>
     </g>
    </g>
    <g id="xtick_29">
     <g id="line2d_153">
      <g>
       <use xlink:href="#mdf1859b065" x="305.761112" y="162.36476" style="stroke: #000000; stroke-width: 0.5"/>
      </g>
     </g>
     <g id="line2d_154">
      <g>
       <use xlink:href="#m7e4ddd6630" x="305.761112" y="101.04048" style="stroke: #000000; stroke-width: 0.5"/>
      </g>
     </g>
    </g>
    <g id="xtick_30">
     <g id="line2d_155">
      <g>
       <use xlink:href="#mdf1859b065" x="317.75087" y="162.36476" style="stroke: #000000; stroke-width: 0.5"/>
      </g>
     </g>
     <g id="line2d_156">
      <g>
       <use xlink:href="#m7e4ddd6630" x="317.75087" y="101.04048" style="stroke: #000000; stroke-width: 0.5"/>
      </g>
     </g>
    </g>
    <g id="xtick_31">
     <g id="line2d_157">
      <g>
       <use xlink:href="#mdf1859b065" x="323.745749" y="162.36476" style="stroke: #000000; stroke-width: 0.5"/>
      </g>
     </g>
     <g id="line2d_158">
      <g>
       <use xlink:href="#m7e4ddd6630" x="323.745749" y="101.04048" style="stroke: #000000; stroke-width: 0.5"/>
      </g>
     </g>
    </g>
    <g id="xtick_32">
     <g id="line2d_159">
      <g>
       <use xlink:href="#mdf1859b065" x="329.740628" y="162.36476" style="stroke: #000000; stroke-width: 0.5"/>
      </g>
     </g>
     <g id="line2d_160">
      <g>
       <use xlink:href="#m7e4ddd6630" x="329.740628" y="101.04048" style="stroke: #000000; stroke-width: 0.5"/>
      </g>
     </g>
    </g>
    <g id="xtick_33">
     <g id="line2d_161">
      <g>
       <use xlink:href="#mdf1859b065" x="335.735507" y="162.36476" style="stroke: #000000; stroke-width: 0.5"/>
      </g>
     </g>
     <g id="line2d_162">
      <g>
       <use xlink:href="#m7e4ddd6630" x="335.735507" y="101.04048" style="stroke: #000000; stroke-width: 0.5"/>
      </g>
     </g>
    </g>
    <g id="text_34">
     <!-- Voltage (V) -->
     <g transform="translate(289.579428 184.501635) scale(0.1 -0.1)">
      <use xlink:href="#Garamond-56"/>
      <use xlink:href="#Garamond-6f" transform="translate(60.849609 0)"/>
      <use xlink:href="#Garamond-6c" transform="translate(111.875 0)"/>
      <use xlink:href="#Garamond-74" transform="translate(134.775391 0)"/>
      <use xlink:href="#Garamond-61" transform="translate(163.925781 0)"/>
      <use xlink:href="#Garamond-67" transform="translate(204.550781 0)"/>
      <use xlink:href="#Garamond-65" transform="translate(250.826172 0)"/>
      <use xlink:href="#Garamond-20" transform="translate(292.476562 0)"/>
      <use xlink:href="#Garamond-28" transform="translate(317.476562 0)"/>
      <use xlink:href="#Garamond-56" transform="translate(346.626953 0)"/>
      <use xlink:href="#Garamond-29" transform="translate(414.351562 0)"/>
     </g>
    </g>
   </g>
   <g id="matplotlib.axis_6">
    <g id="ytick_43">
     <g id="line2d_163">
      <g>
       <use xlink:href="#m750fdaff6e" x="278.784156" y="159.577293" style="stroke: #000000; stroke-width: 0.5"/>
      </g>
     </g>
     <g id="line2d_164">
      <g>
       <use xlink:href="#m55b1795a5a" x="344.727826" y="159.577293" style="stroke: #000000; stroke-width: 0.5"/>
      </g>
     </g>
     <g id="text_35">
      <!-- 0.0 -->
      <g transform="translate(264.877906 162.497371) scale(0.09 -0.09)">
       <use xlink:href="#Garamond-30"/>
       <use xlink:href="#Garamond-2e" transform="translate(46.875 0)"/>
       <use xlink:href="#Garamond-30" transform="translate(68.75 0)"/>
      </g>
     </g>
    </g>
    <g id="ytick_44">
     <g id="line2d_165">
      <g>
       <use xlink:href="#m750fdaff6e" x="278.784156" y="137.277555" style="stroke: #000000; stroke-width: 0.5"/>
      </g>
     </g>
     <g id="line2d_166">
      <g>
       <use xlink:href="#m55b1795a5a" x="344.727826" y="137.277555" style="stroke: #000000; stroke-width: 0.5"/>
      </g>
     </g>
     <g id="text_36">
      <!-- 0.5 -->
      <g transform="translate(264.877906 140.197633) scale(0.09 -0.09)">
       <use xlink:href="#Garamond-30"/>
       <use xlink:href="#Garamond-2e" transform="translate(46.875 0)"/>
       <use xlink:href="#Garamond-35" transform="translate(68.75 0)"/>
      </g>
     </g>
    </g>
    <g id="ytick_45">
     <g id="line2d_167">
      <g>
       <use xlink:href="#m750fdaff6e" x="278.784156" y="114.977816" style="stroke: #000000; stroke-width: 0.5"/>
      </g>
     </g>
     <g id="line2d_168">
      <g>
       <use xlink:href="#m55b1795a5a" x="344.727826" y="114.977816" style="stroke: #000000; stroke-width: 0.5"/>
      </g>
     </g>
     <g id="text_37">
      <!-- 1.0 -->
      <g transform="translate(264.877906 117.897894) scale(0.09 -0.09)">
       <use xlink:href="#Garamond-31"/>
       <use xlink:href="#Garamond-2e" transform="translate(46.875 0)"/>
       <use xlink:href="#Garamond-30" transform="translate(68.75 0)"/>
      </g>
     </g>
    </g>
    <g id="ytick_46">
     <g id="line2d_169">
      <g>
       <use xlink:href="#m556850fc98" x="278.784156" y="155.117345" style="stroke: #000000; stroke-width: 0.5"/>
      </g>
     </g>
     <g id="line2d_170">
      <g>
       <use xlink:href="#m4b5475e3e7" x="344.727826" y="155.117345" style="stroke: #000000; stroke-width: 0.5"/>
      </g>
     </g>
    </g>
    <g id="ytick_47">
     <g id="line2d_171">
      <g>
       <use xlink:href="#m556850fc98" x="278.784156" y="150.657397" style="stroke: #000000; stroke-width: 0.5"/>
      </g>
     </g>
     <g id="line2d_172">
      <g>
       <use xlink:href="#m4b5475e3e7" x="344.727826" y="150.657397" style="stroke: #000000; stroke-width: 0.5"/>
      </g>
     </g>
    </g>
    <g id="ytick_48">
     <g id="line2d_173">
      <g>
       <use xlink:href="#m556850fc98" x="278.784156" y="146.19745" style="stroke: #000000; stroke-width: 0.5"/>
      </g>
     </g>
     <g id="line2d_174">
      <g>
       <use xlink:href="#m4b5475e3e7" x="344.727826" y="146.19745" style="stroke: #000000; stroke-width: 0.5"/>
      </g>
     </g>
    </g>
    <g id="ytick_49">
     <g id="line2d_175">
      <g>
       <use xlink:href="#m556850fc98" x="278.784156" y="141.737502" style="stroke: #000000; stroke-width: 0.5"/>
      </g>
     </g>
     <g id="line2d_176">
      <g>
       <use xlink:href="#m4b5475e3e7" x="344.727826" y="141.737502" style="stroke: #000000; stroke-width: 0.5"/>
      </g>
     </g>
    </g>
    <g id="ytick_50">
     <g id="line2d_177">
      <g>
       <use xlink:href="#m556850fc98" x="278.784156" y="132.817607" style="stroke: #000000; stroke-width: 0.5"/>
      </g>
     </g>
     <g id="line2d_178">
      <g>
       <use xlink:href="#m4b5475e3e7" x="344.727826" y="132.817607" style="stroke: #000000; stroke-width: 0.5"/>
      </g>
     </g>
    </g>
    <g id="ytick_51">
     <g id="line2d_179">
      <g>
       <use xlink:href="#m556850fc98" x="278.784156" y="128.357659" style="stroke: #000000; stroke-width: 0.5"/>
      </g>
     </g>
     <g id="line2d_180">
      <g>
       <use xlink:href="#m4b5475e3e7" x="344.727826" y="128.357659" style="stroke: #000000; stroke-width: 0.5"/>
      </g>
     </g>
    </g>
    <g id="ytick_52">
     <g id="line2d_181">
      <g>
       <use xlink:href="#m556850fc98" x="278.784156" y="123.897712" style="stroke: #000000; stroke-width: 0.5"/>
      </g>
     </g>
     <g id="line2d_182">
      <g>
       <use xlink:href="#m4b5475e3e7" x="344.727826" y="123.897712" style="stroke: #000000; stroke-width: 0.5"/>
      </g>
     </g>
    </g>
    <g id="ytick_53">
     <g id="line2d_183">
      <g>
       <use xlink:href="#m556850fc98" x="278.784156" y="119.437764" style="stroke: #000000; stroke-width: 0.5"/>
      </g>
     </g>
     <g id="line2d_184">
      <g>
       <use xlink:href="#m4b5475e3e7" x="344.727826" y="119.437764" style="stroke: #000000; stroke-width: 0.5"/>
      </g>
     </g>
    </g>
    <g id="ytick_54">
     <g id="line2d_185">
      <g>
       <use xlink:href="#m556850fc98" x="278.784156" y="110.517869" style="stroke: #000000; stroke-width: 0.5"/>
      </g>
     </g>
     <g id="line2d_186">
      <g>
       <use xlink:href="#m4b5475e3e7" x="344.727826" y="110.517869" style="stroke: #000000; stroke-width: 0.5"/>
      </g>
     </g>
    </g>
    <g id="ytick_55">
     <g id="line2d_187">
      <g>
       <use xlink:href="#m556850fc98" x="278.784156" y="106.057921" style="stroke: #000000; stroke-width: 0.5"/>
      </g>
     </g>
     <g id="line2d_188">
      <g>
       <use xlink:href="#m4b5475e3e7" x="344.727826" y="106.057921" style="stroke: #000000; stroke-width: 0.5"/>
      </g>
     </g>
    </g>
    <g id="ytick_56">
     <g id="line2d_189">
      <g>
       <use xlink:href="#m556850fc98" x="278.784156" y="101.597973" style="stroke: #000000; stroke-width: 0.5"/>
      </g>
     </g>
     <g id="line2d_190">
      <g>
       <use xlink:href="#m4b5475e3e7" x="344.727826" y="101.597973" style="stroke: #000000; stroke-width: 0.5"/>
      </g>
     </g>
    </g>
    <g id="text_38">
     <!-- Current (A) -->
     <g transform="translate(258.313844 154.430745) rotate(-90) scale(0.1 -0.1)">
      <use xlink:href="#Garamond-43"/>
      <use xlink:href="#Garamond-75" transform="translate(63.525391 0)"/>
      <use xlink:href="#Garamond-72" transform="translate(112.5 0)"/>
      <use xlink:href="#Garamond-72" transform="translate(148.349609 0)"/>
      <use xlink:href="#Garamond-65" transform="translate(181.699219 0)"/>
      <use xlink:href="#Garamond-6e" transform="translate(223.349609 0)"/>
      <use xlink:href="#Garamond-74" transform="translate(274.375 0)"/>
      <use xlink:href="#Garamond-20" transform="translate(303.525391 0)"/>
      <use xlink:href="#Garamond-28" transform="translate(328.525391 0)"/>
      <use xlink:href="#Garamond-41" transform="translate(357.675781 0)"/>
      <use xlink:href="#Garamond-29" transform="translate(425.400391 0)"/>
     </g>
    </g>
   </g>
   <g id="line2d_191">
    <path d="M 281.781596 159.576956 
L 295.270074 159.473949 
L 298.267513 159.24572 
L 300.065977 158.923332 
L 301.564697 158.441407 
L 302.763672 157.830077 
L 303.962648 156.922459 
L 304.86188 155.979726 
L 305.761112 154.752359 
L 306.660344 153.185735 
L 307.559576 151.233621 
L 308.758551 147.990877 
L 309.957527 144.056458 
L 311.755991 137.277555 
L 314.153943 128.266283 
L 315.652662 123.551612 
L 316.851638 120.480139 
L 318.050614 118.005593 
L 319.24959 116.042301 
L 320.448566 114.487127 
L 321.947285 112.970313 
L 323.446005 111.785928 
L 325.244469 110.648338 
L 327.64242 109.41421 
L 331.239348 107.855702 
L 337.833715 105.298126 
L 341.730386 103.835357 
L 341.730386 103.835357 
" clip-path="url(#p5116fd96eb)" style="fill: none; stroke: #000000; stroke-width: 0.8; stroke-linecap: square"/>
   </g>
   <g id="line2d_192">
    <path d="M 281.781596 159.577293 
L 303.063416 159.47713 
L 304.562136 159.28243 
L 305.761112 158.888913 
L 306.660344 158.294016 
L 307.259832 157.650457 
L 307.85932 156.711698 
L 308.458808 155.369371 
L 309.058295 153.501459 
L 309.657783 150.995055 
L 310.557015 145.926591 
L 311.755991 137.277555 
L 313.254711 126.620013 
L 314.153943 121.828476 
L 315.053174 118.446203 
L 315.952406 116.184956 
L 316.851638 114.689442 
L 317.75087 113.674032 
L 318.949846 112.744518 
L 320.448566 111.92069 
L 322.846517 110.893448 
L 329.740628 108.28861 
L 341.730386 103.827948 
L 341.730386 103.827948 
" clip-path="url(#p5116fd96eb)" style="fill: none; stroke: #dc241f; stroke-width: 0.8; stroke-linecap: square"/>
   </g>
   <g id="line2d_193">
    <path d="M 281.781596 159.577293 
L 308.458808 159.483538 
L 309.058295 159.2874 
L 309.358039 159.070042 
L 309.657783 158.694245 
L 309.957527 158.051876 
L 310.257271 156.973741 
L 310.557015 155.216675 
L 310.856759 152.482933 
L 311.456247 143.307832 
L 312.355479 125.971813 
L 312.954967 119.069525 
L 313.554455 115.95757 
L 314.153943 114.661743 
L 314.75343 114.061855 
L 315.652662 113.568793 
L 318.350358 112.525206 
L 341.730386 103.827947 
L 341.730386 103.827947 
" clip-path="url(#p5116fd96eb)" style="fill: none; stroke: #0019a8; stroke-width: 0.8; stroke-linecap: square"/>
   </g>
   <g id="patch_13">
    <path d="M 278.784156 162.36476 
L 278.784156 101.04048 
" style="fill: none; stroke: #000000; stroke-width: 0.75; stroke-linejoin: miter; stroke-linecap: square"/>
   </g>
   <g id="patch_14">
    <path d="M 344.727826 162.36476 
L 344.727826 101.04048 
" style="fill: none; stroke: #000000; stroke-width: 0.75; stroke-linejoin: miter; stroke-linecap: square"/>
   </g>
   <g id="patch_15">
    <path d="M 278.784156 162.36476 
L 344.727826 162.36476 
" style="fill: none; stroke: #000000; stroke-width: 0.75; stroke-linejoin: miter; stroke-linecap: square"/>
   </g>
   <g id="patch_16">
    <path d="M 278.784156 101.04048 
L 344.727826 101.04048 
" style="fill: none; stroke: #000000; stroke-width: 0.75; stroke-linejoin: miter; stroke-linecap: square"/>
   </g>
   <g id="text_39">
    <!--  (c) -->
    <g transform="translate(278.784156 108.867203) scale(0.1 -0.1)">
     <defs>
      <path id="Garamond-63" d="M 2497 572 
L 2500 369 
Q 2256 109 2018 6 
Q 1781 -97 1459 -97 
Q 1109 -97 828 86 
Q 547 269 395 603 
Q 244 938 244 1259 
Q 244 1613 426 1927 
Q 609 2241 911 2395 
Q 1213 2550 1669 2550 
Q 2106 2550 2334 2400 
Q 2463 2313 2463 2175 
Q 2463 2075 2397 2009 
Q 2331 1944 2228 1944 
Q 2072 1944 1884 2138 
Q 1769 2256 1675 2301 
Q 1581 2347 1466 2347 
Q 1188 2347 1003 2119 
Q 747 1794 747 1303 
Q 747 797 1009 497 
Q 1272 197 1622 197 
Q 1866 197 2055 276 
Q 2244 356 2497 572 
z
" transform="scale(0.015625)"/>
     </defs>
     <use xlink:href="#Garamond-20"/>
     <use xlink:href="#Garamond-28" transform="translate(25 0)"/>
     <use xlink:href="#Garamond-63" transform="translate(54.150391 0)"/>
     <use xlink:href="#Garamond-29" transform="translate(95.800781 0)"/>
    </g>
   </g>
   <g id="legend_3">
    <g id="text_40">
     <!-- Order -->
     <g transform="translate(300.193919 120.778449) scale(0.11 -0.11)">
      <use xlink:href="#Garamond-4f"/>
      <use xlink:href="#Garamond-72" transform="translate(78.125 0)"/>
      <use xlink:href="#Garamond-64" transform="translate(111.474609 0)"/>
      <use xlink:href="#Garamond-65" transform="translate(161.474609 0)"/>
      <use xlink:href="#Garamond-72" transform="translate(203.125 0)"/>
     </g>
    </g>
    <g id="line2d_194">
     <path d="M 294.271576 128.548918 
L 303.271576 128.548918 
L 312.271576 128.548918 
" style="fill: none; stroke: #000000; stroke-width: 0.8; stroke-linecap: square"/>
    </g>
    <g id="text_41">
     <!-- 20 -->
     <g transform="translate(319.471576 131.698918) scale(0.09 -0.09)">
      <use xlink:href="#Garamond-32"/>
      <use xlink:href="#Garamond-30" transform="translate(46.875 0)"/>
     </g>
    </g>
    <g id="line2d_195">
     <path d="M 294.271576 138.956574 
L 303.271576 138.956574 
L 312.271576 138.956574 
" style="fill: none; stroke: #dc241f; stroke-width: 0.8; stroke-linecap: square"/>
    </g>
    <g id="text_42">
     <!-- 40 -->
     <g transform="translate(319.471576 142.106574) scale(0.09 -0.09)">
      <use xlink:href="#Garamond-34"/>
      <use xlink:href="#Garamond-30" transform="translate(46.875 0)"/>
     </g>
    </g>
    <g id="line2d_196">
     <path d="M 294.271576 149.36423 
L 303.271576 149.36423 
L 312.271576 149.36423 
" style="fill: none; stroke: #0019a8; stroke-width: 0.8; stroke-linecap: square"/>
    </g>
    <g id="text_43">
     <!-- 110 -->
     <g transform="translate(319.471576 152.51423) scale(0.09 -0.09)">
      <use xlink:href="#Garamond-31"/>
      <use xlink:href="#Garamond-31" transform="translate(46.875 0)"/>
      <use xlink:href="#Garamond-30" transform="translate(93.75 0)"/>
     </g>
    </g>
   </g>
  </g>
 </g>
 <defs>
  <clipPath id="p28f0231c67">
   <rect x="31.663468" y="3.00024" width="171.36901" height="159.36452"/>
  </clipPath>
  <clipPath id="pa190d5da9a">
   <rect x="278.784156" y="3.00024" width="65.943669" height="61.32428"/>
  </clipPath>
  <clipPath id="p5116fd96eb">
   <rect x="278.784156" y="101.04048" width="65.943669" height="61.32428"/>
  </clipPath>
 </defs>
</svg>
