<?xml version="1.0" encoding="utf-8" standalone="no"?>
<!DOCTYPE svg PUBLIC "-//W3C//DTD SVG 1.1//EN"
  "http://www.w3.org/Graphics/SVG/1.1/DTD/svg11.dtd">
<svg xmlns:xlink="http://www.w3.org/1999/xlink" width="410.4pt" height="254.16pt" viewBox="0 0 410.4 254.16" xmlns="http://www.w3.org/2000/svg" version="1.1">
 <metadata>
  <rdf:RDF xmlns:dc="http://purl.org/dc/elements/1.1/" xmlns:cc="http://creativecommons.org/ns#" xmlns:rdf="http://www.w3.org/1999/02/22-rdf-syntax-ns#">
   <cc:Work>
    <dc:type rdf:resource="http://purl.org/dc/dcmitype/StillImage"/>
    <dc:date>2025-12-17T21:37:46.337654</dc:date>
    <dc:format>image/svg+xml</dc:format>
    <dc:creator>
     <cc:Agent>
      <dc:title>Matplotlib v3.10.6, https://matplotlib.org/</dc:title>
     </cc:Agent>
    </dc:creator>
   </cc:Work>
  </rdf:RDF>
 </metadata>
 <defs>
  <style type="text/css">*{stroke-linejoin: round; stroke-linecap: butt}</style>
 </defs>
 <g id="figure_1">
  <g id="patch_1">
   <path d="M 0 254.16 
L 410.4 254.16 
L 410.4 0 
L 0 0 
z
" style="fill: #ffffff"/>
  </g>
  <g id="axes_1">
   <g id="patch_2">
    <path d="M 29.959615 99.296425 
L 199.19952 99.296425 
L 199.19952 3.114132 
L 29.959615 3.114132 
z
" style="fill: #ffffff"/>
   </g>
   <g id="matplotlib.axis_1">
    <g id="xtick_1">
     <g id="line2d_1">
      <defs>
       <path id="m5e3511a991" d="M 0 0 
L 0 -3 
" style="stroke: #000000; stroke-width: 0.5"/>
      </defs>
      <g>
       <use xlink:href="#m5e3511a991" x="53.037784" y="99.296425" style="stroke: #000000; stroke-width: 0.5"/>
      </g>
     </g>
     <g id="line2d_2">
      <defs>
       <path id="md9ea57935a" d="M 0 0 
L 0 3 
" style="stroke: #000000; stroke-width: 0.5"/>
      </defs>
      <g>
       <use xlink:href="#md9ea57935a" x="53.037784" y="3.114132" style="stroke: #000000; stroke-width: 0.5"/>
      </g>
     </g>
     <g id="text_1">
      <!-- 0.8 -->
      <g transform="translate(47.834659 108.636581) scale(0.09 -0.09)">
       <defs>
        <path id="Garamond-30" d="M 2800 1972 
Q 2800 1650 2753 1400 
Q 2669 969 2519 678 
Q 2369 388 2163 188 
Q 2013 41 1844 -26 
Q 1675 -94 1500 -94 
Q 1191 -94 914 112 
Q 638 319 431 794 
Q 225 1269 225 1913 
Q 225 2416 350 2878 
Q 475 3341 679 3595 
Q 884 3850 1086 3962 
Q 1288 4075 1525 4075 
Q 1859 4075 2173 3812 
Q 2488 3550 2675 2997 
Q 2800 2625 2800 1972 
z
M 2331 2075 
Q 2328 2844 2275 3119 
Q 2188 3572 1989 3753 
Q 1791 3934 1525 3934 
Q 1303 3934 1104 3790 
Q 906 3647 831 3341 
Q 703 2844 703 1834 
Q 703 834 901 436 
Q 1100 38 1497 38 
Q 1769 38 1967 206 
Q 2166 375 2252 833 
Q 2338 1291 2334 1859 
L 2331 2075 
z
" transform="scale(0.015625)"/>
        <path id="Garamond-2e" d="M 375 253 
Q 375 391 476 494 
Q 578 597 713 597 
Q 844 597 934 500 
Q 1025 403 1025 256 
Q 1025 109 929 9 
Q 834 -91 700 -91 
Q 569 -91 472 11 
Q 375 113 375 253 
z
" transform="scale(0.015625)"/>
        <path id="Garamond-38" d="M 1206 1997 
Q 903 2159 794 2256 
Q 638 2391 533 2603 
Q 428 2816 428 3038 
Q 428 3425 736 3739 
Q 1044 4053 1491 4053 
Q 1994 4053 2287 3787 
Q 2581 3522 2581 3141 
Q 2581 2928 2493 2753 
Q 2406 2578 2234 2438 
Q 2119 2341 1838 2197 
Q 2266 1969 2347 1903 
Q 2516 1772 2631 1556 
Q 2747 1341 2747 1078 
Q 2747 588 2408 250 
Q 2069 -88 1544 -88 
Q 1003 -88 683 207 
Q 363 503 363 938 
Q 363 1184 447 1386 
Q 531 1588 709 1731 
Q 847 1841 1206 1997 
z
M 1697 2269 
Q 1959 2413 2063 2566 
Q 2231 2819 2231 3141 
Q 2231 3391 2131 3570 
Q 2031 3750 1864 3828 
Q 1697 3906 1503 3906 
Q 1194 3906 994 3693 
Q 794 3481 794 3172 
Q 794 2991 847 2870 
Q 900 2750 1016 2647 
Q 1091 2578 1366 2400 
Q 1406 2375 1563 2322 
Q 1609 2306 1697 2269 
z
M 1359 1928 
Q 1134 1809 1044 1719 
Q 906 1588 828 1406 
Q 750 1225 750 906 
Q 750 572 897 381 
Q 1141 66 1534 66 
Q 1894 66 2123 294 
Q 2353 522 2353 881 
Q 2353 1272 2120 1500 
Q 1888 1728 1359 1928 
z
" transform="scale(0.015625)"/>
       </defs>
       <use xlink:href="#Garamond-30"/>
       <use xlink:href="#Garamond-2e" transform="translate(46.875 0)"/>
       <use xlink:href="#Garamond-38" transform="translate(68.75 0)"/>
      </g>
     </g>
    </g>
    <g id="xtick_2">
     <g id="line2d_3">
      <g>
       <use xlink:href="#m5e3511a991" x="114.579568" y="99.296425" style="stroke: #000000; stroke-width: 0.5"/>
      </g>
     </g>
     <g id="line2d_4">
      <g>
       <use xlink:href="#md9ea57935a" x="114.579568" y="3.114132" style="stroke: #000000; stroke-width: 0.5"/>
      </g>
     </g>
     <g id="text_2">
      <!-- 1.0 -->
      <g transform="translate(109.376443 108.636581) scale(0.09 -0.09)">
       <defs>
        <path id="Garamond-31" d="M 2269 6 
L 838 6 
Q 834 34 834 53 
Q 834 106 856 126 
Q 878 147 994 169 
Q 1175 206 1288 259 
Q 1319 328 1319 388 
L 1319 581 
Q 1319 616 1328 897 
Q 1331 1003 1334 1816 
L 1341 2550 
L 1334 2978 
Q 1334 3072 1341 3569 
Q 631 3063 563 3063 
Q 538 3063 509 3089 
Q 481 3116 481 3141 
Q 481 3172 503 3191 
Q 547 3231 713 3325 
Q 738 3338 928 3494 
Q 1231 3747 1372 3890 
Q 1513 4034 1544 4053 
Q 1606 4056 1641 4056 
Q 1722 4056 1742 4029 
Q 1763 4003 1763 3838 
L 1741 1053 
L 1741 778 
Q 1741 678 1737 576 
Q 1734 475 1734 428 
Q 1734 316 1763 281 
Q 1781 259 1878 225 
L 2091 181 
Q 2228 147 2241 134 
Q 2272 106 2272 47 
L 2269 6 
z
" transform="scale(0.015625)"/>
       </defs>
       <use xlink:href="#Garamond-31"/>
       <use xlink:href="#Garamond-2e" transform="translate(46.875 0)"/>
       <use xlink:href="#Garamond-30" transform="translate(68.75 0)"/>
      </g>
     </g>
    </g>
    <g id="xtick_3">
     <g id="line2d_5">
      <g>
       <use xlink:href="#m5e3511a991" x="176.121351" y="99.296425" style="stroke: #000000; stroke-width: 0.5"/>
      </g>
     </g>
     <g id="line2d_6">
      <g>
       <use xlink:href="#md9ea57935a" x="176.121351" y="3.114132" style="stroke: #000000; stroke-width: 0.5"/>
      </g>
     </g>
     <g id="text_3">
      <!-- 1.2 -->
      <g transform="translate(170.918226 108.636581) scale(0.09 -0.09)">
       <defs>
        <path id="Garamond-32" d="M 2728 6 
Q 2259 25 1472 25 
L 794 6 
L 491 16 
L 250 6 
Q 213 9 141 22 
Q 197 153 284 263 
Q 544 581 1044 1084 
Q 1744 1788 1966 2189 
Q 2188 2591 2188 2944 
Q 2188 3275 1963 3500 
Q 1738 3725 1409 3725 
Q 1213 3725 1028 3633 
Q 844 3541 731 3400 
Q 659 3309 541 3038 
Q 475 2888 463 2875 
Q 444 2853 419 2853 
Q 394 2853 370 2879 
Q 347 2906 347 2947 
Q 347 3088 489 3397 
Q 631 3706 907 3881 
Q 1184 4056 1550 4056 
Q 2028 4056 2348 3745 
Q 2669 3434 2669 3003 
Q 2669 2663 2450 2311 
Q 2231 1959 1444 1234 
Q 1184 997 1075 884 
Q 966 772 634 397 
Q 1113 378 1503 378 
Q 1588 378 1688 384 
Q 1872 391 1903 391 
L 2338 381 
Q 2409 381 2484 450 
Q 2559 519 2688 838 
L 2763 841 
Q 2778 841 2809 838 
Q 2825 806 2825 791 
L 2819 766 
Q 2794 675 2775 434 
Q 2763 294 2728 6 
z
" transform="scale(0.015625)"/>
       </defs>
       <use xlink:href="#Garamond-31"/>
       <use xlink:href="#Garamond-2e" transform="translate(46.875 0)"/>
       <use xlink:href="#Garamond-32" transform="translate(68.75 0)"/>
      </g>
     </g>
    </g>
    <g id="xtick_4">
     <g id="line2d_7">
      <defs>
       <path id="m62b45267e2" d="M 0 0 
L 0 -1.5 
" style="stroke: #000000; stroke-width: 0.5"/>
      </defs>
      <g>
       <use xlink:href="#m62b45267e2" x="37.652338" y="99.296425" style="stroke: #000000; stroke-width: 0.5"/>
      </g>
     </g>
     <g id="line2d_8">
      <defs>
       <path id="m63f9fd57e6" d="M 0 0 
L 0 1.5 
" style="stroke: #000000; stroke-width: 0.5"/>
      </defs>
      <g>
       <use xlink:href="#m63f9fd57e6" x="37.652338" y="3.114132" style="stroke: #000000; stroke-width: 0.5"/>
      </g>
     </g>
    </g>
    <g id="xtick_5">
     <g id="line2d_9">
      <g>
       <use xlink:href="#m62b45267e2" x="68.42323" y="99.296425" style="stroke: #000000; stroke-width: 0.5"/>
      </g>
     </g>
     <g id="line2d_10">
      <g>
       <use xlink:href="#m63f9fd57e6" x="68.42323" y="3.114132" style="stroke: #000000; stroke-width: 0.5"/>
      </g>
     </g>
    </g>
    <g id="xtick_6">
     <g id="line2d_11">
      <g>
       <use xlink:href="#m62b45267e2" x="83.808676" y="99.296425" style="stroke: #000000; stroke-width: 0.5"/>
      </g>
     </g>
     <g id="line2d_12">
      <g>
       <use xlink:href="#m63f9fd57e6" x="83.808676" y="3.114132" style="stroke: #000000; stroke-width: 0.5"/>
      </g>
     </g>
    </g>
    <g id="xtick_7">
     <g id="line2d_13">
      <g>
       <use xlink:href="#m62b45267e2" x="99.194122" y="99.296425" style="stroke: #000000; stroke-width: 0.5"/>
      </g>
     </g>
     <g id="line2d_14">
      <g>
       <use xlink:href="#m63f9fd57e6" x="99.194122" y="3.114132" style="stroke: #000000; stroke-width: 0.5"/>
      </g>
     </g>
    </g>
    <g id="xtick_8">
     <g id="line2d_15">
      <g>
       <use xlink:href="#m62b45267e2" x="129.965013" y="99.296425" style="stroke: #000000; stroke-width: 0.5"/>
      </g>
     </g>
     <g id="line2d_16">
      <g>
       <use xlink:href="#m63f9fd57e6" x="129.965013" y="3.114132" style="stroke: #000000; stroke-width: 0.5"/>
      </g>
     </g>
    </g>
    <g id="xtick_9">
     <g id="line2d_17">
      <g>
       <use xlink:href="#m62b45267e2" x="145.350459" y="99.296425" style="stroke: #000000; stroke-width: 0.5"/>
      </g>
     </g>
     <g id="line2d_18">
      <g>
       <use xlink:href="#m63f9fd57e6" x="145.350459" y="3.114132" style="stroke: #000000; stroke-width: 0.5"/>
      </g>
     </g>
    </g>
    <g id="xtick_10">
     <g id="line2d_19">
      <g>
       <use xlink:href="#m62b45267e2" x="160.735905" y="99.296425" style="stroke: #000000; stroke-width: 0.5"/>
      </g>
     </g>
     <g id="line2d_20">
      <g>
       <use xlink:href="#m63f9fd57e6" x="160.735905" y="3.114132" style="stroke: #000000; stroke-width: 0.5"/>
      </g>
     </g>
    </g>
    <g id="xtick_11">
     <g id="line2d_21">
      <g>
       <use xlink:href="#m62b45267e2" x="191.506797" y="99.296425" style="stroke: #000000; stroke-width: 0.5"/>
      </g>
     </g>
     <g id="line2d_22">
      <g>
       <use xlink:href="#m63f9fd57e6" x="191.506797" y="3.114132" style="stroke: #000000; stroke-width: 0.5"/>
      </g>
     </g>
    </g>
    <g id="text_4">
     <!-- Voltage (V) -->
     <g transform="translate(92.403005 121.4333) scale(0.1 -0.1)">
      <defs>
       <path id="Garamond-56" d="M -53 3963 
L -31 4016 
Q 222 4016 475 4009 
L 578 4009 
Q 625 4009 681 4013 
Q 884 4022 1416 4022 
Q 1522 4022 1622 4020 
Q 1722 4019 1816 4016 
Q 1834 4006 1844 3988 
L 1838 3938 
Q 1819 3906 1744 3906 
L 1719 3906 
Q 1631 3909 1431 3892 
Q 1231 3875 1169 3828 
Q 1128 3794 1128 3738 
Q 1128 3616 1231 3372 
L 1706 2269 
L 1872 1903 
Q 2113 1322 2347 716 
Q 2372 650 2394 597 
L 2603 1109 
Q 2766 1497 2931 1934 
L 3147 2522 
Q 3153 2541 3181 2647 
Q 3484 3475 3484 3694 
Q 3484 3741 3442 3789 
Q 3400 3838 3306 3869 
Q 3269 3881 3063 3906 
L 2831 3934 
Q 2803 3966 2803 3988 
L 2813 4013 
L 3825 4022 
L 4159 4022 
Q 4328 4022 4391 4000 
L 4394 3975 
Q 4394 3950 4375 3909 
Q 4300 3884 4238 3878 
Q 3975 3847 3912 3805 
Q 3850 3763 3781 3625 
L 2959 1594 
Q 2575 678 2413 175 
L 2322 -97 
Q 2281 -122 2253 -122 
Q 2219 -122 2178 -116 
Q 1806 847 1572 1372 
L 616 3541 
Q 513 3734 461 3773 
Q 409 3813 100 3884 
Q -9 3909 -22 3916 
Q -44 3931 -53 3963 
z
" transform="scale(0.015625)"/>
       <path id="Garamond-6f" d="M 228 1256 
Q 228 1469 317 1711 
Q 406 1953 587 2145 
Q 769 2338 972 2431 
Q 1256 2563 1666 2563 
Q 2250 2563 2642 2163 
Q 3034 1763 3034 1200 
Q 3034 700 2623 308 
Q 2213 -84 1584 -84 
Q 1197 -84 853 119 
Q 597 272 412 572 
Q 228 872 228 1256 
z
M 1609 38 
Q 1847 38 2067 166 
Q 2288 294 2419 576 
Q 2550 859 2550 1231 
Q 2550 1475 2448 1797 
Q 2347 2119 2136 2280 
Q 1925 2441 1641 2441 
Q 1434 2441 1220 2344 
Q 1006 2247 857 1972 
Q 709 1697 709 1191 
Q 709 622 967 330 
Q 1225 38 1609 38 
z
" transform="scale(0.015625)"/>
       <path id="Garamond-6c" d="M 163 3872 
L 163 3941 
Q 250 3969 356 4000 
Q 513 4050 819 4153 
L 966 4153 
Q 969 4003 969 3981 
Q 969 1416 953 922 
Q 944 631 944 613 
Q 944 263 972 222 
Q 1009 166 1201 144 
Q 1394 122 1428 100 
Q 1453 88 1453 56 
Q 1453 22 1439 8 
Q 1425 -6 1388 -6 
Q 1366 -6 1059 3 
L 650 16 
L 125 -6 
Q 75 -9 50 13 
Q 31 28 31 56 
Q 31 88 51 102 
Q 72 116 276 150 
Q 481 184 511 207 
Q 541 231 550 313 
Q 563 425 563 947 
L 559 1666 
L 569 2409 
L 566 3153 
L 575 3519 
Q 575 3628 540 3676 
Q 506 3725 394 3772 
Q 225 3841 163 3872 
z
" transform="scale(0.015625)"/>
       <path id="Garamond-74" d="M 894 3088 
L 991 3084 
L 1003 2788 
L 997 2403 
Q 1056 2400 1072 2400 
Q 1153 2400 1381 2413 
Q 1528 2422 1663 2422 
Q 1725 2422 1850 2419 
Q 1856 2356 1856 2319 
Q 1856 2278 1838 2191 
L 1784 2191 
L 1300 2175 
L 1059 2169 
L 1003 2163 
Q 978 2084 978 1981 
L 988 1513 
L 981 688 
Q 981 363 1066 256 
Q 1147 147 1309 147 
Q 1391 147 1616 197 
Q 1684 213 1800 300 
L 1828 300 
Q 1856 300 1873 283 
Q 1891 266 1891 238 
L 1888 216 
Q 1753 69 1579 1 
Q 1406 -66 1119 -66 
Q 916 -66 783 28 
Q 650 122 612 250 
Q 575 378 575 809 
L 588 1513 
L 584 1850 
L 584 1975 
Q 584 2063 578 2150 
L 525 2153 
L 269 2144 
L 244 2141 
Q 209 2141 192 2156 
Q 175 2172 175 2194 
Q 175 2231 198 2254 
Q 222 2278 341 2328 
Q 422 2363 530 2458 
Q 638 2553 713 2669 
Q 750 2731 819 2906 
Q 869 3034 894 3088 
z
" transform="scale(0.015625)"/>
       <path id="Garamond-61" d="M 2541 425 
Q 2559 384 2559 366 
Q 2559 319 2484 200 
Q 2388 44 2269 -28 
Q 2194 -75 2063 -75 
Q 1838 -75 1725 63 
Q 1656 144 1628 353 
L 1278 109 
Q 1094 3 997 -25 
Q 841 -66 622 -66 
Q 463 -66 370 29 
Q 278 125 278 275 
Q 278 491 542 791 
Q 806 1091 1259 1281 
Q 1578 1416 1650 1453 
Q 1656 1556 1656 1678 
Q 1656 2075 1545 2215 
Q 1434 2356 1228 2356 
Q 1013 2356 825 2188 
Q 709 2081 650 1788 
Q 631 1706 578 1613 
Q 444 1525 363 1525 
Q 294 1525 238 1566 
Q 206 1588 206 1616 
Q 206 1697 379 1983 
Q 553 2269 817 2411 
Q 1081 2553 1278 2553 
Q 1547 2553 1678 2504 
Q 1809 2456 1909 2334 
Q 2009 2213 2031 2069 
Q 2044 2000 2044 1578 
L 2034 1081 
L 2038 719 
Q 2038 647 2034 597 
Q 2031 506 2031 463 
Q 2031 359 2091 297 
Q 2150 234 2231 234 
Q 2350 234 2434 353 
L 2472 403 
Q 2488 413 2541 425 
z
M 1622 516 
Q 1644 913 1644 1075 
Q 1644 1159 1634 1303 
Q 1425 1228 1190 1075 
Q 956 922 819 722 
Q 719 578 719 450 
Q 719 328 801 247 
Q 884 166 1009 166 
Q 1106 166 1244 234 
Q 1425 325 1622 516 
z
" transform="scale(0.015625)"/>
       <path id="Garamond-67" d="M 844 -206 
Q 806 -188 603 -103 
Q 366 50 303 125 
Q 241 200 241 291 
Q 241 372 288 422 
Q 356 494 559 559 
Q 763 625 894 688 
Q 853 716 766 769 
Q 300 1056 300 1566 
Q 300 1984 595 2273 
Q 891 2563 1353 2563 
Q 1563 2563 1738 2503 
Q 1838 2472 2034 2347 
Q 2159 2269 2181 2259 
Q 2231 2244 2294 2244 
Q 2347 2244 2551 2270 
Q 2756 2297 2794 2297 
Q 2866 2297 2913 2269 
Q 2950 2206 2950 2059 
Q 2950 2009 2923 1984 
Q 2897 1959 2847 1959 
Q 2759 1959 2557 2014 
Q 2356 2069 2313 2069 
Q 2297 2069 2253 2063 
Q 2388 1794 2388 1572 
Q 2388 1350 2247 1112 
Q 2106 875 1859 750 
Q 1613 625 1359 625 
Q 1341 625 1253 628 
Q 966 628 725 484 
Q 609 413 609 350 
Q 609 284 722 222 
Q 1019 63 1847 38 
Q 2206 25 2406 -65 
Q 2606 -156 2707 -332 
Q 2809 -509 2809 -697 
Q 2809 -950 2637 -1165 
Q 2466 -1381 2116 -1515 
Q 1766 -1650 1313 -1650 
Q 813 -1650 541 -1528 
Q 269 -1406 155 -1262 
Q 41 -1119 41 -978 
Q 41 -856 166 -673 
Q 291 -491 684 -291 
Q 800 -231 844 -206 
z
M 719 1578 
Q 719 1297 803 1108 
Q 888 919 1034 826 
Q 1181 734 1331 734 
Q 1603 734 1783 942 
Q 1963 1150 1963 1575 
Q 1963 2003 1775 2226 
Q 1588 2450 1322 2450 
Q 1025 2450 872 2237 
Q 719 2025 719 1578 
z
M 616 -1316 
Q 900 -1534 1334 -1534 
Q 1644 -1534 1951 -1436 
Q 2259 -1338 2401 -1155 
Q 2544 -972 2544 -809 
Q 2544 -709 2494 -611 
Q 2444 -513 2358 -448 
Q 2272 -384 2131 -347 
Q 2031 -319 1847 -306 
Q 1322 -266 1203 -266 
Q 869 -266 606 -491 
Q 403 -666 403 -909 
Q 403 -1134 616 -1316 
z
" transform="scale(0.015625)"/>
       <path id="Garamond-65" d="M 2475 1650 
L 1222 1641 
L 984 1641 
Q 841 1641 691 1628 
Q 663 1534 663 1500 
L 666 1469 
L 666 1438 
L 663 1284 
Q 663 1094 783 817 
Q 903 541 1126 395 
Q 1350 250 1684 241 
Q 1863 250 1969 284 
Q 2075 319 2269 444 
L 2494 628 
L 2513 503 
Q 2513 481 2509 456 
Q 2369 278 2153 143 
Q 1938 9 1716 -53 
Q 1609 -81 1366 -81 
Q 1144 -81 928 9 
Q 609 147 426 451 
Q 244 756 244 1191 
Q 244 1328 295 1543 
Q 347 1759 481 2003 
Q 572 2169 703 2275 
Q 891 2425 1031 2484 
Q 1234 2569 1503 2569 
Q 1794 2569 1978 2463 
Q 2228 2322 2351 2100 
Q 2475 1878 2475 1694 
L 2475 1650 
z
M 731 1763 
L 878 1763 
Q 1038 1763 1828 1813 
Q 1953 1819 1981 1838 
Q 2038 1897 2038 1944 
Q 2038 2041 1975 2164 
Q 1913 2288 1783 2355 
Q 1653 2422 1481 2422 
Q 1119 2422 900 2150 
Q 731 1944 731 1763 
z
" transform="scale(0.015625)"/>
       <path id="Garamond-20" transform="scale(0.015625)"/>
       <path id="Garamond-28" d="M 1900 4091 
Q 1934 4006 1981 3925 
Q 1947 3891 1809 3766 
Q 1603 3572 1494 3413 
Q 1209 3003 1075 2717 
Q 941 2431 862 2057 
Q 784 1684 784 1178 
Q 784 831 848 506 
Q 913 181 1077 -184 
Q 1241 -550 1509 -934 
Q 1631 -1113 1809 -1269 
Q 1841 -1297 1919 -1375 
L 1963 -1419 
L 1897 -1569 
Q 1625 -1409 1419 -1163 
Q 1063 -741 864 -341 
Q 666 59 597 441 
Q 491 1025 491 1281 
Q 491 1706 600 2162 
Q 709 2619 966 3078 
Q 1138 3388 1466 3747 
Q 1672 3972 1900 4091 
z
" transform="scale(0.015625)"/>
       <path id="Garamond-29" d="M -138 -1400 
Q -41 -1306 25 -1247 
Q 238 -1063 378 -853 
Q 672 -422 778 -194 
Q 925 122 1001 494 
Q 1078 866 1078 1278 
Q 1078 1759 993 2117 
Q 909 2475 717 2864 
Q 525 3253 319 3525 
Q 281 3578 -84 3944 
L -22 4097 
Q 231 3947 447 3700 
Q 775 3322 987 2897 
Q 1200 2472 1266 2091 
Q 1369 1503 1369 1216 
Q 1369 853 1266 398 
Q 1163 -56 897 -538 
Q 694 -906 325 -1281 
Q 166 -1444 -56 -1563 
Q -88 -1484 -138 -1400 
z
" transform="scale(0.015625)"/>
      </defs>
      <use xlink:href="#Garamond-56"/>
      <use xlink:href="#Garamond-6f" transform="translate(60.849609 0)"/>
      <use xlink:href="#Garamond-6c" transform="translate(111.875 0)"/>
      <use xlink:href="#Garamond-74" transform="translate(134.775391 0)"/>
      <use xlink:href="#Garamond-61" transform="translate(163.925781 0)"/>
      <use xlink:href="#Garamond-67" transform="translate(204.550781 0)"/>
      <use xlink:href="#Garamond-65" transform="translate(250.826172 0)"/>
      <use xlink:href="#Garamond-20" transform="translate(292.476562 0)"/>
      <use xlink:href="#Garamond-28" transform="translate(317.476562 0)"/>
      <use xlink:href="#Garamond-56" transform="translate(346.626953 0)"/>
      <use xlink:href="#Garamond-29" transform="translate(414.351562 0)"/>
     </g>
    </g>
   </g>
   <g id="matplotlib.axis_2">
    <g id="ytick_1">
     <g id="line2d_23">
      <defs>
       <path id="m2c13e837fd" d="M 0 0 
L 3 0 
" style="stroke: #000000; stroke-width: 0.5"/>
      </defs>
      <g>
       <use xlink:href="#m2c13e837fd" x="29.959615" y="94.924503" style="stroke: #000000; stroke-width: 0.5"/>
      </g>
     </g>
     <g id="line2d_24">
      <defs>
       <path id="m3f458df85c" d="M 0 0 
L -3 0 
" style="stroke: #000000; stroke-width: 0.5"/>
      </defs>
      <g>
       <use xlink:href="#m3f458df85c" x="199.19952" y="94.924503" style="stroke: #000000; stroke-width: 0.5"/>
      </g>
     </g>
     <g id="text_5">
      <!-- 0.0 -->
      <g transform="translate(16.053365 97.844581) scale(0.09 -0.09)">
       <use xlink:href="#Garamond-30"/>
       <use xlink:href="#Garamond-2e" transform="translate(46.875 0)"/>
       <use xlink:href="#Garamond-30" transform="translate(68.75 0)"/>
      </g>
     </g>
    </g>
    <g id="ytick_2">
     <g id="line2d_25">
      <g>
       <use xlink:href="#m2c13e837fd" x="29.959615" y="59.949123" style="stroke: #000000; stroke-width: 0.5"/>
      </g>
     </g>
     <g id="line2d_26">
      <g>
       <use xlink:href="#m3f458df85c" x="199.19952" y="59.949123" style="stroke: #000000; stroke-width: 0.5"/>
      </g>
     </g>
     <g id="text_6">
      <!-- 0.5 -->
      <g transform="translate(16.053365 62.869201) scale(0.09 -0.09)">
       <defs>
        <path id="Garamond-35" d="M 2369 3606 
Q 2019 3578 1803 3578 
Q 1644 3578 1466 3588 
Q 1369 3594 1350 3594 
Q 969 3594 941 3578 
Q 928 3572 925 3550 
Q 916 3500 844 2434 
Q 984 2506 1115 2536 
Q 1247 2566 1463 2566 
Q 1616 2566 1675 2547 
Q 1972 2450 2103 2372 
Q 2284 2259 2398 2115 
Q 2513 1972 2609 1694 
Q 2678 1494 2678 1275 
Q 2678 1038 2611 833 
Q 2544 628 2444 490 
Q 2344 353 2147 204 
Q 1950 56 1683 -22 
Q 1416 -100 1325 -103 
L 872 -63 
Q 684 -31 543 39 
Q 403 109 356 175 
Q 328 216 328 281 
Q 328 331 398 390 
Q 469 450 572 450 
Q 619 450 675 422 
L 922 263 
Q 1006 188 1131 122 
Q 1150 113 1225 100 
Q 1406 75 1422 75 
Q 1491 75 1656 131 
Q 1822 188 1962 323 
Q 2103 459 2204 667 
Q 2306 875 2306 1128 
Q 2306 1581 2022 1875 
Q 1738 2169 1338 2169 
Q 1159 2169 1007 2109 
Q 856 2050 803 1978 
L 756 1959 
Q 719 1944 703 1944 
L 663 1953 
Q 653 2009 653 2038 
Q 653 2063 663 2125 
Q 684 2278 686 2442 
Q 688 2606 719 2738 
L 709 2888 
Q 731 3003 734 3109 
Q 744 3828 794 3934 
Q 816 3984 869 3984 
Q 891 3984 941 3978 
L 959 3975 
L 1356 3978 
Q 1625 3963 1753 3963 
Q 2047 3963 2225 4003 
Q 2313 4084 2359 4084 
Q 2378 4084 2428 4078 
L 2438 4041 
L 2413 3909 
L 2397 3700 
Q 2394 3678 2369 3606 
z
" transform="scale(0.015625)"/>
       </defs>
       <use xlink:href="#Garamond-30"/>
       <use xlink:href="#Garamond-2e" transform="translate(46.875 0)"/>
       <use xlink:href="#Garamond-35" transform="translate(68.75 0)"/>
      </g>
     </g>
    </g>
    <g id="ytick_3">
     <g id="line2d_27">
      <g>
       <use xlink:href="#m2c13e837fd" x="29.959615" y="24.973744" style="stroke: #000000; stroke-width: 0.5"/>
      </g>
     </g>
     <g id="line2d_28">
      <g>
       <use xlink:href="#m3f458df85c" x="199.19952" y="24.973744" style="stroke: #000000; stroke-width: 0.5"/>
      </g>
     </g>
     <g id="text_7">
      <!-- 1.0 -->
      <g transform="translate(16.053365 27.893822) scale(0.09 -0.09)">
       <use xlink:href="#Garamond-31"/>
       <use xlink:href="#Garamond-2e" transform="translate(46.875 0)"/>
       <use xlink:href="#Garamond-30" transform="translate(68.75 0)"/>
      </g>
     </g>
    </g>
    <g id="ytick_4">
     <g id="line2d_29">
      <defs>
       <path id="m7b260bc59d" d="M 0 0 
L 1.5 0 
" style="stroke: #000000; stroke-width: 0.5"/>
      </defs>
      <g>
       <use xlink:href="#m7b260bc59d" x="29.959615" y="87.929427" style="stroke: #000000; stroke-width: 0.5"/>
      </g>
     </g>
     <g id="line2d_30">
      <defs>
       <path id="mbb76e4a1c9" d="M 0 0 
L -1.5 0 
" style="stroke: #000000; stroke-width: 0.5"/>
      </defs>
      <g>
       <use xlink:href="#mbb76e4a1c9" x="199.19952" y="87.929427" style="stroke: #000000; stroke-width: 0.5"/>
      </g>
     </g>
    </g>
    <g id="ytick_5">
     <g id="line2d_31">
      <g>
       <use xlink:href="#m7b260bc59d" x="29.959615" y="80.934351" style="stroke: #000000; stroke-width: 0.5"/>
      </g>
     </g>
     <g id="line2d_32">
      <g>
       <use xlink:href="#mbb76e4a1c9" x="199.19952" y="80.934351" style="stroke: #000000; stroke-width: 0.5"/>
      </g>
     </g>
    </g>
    <g id="ytick_6">
     <g id="line2d_33">
      <g>
       <use xlink:href="#m7b260bc59d" x="29.959615" y="73.939275" style="stroke: #000000; stroke-width: 0.5"/>
      </g>
     </g>
     <g id="line2d_34">
      <g>
       <use xlink:href="#mbb76e4a1c9" x="199.19952" y="73.939275" style="stroke: #000000; stroke-width: 0.5"/>
      </g>
     </g>
    </g>
    <g id="ytick_7">
     <g id="line2d_35">
      <g>
       <use xlink:href="#m7b260bc59d" x="29.959615" y="66.944199" style="stroke: #000000; stroke-width: 0.5"/>
      </g>
     </g>
     <g id="line2d_36">
      <g>
       <use xlink:href="#mbb76e4a1c9" x="199.19952" y="66.944199" style="stroke: #000000; stroke-width: 0.5"/>
      </g>
     </g>
    </g>
    <g id="ytick_8">
     <g id="line2d_37">
      <g>
       <use xlink:href="#m7b260bc59d" x="29.959615" y="52.954047" style="stroke: #000000; stroke-width: 0.5"/>
      </g>
     </g>
     <g id="line2d_38">
      <g>
       <use xlink:href="#mbb76e4a1c9" x="199.19952" y="52.954047" style="stroke: #000000; stroke-width: 0.5"/>
      </g>
     </g>
    </g>
    <g id="ytick_9">
     <g id="line2d_39">
      <g>
       <use xlink:href="#m7b260bc59d" x="29.959615" y="45.958971" style="stroke: #000000; stroke-width: 0.5"/>
      </g>
     </g>
     <g id="line2d_40">
      <g>
       <use xlink:href="#mbb76e4a1c9" x="199.19952" y="45.958971" style="stroke: #000000; stroke-width: 0.5"/>
      </g>
     </g>
    </g>
    <g id="ytick_10">
     <g id="line2d_41">
      <g>
       <use xlink:href="#m7b260bc59d" x="29.959615" y="38.963895" style="stroke: #000000; stroke-width: 0.5"/>
      </g>
     </g>
     <g id="line2d_42">
      <g>
       <use xlink:href="#mbb76e4a1c9" x="199.19952" y="38.963895" style="stroke: #000000; stroke-width: 0.5"/>
      </g>
     </g>
    </g>
    <g id="ytick_11">
     <g id="line2d_43">
      <g>
       <use xlink:href="#m7b260bc59d" x="29.959615" y="31.96882" style="stroke: #000000; stroke-width: 0.5"/>
      </g>
     </g>
     <g id="line2d_44">
      <g>
       <use xlink:href="#mbb76e4a1c9" x="199.19952" y="31.96882" style="stroke: #000000; stroke-width: 0.5"/>
      </g>
     </g>
    </g>
    <g id="ytick_12">
     <g id="line2d_45">
      <g>
       <use xlink:href="#m7b260bc59d" x="29.959615" y="17.978668" style="stroke: #000000; stroke-width: 0.5"/>
      </g>
     </g>
     <g id="line2d_46">
      <g>
       <use xlink:href="#mbb76e4a1c9" x="199.19952" y="17.978668" style="stroke: #000000; stroke-width: 0.5"/>
      </g>
     </g>
    </g>
    <g id="ytick_13">
     <g id="line2d_47">
      <g>
       <use xlink:href="#m7b260bc59d" x="29.959615" y="10.983592" style="stroke: #000000; stroke-width: 0.5"/>
      </g>
     </g>
     <g id="line2d_48">
      <g>
       <use xlink:href="#mbb76e4a1c9" x="199.19952" y="10.983592" style="stroke: #000000; stroke-width: 0.5"/>
      </g>
     </g>
    </g>
    <g id="ytick_14">
     <g id="line2d_49">
      <g>
       <use xlink:href="#m7b260bc59d" x="29.959615" y="3.988516" style="stroke: #000000; stroke-width: 0.5"/>
      </g>
     </g>
     <g id="line2d_50">
      <g>
       <use xlink:href="#mbb76e4a1c9" x="199.19952" y="3.988516" style="stroke: #000000; stroke-width: 0.5"/>
      </g>
     </g>
    </g>
    <g id="text_8">
     <!-- Current (A) -->
     <g transform="translate(9.489303 73.933403) rotate(-90) scale(0.1 -0.1)">
      <defs>
       <path id="Garamond-43" d="M 3703 3825 
Q 3741 3584 3741 3331 
Q 3741 3281 3738 3197 
Q 3694 3188 3672 3188 
Q 3653 3188 3619 3194 
Q 3488 3559 3191 3756 
Q 2894 3953 2456 3953 
Q 2225 3953 2066 3900 
Q 1784 3803 1571 3633 
Q 1359 3463 1212 3227 
Q 1066 2991 980 2655 
Q 894 2319 894 1969 
Q 894 1300 1097 864 
Q 1300 428 1653 242 
Q 2006 56 2366 56 
L 2513 59 
Q 2763 91 2853 119 
Q 3081 184 3229 273 
Q 3378 363 3520 525 
Q 3663 688 3763 903 
L 3800 916 
Q 3816 916 3847 897 
Q 3844 822 3841 800 
Q 3709 272 3650 78 
Q 3600 66 3525 41 
Q 3159 -84 2547 -84 
Q 2053 -84 1808 -17 
Q 1563 50 1273 192 
Q 984 334 765 568 
Q 547 803 412 1161 
Q 278 1519 278 1941 
Q 278 2341 384 2639 
Q 491 2938 712 3244 
Q 934 3550 1236 3753 
Q 1538 3956 1906 4041 
Q 2166 4097 2641 4097 
Q 2988 4097 3294 4005 
Q 3600 3913 3703 3825 
z
" transform="scale(0.015625)"/>
       <path id="Garamond-75" d="M 103 2453 
L 338 2453 
L 441 2447 
L 522 2453 
Q 844 2453 922 2447 
L 925 2388 
Q 925 1947 913 1534 
Q 903 1291 903 1256 
Q 903 706 939 568 
Q 975 431 1108 348 
Q 1241 266 1428 266 
Q 1656 266 1864 361 
Q 2072 456 2219 594 
Q 2234 713 2234 856 
Q 2234 1322 2244 1484 
Q 2247 1581 2247 1653 
Q 2247 2159 2197 2225 
Q 2147 2291 1816 2325 
Q 1706 2338 1656 2347 
Q 1631 2388 1631 2409 
L 1641 2444 
Q 1722 2453 1800 2453 
L 2297 2447 
Q 2563 2453 2578 2453 
Q 2613 2453 2644 2450 
L 2650 2222 
Q 2628 1747 2625 1047 
L 2619 794 
L 2631 369 
Q 2659 319 2681 309 
Q 2719 294 2834 294 
L 2863 294 
Q 2903 294 3094 275 
Q 3097 234 3097 216 
L 3097 181 
Q 2678 91 2419 0 
Q 2316 -34 2244 -50 
Q 2228 59 2228 84 
L 2228 338 
Q 2228 353 2225 422 
Q 2184 394 2131 353 
Q 1884 163 1609 31 
Q 1425 -59 1253 -59 
Q 925 -59 719 184 
Q 509 428 509 1016 
Q 509 1047 513 1128 
Q 525 1278 525 1338 
Q 525 1359 522 1475 
Q 519 1525 519 1563 
Q 519 1591 522 1689 
Q 525 1788 525 1828 
Q 525 1881 522 1922 
L 516 2088 
L 519 2175 
Q 519 2225 469 2266 
Q 272 2319 211 2326 
Q 150 2334 103 2353 
L 103 2453 
z
" transform="scale(0.015625)"/>
       <path id="Garamond-72" d="M 128 -9 
L 116 31 
Q 116 53 144 97 
L 328 134 
L 588 181 
Q 619 197 631 225 
Q 650 266 650 466 
Q 650 1528 637 1692 
Q 625 1856 581 1900 
Q 538 1944 356 1969 
Q 250 1984 188 2009 
L 200 2103 
Q 528 2238 641 2334 
Q 797 2475 906 2703 
L 1013 2700 
Q 1031 2544 1031 2006 
L 1028 1953 
Q 1028 1934 1034 1894 
Q 1153 2109 1331 2291 
L 1403 2363 
Q 1447 2413 1488 2441 
Q 1706 2572 1813 2572 
Q 1950 2572 2037 2480 
Q 2125 2388 2125 2253 
Q 2125 2147 2063 2088 
Q 1978 2009 1869 2009 
Q 1819 2009 1672 2062 
Q 1525 2116 1478 2116 
Q 1391 2116 1356 2088 
Q 1269 2019 1144 1806 
Q 1047 1647 1047 1513 
L 1063 997 
L 1069 378 
Q 1078 272 1094 241 
Q 1106 219 1156 188 
Q 1494 159 1556 147 
Q 1600 144 1622 141 
Q 1756 138 1809 103 
Q 1838 88 1838 56 
Q 1838 38 1813 6 
L 1466 9 
L 1334 13 
L 1144 9 
L 825 9 
L 653 0 
L 128 -9 
z
" transform="scale(0.015625)"/>
       <path id="Garamond-6e" d="M 119 100 
Q 197 122 300 138 
Q 497 166 536 203 
Q 575 241 575 375 
L 581 488 
Q 584 550 584 647 
L 578 1606 
Q 578 1800 528 1856 
Q 444 1944 216 1978 
L 216 2091 
Q 444 2153 566 2253 
Q 744 2394 866 2634 
L 972 2631 
Q 981 2484 981 2422 
L 981 2216 
L 984 2159 
Q 1022 2184 1072 2222 
Q 1259 2363 1456 2452 
Q 1653 2541 1806 2575 
Q 1903 2600 2025 2600 
Q 2281 2600 2465 2462 
Q 2650 2325 2704 2139 
Q 2759 1953 2759 1400 
L 2759 928 
Q 2759 909 2754 803 
Q 2750 697 2750 559 
Q 2750 341 2769 281 
Q 2784 241 2850 200 
Q 3150 159 3200 103 
L 3200 78 
Q 3200 47 3181 0 
L 3122 0 
L 2709 3 
L 2303 -3 
Q 2078 -9 1888 0 
L 1869 66 
Q 1869 84 1891 116 
Q 1975 153 2128 166 
Q 2219 172 2253 184 
Q 2288 197 2338 234 
Q 2375 309 2375 359 
Q 2375 381 2369 447 
Q 2359 591 2356 1163 
L 2356 1325 
L 2363 1575 
Q 2363 1978 2200 2131 
Q 2038 2284 1766 2284 
Q 1556 2284 1356 2192 
Q 1156 2100 969 1916 
Q 963 1766 963 1659 
L 972 969 
Q 972 428 988 306 
Q 994 256 1009 238 
Q 1034 213 1109 197 
Q 1184 181 1282 153 
Q 1381 125 1413 119 
Q 1475 103 1497 56 
L 1494 -6 
L 1166 -6 
L 491 3 
Q 256 -3 194 -3 
L 116 -3 
L 109 38 
Q 109 59 119 100 
z
" transform="scale(0.015625)"/>
       <path id="Garamond-41" d="M -34 100 
Q 9 125 44 125 
L 116 125 
Q 138 125 191 128 
Q 431 150 475 172 
Q 584 231 663 378 
Q 825 697 1028 1281 
Q 1125 1559 1150 1619 
Q 1228 1806 1300 2013 
L 1594 2834 
Q 1663 3028 1925 3722 
Q 1991 3897 2084 4191 
L 2175 4197 
L 2284 4194 
Q 2419 3928 2522 3622 
Q 2578 3459 2706 3138 
L 3181 1853 
L 3434 1156 
Q 3634 563 3696 427 
Q 3759 291 3813 247 
Q 3828 234 3929 209 
Q 4031 184 4072 172 
Q 4216 131 4272 103 
Q 4284 69 4284 50 
Q 4284 34 4275 3 
Q 4175 0 4134 0 
Q 3975 0 3572 9 
L 3259 19 
L 2881 13 
Q 2844 13 2805 17 
Q 2766 22 2738 22 
L 2669 22 
Q 2634 25 2606 41 
Q 2606 84 2622 125 
Q 2659 144 2691 147 
L 3019 169 
Q 3147 175 3213 203 
Q 3231 259 3231 288 
Q 3231 344 3150 578 
Q 3094 734 3051 875 
Q 3009 1016 2719 1800 
Q 2591 1822 2494 1822 
L 1825 1816 
L 1628 1819 
Q 1522 1819 1394 1803 
Q 1353 1709 1341 1669 
L 1066 809 
Q 891 319 891 269 
Q 891 241 919 175 
Q 984 156 1094 141 
L 1519 103 
Q 1553 75 1553 53 
Q 1553 38 1544 6 
Q 1403 3 1328 3 
Q 1078 3 747 19 
Q 594 25 528 25 
Q 463 25 300 19 
Q 194 13 147 13 
Q 72 13 -47 22 
L -47 41 
Q -47 63 -34 100 
z
M 1456 1975 
Q 1791 1956 2219 1956 
Q 2463 1956 2647 1972 
Q 2616 2094 2575 2200 
Q 2372 2744 2350 2800 
L 2066 3522 
L 2034 3578 
Q 2016 3541 1897 3256 
Q 1697 2769 1609 2497 
Q 1569 2375 1525 2254 
Q 1481 2134 1470 2086 
Q 1459 2038 1438 1988 
L 1456 1975 
z
" transform="scale(0.015625)"/>
      </defs>
      <use xlink:href="#Garamond-43"/>
      <use xlink:href="#Garamond-75" transform="translate(63.525391 0)"/>
      <use xlink:href="#Garamond-72" transform="translate(112.5 0)"/>
      <use xlink:href="#Garamond-72" transform="translate(148.349609 0)"/>
      <use xlink:href="#Garamond-65" transform="translate(181.699219 0)"/>
      <use xlink:href="#Garamond-6e" transform="translate(223.349609 0)"/>
      <use xlink:href="#Garamond-74" transform="translate(274.375 0)"/>
      <use xlink:href="#Garamond-20" transform="translate(303.525391 0)"/>
      <use xlink:href="#Garamond-28" transform="translate(328.525391 0)"/>
      <use xlink:href="#Garamond-41" transform="translate(357.675781 0)"/>
      <use xlink:href="#Garamond-29" transform="translate(425.400391 0)"/>
     </g>
    </g>
   </g>
   <g id="line2d_51">
    <path d="M 37.652338 94.758657 
L 48.42215 94.494333 
L 56.114873 94.099215 
L 62.269051 93.559603 
L 66.884685 92.956274 
L 71.500319 92.115869 
L 75.34668 91.180205 
L 78.42377 90.241356 
L 81.500859 89.102768 
L 84.577948 87.735352 
L 87.655037 86.110958 
L 90.732126 84.204662 
L 93.809216 81.997549 
L 96.886305 79.479789 
L 99.963394 76.653576 
L 103.040483 73.535432 
L 106.886845 69.277273 
L 111.502478 63.767199 
L 126.887924 44.97295 
L 130.734286 40.765258 
L 134.580647 36.895424 
L 138.427009 33.382649 
L 142.27337 30.222934 
L 146.119732 27.395933 
L 149.966093 24.871408 
L 153.812455 22.614473 
L 157.658816 20.589388 
L 162.27445 18.41747 
L 166.890084 16.477276 
L 172.27499 14.446227 
L 178.429168 12.360255 
L 186.121891 10.008127 
L 191.506797 8.482661 
L 191.506797 8.482661 
" clip-path="url(#p08af8368a5)" style="fill: none; stroke: #000000; stroke-width: 0.8; stroke-linecap: square"/>
   </g>
   <g id="line2d_52">
    <path d="M 37.652338 94.924501 
L 83.039403 94.829172 
L 88.424309 94.615914 
L 91.501399 94.328267 
L 93.809216 93.954298 
L 96.117032 93.357336 
L 97.655577 92.77769 
L 99.194122 91.997847 
L 100.732666 90.957946 
L 102.271211 89.586645 
L 103.809755 87.803479 
L 105.3483 85.524925 
L 106.886845 82.675512 
L 108.425389 79.204309 
L 109.963934 75.104893 
L 111.502478 70.433587 
L 113.810295 62.65152 
L 117.656657 49.356904 
L 119.964474 42.324321 
L 121.503018 38.300402 
L 123.041563 34.847773 
L 124.580107 31.943234 
L 126.118652 29.532476 
L 127.657197 27.546509 
L 129.195741 25.913689 
L 130.734286 24.567084 
L 132.27283 23.448123 
L 134.580647 22.0917 
L 136.888464 21.011194 
L 139.965553 19.848205 
L 143.811915 18.657643 
L 149.966093 17.042893 
L 161.505178 14.322392 
L 191.506797 7.486188 
L 191.506797 7.486188 
" clip-path="url(#p08af8368a5)" style="fill: none; stroke: #dc241f; stroke-width: 0.8; stroke-linecap: square"/>
   </g>
   <g id="line2d_53">
    <path d="M 37.652338 94.924503 
L 104.579028 94.833291 
L 106.117572 94.668076 
L 107.656117 94.210494 
L 108.425389 93.739657 
L 109.194661 92.969691 
L 109.963934 91.726811 
L 110.733206 89.760287 
L 111.502478 86.742469 
L 112.271751 82.317838 
L 113.041023 76.240215 
L 114.579568 59.949123 
L 116.118112 43.56517 
L 116.887384 37.364559 
L 117.656657 32.769921 
L 118.425929 29.549472 
L 119.195201 27.363901 
L 119.964474 25.898088 
L 120.733746 24.908746 
L 121.503018 24.225415 
L 123.041563 23.365091 
L 124.580107 22.820556 
L 127.657197 22.018519 
L 142.27337 18.678178 
L 191.506797 7.486054 
L 191.506797 7.486054 
" clip-path="url(#p08af8368a5)" style="fill: none; stroke: #0019a8; stroke-width: 0.8; stroke-linecap: square"/>
   </g>
   <g id="patch_3">
    <path d="M 29.959615 99.296425 
L 29.959615 3.114132 
" style="fill: none; stroke: #000000; stroke-width: 0.75; stroke-linejoin: miter; stroke-linecap: square"/>
   </g>
   <g id="patch_4">
    <path d="M 199.19952 99.296425 
L 199.19952 3.114132 
" style="fill: none; stroke: #000000; stroke-width: 0.75; stroke-linejoin: miter; stroke-linecap: square"/>
   </g>
   <g id="patch_5">
    <path d="M 29.959615 99.296425 
L 199.19952 99.296425 
" style="fill: none; stroke: #000000; stroke-width: 0.75; stroke-linejoin: miter; stroke-linecap: square"/>
   </g>
   <g id="patch_6">
    <path d="M 29.959615 3.114132 
L 199.19952 3.114132 
" style="fill: none; stroke: #000000; stroke-width: 0.75; stroke-linejoin: miter; stroke-linecap: square"/>
   </g>
   <g id="text_9">
    <!--  (a) -->
    <g transform="translate(29.959615 13.332649) scale(0.1 -0.1)">
     <use xlink:href="#Garamond-20"/>
     <use xlink:href="#Garamond-28" transform="translate(25 0)"/>
     <use xlink:href="#Garamond-61" transform="translate(54.150391 0)"/>
     <use xlink:href="#Garamond-29" transform="translate(94.775391 0)"/>
    </g>
   </g>
   <g id="legend_1">
    <g id="text_10">
     <!-- Order -->
     <g transform="translate(48.481959 22.8521) scale(0.11 -0.11)">
      <defs>
       <path id="Garamond-4f" d="M 294 1997 
Q 294 2316 370 2564 
Q 447 2813 628 3103 
Q 809 3394 1065 3589 
Q 1322 3784 1775 3934 
Q 2094 4038 2581 4038 
Q 2909 4038 3223 3950 
Q 3538 3863 3794 3706 
Q 4050 3550 4306 3225 
Q 4484 3000 4575 2741 
Q 4694 2400 4694 2038 
Q 4694 1625 4614 1353 
Q 4534 1081 4347 816 
Q 4200 609 3844 341 
Q 3606 159 3253 48 
Q 2900 -63 2491 -63 
Q 2075 -63 1750 34 
Q 1425 131 1208 270 
Q 991 409 761 681 
Q 531 953 412 1281 
Q 294 1609 294 1997 
z
M 2463 53 
Q 2725 53 3008 126 
Q 3291 200 3509 370 
Q 3728 541 3851 758 
Q 3975 975 4050 1315 
Q 4125 1656 4125 1997 
Q 4125 2422 4000 2838 
Q 3903 3153 3684 3401 
Q 3466 3650 3156 3786 
Q 2847 3922 2497 3922 
Q 2213 3922 1941 3828 
Q 1669 3734 1494 3589 
Q 1319 3444 1169 3176 
Q 1019 2909 941 2587 
Q 863 2266 863 2019 
Q 863 1759 941 1431 
Q 1019 1103 1155 862 
Q 1291 622 1489 436 
Q 1688 250 1934 151 
Q 2181 53 2463 53 
z
" transform="scale(0.015625)"/>
       <path id="Garamond-64" d="M 2281 2269 
L 2284 2359 
L 2281 2725 
L 2284 3416 
Q 2284 3703 2221 3781 
Q 2159 3859 1856 3941 
Q 1834 3947 1788 3959 
L 1788 3994 
Q 1788 4025 1794 4063 
Q 2219 4106 2525 4209 
L 2684 4213 
Q 2697 4000 2697 3738 
L 2684 2534 
L 2706 1178 
L 2697 456 
Q 2697 234 2728 206 
Q 2791 144 3003 141 
Q 3047 141 3122 134 
L 3122 78 
Q 3122 56 3119 31 
Q 3022 9 2919 -9 
L 2466 -97 
Q 2366 -116 2306 -116 
L 2306 184 
Q 2253 169 2141 122 
Q 1653 -84 1244 -84 
Q 997 -84 740 77 
Q 484 238 346 525 
Q 209 813 209 1113 
Q 209 1381 300 1626 
Q 391 1872 538 2034 
Q 631 2141 803 2245 
Q 975 2350 1088 2378 
Q 1366 2450 1459 2450 
Q 1881 2450 2153 2325 
Q 2238 2284 2281 2269 
z
M 2284 338 
Q 2297 547 2297 1200 
Q 2297 1753 2245 1898 
Q 2194 2044 1987 2173 
Q 1781 2303 1525 2303 
Q 1166 2303 916 2025 
Q 666 1747 666 1203 
Q 666 725 936 440 
Q 1206 156 1609 156 
Q 1841 156 2031 218 
Q 2222 281 2284 338 
z
" transform="scale(0.015625)"/>
      </defs>
      <use xlink:href="#Garamond-4f"/>
      <use xlink:href="#Garamond-72" transform="translate(78.125 0)"/>
      <use xlink:href="#Garamond-64" transform="translate(111.474609 0)"/>
      <use xlink:href="#Garamond-65" transform="translate(161.474609 0)"/>
      <use xlink:href="#Garamond-72" transform="translate(203.125 0)"/>
     </g>
    </g>
    <g id="line2d_54">
     <path d="M 42.559615 30.622569 
L 51.559615 30.622569 
L 60.559615 30.622569 
" style="fill: none; stroke: #000000; stroke-width: 0.8; stroke-linecap: square"/>
    </g>
    <g id="text_11">
     <!-- 10 -->
     <g transform="translate(67.759615 33.772569) scale(0.09 -0.09)">
      <use xlink:href="#Garamond-31"/>
      <use xlink:href="#Garamond-30" transform="translate(46.875 0)"/>
     </g>
    </g>
    <g id="line2d_55">
     <path d="M 42.559615 41.030225 
L 51.559615 41.030225 
L 60.559615 41.030225 
" style="fill: none; stroke: #dc241f; stroke-width: 0.8; stroke-linecap: square"/>
    </g>
    <g id="text_12">
     <!-- 30 -->
     <g transform="translate(67.759615 44.180225) scale(0.09 -0.09)">
      <defs>
       <path id="Garamond-33" d="M 534 3150 
L 431 3206 
Q 628 3684 900 3879 
Q 1172 4075 1534 4075 
Q 1872 4075 2075 3925 
Q 2378 3700 2378 3419 
Q 2378 3191 2223 2959 
Q 2069 2728 1681 2441 
L 1756 2444 
Q 2000 2444 2226 2320 
Q 2453 2197 2584 1936 
Q 2716 1675 2716 1375 
Q 2716 772 2273 342 
Q 1831 -88 1147 -88 
Q 628 -88 381 63 
Q 247 141 247 259 
Q 247 325 301 378 
Q 356 431 438 431 
Q 541 431 688 319 
Q 1034 53 1291 53 
Q 1678 53 1978 379 
Q 2278 706 2278 1203 
Q 2278 1616 2076 1880 
Q 1875 2144 1566 2144 
Q 1334 2144 1084 1925 
L 1009 2050 
Q 1166 2184 1291 2278 
Q 1672 2556 1859 2825 
Q 1994 3019 1994 3166 
Q 1994 3413 1819 3583 
Q 1644 3753 1359 3753 
Q 891 3753 534 3150 
z
" transform="scale(0.015625)"/>
      </defs>
      <use xlink:href="#Garamond-33"/>
      <use xlink:href="#Garamond-30" transform="translate(46.875 0)"/>
     </g>
    </g>
    <g id="line2d_56">
     <path d="M 42.559615 51.437882 
L 51.559615 51.437882 
L 60.559615 51.437882 
" style="fill: none; stroke: #0019a8; stroke-width: 0.8; stroke-linecap: square"/>
    </g>
    <g id="text_13">
     <!-- 100 -->
     <g transform="translate(67.759615 54.587882) scale(0.09 -0.09)">
      <use xlink:href="#Garamond-31"/>
      <use xlink:href="#Garamond-30" transform="translate(46.875 0)"/>
      <use xlink:href="#Garamond-30" transform="translate(93.75 0)"/>
     </g>
    </g>
   </g>
  </g>
  <g id="axes_2">
   <g id="patch_7">
    <path d="M 238.159855 99.296425 
L 407.39976 99.296425 
L 407.39976 3.114132 
L 238.159855 3.114132 
z
" style="fill: #ffffff"/>
   </g>
   <g id="matplotlib.axis_3">
    <g id="xtick_12">
     <g id="line2d_57">
      <g>
       <use xlink:href="#m5e3511a991" x="261.238024" y="99.296425" style="stroke: #000000; stroke-width: 0.5"/>
      </g>
     </g>
     <g id="line2d_58">
      <g>
       <use xlink:href="#md9ea57935a" x="261.238024" y="3.114132" style="stroke: #000000; stroke-width: 0.5"/>
      </g>
     </g>
     <g id="text_14">
      <!-- 0.8 -->
      <g transform="translate(256.034899 108.636581) scale(0.09 -0.09)">
       <use xlink:href="#Garamond-30"/>
       <use xlink:href="#Garamond-2e" transform="translate(46.875 0)"/>
       <use xlink:href="#Garamond-38" transform="translate(68.75 0)"/>
      </g>
     </g>
    </g>
    <g id="xtick_13">
     <g id="line2d_59">
      <g>
       <use xlink:href="#m5e3511a991" x="322.779808" y="99.296425" style="stroke: #000000; stroke-width: 0.5"/>
      </g>
     </g>
     <g id="line2d_60">
      <g>
       <use xlink:href="#md9ea57935a" x="322.779808" y="3.114132" style="stroke: #000000; stroke-width: 0.5"/>
      </g>
     </g>
     <g id="text_15">
      <!-- 1.0 -->
      <g transform="translate(317.576683 108.636581) scale(0.09 -0.09)">
       <use xlink:href="#Garamond-31"/>
       <use xlink:href="#Garamond-2e" transform="translate(46.875 0)"/>
       <use xlink:href="#Garamond-30" transform="translate(68.75 0)"/>
      </g>
     </g>
    </g>
    <g id="xtick_14">
     <g id="line2d_61">
      <g>
       <use xlink:href="#m5e3511a991" x="384.321591" y="99.296425" style="stroke: #000000; stroke-width: 0.5"/>
      </g>
     </g>
     <g id="line2d_62">
      <g>
       <use xlink:href="#md9ea57935a" x="384.321591" y="3.114132" style="stroke: #000000; stroke-width: 0.5"/>
      </g>
     </g>
     <g id="text_16">
      <!-- 1.2 -->
      <g transform="translate(379.118466 108.636581) scale(0.09 -0.09)">
       <use xlink:href="#Garamond-31"/>
       <use xlink:href="#Garamond-2e" transform="translate(46.875 0)"/>
       <use xlink:href="#Garamond-32" transform="translate(68.75 0)"/>
      </g>
     </g>
    </g>
    <g id="xtick_15">
     <g id="line2d_63">
      <g>
       <use xlink:href="#m62b45267e2" x="245.852578" y="99.296425" style="stroke: #000000; stroke-width: 0.5"/>
      </g>
     </g>
     <g id="line2d_64">
      <g>
       <use xlink:href="#m63f9fd57e6" x="245.852578" y="3.114132" style="stroke: #000000; stroke-width: 0.5"/>
      </g>
     </g>
    </g>
    <g id="xtick_16">
     <g id="line2d_65">
      <g>
       <use xlink:href="#m62b45267e2" x="276.62347" y="99.296425" style="stroke: #000000; stroke-width: 0.5"/>
      </g>
     </g>
     <g id="line2d_66">
      <g>
       <use xlink:href="#m63f9fd57e6" x="276.62347" y="3.114132" style="stroke: #000000; stroke-width: 0.5"/>
      </g>
     </g>
    </g>
    <g id="xtick_17">
     <g id="line2d_67">
      <g>
       <use xlink:href="#m62b45267e2" x="292.008916" y="99.296425" style="stroke: #000000; stroke-width: 0.5"/>
      </g>
     </g>
     <g id="line2d_68">
      <g>
       <use xlink:href="#m63f9fd57e6" x="292.008916" y="3.114132" style="stroke: #000000; stroke-width: 0.5"/>
      </g>
     </g>
    </g>
    <g id="xtick_18">
     <g id="line2d_69">
      <g>
       <use xlink:href="#m62b45267e2" x="307.394362" y="99.296425" style="stroke: #000000; stroke-width: 0.5"/>
      </g>
     </g>
     <g id="line2d_70">
      <g>
       <use xlink:href="#m63f9fd57e6" x="307.394362" y="3.114132" style="stroke: #000000; stroke-width: 0.5"/>
      </g>
     </g>
    </g>
    <g id="xtick_19">
     <g id="line2d_71">
      <g>
       <use xlink:href="#m62b45267e2" x="338.165253" y="99.296425" style="stroke: #000000; stroke-width: 0.5"/>
      </g>
     </g>
     <g id="line2d_72">
      <g>
       <use xlink:href="#m63f9fd57e6" x="338.165253" y="3.114132" style="stroke: #000000; stroke-width: 0.5"/>
      </g>
     </g>
    </g>
    <g id="xtick_20">
     <g id="line2d_73">
      <g>
       <use xlink:href="#m62b45267e2" x="353.550699" y="99.296425" style="stroke: #000000; stroke-width: 0.5"/>
      </g>
     </g>
     <g id="line2d_74">
      <g>
       <use xlink:href="#m63f9fd57e6" x="353.550699" y="3.114132" style="stroke: #000000; stroke-width: 0.5"/>
      </g>
     </g>
    </g>
    <g id="xtick_21">
     <g id="line2d_75">
      <g>
       <use xlink:href="#m62b45267e2" x="368.936145" y="99.296425" style="stroke: #000000; stroke-width: 0.5"/>
      </g>
     </g>
     <g id="line2d_76">
      <g>
       <use xlink:href="#m63f9fd57e6" x="368.936145" y="3.114132" style="stroke: #000000; stroke-width: 0.5"/>
      </g>
     </g>
    </g>
    <g id="xtick_22">
     <g id="line2d_77">
      <g>
       <use xlink:href="#m62b45267e2" x="399.707037" y="99.296425" style="stroke: #000000; stroke-width: 0.5"/>
      </g>
     </g>
     <g id="line2d_78">
      <g>
       <use xlink:href="#m63f9fd57e6" x="399.707037" y="3.114132" style="stroke: #000000; stroke-width: 0.5"/>
      </g>
     </g>
    </g>
    <g id="text_17">
     <!-- Voltage (V) -->
     <g transform="translate(300.603245 121.4333) scale(0.1 -0.1)">
      <use xlink:href="#Garamond-56"/>
      <use xlink:href="#Garamond-6f" transform="translate(60.849609 0)"/>
      <use xlink:href="#Garamond-6c" transform="translate(111.875 0)"/>
      <use xlink:href="#Garamond-74" transform="translate(134.775391 0)"/>
      <use xlink:href="#Garamond-61" transform="translate(163.925781 0)"/>
      <use xlink:href="#Garamond-67" transform="translate(204.550781 0)"/>
      <use xlink:href="#Garamond-65" transform="translate(250.826172 0)"/>
      <use xlink:href="#Garamond-20" transform="translate(292.476562 0)"/>
      <use xlink:href="#Garamond-28" transform="translate(317.476562 0)"/>
      <use xlink:href="#Garamond-56" transform="translate(346.626953 0)"/>
      <use xlink:href="#Garamond-29" transform="translate(414.351562 0)"/>
     </g>
    </g>
   </g>
   <g id="matplotlib.axis_4">
    <g id="ytick_15">
     <g id="line2d_79">
      <g>
       <use xlink:href="#m2c13e837fd" x="238.159855" y="94.924503" style="stroke: #000000; stroke-width: 0.5"/>
      </g>
     </g>
     <g id="line2d_80">
      <g>
       <use xlink:href="#m3f458df85c" x="407.39976" y="94.924503" style="stroke: #000000; stroke-width: 0.5"/>
      </g>
     </g>
     <g id="text_18">
      <!-- 0.0 -->
      <g transform="translate(224.253605 97.844581) scale(0.09 -0.09)">
       <use xlink:href="#Garamond-30"/>
       <use xlink:href="#Garamond-2e" transform="translate(46.875 0)"/>
       <use xlink:href="#Garamond-30" transform="translate(68.75 0)"/>
      </g>
     </g>
    </g>
    <g id="ytick_16">
     <g id="line2d_81">
      <g>
       <use xlink:href="#m2c13e837fd" x="238.159855" y="59.949123" style="stroke: #000000; stroke-width: 0.5"/>
      </g>
     </g>
     <g id="line2d_82">
      <g>
       <use xlink:href="#m3f458df85c" x="407.39976" y="59.949123" style="stroke: #000000; stroke-width: 0.5"/>
      </g>
     </g>
     <g id="text_19">
      <!-- 0.5 -->
      <g transform="translate(224.253605 62.869201) scale(0.09 -0.09)">
       <use xlink:href="#Garamond-30"/>
       <use xlink:href="#Garamond-2e" transform="translate(46.875 0)"/>
       <use xlink:href="#Garamond-35" transform="translate(68.75 0)"/>
      </g>
     </g>
    </g>
    <g id="ytick_17">
     <g id="line2d_83">
      <g>
       <use xlink:href="#m2c13e837fd" x="238.159855" y="24.973744" style="stroke: #000000; stroke-width: 0.5"/>
      </g>
     </g>
     <g id="line2d_84">
      <g>
       <use xlink:href="#m3f458df85c" x="407.39976" y="24.973744" style="stroke: #000000; stroke-width: 0.5"/>
      </g>
     </g>
     <g id="text_20">
      <!-- 1.0 -->
      <g transform="translate(224.253605 27.893822) scale(0.09 -0.09)">
       <use xlink:href="#Garamond-31"/>
       <use xlink:href="#Garamond-2e" transform="translate(46.875 0)"/>
       <use xlink:href="#Garamond-30" transform="translate(68.75 0)"/>
      </g>
     </g>
    </g>
    <g id="ytick_18">
     <g id="line2d_85">
      <g>
       <use xlink:href="#m7b260bc59d" x="238.159855" y="87.929427" style="stroke: #000000; stroke-width: 0.5"/>
      </g>
     </g>
     <g id="line2d_86">
      <g>
       <use xlink:href="#mbb76e4a1c9" x="407.39976" y="87.929427" style="stroke: #000000; stroke-width: 0.5"/>
      </g>
     </g>
    </g>
    <g id="ytick_19">
     <g id="line2d_87">
      <g>
       <use xlink:href="#m7b260bc59d" x="238.159855" y="80.934351" style="stroke: #000000; stroke-width: 0.5"/>
      </g>
     </g>
     <g id="line2d_88">
      <g>
       <use xlink:href="#mbb76e4a1c9" x="407.39976" y="80.934351" style="stroke: #000000; stroke-width: 0.5"/>
      </g>
     </g>
    </g>
    <g id="ytick_20">
     <g id="line2d_89">
      <g>
       <use xlink:href="#m7b260bc59d" x="238.159855" y="73.939275" style="stroke: #000000; stroke-width: 0.5"/>
      </g>
     </g>
     <g id="line2d_90">
      <g>
       <use xlink:href="#mbb76e4a1c9" x="407.39976" y="73.939275" style="stroke: #000000; stroke-width: 0.5"/>
      </g>
     </g>
    </g>
    <g id="ytick_21">
     <g id="line2d_91">
      <g>
       <use xlink:href="#m7b260bc59d" x="238.159855" y="66.944199" style="stroke: #000000; stroke-width: 0.5"/>
      </g>
     </g>
     <g id="line2d_92">
      <g>
       <use xlink:href="#mbb76e4a1c9" x="407.39976" y="66.944199" style="stroke: #000000; stroke-width: 0.5"/>
      </g>
     </g>
    </g>
    <g id="ytick_22">
     <g id="line2d_93">
      <g>
       <use xlink:href="#m7b260bc59d" x="238.159855" y="52.954047" style="stroke: #000000; stroke-width: 0.5"/>
      </g>
     </g>
     <g id="line2d_94">
      <g>
       <use xlink:href="#mbb76e4a1c9" x="407.39976" y="52.954047" style="stroke: #000000; stroke-width: 0.5"/>
      </g>
     </g>
    </g>
    <g id="ytick_23">
     <g id="line2d_95">
      <g>
       <use xlink:href="#m7b260bc59d" x="238.159855" y="45.958971" style="stroke: #000000; stroke-width: 0.5"/>
      </g>
     </g>
     <g id="line2d_96">
      <g>
       <use xlink:href="#mbb76e4a1c9" x="407.39976" y="45.958971" style="stroke: #000000; stroke-width: 0.5"/>
      </g>
     </g>
    </g>
    <g id="ytick_24">
     <g id="line2d_97">
      <g>
       <use xlink:href="#m7b260bc59d" x="238.159855" y="38.963895" style="stroke: #000000; stroke-width: 0.5"/>
      </g>
     </g>
     <g id="line2d_98">
      <g>
       <use xlink:href="#mbb76e4a1c9" x="407.39976" y="38.963895" style="stroke: #000000; stroke-width: 0.5"/>
      </g>
     </g>
    </g>
    <g id="ytick_25">
     <g id="line2d_99">
      <g>
       <use xlink:href="#m7b260bc59d" x="238.159855" y="31.96882" style="stroke: #000000; stroke-width: 0.5"/>
      </g>
     </g>
     <g id="line2d_100">
      <g>
       <use xlink:href="#mbb76e4a1c9" x="407.39976" y="31.96882" style="stroke: #000000; stroke-width: 0.5"/>
      </g>
     </g>
    </g>
    <g id="ytick_26">
     <g id="line2d_101">
      <g>
       <use xlink:href="#m7b260bc59d" x="238.159855" y="17.978668" style="stroke: #000000; stroke-width: 0.5"/>
      </g>
     </g>
     <g id="line2d_102">
      <g>
       <use xlink:href="#mbb76e4a1c9" x="407.39976" y="17.978668" style="stroke: #000000; stroke-width: 0.5"/>
      </g>
     </g>
    </g>
    <g id="ytick_27">
     <g id="line2d_103">
      <g>
       <use xlink:href="#m7b260bc59d" x="238.159855" y="10.983592" style="stroke: #000000; stroke-width: 0.5"/>
      </g>
     </g>
     <g id="line2d_104">
      <g>
       <use xlink:href="#mbb76e4a1c9" x="407.39976" y="10.983592" style="stroke: #000000; stroke-width: 0.5"/>
      </g>
     </g>
    </g>
    <g id="ytick_28">
     <g id="line2d_105">
      <g>
       <use xlink:href="#m7b260bc59d" x="238.159855" y="3.988516" style="stroke: #000000; stroke-width: 0.5"/>
      </g>
     </g>
     <g id="line2d_106">
      <g>
       <use xlink:href="#mbb76e4a1c9" x="407.39976" y="3.988516" style="stroke: #000000; stroke-width: 0.5"/>
      </g>
     </g>
    </g>
    <g id="text_21">
     <!-- Current (A) -->
     <g transform="translate(217.689542 73.933403) rotate(-90) scale(0.1 -0.1)">
      <use xlink:href="#Garamond-43"/>
      <use xlink:href="#Garamond-75" transform="translate(63.525391 0)"/>
      <use xlink:href="#Garamond-72" transform="translate(112.5 0)"/>
      <use xlink:href="#Garamond-72" transform="translate(148.349609 0)"/>
      <use xlink:href="#Garamond-65" transform="translate(181.699219 0)"/>
      <use xlink:href="#Garamond-6e" transform="translate(223.349609 0)"/>
      <use xlink:href="#Garamond-74" transform="translate(274.375 0)"/>
      <use xlink:href="#Garamond-20" transform="translate(303.525391 0)"/>
      <use xlink:href="#Garamond-28" transform="translate(328.525391 0)"/>
      <use xlink:href="#Garamond-41" transform="translate(357.675781 0)"/>
      <use xlink:href="#Garamond-29" transform="translate(425.400391 0)"/>
     </g>
    </g>
   </g>
   <g id="line2d_107">
    <path d="M 245.852578 94.915135 
L 267.392202 94.775945 
L 275.854197 94.513258 
L 281.239104 94.154084 
L 285.854737 93.622914 
L 289.701099 92.931281 
L 292.778188 92.144179 
L 295.855277 91.078396 
L 298.163094 90.049202 
L 300.470911 88.782222 
L 302.778728 87.239144 
L 305.086545 85.382931 
L 307.394362 83.181557 
L 309.702178 80.612703 
L 312.009995 77.668948 
L 314.317812 74.362586 
L 317.394901 69.454487 
L 321.241263 62.735665 
L 329.703258 47.650482 
L 332.780347 42.704994 
L 335.857437 38.257992 
L 338.165253 35.277238 
L 340.47307 32.599556 
L 342.780887 30.21076 
L 345.088704 28.088665 
L 347.396521 26.206677 
L 350.47361 24.022165 
L 353.550699 22.149309 
L 356.627789 20.528967 
L 360.47415 18.781822 
L 364.320511 17.26937 
L 368.936145 15.677994 
L 375.090324 13.812429 
L 382.783047 11.730587 
L 394.322131 8.872804 
L 399.707037 7.594164 
L 399.707037 7.594164 
" clip-path="url(#p51b7711b63)" style="fill: none; stroke: #000000; stroke-width: 0.8; stroke-linecap: square"/>
   </g>
   <g id="line2d_108">
    <path d="M 245.852578 94.924503 
L 295.855277 94.819642 
L 300.470911 94.591959 
L 303.548 94.216494 
L 305.855817 93.687846 
L 307.394362 93.140682 
L 308.932906 92.365513 
L 310.471451 91.278587 
L 312.009995 89.774958 
L 313.54854 87.73138 
L 315.087085 85.017265 
L 316.625629 81.517557 
L 318.164174 77.168551 
L 319.702718 72.000158 
L 322.010535 63.085283 
L 325.856897 47.771352 
L 327.395441 42.435975 
L 328.933986 37.845944 
L 330.47253 34.035954 
L 332.011075 30.954467 
L 333.54962 28.502523 
L 335.088164 26.565676 
L 336.626709 25.034268 
L 338.165253 23.813357 
L 339.703798 22.825697 
L 342.011615 21.653556 
L 344.319432 20.728097 
L 347.396521 19.721693 
L 352.012155 18.461609 
L 360.47415 16.428864 
L 391.245042 9.409767 
L 399.707037 7.486068 
L 399.707037 7.486068 
" clip-path="url(#p51b7711b63)" style="fill: none; stroke: #dc241f; stroke-width: 0.8; stroke-linecap: square"/>
   </g>
   <g id="line2d_109">
    <path d="M 245.852578 94.924503 
L 312.779268 94.858929 
L 314.317812 94.730298 
L 315.856357 94.354607 
L 316.625629 93.953327 
L 317.394901 93.278485 
L 318.164174 92.157336 
L 318.933446 90.330089 
L 319.702718 87.440267 
L 320.471991 83.076033 
L 321.241263 76.917354 
L 322.779808 59.949123 
L 324.318352 42.882988 
L 325.087624 36.594943 
L 325.856897 32.053873 
L 326.626169 28.956458 
L 327.395441 26.908111 
L 328.164714 25.564622 
L 328.933986 24.672776 
L 329.703258 24.062249 
L 331.241803 23.290498 
L 333.54962 22.578183 
L 338.934526 21.302915 
L 399.707037 7.486054 
L 399.707037 7.486054 
" clip-path="url(#p51b7711b63)" style="fill: none; stroke: #0019a8; stroke-width: 0.8; stroke-linecap: square"/>
   </g>
   <g id="patch_8">
    <path d="M 238.159855 99.296425 
L 238.159855 3.114132 
" style="fill: none; stroke: #000000; stroke-width: 0.75; stroke-linejoin: miter; stroke-linecap: square"/>
   </g>
   <g id="patch_9">
    <path d="M 407.39976 99.296425 
L 407.39976 3.114132 
" style="fill: none; stroke: #000000; stroke-width: 0.75; stroke-linejoin: miter; stroke-linecap: square"/>
   </g>
   <g id="patch_10">
    <path d="M 238.159855 99.296425 
L 407.39976 99.296425 
" style="fill: none; stroke: #000000; stroke-width: 0.75; stroke-linejoin: miter; stroke-linecap: square"/>
   </g>
   <g id="patch_11">
    <path d="M 238.159855 3.114132 
L 407.39976 3.114132 
" style="fill: none; stroke: #000000; stroke-width: 0.75; stroke-linejoin: miter; stroke-linecap: square"/>
   </g>
   <g id="text_22">
    <!--  (b) -->
    <g transform="translate(238.159855 13.332649) scale(0.1 -0.1)">
     <defs>
      <path id="Garamond-62" d="M 106 3928 
L 106 3944 
Q 106 3975 131 4031 
Q 472 4091 856 4213 
Q 878 4216 925 4216 
Q 941 4166 941 4150 
L 941 3219 
L 938 2922 
L 941 2591 
L 934 2322 
Q 934 2306 941 2216 
L 1197 2313 
Q 1238 2325 1466 2394 
Q 1756 2441 1803 2441 
Q 2116 2441 2366 2341 
Q 2519 2278 2669 2133 
Q 2819 1988 2891 1825 
Q 3016 1528 3016 1313 
Q 3016 972 2972 841 
Q 2866 528 2712 347 
Q 2559 166 2284 37 
Q 2009 -91 1700 -91 
Q 1416 -91 1162 15 
Q 909 122 878 122 
Q 781 122 631 -134 
L 541 -131 
Q 528 78 528 384 
L 534 850 
L 531 1088 
L 538 1769 
L 531 1900 
L 544 2222 
L 544 2497 
L 547 2609 
Q 547 2644 544 2881 
L 544 3069 
Q 553 3613 497 3697 
Q 406 3831 106 3928 
z
M 1591 81 
Q 2066 81 2314 348 
Q 2563 616 2563 1144 
Q 2563 1628 2281 1928 
Q 2000 2228 1588 2228 
Q 1288 2228 1084 2131 
Q 963 2072 948 2022 
Q 934 1972 934 1353 
Q 934 619 966 494 
Q 1019 300 1159 216 
Q 1381 81 1591 81 
z
" transform="scale(0.015625)"/>
     </defs>
     <use xlink:href="#Garamond-20"/>
     <use xlink:href="#Garamond-28" transform="translate(25 0)"/>
     <use xlink:href="#Garamond-62" transform="translate(54.150391 0)"/>
     <use xlink:href="#Garamond-29" transform="translate(105.175781 0)"/>
    </g>
   </g>
   <g id="legend_2">
    <g id="text_23">
     <!-- Order -->
     <g transform="translate(256.682199 22.8521) scale(0.11 -0.11)">
      <use xlink:href="#Garamond-4f"/>
      <use xlink:href="#Garamond-72" transform="translate(78.125 0)"/>
      <use xlink:href="#Garamond-64" transform="translate(111.474609 0)"/>
      <use xlink:href="#Garamond-65" transform="translate(161.474609 0)"/>
      <use xlink:href="#Garamond-72" transform="translate(203.125 0)"/>
     </g>
    </g>
    <g id="line2d_110">
     <path d="M 250.759855 30.622569 
L 259.759855 30.622569 
L 268.759855 30.622569 
" style="fill: none; stroke: #000000; stroke-width: 0.8; stroke-linecap: square"/>
    </g>
    <g id="text_24">
     <!-- 15 -->
     <g transform="translate(275.959855 33.772569) scale(0.09 -0.09)">
      <use xlink:href="#Garamond-31"/>
      <use xlink:href="#Garamond-35" transform="translate(46.875 0)"/>
     </g>
    </g>
    <g id="line2d_111">
     <path d="M 250.759855 41.030225 
L 259.759855 41.030225 
L 268.759855 41.030225 
" style="fill: none; stroke: #dc241f; stroke-width: 0.8; stroke-linecap: square"/>
    </g>
    <g id="text_25">
     <!-- 35 -->
     <g transform="translate(275.959855 44.180225) scale(0.09 -0.09)">
      <use xlink:href="#Garamond-33"/>
      <use xlink:href="#Garamond-35" transform="translate(46.875 0)"/>
     </g>
    </g>
    <g id="line2d_112">
     <path d="M 250.759855 51.437882 
L 259.759855 51.437882 
L 268.759855 51.437882 
" style="fill: none; stroke: #0019a8; stroke-width: 0.8; stroke-linecap: square"/>
    </g>
    <g id="text_26">
     <!-- 105 -->
     <g transform="translate(275.959855 54.587882) scale(0.09 -0.09)">
      <use xlink:href="#Garamond-31"/>
      <use xlink:href="#Garamond-30" transform="translate(46.875 0)"/>
      <use xlink:href="#Garamond-35" transform="translate(93.75 0)"/>
     </g>
    </g>
   </g>
  </g>
  <g id="axes_3">
   <g id="patch_12">
    <path d="M 133.859334 226.44476 
L 303.500041 226.44476 
L 303.500041 130.034683 
L 133.859334 130.034683 
z
" style="fill: #ffffff"/>
   </g>
   <g id="matplotlib.axis_5">
    <g id="xtick_23">
     <g id="line2d_113">
      <g>
       <use xlink:href="#m5e3511a991" x="156.992158" y="226.44476" style="stroke: #000000; stroke-width: 0.5"/>
      </g>
     </g>
     <g id="line2d_114">
      <g>
       <use xlink:href="#md9ea57935a" x="156.992158" y="130.034683" style="stroke: #000000; stroke-width: 0.5"/>
      </g>
     </g>
     <g id="text_27">
      <!-- 0.8 -->
      <g transform="translate(151.789033 235.784916) scale(0.09 -0.09)">
       <use xlink:href="#Garamond-30"/>
       <use xlink:href="#Garamond-2e" transform="translate(46.875 0)"/>
       <use xlink:href="#Garamond-38" transform="translate(68.75 0)"/>
      </g>
     </g>
    </g>
    <g id="xtick_24">
     <g id="line2d_115">
      <g>
       <use xlink:href="#m5e3511a991" x="218.679688" y="226.44476" style="stroke: #000000; stroke-width: 0.5"/>
      </g>
     </g>
     <g id="line2d_116">
      <g>
       <use xlink:href="#md9ea57935a" x="218.679688" y="130.034683" style="stroke: #000000; stroke-width: 0.5"/>
      </g>
     </g>
     <g id="text_28">
      <!-- 1.0 -->
      <g transform="translate(213.476562 235.784916) scale(0.09 -0.09)">
       <use xlink:href="#Garamond-31"/>
       <use xlink:href="#Garamond-2e" transform="translate(46.875 0)"/>
       <use xlink:href="#Garamond-30" transform="translate(68.75 0)"/>
      </g>
     </g>
    </g>
    <g id="xtick_25">
     <g id="line2d_117">
      <g>
       <use xlink:href="#m5e3511a991" x="280.367217" y="226.44476" style="stroke: #000000; stroke-width: 0.5"/>
      </g>
     </g>
     <g id="line2d_118">
      <g>
       <use xlink:href="#md9ea57935a" x="280.367217" y="130.034683" style="stroke: #000000; stroke-width: 0.5"/>
      </g>
     </g>
     <g id="text_29">
      <!-- 1.2 -->
      <g transform="translate(275.164092 235.784916) scale(0.09 -0.09)">
       <use xlink:href="#Garamond-31"/>
       <use xlink:href="#Garamond-2e" transform="translate(46.875 0)"/>
       <use xlink:href="#Garamond-32" transform="translate(68.75 0)"/>
      </g>
     </g>
    </g>
    <g id="xtick_26">
     <g id="line2d_119">
      <g>
       <use xlink:href="#m62b45267e2" x="141.570276" y="226.44476" style="stroke: #000000; stroke-width: 0.5"/>
      </g>
     </g>
     <g id="line2d_120">
      <g>
       <use xlink:href="#m63f9fd57e6" x="141.570276" y="130.034683" style="stroke: #000000; stroke-width: 0.5"/>
      </g>
     </g>
    </g>
    <g id="xtick_27">
     <g id="line2d_121">
      <g>
       <use xlink:href="#m62b45267e2" x="172.41404" y="226.44476" style="stroke: #000000; stroke-width: 0.5"/>
      </g>
     </g>
     <g id="line2d_122">
      <g>
       <use xlink:href="#m63f9fd57e6" x="172.41404" y="130.034683" style="stroke: #000000; stroke-width: 0.5"/>
      </g>
     </g>
    </g>
    <g id="xtick_28">
     <g id="line2d_123">
      <g>
       <use xlink:href="#m62b45267e2" x="187.835923" y="226.44476" style="stroke: #000000; stroke-width: 0.5"/>
      </g>
     </g>
     <g id="line2d_124">
      <g>
       <use xlink:href="#m63f9fd57e6" x="187.835923" y="130.034683" style="stroke: #000000; stroke-width: 0.5"/>
      </g>
     </g>
    </g>
    <g id="xtick_29">
     <g id="line2d_125">
      <g>
       <use xlink:href="#m62b45267e2" x="203.257805" y="226.44476" style="stroke: #000000; stroke-width: 0.5"/>
      </g>
     </g>
     <g id="line2d_126">
      <g>
       <use xlink:href="#m63f9fd57e6" x="203.257805" y="130.034683" style="stroke: #000000; stroke-width: 0.5"/>
      </g>
     </g>
    </g>
    <g id="xtick_30">
     <g id="line2d_127">
      <g>
       <use xlink:href="#m62b45267e2" x="234.10157" y="226.44476" style="stroke: #000000; stroke-width: 0.5"/>
      </g>
     </g>
     <g id="line2d_128">
      <g>
       <use xlink:href="#m63f9fd57e6" x="234.10157" y="130.034683" style="stroke: #000000; stroke-width: 0.5"/>
      </g>
     </g>
    </g>
    <g id="xtick_31">
     <g id="line2d_129">
      <g>
       <use xlink:href="#m62b45267e2" x="249.523452" y="226.44476" style="stroke: #000000; stroke-width: 0.5"/>
      </g>
     </g>
     <g id="line2d_130">
      <g>
       <use xlink:href="#m63f9fd57e6" x="249.523452" y="130.034683" style="stroke: #000000; stroke-width: 0.5"/>
      </g>
     </g>
    </g>
    <g id="xtick_32">
     <g id="line2d_131">
      <g>
       <use xlink:href="#m62b45267e2" x="264.945335" y="226.44476" style="stroke: #000000; stroke-width: 0.5"/>
      </g>
     </g>
     <g id="line2d_132">
      <g>
       <use xlink:href="#m63f9fd57e6" x="264.945335" y="130.034683" style="stroke: #000000; stroke-width: 0.5"/>
      </g>
     </g>
    </g>
    <g id="xtick_33">
     <g id="line2d_133">
      <g>
       <use xlink:href="#m62b45267e2" x="295.789099" y="226.44476" style="stroke: #000000; stroke-width: 0.5"/>
      </g>
     </g>
     <g id="line2d_134">
      <g>
       <use xlink:href="#m63f9fd57e6" x="295.789099" y="130.034683" style="stroke: #000000; stroke-width: 0.5"/>
      </g>
     </g>
    </g>
    <g id="text_30">
     <!-- Voltage (V) -->
     <g transform="translate(196.503125 248.581635) scale(0.1 -0.1)">
      <use xlink:href="#Garamond-56"/>
      <use xlink:href="#Garamond-6f" transform="translate(60.849609 0)"/>
      <use xlink:href="#Garamond-6c" transform="translate(111.875 0)"/>
      <use xlink:href="#Garamond-74" transform="translate(134.775391 0)"/>
      <use xlink:href="#Garamond-61" transform="translate(163.925781 0)"/>
      <use xlink:href="#Garamond-67" transform="translate(204.550781 0)"/>
      <use xlink:href="#Garamond-65" transform="translate(250.826172 0)"/>
      <use xlink:href="#Garamond-20" transform="translate(292.476562 0)"/>
      <use xlink:href="#Garamond-28" transform="translate(317.476562 0)"/>
      <use xlink:href="#Garamond-56" transform="translate(346.626953 0)"/>
      <use xlink:href="#Garamond-29" transform="translate(414.351562 0)"/>
     </g>
    </g>
   </g>
   <g id="matplotlib.axis_6">
    <g id="ytick_29">
     <g id="line2d_135">
      <g>
       <use xlink:href="#m2c13e837fd" x="133.859334" y="222.062484" style="stroke: #000000; stroke-width: 0.5"/>
      </g>
     </g>
     <g id="line2d_136">
      <g>
       <use xlink:href="#m3f458df85c" x="303.500041" y="222.062484" style="stroke: #000000; stroke-width: 0.5"/>
      </g>
     </g>
     <g id="text_31">
      <!-- 0.0 -->
      <g transform="translate(119.953084 224.982562) scale(0.09 -0.09)">
       <use xlink:href="#Garamond-30"/>
       <use xlink:href="#Garamond-2e" transform="translate(46.875 0)"/>
       <use xlink:href="#Garamond-30" transform="translate(68.75 0)"/>
      </g>
     </g>
    </g>
    <g id="ytick_30">
     <g id="line2d_137">
      <g>
       <use xlink:href="#m2c13e837fd" x="133.859334" y="187.004274" style="stroke: #000000; stroke-width: 0.5"/>
      </g>
     </g>
     <g id="line2d_138">
      <g>
       <use xlink:href="#m3f458df85c" x="303.500041" y="187.004274" style="stroke: #000000; stroke-width: 0.5"/>
      </g>
     </g>
     <g id="text_32">
      <!-- 0.5 -->
      <g transform="translate(119.953084 189.924352) scale(0.09 -0.09)">
       <use xlink:href="#Garamond-30"/>
       <use xlink:href="#Garamond-2e" transform="translate(46.875 0)"/>
       <use xlink:href="#Garamond-35" transform="translate(68.75 0)"/>
      </g>
     </g>
    </g>
    <g id="ytick_31">
     <g id="line2d_139">
      <g>
       <use xlink:href="#m2c13e837fd" x="133.859334" y="151.946064" style="stroke: #000000; stroke-width: 0.5"/>
      </g>
     </g>
     <g id="line2d_140">
      <g>
       <use xlink:href="#m3f458df85c" x="303.500041" y="151.946064" style="stroke: #000000; stroke-width: 0.5"/>
      </g>
     </g>
     <g id="text_33">
      <!-- 1.0 -->
      <g transform="translate(119.953084 154.866143) scale(0.09 -0.09)">
       <use xlink:href="#Garamond-31"/>
       <use xlink:href="#Garamond-2e" transform="translate(46.875 0)"/>
       <use xlink:href="#Garamond-30" transform="translate(68.75 0)"/>
      </g>
     </g>
    </g>
    <g id="ytick_32">
     <g id="line2d_141">
      <g>
       <use xlink:href="#m7b260bc59d" x="133.859334" y="215.050842" style="stroke: #000000; stroke-width: 0.5"/>
      </g>
     </g>
     <g id="line2d_142">
      <g>
       <use xlink:href="#mbb76e4a1c9" x="303.500041" y="215.050842" style="stroke: #000000; stroke-width: 0.5"/>
      </g>
     </g>
    </g>
    <g id="ytick_33">
     <g id="line2d_143">
      <g>
       <use xlink:href="#m7b260bc59d" x="133.859334" y="208.0392" style="stroke: #000000; stroke-width: 0.5"/>
      </g>
     </g>
     <g id="line2d_144">
      <g>
       <use xlink:href="#mbb76e4a1c9" x="303.500041" y="208.0392" style="stroke: #000000; stroke-width: 0.5"/>
      </g>
     </g>
    </g>
    <g id="ytick_34">
     <g id="line2d_145">
      <g>
       <use xlink:href="#m7b260bc59d" x="133.859334" y="201.027558" style="stroke: #000000; stroke-width: 0.5"/>
      </g>
     </g>
     <g id="line2d_146">
      <g>
       <use xlink:href="#mbb76e4a1c9" x="303.500041" y="201.027558" style="stroke: #000000; stroke-width: 0.5"/>
      </g>
     </g>
    </g>
    <g id="ytick_35">
     <g id="line2d_147">
      <g>
       <use xlink:href="#m7b260bc59d" x="133.859334" y="194.015916" style="stroke: #000000; stroke-width: 0.5"/>
      </g>
     </g>
     <g id="line2d_148">
      <g>
       <use xlink:href="#mbb76e4a1c9" x="303.500041" y="194.015916" style="stroke: #000000; stroke-width: 0.5"/>
      </g>
     </g>
    </g>
    <g id="ytick_36">
     <g id="line2d_149">
      <g>
       <use xlink:href="#m7b260bc59d" x="133.859334" y="179.992632" style="stroke: #000000; stroke-width: 0.5"/>
      </g>
     </g>
     <g id="line2d_150">
      <g>
       <use xlink:href="#mbb76e4a1c9" x="303.500041" y="179.992632" style="stroke: #000000; stroke-width: 0.5"/>
      </g>
     </g>
    </g>
    <g id="ytick_37">
     <g id="line2d_151">
      <g>
       <use xlink:href="#m7b260bc59d" x="133.859334" y="172.98099" style="stroke: #000000; stroke-width: 0.5"/>
      </g>
     </g>
     <g id="line2d_152">
      <g>
       <use xlink:href="#mbb76e4a1c9" x="303.500041" y="172.98099" style="stroke: #000000; stroke-width: 0.5"/>
      </g>
     </g>
    </g>
    <g id="ytick_38">
     <g id="line2d_153">
      <g>
       <use xlink:href="#m7b260bc59d" x="133.859334" y="165.969348" style="stroke: #000000; stroke-width: 0.5"/>
      </g>
     </g>
     <g id="line2d_154">
      <g>
       <use xlink:href="#mbb76e4a1c9" x="303.500041" y="165.969348" style="stroke: #000000; stroke-width: 0.5"/>
      </g>
     </g>
    </g>
    <g id="ytick_39">
     <g id="line2d_155">
      <g>
       <use xlink:href="#m7b260bc59d" x="133.859334" y="158.957706" style="stroke: #000000; stroke-width: 0.5"/>
      </g>
     </g>
     <g id="line2d_156">
      <g>
       <use xlink:href="#mbb76e4a1c9" x="303.500041" y="158.957706" style="stroke: #000000; stroke-width: 0.5"/>
      </g>
     </g>
    </g>
    <g id="ytick_40">
     <g id="line2d_157">
      <g>
       <use xlink:href="#m7b260bc59d" x="133.859334" y="144.934423" style="stroke: #000000; stroke-width: 0.5"/>
      </g>
     </g>
     <g id="line2d_158">
      <g>
       <use xlink:href="#mbb76e4a1c9" x="303.500041" y="144.934423" style="stroke: #000000; stroke-width: 0.5"/>
      </g>
     </g>
    </g>
    <g id="ytick_41">
     <g id="line2d_159">
      <g>
       <use xlink:href="#m7b260bc59d" x="133.859334" y="137.922781" style="stroke: #000000; stroke-width: 0.5"/>
      </g>
     </g>
     <g id="line2d_160">
      <g>
       <use xlink:href="#mbb76e4a1c9" x="303.500041" y="137.922781" style="stroke: #000000; stroke-width: 0.5"/>
      </g>
     </g>
    </g>
    <g id="ytick_42">
     <g id="line2d_161">
      <g>
       <use xlink:href="#m7b260bc59d" x="133.859334" y="130.911139" style="stroke: #000000; stroke-width: 0.5"/>
      </g>
     </g>
     <g id="line2d_162">
      <g>
       <use xlink:href="#mbb76e4a1c9" x="303.500041" y="130.911139" style="stroke: #000000; stroke-width: 0.5"/>
      </g>
     </g>
    </g>
    <g id="text_34">
     <!-- Current (A) -->
     <g transform="translate(113.389022 200.967847) rotate(-90) scale(0.1 -0.1)">
      <use xlink:href="#Garamond-43"/>
      <use xlink:href="#Garamond-75" transform="translate(63.525391 0)"/>
      <use xlink:href="#Garamond-72" transform="translate(112.5 0)"/>
      <use xlink:href="#Garamond-72" transform="translate(148.349609 0)"/>
      <use xlink:href="#Garamond-65" transform="translate(181.699219 0)"/>
      <use xlink:href="#Garamond-6e" transform="translate(223.349609 0)"/>
      <use xlink:href="#Garamond-74" transform="translate(274.375 0)"/>
      <use xlink:href="#Garamond-20" transform="translate(303.525391 0)"/>
      <use xlink:href="#Garamond-28" transform="translate(328.525391 0)"/>
      <use xlink:href="#Garamond-41" transform="translate(357.675781 0)"/>
      <use xlink:href="#Garamond-29" transform="translate(425.400391 0)"/>
     </g>
    </g>
   </g>
   <g id="line2d_163">
    <path d="M 141.570276 222.061955 
L 173.956229 221.948824 
L 181.66717 221.693502 
L 186.293735 221.328887 
L 189.378111 220.91308 
L 192.462487 220.276717 
L 194.77577 219.593386 
L 197.089052 218.670744 
L 199.402335 217.439013 
L 200.944523 216.406622 
L 202.486711 215.175369 
L 204.028899 213.719336 
L 205.571087 212.014088 
L 207.113276 210.03884 
L 208.655464 207.779053 
L 210.197652 205.229266 
L 212.510935 200.878359 
L 214.824217 195.972838 
L 217.908593 188.841176 
L 223.306252 176.184901 
L 225.619535 171.238924 
L 227.932817 166.787497 
L 230.246099 162.887715 
L 232.559382 159.540201 
L 234.872664 156.70614 
L 237.185946 154.324695 
L 239.499229 152.326948 
L 241.812511 150.645231 
L 244.125793 149.21834 
L 247.21017 147.62275 
L 250.294546 146.288031 
L 254.150017 144.874772 
L 258.776582 143.423176 
L 264.945335 141.728508 
L 274.198464 139.435223 
L 291.933629 135.310652 
L 295.789099 134.428608 
L 295.789099 134.428608 
" clip-path="url(#p5dc6798aa6)" style="fill: none; stroke: #000000; stroke-width: 0.8; stroke-linecap: square"/>
   </g>
   <g id="line2d_164">
    <path d="M 141.570276 222.062484 
L 194.77577 221.960762 
L 198.63124 221.760796 
L 200.944523 221.488603 
L 203.257805 220.980258 
L 204.799993 220.420715 
L 206.342182 219.587787 
L 207.88437 218.363227 
L 209.426558 216.593299 
L 210.197652 215.44706 
L 210.968746 214.094085 
L 212.510935 210.674682 
L 214.053123 206.187145 
L 215.595311 200.601731 
L 217.137499 194.081409 
L 221.764064 173.260397 
L 223.306252 167.481072 
L 224.84844 162.71623 
L 226.390629 158.947492 
L 227.932817 156.046557 
L 229.475005 153.843851 
L 231.017193 152.173494 
L 232.559382 150.894514 
L 234.10157 149.896338 
L 236.414852 148.751398 
L 238.728135 147.869771 
L 242.583605 146.70424 
L 248.752358 145.154755 
L 264.945335 141.429725 
L 295.789099 134.416961 
L 295.789099 134.416961 
" clip-path="url(#p5dc6798aa6)" style="fill: none; stroke: #dc241f; stroke-width: 0.8; stroke-linecap: square"/>
   </g>
   <g id="line2d_165">
    <path d="M 141.570276 222.062484 
L 209.426558 221.978954 
L 210.968746 221.802954 
L 211.73984 221.606733 
L 212.510935 221.265017 
L 213.282029 220.674214 
L 214.053123 219.664322 
L 214.824217 217.969347 
L 215.595311 215.207002 
L 216.366405 210.909189 
L 217.137499 204.675214 
L 217.908593 196.484688 
L 220.221876 169.230117 
L 220.99297 162.860201 
L 221.764064 158.378784 
L 222.535158 155.404191 
L 223.306252 153.486369 
L 224.077346 152.254815 
L 224.84844 151.449154 
L 225.619535 150.90094 
L 227.161723 150.201724 
L 229.475005 149.529458 
L 236.414852 147.914708 
L 295.789099 134.41696 
L 295.789099 134.41696 
" clip-path="url(#p5dc6798aa6)" style="fill: none; stroke: #0019a8; stroke-width: 0.8; stroke-linecap: square"/>
   </g>
   <g id="patch_13">
    <path d="M 133.859334 226.44476 
L 133.859334 130.034683 
" style="fill: none; stroke: #000000; stroke-width: 0.75; stroke-linejoin: miter; stroke-linecap: square"/>
   </g>
   <g id="patch_14">
    <path d="M 303.500041 226.44476 
L 303.500041 130.034683 
" style="fill: none; stroke: #000000; stroke-width: 0.75; stroke-linejoin: miter; stroke-linecap: square"/>
   </g>
   <g id="patch_15">
    <path d="M 133.859334 226.44476 
L 303.500041 226.44476 
" style="fill: none; stroke: #000000; stroke-width: 0.75; stroke-linejoin: miter; stroke-linecap: square"/>
   </g>
   <g id="patch_16">
    <path d="M 133.859334 130.034683 
L 303.500041 130.034683 
" style="fill: none; stroke: #000000; stroke-width: 0.75; stroke-linejoin: miter; stroke-linecap: square"/>
   </g>
   <g id="text_35">
    <!--  (c) -->
    <g transform="translate(133.859334 140.29161) scale(0.1 -0.1)">
     <defs>
      <path id="Garamond-63" d="M 2497 572 
L 2500 369 
Q 2256 109 2018 6 
Q 1781 -97 1459 -97 
Q 1109 -97 828 86 
Q 547 269 395 603 
Q 244 938 244 1259 
Q 244 1613 426 1927 
Q 609 2241 911 2395 
Q 1213 2550 1669 2550 
Q 2106 2550 2334 2400 
Q 2463 2313 2463 2175 
Q 2463 2075 2397 2009 
Q 2331 1944 2228 1944 
Q 2072 1944 1884 2138 
Q 1769 2256 1675 2301 
Q 1581 2347 1466 2347 
Q 1188 2347 1003 2119 
Q 747 1794 747 1303 
Q 747 797 1009 497 
Q 1272 197 1622 197 
Q 1866 197 2055 276 
Q 2244 356 2497 572 
z
" transform="scale(0.015625)"/>
     </defs>
     <use xlink:href="#Garamond-20"/>
     <use xlink:href="#Garamond-28" transform="translate(25 0)"/>
     <use xlink:href="#Garamond-63" transform="translate(54.150391 0)"/>
     <use xlink:href="#Garamond-29" transform="translate(95.800781 0)"/>
    </g>
   </g>
   <g id="legend_3">
    <g id="text_36">
     <!-- Order -->
     <g transform="translate(152.381678 149.772652) scale(0.11 -0.11)">
      <use xlink:href="#Garamond-4f"/>
      <use xlink:href="#Garamond-72" transform="translate(78.125 0)"/>
      <use xlink:href="#Garamond-64" transform="translate(111.474609 0)"/>
      <use xlink:href="#Garamond-65" transform="translate(161.474609 0)"/>
      <use xlink:href="#Garamond-72" transform="translate(203.125 0)"/>
     </g>
    </g>
    <g id="line2d_166">
     <path d="M 146.459334 157.543121 
L 155.459334 157.543121 
L 164.459334 157.543121 
" style="fill: none; stroke: #000000; stroke-width: 0.8; stroke-linecap: square"/>
    </g>
    <g id="text_37">
     <!-- 20 -->
     <g transform="translate(171.659334 160.693121) scale(0.09 -0.09)">
      <use xlink:href="#Garamond-32"/>
      <use xlink:href="#Garamond-30" transform="translate(46.875 0)"/>
     </g>
    </g>
    <g id="line2d_167">
     <path d="M 146.459334 167.950777 
L 155.459334 167.950777 
L 164.459334 167.950777 
" style="fill: none; stroke: #dc241f; stroke-width: 0.8; stroke-linecap: square"/>
    </g>
    <g id="text_38">
     <!-- 40 -->
     <g transform="translate(171.659334 171.100777) scale(0.09 -0.09)">
      <defs>
       <path id="Garamond-34" d="M 2097 4075 
L 2241 4075 
Q 2238 3978 2238 3959 
L 2247 3500 
L 2228 3088 
L 2241 2628 
L 2241 2266 
L 2247 1772 
Q 2247 1656 2241 1422 
L 2306 1419 
L 2528 1419 
L 2741 1416 
L 2916 1422 
Q 2922 1325 2922 1278 
Q 2922 1231 2916 1134 
Q 2722 1125 2706 1125 
L 2550 1128 
L 2425 1128 
Q 2375 1128 2241 1134 
Q 2234 691 2241 -44 
Q 2222 -63 2200 -69 
L 2006 -75 
Q 1944 -75 1816 -69 
Q 1825 300 1825 459 
Q 1825 600 1819 716 
Q 1809 928 1809 959 
Q 1809 1016 1816 1134 
Q 1684 1119 1613 1119 
Q 1575 1119 1528 1122 
Q 1213 1138 1172 1138 
Q 1131 1138 972 1116 
L 650 1134 
L 475 1125 
L 356 1144 
L 206 1113 
L 178 1134 
Q 172 1203 172 1238 
Q 172 1272 178 1341 
Q 266 1456 500 1809 
L 1109 2694 
Q 1334 3028 1487 3225 
Q 1641 3422 1791 3648 
Q 1941 3875 2097 4075 
z
M 1816 1422 
L 1819 1934 
L 1816 2341 
L 1816 3388 
Q 1559 3050 1103 2366 
Q 581 1584 484 1422 
Q 622 1428 691 1428 
L 1547 1416 
Q 1641 1416 1816 1422 
z
" transform="scale(0.015625)"/>
      </defs>
      <use xlink:href="#Garamond-34"/>
      <use xlink:href="#Garamond-30" transform="translate(46.875 0)"/>
     </g>
    </g>
    <g id="line2d_168">
     <path d="M 146.459334 178.358433 
L 155.459334 178.358433 
L 164.459334 178.358433 
" style="fill: none; stroke: #0019a8; stroke-width: 0.8; stroke-linecap: square"/>
    </g>
    <g id="text_39">
     <!-- 110 -->
     <g transform="translate(171.659334 181.508433) scale(0.09 -0.09)">
      <use xlink:href="#Garamond-31"/>
      <use xlink:href="#Garamond-31" transform="translate(46.875 0)"/>
      <use xlink:href="#Garamond-30" transform="translate(93.75 0)"/>
     </g>
    </g>
   </g>
  </g>
 </g>
 <defs>
  <clipPath id="p08af8368a5">
   <rect x="29.959615" y="3.114132" width="169.239905" height="96.182294"/>
  </clipPath>
  <clipPath id="p51b7711b63">
   <rect x="238.159855" y="3.114132" width="169.239905" height="96.182294"/>
  </clipPath>
  <clipPath id="p5dc6798aa6">
   <rect x="133.859334" y="130.034683" width="169.640706" height="96.410077"/>
  </clipPath>
 </defs>
</svg>
